<?xml version="1.0" encoding="UTF-8" ?>
<svg version="1.1" width="50" height="50" xmlns="http://www.w3.org/2000/svg" shape-rendering="crispEdges">
<rect x="10" y="10" width="1" height="1" fill="#FFFFFF" />
<rect x="11" y="10" width="1" height="1" fill="#FFFFFF" />
<rect x="12" y="10" width="1" height="1" fill="#FFFFFF" />
<rect x="13" y="10" width="1" height="1" fill="#FFFFFF" />
<rect x="14" y="10" width="1" height="1" fill="#FFFFFF" />
<rect x="15" y="10" width="1" height="1" fill="#FFFFFF" />
<rect x="34" y="10" width="1" height="1" fill="#FFFFFF" />
<rect x="35" y="10" width="1" height="1" fill="#FFFFFF" />
<rect x="36" y="10" width="1" height="1" fill="#FFFFFF" />
<rect x="37" y="10" width="1" height="1" fill="#FFFFFF" />
<rect x="38" y="10" width="1" height="1" fill="#FFFFFF" />
<rect x="39" y="10" width="1" height="1" fill="#FFFFFF" />
<rect x="10" y="11" width="1" height="1" fill="#FFFFFF" />
<rect x="11" y="11" width="1" height="1" fill="#FFFFFF" />
<rect x="12" y="11" width="1" height="1" fill="#FFFFFF" />
<rect x="13" y="11" width="1" height="1" fill="#FFFFFF" />
<rect x="14" y="11" width="1" height="1" fill="#FFFFFF" />
<rect x="15" y="11" width="1" height="1" fill="#FFFFFF" />
<rect x="34" y="11" width="1" height="1" fill="#FFFFFF" />
<rect x="35" y="11" width="1" height="1" fill="#FFFFFF" />
<rect x="36" y="11" width="1" height="1" fill="#FFFFFF" />
<rect x="37" y="11" width="1" height="1" fill="#FFFFFF" />
<rect x="38" y="11" width="1" height="1" fill="#FFFFFF" />
<rect x="39" y="11" width="1" height="1" fill="#FFFFFF" />
<rect x="10" y="12" width="1" height="1" fill="#FFFFFF" />
<rect x="11" y="12" width="1" height="1" fill="#FFFFFF" />
<rect x="12" y="12" width="1" height="1" fill="#FFFFFF" />
<rect x="13" y="12" width="1" height="1" fill="#FFFFFF" />
<rect x="14" y="12" width="1" height="1" fill="#FFFFFF" />
<rect x="15" y="12" width="1" height="1" fill="#FFFFFF" />
<rect x="34" y="12" width="1" height="1" fill="#FFFFFF" />
<rect x="35" y="12" width="1" height="1" fill="#FFFFFF" />
<rect x="36" y="12" width="1" height="1" fill="#FFFFFF" />
<rect x="37" y="12" width="1" height="1" fill="#FFFFFF" />
<rect x="38" y="12" width="1" height="1" fill="#FFFFFF" />
<rect x="39" y="12" width="1" height="1" fill="#FFFFFF" />
<rect x="10" y="13" width="1" height="1" fill="#FFFFFF" />
<rect x="11" y="13" width="1" height="1" fill="#FFFFFF" />
<rect x="12" y="13" width="1" height="1" fill="#FFFFFF" />
<rect x="13" y="13" width="1" height="1" fill="#FFFFFF" />
<rect x="14" y="13" width="1" height="1" fill="#FFFFFF" />
<rect x="15" y="13" width="1" height="1" fill="#FFFFFF" />
<rect x="34" y="13" width="1" height="1" fill="#FFFFFF" />
<rect x="35" y="13" width="1" height="1" fill="#FFFFFF" />
<rect x="36" y="13" width="1" height="1" fill="#FFFFFF" />
<rect x="37" y="13" width="1" height="1" fill="#FFFFFF" />
<rect x="38" y="13" width="1" height="1" fill="#FFFFFF" />
<rect x="39" y="13" width="1" height="1" fill="#FFFFFF" />
<rect x="10" y="14" width="1" height="1" fill="#FFFFFF" />
<rect x="11" y="14" width="1" height="1" fill="#FFFFFF" />
<rect x="12" y="14" width="1" height="1" fill="#FFFFFF" />
<rect x="13" y="14" width="1" height="1" fill="#FFFFFF" />
<rect x="14" y="14" width="1" height="1" fill="#FFFFFF" />
<rect x="15" y="14" width="1" height="1" fill="#FFFFFF" />
<rect x="34" y="14" width="1" height="1" fill="#FFFFFF" />
<rect x="35" y="14" width="1" height="1" fill="#FFFFFF" />
<rect x="36" y="14" width="1" height="1" fill="#FFFFFF" />
<rect x="37" y="14" width="1" height="1" fill="#FFFFFF" />
<rect x="38" y="14" width="1" height="1" fill="#FFFFFF" />
<rect x="39" y="14" width="1" height="1" fill="#FFFFFF" />
<rect x="10" y="15" width="1" height="1" fill="#FFFFFF" />
<rect x="11" y="15" width="1" height="1" fill="#FFFFFF" />
<rect x="12" y="15" width="1" height="1" fill="#FFFFFF" />
<rect x="13" y="15" width="1" height="1" fill="#FFFFFF" />
<rect x="14" y="15" width="1" height="1" fill="#FFFFFF" />
<rect x="15" y="15" width="1" height="1" fill="#FFFFFF" />
<rect x="34" y="15" width="1" height="1" fill="#FFFFFF" />
<rect x="35" y="15" width="1" height="1" fill="#FFFFFF" />
<rect x="36" y="15" width="1" height="1" fill="#FFFFFF" />
<rect x="37" y="15" width="1" height="1" fill="#FFFFFF" />
<rect x="38" y="15" width="1" height="1" fill="#FFFFFF" />
<rect x="39" y="15" width="1" height="1" fill="#FFFFFF" />
<rect x="16" y="16" width="1" height="1" fill="#FFFFFF" />
<rect x="17" y="16" width="1" height="1" fill="#FFFFFF" />
<rect x="18" y="16" width="1" height="1" fill="#FFFFFF" />
<rect x="19" y="16" width="1" height="1" fill="#FFFFFF" />
<rect x="20" y="16" width="1" height="1" fill="#FFFFFF" />
<rect x="21" y="16" width="1" height="1" fill="#FFFFFF" />
<rect x="28" y="16" width="1" height="1" fill="#FFFFFF" />
<rect x="29" y="16" width="1" height="1" fill="#FFFFFF" />
<rect x="30" y="16" width="1" height="1" fill="#FFFFFF" />
<rect x="31" y="16" width="1" height="1" fill="#FFFFFF" />
<rect x="32" y="16" width="1" height="1" fill="#FFFFFF" />
<rect x="33" y="16" width="1" height="1" fill="#FFFFFF" />
<rect x="16" y="17" width="1" height="1" fill="#FFFFFF" />
<rect x="17" y="17" width="1" height="1" fill="#FFFFFF" />
<rect x="18" y="17" width="1" height="1" fill="#FFFFFF" />
<rect x="19" y="17" width="1" height="1" fill="#FFFFFF" />
<rect x="20" y="17" width="1" height="1" fill="#FFFFFF" />
<rect x="21" y="17" width="1" height="1" fill="#FFFFFF" />
<rect x="28" y="17" width="1" height="1" fill="#FFFFFF" />
<rect x="29" y="17" width="1" height="1" fill="#FFFFFF" />
<rect x="30" y="17" width="1" height="1" fill="#FFFFFF" />
<rect x="31" y="17" width="1" height="1" fill="#FFFFFF" />
<rect x="32" y="17" width="1" height="1" fill="#FFFFFF" />
<rect x="33" y="17" width="1" height="1" fill="#FFFFFF" />
<rect x="16" y="18" width="1" height="1" fill="#FFFFFF" />
<rect x="17" y="18" width="1" height="1" fill="#FFFFFF" />
<rect x="18" y="18" width="1" height="1" fill="#FFFFFF" />
<rect x="19" y="18" width="1" height="1" fill="#FFFFFF" />
<rect x="20" y="18" width="1" height="1" fill="#FFFFFF" />
<rect x="21" y="18" width="1" height="1" fill="#FFFFFF" />
<rect x="28" y="18" width="1" height="1" fill="#FFFFFF" />
<rect x="29" y="18" width="1" height="1" fill="#FFFFFF" />
<rect x="30" y="18" width="1" height="1" fill="#FFFFFF" />
<rect x="31" y="18" width="1" height="1" fill="#FFFFFF" />
<rect x="32" y="18" width="1" height="1" fill="#FFFFFF" />
<rect x="33" y="18" width="1" height="1" fill="#FFFFFF" />
<rect x="16" y="19" width="1" height="1" fill="#FFFFFF" />
<rect x="17" y="19" width="1" height="1" fill="#FFFFFF" />
<rect x="18" y="19" width="1" height="1" fill="#FFFFFF" />
<rect x="19" y="19" width="1" height="1" fill="#FFFFFF" />
<rect x="20" y="19" width="1" height="1" fill="#FFFFFF" />
<rect x="21" y="19" width="1" height="1" fill="#FFFFFF" />
<rect x="28" y="19" width="1" height="1" fill="#FFFFFF" />
<rect x="29" y="19" width="1" height="1" fill="#FFFFFF" />
<rect x="30" y="19" width="1" height="1" fill="#FFFFFF" />
<rect x="31" y="19" width="1" height="1" fill="#FFFFFF" />
<rect x="32" y="19" width="1" height="1" fill="#FFFFFF" />
<rect x="33" y="19" width="1" height="1" fill="#FFFFFF" />
<rect x="16" y="20" width="1" height="1" fill="#FFFFFF" />
<rect x="17" y="20" width="1" height="1" fill="#FFFFFF" />
<rect x="18" y="20" width="1" height="1" fill="#FFFFFF" />
<rect x="19" y="20" width="1" height="1" fill="#FFFFFF" />
<rect x="20" y="20" width="1" height="1" fill="#FFFFFF" />
<rect x="21" y="20" width="1" height="1" fill="#FFFFFF" />
<rect x="28" y="20" width="1" height="1" fill="#FFFFFF" />
<rect x="29" y="20" width="1" height="1" fill="#FFFFFF" />
<rect x="30" y="20" width="1" height="1" fill="#FFFFFF" />
<rect x="31" y="20" width="1" height="1" fill="#FFFFFF" />
<rect x="32" y="20" width="1" height="1" fill="#FFFFFF" />
<rect x="33" y="20" width="1" height="1" fill="#FFFFFF" />
<rect x="16" y="21" width="1" height="1" fill="#FFFFFF" />
<rect x="17" y="21" width="1" height="1" fill="#FFFFFF" />
<rect x="18" y="21" width="1" height="1" fill="#FFFFFF" />
<rect x="19" y="21" width="1" height="1" fill="#FFFFFF" />
<rect x="20" y="21" width="1" height="1" fill="#FFFFFF" />
<rect x="21" y="21" width="1" height="1" fill="#FFFFFF" />
<rect x="28" y="21" width="1" height="1" fill="#FFFFFF" />
<rect x="29" y="21" width="1" height="1" fill="#FFFFFF" />
<rect x="30" y="21" width="1" height="1" fill="#FFFFFF" />
<rect x="31" y="21" width="1" height="1" fill="#FFFFFF" />
<rect x="32" y="21" width="1" height="1" fill="#FFFFFF" />
<rect x="33" y="21" width="1" height="1" fill="#FFFFFF" />
<rect x="22" y="22" width="1" height="1" fill="#FFFFFF" />
<rect x="23" y="22" width="1" height="1" fill="#FFFFFF" />
<rect x="24" y="22" width="1" height="1" fill="#FFFFFF" />
<rect x="25" y="22" width="1" height="1" fill="#FFFFFF" />
<rect x="26" y="22" width="1" height="1" fill="#FFFFFF" />
<rect x="27" y="22" width="1" height="1" fill="#FFFFFF" />
<rect x="22" y="23" width="1" height="1" fill="#FFFFFF" />
<rect x="23" y="23" width="1" height="1" fill="#FFFFFF" />
<rect x="24" y="23" width="1" height="1" fill="#FFFFFF" />
<rect x="25" y="23" width="1" height="1" fill="#FFFFFF" />
<rect x="26" y="23" width="1" height="1" fill="#FFFFFF" />
<rect x="27" y="23" width="1" height="1" fill="#FFFFFF" />
<rect x="22" y="24" width="1" height="1" fill="#FFFFFF" />
<rect x="23" y="24" width="1" height="1" fill="#FFFFFF" />
<rect x="24" y="24" width="1" height="1" fill="#FFFFFF" />
<rect x="25" y="24" width="1" height="1" fill="#FFFFFF" />
<rect x="26" y="24" width="1" height="1" fill="#FFFFFF" />
<rect x="27" y="24" width="1" height="1" fill="#FFFFFF" />
<rect x="22" y="25" width="1" height="1" fill="#FFFFFF" />
<rect x="23" y="25" width="1" height="1" fill="#FFFFFF" />
<rect x="24" y="25" width="1" height="1" fill="#FFFFFF" />
<rect x="25" y="25" width="1" height="1" fill="#FFFFFF" />
<rect x="26" y="25" width="1" height="1" fill="#FFFFFF" />
<rect x="27" y="25" width="1" height="1" fill="#FFFFFF" />
<rect x="22" y="26" width="1" height="1" fill="#FFFFFF" />
<rect x="23" y="26" width="1" height="1" fill="#FFFFFF" />
<rect x="24" y="26" width="1" height="1" fill="#FFFFFF" />
<rect x="25" y="26" width="1" height="1" fill="#FFFFFF" />
<rect x="26" y="26" width="1" height="1" fill="#FFFFFF" />
<rect x="27" y="26" width="1" height="1" fill="#FFFFFF" />
<rect x="22" y="27" width="1" height="1" fill="#FFFFFF" />
<rect x="23" y="27" width="1" height="1" fill="#FFFFFF" />
<rect x="24" y="27" width="1" height="1" fill="#FFFFFF" />
<rect x="25" y="27" width="1" height="1" fill="#FFFFFF" />
<rect x="26" y="27" width="1" height="1" fill="#FFFFFF" />
<rect x="27" y="27" width="1" height="1" fill="#FFFFFF" />
<rect x="16" y="28" width="1" height="1" fill="#FFFFFF" />
<rect x="17" y="28" width="1" height="1" fill="#FFFFFF" />
<rect x="18" y="28" width="1" height="1" fill="#FFFFFF" />
<rect x="19" y="28" width="1" height="1" fill="#FFFFFF" />
<rect x="20" y="28" width="1" height="1" fill="#FFFFFF" />
<rect x="21" y="28" width="1" height="1" fill="#FFFFFF" />
<rect x="28" y="28" width="1" height="1" fill="#FFFFFF" />
<rect x="29" y="28" width="1" height="1" fill="#FFFFFF" />
<rect x="30" y="28" width="1" height="1" fill="#FFFFFF" />
<rect x="31" y="28" width="1" height="1" fill="#FFFFFF" />
<rect x="32" y="28" width="1" height="1" fill="#FFFFFF" />
<rect x="33" y="28" width="1" height="1" fill="#FFFFFF" />
<rect x="16" y="29" width="1" height="1" fill="#FFFFFF" />
<rect x="17" y="29" width="1" height="1" fill="#FFFFFF" />
<rect x="18" y="29" width="1" height="1" fill="#FFFFFF" />
<rect x="19" y="29" width="1" height="1" fill="#FFFFFF" />
<rect x="20" y="29" width="1" height="1" fill="#FFFFFF" />
<rect x="21" y="29" width="1" height="1" fill="#FFFFFF" />
<rect x="28" y="29" width="1" height="1" fill="#FFFFFF" />
<rect x="29" y="29" width="1" height="1" fill="#FFFFFF" />
<rect x="30" y="29" width="1" height="1" fill="#FFFFFF" />
<rect x="31" y="29" width="1" height="1" fill="#FFFFFF" />
<rect x="32" y="29" width="1" height="1" fill="#FFFFFF" />
<rect x="33" y="29" width="1" height="1" fill="#FFFFFF" />
<rect x="16" y="30" width="1" height="1" fill="#FFFFFF" />
<rect x="17" y="30" width="1" height="1" fill="#FFFFFF" />
<rect x="18" y="30" width="1" height="1" fill="#FFFFFF" />
<rect x="19" y="30" width="1" height="1" fill="#FFFFFF" />
<rect x="20" y="30" width="1" height="1" fill="#FFFFFF" />
<rect x="21" y="30" width="1" height="1" fill="#FFFFFF" />
<rect x="28" y="30" width="1" height="1" fill="#FFFFFF" />
<rect x="29" y="30" width="1" height="1" fill="#FFFFFF" />
<rect x="30" y="30" width="1" height="1" fill="#FFFFFF" />
<rect x="31" y="30" width="1" height="1" fill="#FFFFFF" />
<rect x="32" y="30" width="1" height="1" fill="#FFFFFF" />
<rect x="33" y="30" width="1" height="1" fill="#FFFFFF" />
<rect x="16" y="31" width="1" height="1" fill="#FFFFFF" />
<rect x="17" y="31" width="1" height="1" fill="#FFFFFF" />
<rect x="18" y="31" width="1" height="1" fill="#FFFFFF" />
<rect x="19" y="31" width="1" height="1" fill="#FFFFFF" />
<rect x="20" y="31" width="1" height="1" fill="#FFFFFF" />
<rect x="21" y="31" width="1" height="1" fill="#FFFFFF" />
<rect x="28" y="31" width="1" height="1" fill="#FFFFFF" />
<rect x="29" y="31" width="1" height="1" fill="#FFFFFF" />
<rect x="30" y="31" width="1" height="1" fill="#FFFFFF" />
<rect x="31" y="31" width="1" height="1" fill="#FFFFFF" />
<rect x="32" y="31" width="1" height="1" fill="#FFFFFF" />
<rect x="33" y="31" width="1" height="1" fill="#FFFFFF" />
<rect x="16" y="32" width="1" height="1" fill="#FFFFFF" />
<rect x="17" y="32" width="1" height="1" fill="#FFFFFF" />
<rect x="18" y="32" width="1" height="1" fill="#FFFFFF" />
<rect x="19" y="32" width="1" height="1" fill="#FFFFFF" />
<rect x="20" y="32" width="1" height="1" fill="#FFFFFF" />
<rect x="21" y="32" width="1" height="1" fill="#FFFFFF" />
<rect x="28" y="32" width="1" height="1" fill="#FFFFFF" />
<rect x="29" y="32" width="1" height="1" fill="#FFFFFF" />
<rect x="30" y="32" width="1" height="1" fill="#FFFFFF" />
<rect x="31" y="32" width="1" height="1" fill="#FFFFFF" />
<rect x="32" y="32" width="1" height="1" fill="#FFFFFF" />
<rect x="33" y="32" width="1" height="1" fill="#FFFFFF" />
<rect x="16" y="33" width="1" height="1" fill="#FFFFFF" />
<rect x="17" y="33" width="1" height="1" fill="#FFFFFF" />
<rect x="18" y="33" width="1" height="1" fill="#FFFFFF" />
<rect x="19" y="33" width="1" height="1" fill="#FFFFFF" />
<rect x="20" y="33" width="1" height="1" fill="#FFFFFF" />
<rect x="21" y="33" width="1" height="1" fill="#FFFFFF" />
<rect x="28" y="33" width="1" height="1" fill="#FFFFFF" />
<rect x="29" y="33" width="1" height="1" fill="#FFFFFF" />
<rect x="30" y="33" width="1" height="1" fill="#FFFFFF" />
<rect x="31" y="33" width="1" height="1" fill="#FFFFFF" />
<rect x="32" y="33" width="1" height="1" fill="#FFFFFF" />
<rect x="33" y="33" width="1" height="1" fill="#FFFFFF" />
<rect x="10" y="34" width="1" height="1" fill="#FFFFFF" />
<rect x="11" y="34" width="1" height="1" fill="#FFFFFF" />
<rect x="12" y="34" width="1" height="1" fill="#FFFFFF" />
<rect x="13" y="34" width="1" height="1" fill="#FFFFFF" />
<rect x="14" y="34" width="1" height="1" fill="#FFFFFF" />
<rect x="15" y="34" width="1" height="1" fill="#FFFFFF" />
<rect x="34" y="34" width="1" height="1" fill="#FFFFFF" />
<rect x="35" y="34" width="1" height="1" fill="#FFFFFF" />
<rect x="36" y="34" width="1" height="1" fill="#FFFFFF" />
<rect x="37" y="34" width="1" height="1" fill="#FFFFFF" />
<rect x="38" y="34" width="1" height="1" fill="#FFFFFF" />
<rect x="39" y="34" width="1" height="1" fill="#FFFFFF" />
<rect x="10" y="35" width="1" height="1" fill="#FFFFFF" />
<rect x="11" y="35" width="1" height="1" fill="#FFFFFF" />
<rect x="12" y="35" width="1" height="1" fill="#FFFFFF" />
<rect x="13" y="35" width="1" height="1" fill="#FFFFFF" />
<rect x="14" y="35" width="1" height="1" fill="#FFFFFF" />
<rect x="15" y="35" width="1" height="1" fill="#FFFFFF" />
<rect x="34" y="35" width="1" height="1" fill="#FFFFFF" />
<rect x="35" y="35" width="1" height="1" fill="#FFFFFF" />
<rect x="36" y="35" width="1" height="1" fill="#FFFFFF" />
<rect x="37" y="35" width="1" height="1" fill="#FFFFFF" />
<rect x="38" y="35" width="1" height="1" fill="#FFFFFF" />
<rect x="39" y="35" width="1" height="1" fill="#FFFFFF" />
<rect x="10" y="36" width="1" height="1" fill="#FFFFFF" />
<rect x="11" y="36" width="1" height="1" fill="#FFFFFF" />
<rect x="12" y="36" width="1" height="1" fill="#FFFFFF" />
<rect x="13" y="36" width="1" height="1" fill="#FFFFFF" />
<rect x="14" y="36" width="1" height="1" fill="#FFFFFF" />
<rect x="15" y="36" width="1" height="1" fill="#FFFFFF" />
<rect x="34" y="36" width="1" height="1" fill="#FFFFFF" />
<rect x="35" y="36" width="1" height="1" fill="#FFFFFF" />
<rect x="36" y="36" width="1" height="1" fill="#FFFFFF" />
<rect x="37" y="36" width="1" height="1" fill="#FFFFFF" />
<rect x="38" y="36" width="1" height="1" fill="#FFFFFF" />
<rect x="39" y="36" width="1" height="1" fill="#FFFFFF" />
<rect x="10" y="37" width="1" height="1" fill="#FFFFFF" />
<rect x="11" y="37" width="1" height="1" fill="#FFFFFF" />
<rect x="12" y="37" width="1" height="1" fill="#FFFFFF" />
<rect x="13" y="37" width="1" height="1" fill="#FFFFFF" />
<rect x="14" y="37" width="1" height="1" fill="#FFFFFF" />
<rect x="15" y="37" width="1" height="1" fill="#FFFFFF" />
<rect x="34" y="37" width="1" height="1" fill="#FFFFFF" />
<rect x="35" y="37" width="1" height="1" fill="#FFFFFF" />
<rect x="36" y="37" width="1" height="1" fill="#FFFFFF" />
<rect x="37" y="37" width="1" height="1" fill="#FFFFFF" />
<rect x="38" y="37" width="1" height="1" fill="#FFFFFF" />
<rect x="39" y="37" width="1" height="1" fill="#FFFFFF" />
<rect x="10" y="38" width="1" height="1" fill="#FFFFFF" />
<rect x="11" y="38" width="1" height="1" fill="#FFFFFF" />
<rect x="12" y="38" width="1" height="1" fill="#FFFFFF" />
<rect x="13" y="38" width="1" height="1" fill="#FFFFFF" />
<rect x="14" y="38" width="1" height="1" fill="#FFFFFF" />
<rect x="15" y="38" width="1" height="1" fill="#FFFFFF" />
<rect x="34" y="38" width="1" height="1" fill="#FFFFFF" />
<rect x="35" y="38" width="1" height="1" fill="#FFFFFF" />
<rect x="36" y="38" width="1" height="1" fill="#FFFFFF" />
<rect x="37" y="38" width="1" height="1" fill="#FFFFFF" />
<rect x="38" y="38" width="1" height="1" fill="#FFFFFF" />
<rect x="39" y="38" width="1" height="1" fill="#FFFFFF" />
<rect x="10" y="39" width="1" height="1" fill="#FFFFFF" />
<rect x="11" y="39" width="1" height="1" fill="#FFFFFF" />
<rect x="12" y="39" width="1" height="1" fill="#FFFFFF" />
<rect x="13" y="39" width="1" height="1" fill="#FFFFFF" />
<rect x="14" y="39" width="1" height="1" fill="#FFFFFF" />
<rect x="15" y="39" width="1" height="1" fill="#FFFFFF" />
<rect x="34" y="39" width="1" height="1" fill="#FFFFFF" />
<rect x="35" y="39" width="1" height="1" fill="#FFFFFF" />
<rect x="36" y="39" width="1" height="1" fill="#FFFFFF" />
<rect x="37" y="39" width="1" height="1" fill="#FFFFFF" />
<rect x="38" y="39" width="1" height="1" fill="#FFFFFF" />
<rect x="39" y="39" width="1" height="1" fill="#FFFFFF" />
</svg>