<?xml version="1.0" encoding="UTF-8" ?>
<svg version="1.1" width="100" height="100" xmlns="http://www.w3.org/2000/svg" shape-rendering="crispEdges">
<rect x="20" y="20" width="2" height="2" fill="#FFFFFF" />
<rect x="22" y="20" width="2" height="2" fill="#FFFFFF" />
<rect x="24" y="20" width="2" height="2" fill="#FFFFFF" />
<rect x="26" y="20" width="2" height="2" fill="#FFFFFF" />
<rect x="28" y="20" width="2" height="2" fill="#FFFFFF" />
<rect x="30" y="20" width="2" height="2" fill="#FFFFFF" />
<rect x="68" y="20" width="2" height="2" fill="#FFFFFF" />
<rect x="70" y="20" width="2" height="2" fill="#FFFFFF" />
<rect x="72" y="20" width="2" height="2" fill="#FFFFFF" />
<rect x="74" y="20" width="2" height="2" fill="#FFFFFF" />
<rect x="76" y="20" width="2" height="2" fill="#FFFFFF" />
<rect x="78" y="20" width="2" height="2" fill="#FFFFFF" />
<rect x="20" y="22" width="2" height="2" fill="#FFFFFF" />
<rect x="22" y="22" width="2" height="2" fill="#FFFFFF" />
<rect x="24" y="22" width="2" height="2" fill="#FFFFFF" />
<rect x="26" y="22" width="2" height="2" fill="#FFFFFF" />
<rect x="28" y="22" width="2" height="2" fill="#FFFFFF" />
<rect x="30" y="22" width="2" height="2" fill="#FFFFFF" />
<rect x="68" y="22" width="2" height="2" fill="#FFFFFF" />
<rect x="70" y="22" width="2" height="2" fill="#FFFFFF" />
<rect x="72" y="22" width="2" height="2" fill="#FFFFFF" />
<rect x="74" y="22" width="2" height="2" fill="#FFFFFF" />
<rect x="76" y="22" width="2" height="2" fill="#FFFFFF" />
<rect x="78" y="22" width="2" height="2" fill="#FFFFFF" />
<rect x="20" y="24" width="2" height="2" fill="#FFFFFF" />
<rect x="22" y="24" width="2" height="2" fill="#FFFFFF" />
<rect x="24" y="24" width="2" height="2" fill="#FFFFFF" />
<rect x="26" y="24" width="2" height="2" fill="#FFFFFF" />
<rect x="28" y="24" width="2" height="2" fill="#FFFFFF" />
<rect x="30" y="24" width="2" height="2" fill="#FFFFFF" />
<rect x="68" y="24" width="2" height="2" fill="#FFFFFF" />
<rect x="70" y="24" width="2" height="2" fill="#FFFFFF" />
<rect x="72" y="24" width="2" height="2" fill="#FFFFFF" />
<rect x="74" y="24" width="2" height="2" fill="#FFFFFF" />
<rect x="76" y="24" width="2" height="2" fill="#FFFFFF" />
<rect x="78" y="24" width="2" height="2" fill="#FFFFFF" />
<rect x="20" y="26" width="2" height="2" fill="#FFFFFF" />
<rect x="22" y="26" width="2" height="2" fill="#FFFFFF" />
<rect x="24" y="26" width="2" height="2" fill="#FFFFFF" />
<rect x="26" y="26" width="2" height="2" fill="#FFFFFF" />
<rect x="28" y="26" width="2" height="2" fill="#FFFFFF" />
<rect x="30" y="26" width="2" height="2" fill="#FFFFFF" />
<rect x="68" y="26" width="2" height="2" fill="#FFFFFF" />
<rect x="70" y="26" width="2" height="2" fill="#FFFFFF" />
<rect x="72" y="26" width="2" height="2" fill="#FFFFFF" />
<rect x="74" y="26" width="2" height="2" fill="#FFFFFF" />
<rect x="76" y="26" width="2" height="2" fill="#FFFFFF" />
<rect x="78" y="26" width="2" height="2" fill="#FFFFFF" />
<rect x="20" y="28" width="2" height="2" fill="#FFFFFF" />
<rect x="22" y="28" width="2" height="2" fill="#FFFFFF" />
<rect x="24" y="28" width="2" height="2" fill="#FFFFFF" />
<rect x="26" y="28" width="2" height="2" fill="#FFFFFF" />
<rect x="28" y="28" width="2" height="2" fill="#FFFFFF" />
<rect x="30" y="28" width="2" height="2" fill="#FFFFFF" />
<rect x="68" y="28" width="2" height="2" fill="#FFFFFF" />
<rect x="70" y="28" width="2" height="2" fill="#FFFFFF" />
<rect x="72" y="28" width="2" height="2" fill="#FFFFFF" />
<rect x="74" y="28" width="2" height="2" fill="#FFFFFF" />
<rect x="76" y="28" width="2" height="2" fill="#FFFFFF" />
<rect x="78" y="28" width="2" height="2" fill="#FFFFFF" />
<rect x="20" y="30" width="2" height="2" fill="#FFFFFF" />
<rect x="22" y="30" width="2" height="2" fill="#FFFFFF" />
<rect x="24" y="30" width="2" height="2" fill="#FFFFFF" />
<rect x="26" y="30" width="2" height="2" fill="#FFFFFF" />
<rect x="28" y="30" width="2" height="2" fill="#FFFFFF" />
<rect x="30" y="30" width="2" height="2" fill="#FFFFFF" />
<rect x="68" y="30" width="2" height="2" fill="#FFFFFF" />
<rect x="70" y="30" width="2" height="2" fill="#FFFFFF" />
<rect x="72" y="30" width="2" height="2" fill="#FFFFFF" />
<rect x="74" y="30" width="2" height="2" fill="#FFFFFF" />
<rect x="76" y="30" width="2" height="2" fill="#FFFFFF" />
<rect x="78" y="30" width="2" height="2" fill="#FFFFFF" />
<rect x="32" y="32" width="2" height="2" fill="#FFFFFF" />
<rect x="34" y="32" width="2" height="2" fill="#FFFFFF" />
<rect x="36" y="32" width="2" height="2" fill="#FFFFFF" />
<rect x="38" y="32" width="2" height="2" fill="#FFFFFF" />
<rect x="40" y="32" width="2" height="2" fill="#FFFFFF" />
<rect x="42" y="32" width="2" height="2" fill="#FFFFFF" />
<rect x="56" y="32" width="2" height="2" fill="#FFFFFF" />
<rect x="58" y="32" width="2" height="2" fill="#FFFFFF" />
<rect x="60" y="32" width="2" height="2" fill="#FFFFFF" />
<rect x="62" y="32" width="2" height="2" fill="#FFFFFF" />
<rect x="64" y="32" width="2" height="2" fill="#FFFFFF" />
<rect x="66" y="32" width="2" height="2" fill="#FFFFFF" />
<rect x="32" y="34" width="2" height="2" fill="#FFFFFF" />
<rect x="34" y="34" width="2" height="2" fill="#FFFFFF" />
<rect x="36" y="34" width="2" height="2" fill="#FFFFFF" />
<rect x="38" y="34" width="2" height="2" fill="#FFFFFF" />
<rect x="40" y="34" width="2" height="2" fill="#FFFFFF" />
<rect x="42" y="34" width="2" height="2" fill="#FFFFFF" />
<rect x="56" y="34" width="2" height="2" fill="#FFFFFF" />
<rect x="58" y="34" width="2" height="2" fill="#FFFFFF" />
<rect x="60" y="34" width="2" height="2" fill="#FFFFFF" />
<rect x="62" y="34" width="2" height="2" fill="#FFFFFF" />
<rect x="64" y="34" width="2" height="2" fill="#FFFFFF" />
<rect x="66" y="34" width="2" height="2" fill="#FFFFFF" />
<rect x="32" y="36" width="2" height="2" fill="#FFFFFF" />
<rect x="34" y="36" width="2" height="2" fill="#FFFFFF" />
<rect x="36" y="36" width="2" height="2" fill="#FFFFFF" />
<rect x="38" y="36" width="2" height="2" fill="#FFFFFF" />
<rect x="40" y="36" width="2" height="2" fill="#FFFFFF" />
<rect x="42" y="36" width="2" height="2" fill="#FFFFFF" />
<rect x="56" y="36" width="2" height="2" fill="#FFFFFF" />
<rect x="58" y="36" width="2" height="2" fill="#FFFFFF" />
<rect x="60" y="36" width="2" height="2" fill="#FFFFFF" />
<rect x="62" y="36" width="2" height="2" fill="#FFFFFF" />
<rect x="64" y="36" width="2" height="2" fill="#FFFFFF" />
<rect x="66" y="36" width="2" height="2" fill="#FFFFFF" />
<rect x="32" y="38" width="2" height="2" fill="#FFFFFF" />
<rect x="34" y="38" width="2" height="2" fill="#FFFFFF" />
<rect x="36" y="38" width="2" height="2" fill="#FFFFFF" />
<rect x="38" y="38" width="2" height="2" fill="#FFFFFF" />
<rect x="40" y="38" width="2" height="2" fill="#FFFFFF" />
<rect x="42" y="38" width="2" height="2" fill="#FFFFFF" />
<rect x="56" y="38" width="2" height="2" fill="#FFFFFF" />
<rect x="58" y="38" width="2" height="2" fill="#FFFFFF" />
<rect x="60" y="38" width="2" height="2" fill="#FFFFFF" />
<rect x="62" y="38" width="2" height="2" fill="#FFFFFF" />
<rect x="64" y="38" width="2" height="2" fill="#FFFFFF" />
<rect x="66" y="38" width="2" height="2" fill="#FFFFFF" />
<rect x="32" y="40" width="2" height="2" fill="#FFFFFF" />
<rect x="34" y="40" width="2" height="2" fill="#FFFFFF" />
<rect x="36" y="40" width="2" height="2" fill="#FFFFFF" />
<rect x="38" y="40" width="2" height="2" fill="#FFFFFF" />
<rect x="40" y="40" width="2" height="2" fill="#FFFFFF" />
<rect x="42" y="40" width="2" height="2" fill="#FFFFFF" />
<rect x="56" y="40" width="2" height="2" fill="#FFFFFF" />
<rect x="58" y="40" width="2" height="2" fill="#FFFFFF" />
<rect x="60" y="40" width="2" height="2" fill="#FFFFFF" />
<rect x="62" y="40" width="2" height="2" fill="#FFFFFF" />
<rect x="64" y="40" width="2" height="2" fill="#FFFFFF" />
<rect x="66" y="40" width="2" height="2" fill="#FFFFFF" />
<rect x="32" y="42" width="2" height="2" fill="#FFFFFF" />
<rect x="34" y="42" width="2" height="2" fill="#FFFFFF" />
<rect x="36" y="42" width="2" height="2" fill="#FFFFFF" />
<rect x="38" y="42" width="2" height="2" fill="#FFFFFF" />
<rect x="40" y="42" width="2" height="2" fill="#FFFFFF" />
<rect x="42" y="42" width="2" height="2" fill="#FFFFFF" />
<rect x="56" y="42" width="2" height="2" fill="#FFFFFF" />
<rect x="58" y="42" width="2" height="2" fill="#FFFFFF" />
<rect x="60" y="42" width="2" height="2" fill="#FFFFFF" />
<rect x="62" y="42" width="2" height="2" fill="#FFFFFF" />
<rect x="64" y="42" width="2" height="2" fill="#FFFFFF" />
<rect x="66" y="42" width="2" height="2" fill="#FFFFFF" />
<rect x="44" y="44" width="2" height="2" fill="#FFFFFF" />
<rect x="46" y="44" width="2" height="2" fill="#FFFFFF" />
<rect x="48" y="44" width="2" height="2" fill="#FFFFFF" />
<rect x="50" y="44" width="2" height="2" fill="#FFFFFF" />
<rect x="52" y="44" width="2" height="2" fill="#FFFFFF" />
<rect x="54" y="44" width="2" height="2" fill="#FFFFFF" />
<rect x="44" y="46" width="2" height="2" fill="#FFFFFF" />
<rect x="46" y="46" width="2" height="2" fill="#FFFFFF" />
<rect x="48" y="46" width="2" height="2" fill="#FFFFFF" />
<rect x="50" y="46" width="2" height="2" fill="#FFFFFF" />
<rect x="52" y="46" width="2" height="2" fill="#FFFFFF" />
<rect x="54" y="46" width="2" height="2" fill="#FFFFFF" />
<rect x="44" y="48" width="2" height="2" fill="#FFFFFF" />
<rect x="46" y="48" width="2" height="2" fill="#FFFFFF" />
<rect x="48" y="48" width="2" height="2" fill="#FFFFFF" />
<rect x="50" y="48" width="2" height="2" fill="#FFFFFF" />
<rect x="52" y="48" width="2" height="2" fill="#FFFFFF" />
<rect x="54" y="48" width="2" height="2" fill="#FFFFFF" />
<rect x="44" y="50" width="2" height="2" fill="#FFFFFF" />
<rect x="46" y="50" width="2" height="2" fill="#FFFFFF" />
<rect x="48" y="50" width="2" height="2" fill="#FFFFFF" />
<rect x="50" y="50" width="2" height="2" fill="#FFFFFF" />
<rect x="52" y="50" width="2" height="2" fill="#FFFFFF" />
<rect x="54" y="50" width="2" height="2" fill="#FFFFFF" />
<rect x="44" y="52" width="2" height="2" fill="#FFFFFF" />
<rect x="46" y="52" width="2" height="2" fill="#FFFFFF" />
<rect x="48" y="52" width="2" height="2" fill="#FFFFFF" />
<rect x="50" y="52" width="2" height="2" fill="#FFFFFF" />
<rect x="52" y="52" width="2" height="2" fill="#FFFFFF" />
<rect x="54" y="52" width="2" height="2" fill="#FFFFFF" />
<rect x="44" y="54" width="2" height="2" fill="#FFFFFF" />
<rect x="46" y="54" width="2" height="2" fill="#FFFFFF" />
<rect x="48" y="54" width="2" height="2" fill="#FFFFFF" />
<rect x="50" y="54" width="2" height="2" fill="#FFFFFF" />
<rect x="52" y="54" width="2" height="2" fill="#FFFFFF" />
<rect x="54" y="54" width="2" height="2" fill="#FFFFFF" />
<rect x="32" y="56" width="2" height="2" fill="#FFFFFF" />
<rect x="34" y="56" width="2" height="2" fill="#FFFFFF" />
<rect x="36" y="56" width="2" height="2" fill="#FFFFFF" />
<rect x="38" y="56" width="2" height="2" fill="#FFFFFF" />
<rect x="40" y="56" width="2" height="2" fill="#FFFFFF" />
<rect x="42" y="56" width="2" height="2" fill="#FFFFFF" />
<rect x="56" y="56" width="2" height="2" fill="#FFFFFF" />
<rect x="58" y="56" width="2" height="2" fill="#FFFFFF" />
<rect x="60" y="56" width="2" height="2" fill="#FFFFFF" />
<rect x="62" y="56" width="2" height="2" fill="#FFFFFF" />
<rect x="64" y="56" width="2" height="2" fill="#FFFFFF" />
<rect x="66" y="56" width="2" height="2" fill="#FFFFFF" />
<rect x="32" y="58" width="2" height="2" fill="#FFFFFF" />
<rect x="34" y="58" width="2" height="2" fill="#FFFFFF" />
<rect x="36" y="58" width="2" height="2" fill="#FFFFFF" />
<rect x="38" y="58" width="2" height="2" fill="#FFFFFF" />
<rect x="40" y="58" width="2" height="2" fill="#FFFFFF" />
<rect x="42" y="58" width="2" height="2" fill="#FFFFFF" />
<rect x="56" y="58" width="2" height="2" fill="#FFFFFF" />
<rect x="58" y="58" width="2" height="2" fill="#FFFFFF" />
<rect x="60" y="58" width="2" height="2" fill="#FFFFFF" />
<rect x="62" y="58" width="2" height="2" fill="#FFFFFF" />
<rect x="64" y="58" width="2" height="2" fill="#FFFFFF" />
<rect x="66" y="58" width="2" height="2" fill="#FFFFFF" />
<rect x="32" y="60" width="2" height="2" fill="#FFFFFF" />
<rect x="34" y="60" width="2" height="2" fill="#FFFFFF" />
<rect x="36" y="60" width="2" height="2" fill="#FFFFFF" />
<rect x="38" y="60" width="2" height="2" fill="#FFFFFF" />
<rect x="40" y="60" width="2" height="2" fill="#FFFFFF" />
<rect x="42" y="60" width="2" height="2" fill="#FFFFFF" />
<rect x="56" y="60" width="2" height="2" fill="#FFFFFF" />
<rect x="58" y="60" width="2" height="2" fill="#FFFFFF" />
<rect x="60" y="60" width="2" height="2" fill="#FFFFFF" />
<rect x="62" y="60" width="2" height="2" fill="#FFFFFF" />
<rect x="64" y="60" width="2" height="2" fill="#FFFFFF" />
<rect x="66" y="60" width="2" height="2" fill="#FFFFFF" />
<rect x="32" y="62" width="2" height="2" fill="#FFFFFF" />
<rect x="34" y="62" width="2" height="2" fill="#FFFFFF" />
<rect x="36" y="62" width="2" height="2" fill="#FFFFFF" />
<rect x="38" y="62" width="2" height="2" fill="#FFFFFF" />
<rect x="40" y="62" width="2" height="2" fill="#FFFFFF" />
<rect x="42" y="62" width="2" height="2" fill="#FFFFFF" />
<rect x="56" y="62" width="2" height="2" fill="#FFFFFF" />
<rect x="58" y="62" width="2" height="2" fill="#FFFFFF" />
<rect x="60" y="62" width="2" height="2" fill="#FFFFFF" />
<rect x="62" y="62" width="2" height="2" fill="#FFFFFF" />
<rect x="64" y="62" width="2" height="2" fill="#FFFFFF" />
<rect x="66" y="62" width="2" height="2" fill="#FFFFFF" />
<rect x="32" y="64" width="2" height="2" fill="#FFFFFF" />
<rect x="34" y="64" width="2" height="2" fill="#FFFFFF" />
<rect x="36" y="64" width="2" height="2" fill="#FFFFFF" />
<rect x="38" y="64" width="2" height="2" fill="#FFFFFF" />
<rect x="40" y="64" width="2" height="2" fill="#FFFFFF" />
<rect x="42" y="64" width="2" height="2" fill="#FFFFFF" />
<rect x="56" y="64" width="2" height="2" fill="#FFFFFF" />
<rect x="58" y="64" width="2" height="2" fill="#FFFFFF" />
<rect x="60" y="64" width="2" height="2" fill="#FFFFFF" />
<rect x="62" y="64" width="2" height="2" fill="#FFFFFF" />
<rect x="64" y="64" width="2" height="2" fill="#FFFFFF" />
<rect x="66" y="64" width="2" height="2" fill="#FFFFFF" />
<rect x="32" y="66" width="2" height="2" fill="#FFFFFF" />
<rect x="34" y="66" width="2" height="2" fill="#FFFFFF" />
<rect x="36" y="66" width="2" height="2" fill="#FFFFFF" />
<rect x="38" y="66" width="2" height="2" fill="#FFFFFF" />
<rect x="40" y="66" width="2" height="2" fill="#FFFFFF" />
<rect x="42" y="66" width="2" height="2" fill="#FFFFFF" />
<rect x="56" y="66" width="2" height="2" fill="#FFFFFF" />
<rect x="58" y="66" width="2" height="2" fill="#FFFFFF" />
<rect x="60" y="66" width="2" height="2" fill="#FFFFFF" />
<rect x="62" y="66" width="2" height="2" fill="#FFFFFF" />
<rect x="64" y="66" width="2" height="2" fill="#FFFFFF" />
<rect x="66" y="66" width="2" height="2" fill="#FFFFFF" />
<rect x="20" y="68" width="2" height="2" fill="#FFFFFF" />
<rect x="22" y="68" width="2" height="2" fill="#FFFFFF" />
<rect x="24" y="68" width="2" height="2" fill="#FFFFFF" />
<rect x="26" y="68" width="2" height="2" fill="#FFFFFF" />
<rect x="28" y="68" width="2" height="2" fill="#FFFFFF" />
<rect x="30" y="68" width="2" height="2" fill="#FFFFFF" />
<rect x="68" y="68" width="2" height="2" fill="#FFFFFF" />
<rect x="70" y="68" width="2" height="2" fill="#FFFFFF" />
<rect x="72" y="68" width="2" height="2" fill="#FFFFFF" />
<rect x="74" y="68" width="2" height="2" fill="#FFFFFF" />
<rect x="76" y="68" width="2" height="2" fill="#FFFFFF" />
<rect x="78" y="68" width="2" height="2" fill="#FFFFFF" />
<rect x="20" y="70" width="2" height="2" fill="#FFFFFF" />
<rect x="22" y="70" width="2" height="2" fill="#FFFFFF" />
<rect x="24" y="70" width="2" height="2" fill="#FFFFFF" />
<rect x="26" y="70" width="2" height="2" fill="#FFFFFF" />
<rect x="28" y="70" width="2" height="2" fill="#FFFFFF" />
<rect x="30" y="70" width="2" height="2" fill="#FFFFFF" />
<rect x="68" y="70" width="2" height="2" fill="#FFFFFF" />
<rect x="70" y="70" width="2" height="2" fill="#FFFFFF" />
<rect x="72" y="70" width="2" height="2" fill="#FFFFFF" />
<rect x="74" y="70" width="2" height="2" fill="#FFFFFF" />
<rect x="76" y="70" width="2" height="2" fill="#FFFFFF" />
<rect x="78" y="70" width="2" height="2" fill="#FFFFFF" />
<rect x="20" y="72" width="2" height="2" fill="#FFFFFF" />
<rect x="22" y="72" width="2" height="2" fill="#FFFFFF" />
<rect x="24" y="72" width="2" height="2" fill="#FFFFFF" />
<rect x="26" y="72" width="2" height="2" fill="#FFFFFF" />
<rect x="28" y="72" width="2" height="2" fill="#FFFFFF" />
<rect x="30" y="72" width="2" height="2" fill="#FFFFFF" />
<rect x="68" y="72" width="2" height="2" fill="#FFFFFF" />
<rect x="70" y="72" width="2" height="2" fill="#FFFFFF" />
<rect x="72" y="72" width="2" height="2" fill="#FFFFFF" />
<rect x="74" y="72" width="2" height="2" fill="#FFFFFF" />
<rect x="76" y="72" width="2" height="2" fill="#FFFFFF" />
<rect x="78" y="72" width="2" height="2" fill="#FFFFFF" />
<rect x="20" y="74" width="2" height="2" fill="#FFFFFF" />
<rect x="22" y="74" width="2" height="2" fill="#FFFFFF" />
<rect x="24" y="74" width="2" height="2" fill="#FFFFFF" />
<rect x="26" y="74" width="2" height="2" fill="#FFFFFF" />
<rect x="28" y="74" width="2" height="2" fill="#FFFFFF" />
<rect x="30" y="74" width="2" height="2" fill="#FFFFFF" />
<rect x="68" y="74" width="2" height="2" fill="#FFFFFF" />
<rect x="70" y="74" width="2" height="2" fill="#FFFFFF" />
<rect x="72" y="74" width="2" height="2" fill="#FFFFFF" />
<rect x="74" y="74" width="2" height="2" fill="#FFFFFF" />
<rect x="76" y="74" width="2" height="2" fill="#FFFFFF" />
<rect x="78" y="74" width="2" height="2" fill="#FFFFFF" />
<rect x="20" y="76" width="2" height="2" fill="#FFFFFF" />
<rect x="22" y="76" width="2" height="2" fill="#FFFFFF" />
<rect x="24" y="76" width="2" height="2" fill="#FFFFFF" />
<rect x="26" y="76" width="2" height="2" fill="#FFFFFF" />
<rect x="28" y="76" width="2" height="2" fill="#FFFFFF" />
<rect x="30" y="76" width="2" height="2" fill="#FFFFFF" />
<rect x="68" y="76" width="2" height="2" fill="#FFFFFF" />
<rect x="70" y="76" width="2" height="2" fill="#FFFFFF" />
<rect x="72" y="76" width="2" height="2" fill="#FFFFFF" />
<rect x="74" y="76" width="2" height="2" fill="#FFFFFF" />
<rect x="76" y="76" width="2" height="2" fill="#FFFFFF" />
<rect x="78" y="76" width="2" height="2" fill="#FFFFFF" />
<rect x="20" y="78" width="2" height="2" fill="#FFFFFF" />
<rect x="22" y="78" width="2" height="2" fill="#FFFFFF" />
<rect x="24" y="78" width="2" height="2" fill="#FFFFFF" />
<rect x="26" y="78" width="2" height="2" fill="#FFFFFF" />
<rect x="28" y="78" width="2" height="2" fill="#FFFFFF" />
<rect x="30" y="78" width="2" height="2" fill="#FFFFFF" />
<rect x="68" y="78" width="2" height="2" fill="#FFFFFF" />
<rect x="70" y="78" width="2" height="2" fill="#FFFFFF" />
<rect x="72" y="78" width="2" height="2" fill="#FFFFFF" />
<rect x="74" y="78" width="2" height="2" fill="#FFFFFF" />
<rect x="76" y="78" width="2" height="2" fill="#FFFFFF" />
<rect x="78" y="78" width="2" height="2" fill="#FFFFFF" />
</svg>