<?xml version="1.0" encoding="UTF-8" ?>
<svg version="1.1" width="150" height="150" xmlns="http://www.w3.org/2000/svg" shape-rendering="crispEdges">
<rect x="30" y="30" width="3" height="3" fill="#FFFFFF" />
<rect x="33" y="30" width="3" height="3" fill="#FFFFFF" />
<rect x="36" y="30" width="3" height="3" fill="#FFFFFF" />
<rect x="39" y="30" width="3" height="3" fill="#FFFFFF" />
<rect x="42" y="30" width="3" height="3" fill="#FFFFFF" />
<rect x="45" y="30" width="3" height="3" fill="#FFFFFF" />
<rect x="102" y="30" width="3" height="3" fill="#FFFFFF" />
<rect x="105" y="30" width="3" height="3" fill="#FFFFFF" />
<rect x="108" y="30" width="3" height="3" fill="#FFFFFF" />
<rect x="111" y="30" width="3" height="3" fill="#FFFFFF" />
<rect x="114" y="30" width="3" height="3" fill="#FFFFFF" />
<rect x="117" y="30" width="3" height="3" fill="#FFFFFF" />
<rect x="30" y="33" width="3" height="3" fill="#FFFFFF" />
<rect x="33" y="33" width="3" height="3" fill="#FFFFFF" />
<rect x="36" y="33" width="3" height="3" fill="#FFFFFF" />
<rect x="39" y="33" width="3" height="3" fill="#FFFFFF" />
<rect x="42" y="33" width="3" height="3" fill="#FFFFFF" />
<rect x="45" y="33" width="3" height="3" fill="#FFFFFF" />
<rect x="102" y="33" width="3" height="3" fill="#FFFFFF" />
<rect x="105" y="33" width="3" height="3" fill="#FFFFFF" />
<rect x="108" y="33" width="3" height="3" fill="#FFFFFF" />
<rect x="111" y="33" width="3" height="3" fill="#FFFFFF" />
<rect x="114" y="33" width="3" height="3" fill="#FFFFFF" />
<rect x="117" y="33" width="3" height="3" fill="#FFFFFF" />
<rect x="30" y="36" width="3" height="3" fill="#FFFFFF" />
<rect x="33" y="36" width="3" height="3" fill="#FFFFFF" />
<rect x="36" y="36" width="3" height="3" fill="#FFFFFF" />
<rect x="39" y="36" width="3" height="3" fill="#FFFFFF" />
<rect x="42" y="36" width="3" height="3" fill="#FFFFFF" />
<rect x="45" y="36" width="3" height="3" fill="#FFFFFF" />
<rect x="102" y="36" width="3" height="3" fill="#FFFFFF" />
<rect x="105" y="36" width="3" height="3" fill="#FFFFFF" />
<rect x="108" y="36" width="3" height="3" fill="#FFFFFF" />
<rect x="111" y="36" width="3" height="3" fill="#FFFFFF" />
<rect x="114" y="36" width="3" height="3" fill="#FFFFFF" />
<rect x="117" y="36" width="3" height="3" fill="#FFFFFF" />
<rect x="30" y="39" width="3" height="3" fill="#FFFFFF" />
<rect x="33" y="39" width="3" height="3" fill="#FFFFFF" />
<rect x="36" y="39" width="3" height="3" fill="#FFFFFF" />
<rect x="39" y="39" width="3" height="3" fill="#FFFFFF" />
<rect x="42" y="39" width="3" height="3" fill="#FFFFFF" />
<rect x="45" y="39" width="3" height="3" fill="#FFFFFF" />
<rect x="102" y="39" width="3" height="3" fill="#FFFFFF" />
<rect x="105" y="39" width="3" height="3" fill="#FFFFFF" />
<rect x="108" y="39" width="3" height="3" fill="#FFFFFF" />
<rect x="111" y="39" width="3" height="3" fill="#FFFFFF" />
<rect x="114" y="39" width="3" height="3" fill="#FFFFFF" />
<rect x="117" y="39" width="3" height="3" fill="#FFFFFF" />
<rect x="30" y="42" width="3" height="3" fill="#FFFFFF" />
<rect x="33" y="42" width="3" height="3" fill="#FFFFFF" />
<rect x="36" y="42" width="3" height="3" fill="#FFFFFF" />
<rect x="39" y="42" width="3" height="3" fill="#FFFFFF" />
<rect x="42" y="42" width="3" height="3" fill="#FFFFFF" />
<rect x="45" y="42" width="3" height="3" fill="#FFFFFF" />
<rect x="102" y="42" width="3" height="3" fill="#FFFFFF" />
<rect x="105" y="42" width="3" height="3" fill="#FFFFFF" />
<rect x="108" y="42" width="3" height="3" fill="#FFFFFF" />
<rect x="111" y="42" width="3" height="3" fill="#FFFFFF" />
<rect x="114" y="42" width="3" height="3" fill="#FFFFFF" />
<rect x="117" y="42" width="3" height="3" fill="#FFFFFF" />
<rect x="30" y="45" width="3" height="3" fill="#FFFFFF" />
<rect x="33" y="45" width="3" height="3" fill="#FFFFFF" />
<rect x="36" y="45" width="3" height="3" fill="#FFFFFF" />
<rect x="39" y="45" width="3" height="3" fill="#FFFFFF" />
<rect x="42" y="45" width="3" height="3" fill="#FFFFFF" />
<rect x="45" y="45" width="3" height="3" fill="#FFFFFF" />
<rect x="102" y="45" width="3" height="3" fill="#FFFFFF" />
<rect x="105" y="45" width="3" height="3" fill="#FFFFFF" />
<rect x="108" y="45" width="3" height="3" fill="#FFFFFF" />
<rect x="111" y="45" width="3" height="3" fill="#FFFFFF" />
<rect x="114" y="45" width="3" height="3" fill="#FFFFFF" />
<rect x="117" y="45" width="3" height="3" fill="#FFFFFF" />
<rect x="48" y="48" width="3" height="3" fill="#FFFFFF" />
<rect x="51" y="48" width="3" height="3" fill="#FFFFFF" />
<rect x="54" y="48" width="3" height="3" fill="#FFFFFF" />
<rect x="57" y="48" width="3" height="3" fill="#FFFFFF" />
<rect x="60" y="48" width="3" height="3" fill="#FFFFFF" />
<rect x="63" y="48" width="3" height="3" fill="#FFFFFF" />
<rect x="84" y="48" width="3" height="3" fill="#FFFFFF" />
<rect x="87" y="48" width="3" height="3" fill="#FFFFFF" />
<rect x="90" y="48" width="3" height="3" fill="#FFFFFF" />
<rect x="93" y="48" width="3" height="3" fill="#FFFFFF" />
<rect x="96" y="48" width="3" height="3" fill="#FFFFFF" />
<rect x="99" y="48" width="3" height="3" fill="#FFFFFF" />
<rect x="48" y="51" width="3" height="3" fill="#FFFFFF" />
<rect x="51" y="51" width="3" height="3" fill="#FFFFFF" />
<rect x="54" y="51" width="3" height="3" fill="#FFFFFF" />
<rect x="57" y="51" width="3" height="3" fill="#FFFFFF" />
<rect x="60" y="51" width="3" height="3" fill="#FFFFFF" />
<rect x="63" y="51" width="3" height="3" fill="#FFFFFF" />
<rect x="84" y="51" width="3" height="3" fill="#FFFFFF" />
<rect x="87" y="51" width="3" height="3" fill="#FFFFFF" />
<rect x="90" y="51" width="3" height="3" fill="#FFFFFF" />
<rect x="93" y="51" width="3" height="3" fill="#FFFFFF" />
<rect x="96" y="51" width="3" height="3" fill="#FFFFFF" />
<rect x="99" y="51" width="3" height="3" fill="#FFFFFF" />
<rect x="48" y="54" width="3" height="3" fill="#FFFFFF" />
<rect x="51" y="54" width="3" height="3" fill="#FFFFFF" />
<rect x="54" y="54" width="3" height="3" fill="#FFFFFF" />
<rect x="57" y="54" width="3" height="3" fill="#FFFFFF" />
<rect x="60" y="54" width="3" height="3" fill="#FFFFFF" />
<rect x="63" y="54" width="3" height="3" fill="#FFFFFF" />
<rect x="84" y="54" width="3" height="3" fill="#FFFFFF" />
<rect x="87" y="54" width="3" height="3" fill="#FFFFFF" />
<rect x="90" y="54" width="3" height="3" fill="#FFFFFF" />
<rect x="93" y="54" width="3" height="3" fill="#FFFFFF" />
<rect x="96" y="54" width="3" height="3" fill="#FFFFFF" />
<rect x="99" y="54" width="3" height="3" fill="#FFFFFF" />
<rect x="48" y="57" width="3" height="3" fill="#FFFFFF" />
<rect x="51" y="57" width="3" height="3" fill="#FFFFFF" />
<rect x="54" y="57" width="3" height="3" fill="#FFFFFF" />
<rect x="57" y="57" width="3" height="3" fill="#FFFFFF" />
<rect x="60" y="57" width="3" height="3" fill="#FFFFFF" />
<rect x="63" y="57" width="3" height="3" fill="#FFFFFF" />
<rect x="84" y="57" width="3" height="3" fill="#FFFFFF" />
<rect x="87" y="57" width="3" height="3" fill="#FFFFFF" />
<rect x="90" y="57" width="3" height="3" fill="#FFFFFF" />
<rect x="93" y="57" width="3" height="3" fill="#FFFFFF" />
<rect x="96" y="57" width="3" height="3" fill="#FFFFFF" />
<rect x="99" y="57" width="3" height="3" fill="#FFFFFF" />
<rect x="48" y="60" width="3" height="3" fill="#FFFFFF" />
<rect x="51" y="60" width="3" height="3" fill="#FFFFFF" />
<rect x="54" y="60" width="3" height="3" fill="#FFFFFF" />
<rect x="57" y="60" width="3" height="3" fill="#FFFFFF" />
<rect x="60" y="60" width="3" height="3" fill="#FFFFFF" />
<rect x="63" y="60" width="3" height="3" fill="#FFFFFF" />
<rect x="84" y="60" width="3" height="3" fill="#FFFFFF" />
<rect x="87" y="60" width="3" height="3" fill="#FFFFFF" />
<rect x="90" y="60" width="3" height="3" fill="#FFFFFF" />
<rect x="93" y="60" width="3" height="3" fill="#FFFFFF" />
<rect x="96" y="60" width="3" height="3" fill="#FFFFFF" />
<rect x="99" y="60" width="3" height="3" fill="#FFFFFF" />
<rect x="48" y="63" width="3" height="3" fill="#FFFFFF" />
<rect x="51" y="63" width="3" height="3" fill="#FFFFFF" />
<rect x="54" y="63" width="3" height="3" fill="#FFFFFF" />
<rect x="57" y="63" width="3" height="3" fill="#FFFFFF" />
<rect x="60" y="63" width="3" height="3" fill="#FFFFFF" />
<rect x="63" y="63" width="3" height="3" fill="#FFFFFF" />
<rect x="84" y="63" width="3" height="3" fill="#FFFFFF" />
<rect x="87" y="63" width="3" height="3" fill="#FFFFFF" />
<rect x="90" y="63" width="3" height="3" fill="#FFFFFF" />
<rect x="93" y="63" width="3" height="3" fill="#FFFFFF" />
<rect x="96" y="63" width="3" height="3" fill="#FFFFFF" />
<rect x="99" y="63" width="3" height="3" fill="#FFFFFF" />
<rect x="66" y="66" width="3" height="3" fill="#FFFFFF" />
<rect x="69" y="66" width="3" height="3" fill="#FFFFFF" />
<rect x="72" y="66" width="3" height="3" fill="#FFFFFF" />
<rect x="75" y="66" width="3" height="3" fill="#FFFFFF" />
<rect x="78" y="66" width="3" height="3" fill="#FFFFFF" />
<rect x="81" y="66" width="3" height="3" fill="#FFFFFF" />
<rect x="66" y="69" width="3" height="3" fill="#FFFFFF" />
<rect x="69" y="69" width="3" height="3" fill="#FFFFFF" />
<rect x="72" y="69" width="3" height="3" fill="#FFFFFF" />
<rect x="75" y="69" width="3" height="3" fill="#FFFFFF" />
<rect x="78" y="69" width="3" height="3" fill="#FFFFFF" />
<rect x="81" y="69" width="3" height="3" fill="#FFFFFF" />
<rect x="66" y="72" width="3" height="3" fill="#FFFFFF" />
<rect x="69" y="72" width="3" height="3" fill="#FFFFFF" />
<rect x="72" y="72" width="3" height="3" fill="#FFFFFF" />
<rect x="75" y="72" width="3" height="3" fill="#FFFFFF" />
<rect x="78" y="72" width="3" height="3" fill="#FFFFFF" />
<rect x="81" y="72" width="3" height="3" fill="#FFFFFF" />
<rect x="66" y="75" width="3" height="3" fill="#FFFFFF" />
<rect x="69" y="75" width="3" height="3" fill="#FFFFFF" />
<rect x="72" y="75" width="3" height="3" fill="#FFFFFF" />
<rect x="75" y="75" width="3" height="3" fill="#FFFFFF" />
<rect x="78" y="75" width="3" height="3" fill="#FFFFFF" />
<rect x="81" y="75" width="3" height="3" fill="#FFFFFF" />
<rect x="66" y="78" width="3" height="3" fill="#FFFFFF" />
<rect x="69" y="78" width="3" height="3" fill="#FFFFFF" />
<rect x="72" y="78" width="3" height="3" fill="#FFFFFF" />
<rect x="75" y="78" width="3" height="3" fill="#FFFFFF" />
<rect x="78" y="78" width="3" height="3" fill="#FFFFFF" />
<rect x="81" y="78" width="3" height="3" fill="#FFFFFF" />
<rect x="66" y="81" width="3" height="3" fill="#FFFFFF" />
<rect x="69" y="81" width="3" height="3" fill="#FFFFFF" />
<rect x="72" y="81" width="3" height="3" fill="#FFFFFF" />
<rect x="75" y="81" width="3" height="3" fill="#FFFFFF" />
<rect x="78" y="81" width="3" height="3" fill="#FFFFFF" />
<rect x="81" y="81" width="3" height="3" fill="#FFFFFF" />
<rect x="48" y="84" width="3" height="3" fill="#FFFFFF" />
<rect x="51" y="84" width="3" height="3" fill="#FFFFFF" />
<rect x="54" y="84" width="3" height="3" fill="#FFFFFF" />
<rect x="57" y="84" width="3" height="3" fill="#FFFFFF" />
<rect x="60" y="84" width="3" height="3" fill="#FFFFFF" />
<rect x="63" y="84" width="3" height="3" fill="#FFFFFF" />
<rect x="84" y="84" width="3" height="3" fill="#FFFFFF" />
<rect x="87" y="84" width="3" height="3" fill="#FFFFFF" />
<rect x="90" y="84" width="3" height="3" fill="#FFFFFF" />
<rect x="93" y="84" width="3" height="3" fill="#FFFFFF" />
<rect x="96" y="84" width="3" height="3" fill="#FFFFFF" />
<rect x="99" y="84" width="3" height="3" fill="#FFFFFF" />
<rect x="48" y="87" width="3" height="3" fill="#FFFFFF" />
<rect x="51" y="87" width="3" height="3" fill="#FFFFFF" />
<rect x="54" y="87" width="3" height="3" fill="#FFFFFF" />
<rect x="57" y="87" width="3" height="3" fill="#FFFFFF" />
<rect x="60" y="87" width="3" height="3" fill="#FFFFFF" />
<rect x="63" y="87" width="3" height="3" fill="#FFFFFF" />
<rect x="84" y="87" width="3" height="3" fill="#FFFFFF" />
<rect x="87" y="87" width="3" height="3" fill="#FFFFFF" />
<rect x="90" y="87" width="3" height="3" fill="#FFFFFF" />
<rect x="93" y="87" width="3" height="3" fill="#FFFFFF" />
<rect x="96" y="87" width="3" height="3" fill="#FFFFFF" />
<rect x="99" y="87" width="3" height="3" fill="#FFFFFF" />
<rect x="48" y="90" width="3" height="3" fill="#FFFFFF" />
<rect x="51" y="90" width="3" height="3" fill="#FFFFFF" />
<rect x="54" y="90" width="3" height="3" fill="#FFFFFF" />
<rect x="57" y="90" width="3" height="3" fill="#FFFFFF" />
<rect x="60" y="90" width="3" height="3" fill="#FFFFFF" />
<rect x="63" y="90" width="3" height="3" fill="#FFFFFF" />
<rect x="84" y="90" width="3" height="3" fill="#FFFFFF" />
<rect x="87" y="90" width="3" height="3" fill="#FFFFFF" />
<rect x="90" y="90" width="3" height="3" fill="#FFFFFF" />
<rect x="93" y="90" width="3" height="3" fill="#FFFFFF" />
<rect x="96" y="90" width="3" height="3" fill="#FFFFFF" />
<rect x="99" y="90" width="3" height="3" fill="#FFFFFF" />
<rect x="48" y="93" width="3" height="3" fill="#FFFFFF" />
<rect x="51" y="93" width="3" height="3" fill="#FFFFFF" />
<rect x="54" y="93" width="3" height="3" fill="#FFFFFF" />
<rect x="57" y="93" width="3" height="3" fill="#FFFFFF" />
<rect x="60" y="93" width="3" height="3" fill="#FFFFFF" />
<rect x="63" y="93" width="3" height="3" fill="#FFFFFF" />
<rect x="84" y="93" width="3" height="3" fill="#FFFFFF" />
<rect x="87" y="93" width="3" height="3" fill="#FFFFFF" />
<rect x="90" y="93" width="3" height="3" fill="#FFFFFF" />
<rect x="93" y="93" width="3" height="3" fill="#FFFFFF" />
<rect x="96" y="93" width="3" height="3" fill="#FFFFFF" />
<rect x="99" y="93" width="3" height="3" fill="#FFFFFF" />
<rect x="48" y="96" width="3" height="3" fill="#FFFFFF" />
<rect x="51" y="96" width="3" height="3" fill="#FFFFFF" />
<rect x="54" y="96" width="3" height="3" fill="#FFFFFF" />
<rect x="57" y="96" width="3" height="3" fill="#FFFFFF" />
<rect x="60" y="96" width="3" height="3" fill="#FFFFFF" />
<rect x="63" y="96" width="3" height="3" fill="#FFFFFF" />
<rect x="84" y="96" width="3" height="3" fill="#FFFFFF" />
<rect x="87" y="96" width="3" height="3" fill="#FFFFFF" />
<rect x="90" y="96" width="3" height="3" fill="#FFFFFF" />
<rect x="93" y="96" width="3" height="3" fill="#FFFFFF" />
<rect x="96" y="96" width="3" height="3" fill="#FFFFFF" />
<rect x="99" y="96" width="3" height="3" fill="#FFFFFF" />
<rect x="48" y="99" width="3" height="3" fill="#FFFFFF" />
<rect x="51" y="99" width="3" height="3" fill="#FFFFFF" />
<rect x="54" y="99" width="3" height="3" fill="#FFFFFF" />
<rect x="57" y="99" width="3" height="3" fill="#FFFFFF" />
<rect x="60" y="99" width="3" height="3" fill="#FFFFFF" />
<rect x="63" y="99" width="3" height="3" fill="#FFFFFF" />
<rect x="84" y="99" width="3" height="3" fill="#FFFFFF" />
<rect x="87" y="99" width="3" height="3" fill="#FFFFFF" />
<rect x="90" y="99" width="3" height="3" fill="#FFFFFF" />
<rect x="93" y="99" width="3" height="3" fill="#FFFFFF" />
<rect x="96" y="99" width="3" height="3" fill="#FFFFFF" />
<rect x="99" y="99" width="3" height="3" fill="#FFFFFF" />
<rect x="30" y="102" width="3" height="3" fill="#FFFFFF" />
<rect x="33" y="102" width="3" height="3" fill="#FFFFFF" />
<rect x="36" y="102" width="3" height="3" fill="#FFFFFF" />
<rect x="39" y="102" width="3" height="3" fill="#FFFFFF" />
<rect x="42" y="102" width="3" height="3" fill="#FFFFFF" />
<rect x="45" y="102" width="3" height="3" fill="#FFFFFF" />
<rect x="102" y="102" width="3" height="3" fill="#FFFFFF" />
<rect x="105" y="102" width="3" height="3" fill="#FFFFFF" />
<rect x="108" y="102" width="3" height="3" fill="#FFFFFF" />
<rect x="111" y="102" width="3" height="3" fill="#FFFFFF" />
<rect x="114" y="102" width="3" height="3" fill="#FFFFFF" />
<rect x="117" y="102" width="3" height="3" fill="#FFFFFF" />
<rect x="30" y="105" width="3" height="3" fill="#FFFFFF" />
<rect x="33" y="105" width="3" height="3" fill="#FFFFFF" />
<rect x="36" y="105" width="3" height="3" fill="#FFFFFF" />
<rect x="39" y="105" width="3" height="3" fill="#FFFFFF" />
<rect x="42" y="105" width="3" height="3" fill="#FFFFFF" />
<rect x="45" y="105" width="3" height="3" fill="#FFFFFF" />
<rect x="102" y="105" width="3" height="3" fill="#FFFFFF" />
<rect x="105" y="105" width="3" height="3" fill="#FFFFFF" />
<rect x="108" y="105" width="3" height="3" fill="#FFFFFF" />
<rect x="111" y="105" width="3" height="3" fill="#FFFFFF" />
<rect x="114" y="105" width="3" height="3" fill="#FFFFFF" />
<rect x="117" y="105" width="3" height="3" fill="#FFFFFF" />
<rect x="30" y="108" width="3" height="3" fill="#FFFFFF" />
<rect x="33" y="108" width="3" height="3" fill="#FFFFFF" />
<rect x="36" y="108" width="3" height="3" fill="#FFFFFF" />
<rect x="39" y="108" width="3" height="3" fill="#FFFFFF" />
<rect x="42" y="108" width="3" height="3" fill="#FFFFFF" />
<rect x="45" y="108" width="3" height="3" fill="#FFFFFF" />
<rect x="102" y="108" width="3" height="3" fill="#FFFFFF" />
<rect x="105" y="108" width="3" height="3" fill="#FFFFFF" />
<rect x="108" y="108" width="3" height="3" fill="#FFFFFF" />
<rect x="111" y="108" width="3" height="3" fill="#FFFFFF" />
<rect x="114" y="108" width="3" height="3" fill="#FFFFFF" />
<rect x="117" y="108" width="3" height="3" fill="#FFFFFF" />
<rect x="30" y="111" width="3" height="3" fill="#FFFFFF" />
<rect x="33" y="111" width="3" height="3" fill="#FFFFFF" />
<rect x="36" y="111" width="3" height="3" fill="#FFFFFF" />
<rect x="39" y="111" width="3" height="3" fill="#FFFFFF" />
<rect x="42" y="111" width="3" height="3" fill="#FFFFFF" />
<rect x="45" y="111" width="3" height="3" fill="#FFFFFF" />
<rect x="102" y="111" width="3" height="3" fill="#FFFFFF" />
<rect x="105" y="111" width="3" height="3" fill="#FFFFFF" />
<rect x="108" y="111" width="3" height="3" fill="#FFFFFF" />
<rect x="111" y="111" width="3" height="3" fill="#FFFFFF" />
<rect x="114" y="111" width="3" height="3" fill="#FFFFFF" />
<rect x="117" y="111" width="3" height="3" fill="#FFFFFF" />
<rect x="30" y="114" width="3" height="3" fill="#FFFFFF" />
<rect x="33" y="114" width="3" height="3" fill="#FFFFFF" />
<rect x="36" y="114" width="3" height="3" fill="#FFFFFF" />
<rect x="39" y="114" width="3" height="3" fill="#FFFFFF" />
<rect x="42" y="114" width="3" height="3" fill="#FFFFFF" />
<rect x="45" y="114" width="3" height="3" fill="#FFFFFF" />
<rect x="102" y="114" width="3" height="3" fill="#FFFFFF" />
<rect x="105" y="114" width="3" height="3" fill="#FFFFFF" />
<rect x="108" y="114" width="3" height="3" fill="#FFFFFF" />
<rect x="111" y="114" width="3" height="3" fill="#FFFFFF" />
<rect x="114" y="114" width="3" height="3" fill="#FFFFFF" />
<rect x="117" y="114" width="3" height="3" fill="#FFFFFF" />
<rect x="30" y="117" width="3" height="3" fill="#FFFFFF" />
<rect x="33" y="117" width="3" height="3" fill="#FFFFFF" />
<rect x="36" y="117" width="3" height="3" fill="#FFFFFF" />
<rect x="39" y="117" width="3" height="3" fill="#FFFFFF" />
<rect x="42" y="117" width="3" height="3" fill="#FFFFFF" />
<rect x="45" y="117" width="3" height="3" fill="#FFFFFF" />
<rect x="102" y="117" width="3" height="3" fill="#FFFFFF" />
<rect x="105" y="117" width="3" height="3" fill="#FFFFFF" />
<rect x="108" y="117" width="3" height="3" fill="#FFFFFF" />
<rect x="111" y="117" width="3" height="3" fill="#FFFFFF" />
<rect x="114" y="117" width="3" height="3" fill="#FFFFFF" />
<rect x="117" y="117" width="3" height="3" fill="#FFFFFF" />
</svg>