<?xml version="1.0" encoding="UTF-8" ?>
<svg version="1.1" width="50" height="50" xmlns="http://www.w3.org/2000/svg" shape-rendering="crispEdges">
<rect x="32" y="6" width="1" height="1" fill="#FFFFFF" />
<rect x="33" y="6" width="1" height="1" fill="#FFFFFF" />
<rect x="34" y="6" width="1" height="1" fill="#FFFFFF" />
<rect x="35" y="6" width="1" height="1" fill="#FFFFFF" />
<rect x="32" y="7" width="1" height="1" fill="#FFFFFF" />
<rect x="33" y="7" width="1" height="1" fill="#FFFFFF" />
<rect x="34" y="7" width="1" height="1" fill="#FFFFFF" />
<rect x="35" y="7" width="1" height="1" fill="#FFFFFF" />
<rect x="30" y="8" width="1" height="1" fill="#FFFFFF" />
<rect x="31" y="8" width="1" height="1" fill="#FFFFFF" />
<rect x="32" y="8" width="1" height="1" fill="#FFFFFF" />
<rect x="33" y="8" width="1" height="1" fill="#FFFFFF" />
<rect x="34" y="8" width="1" height="1" fill="#FFFFFF" />
<rect x="35" y="8" width="1" height="1" fill="#FFFFFF" />
<rect x="36" y="8" width="1" height="1" fill="#FFFFFF" />
<rect x="37" y="8" width="1" height="1" fill="#FFFFFF" />
<rect x="30" y="9" width="1" height="1" fill="#FFFFFF" />
<rect x="31" y="9" width="1" height="1" fill="#FFFFFF" />
<rect x="32" y="9" width="1" height="1" fill="#FFFFFF" />
<rect x="33" y="9" width="1" height="1" fill="#FFFFFF" />
<rect x="34" y="9" width="1" height="1" fill="#FFFFFF" />
<rect x="35" y="9" width="1" height="1" fill="#FFFFFF" />
<rect x="36" y="9" width="1" height="1" fill="#FFFFFF" />
<rect x="37" y="9" width="1" height="1" fill="#FFFFFF" />
<rect x="28" y="10" width="1" height="1" fill="#FFFFFF" />
<rect x="29" y="10" width="1" height="1" fill="#FFFFFF" />
<rect x="30" y="10" width="1" height="1" fill="#FFFFFF" />
<rect x="31" y="10" width="1" height="1" fill="#FFFFFF" />
<rect x="32" y="10" width="1" height="1" fill="#FFFFFF" />
<rect x="33" y="10" width="1" height="1" fill="#FFFFFF" />
<rect x="34" y="10" width="1" height="1" fill="#FFFFFF" />
<rect x="35" y="10" width="1" height="1" fill="#FFFFFF" />
<rect x="36" y="10" width="1" height="1" fill="#FFFFFF" />
<rect x="37" y="10" width="1" height="1" fill="#FFFFFF" />
<rect x="38" y="10" width="1" height="1" fill="#FFFFFF" />
<rect x="39" y="10" width="1" height="1" fill="#FFFFFF" />
<rect x="28" y="11" width="1" height="1" fill="#FFFFFF" />
<rect x="29" y="11" width="1" height="1" fill="#FFFFFF" />
<rect x="30" y="11" width="1" height="1" fill="#FFFFFF" />
<rect x="31" y="11" width="1" height="1" fill="#FFFFFF" />
<rect x="32" y="11" width="1" height="1" fill="#FFFFFF" />
<rect x="33" y="11" width="1" height="1" fill="#FFFFFF" />
<rect x="34" y="11" width="1" height="1" fill="#FFFFFF" />
<rect x="35" y="11" width="1" height="1" fill="#FFFFFF" />
<rect x="36" y="11" width="1" height="1" fill="#FFFFFF" />
<rect x="37" y="11" width="1" height="1" fill="#FFFFFF" />
<rect x="38" y="11" width="1" height="1" fill="#FFFFFF" />
<rect x="39" y="11" width="1" height="1" fill="#FFFFFF" />
<rect x="26" y="12" width="1" height="1" fill="#FFFFFF" />
<rect x="27" y="12" width="1" height="1" fill="#FFFFFF" />
<rect x="30" y="12" width="1" height="1" fill="#FFFFFF" />
<rect x="31" y="12" width="1" height="1" fill="#FFFFFF" />
<rect x="32" y="12" width="1" height="1" fill="#FFFFFF" />
<rect x="33" y="12" width="1" height="1" fill="#FFFFFF" />
<rect x="34" y="12" width="1" height="1" fill="#FFFFFF" />
<rect x="35" y="12" width="1" height="1" fill="#FFFFFF" />
<rect x="36" y="12" width="1" height="1" fill="#FFFFFF" />
<rect x="37" y="12" width="1" height="1" fill="#FFFFFF" />
<rect x="38" y="12" width="1" height="1" fill="#FFFFFF" />
<rect x="39" y="12" width="1" height="1" fill="#FFFFFF" />
<rect x="26" y="13" width="1" height="1" fill="#FFFFFF" />
<rect x="27" y="13" width="1" height="1" fill="#FFFFFF" />
<rect x="30" y="13" width="1" height="1" fill="#FFFFFF" />
<rect x="31" y="13" width="1" height="1" fill="#FFFFFF" />
<rect x="32" y="13" width="1" height="1" fill="#FFFFFF" />
<rect x="33" y="13" width="1" height="1" fill="#FFFFFF" />
<rect x="34" y="13" width="1" height="1" fill="#FFFFFF" />
<rect x="35" y="13" width="1" height="1" fill="#FFFFFF" />
<rect x="36" y="13" width="1" height="1" fill="#FFFFFF" />
<rect x="37" y="13" width="1" height="1" fill="#FFFFFF" />
<rect x="38" y="13" width="1" height="1" fill="#FFFFFF" />
<rect x="39" y="13" width="1" height="1" fill="#FFFFFF" />
<rect x="24" y="14" width="1" height="1" fill="#FFFFFF" />
<rect x="25" y="14" width="1" height="1" fill="#FFFFFF" />
<rect x="26" y="14" width="1" height="1" fill="#FFFFFF" />
<rect x="27" y="14" width="1" height="1" fill="#FFFFFF" />
<rect x="28" y="14" width="1" height="1" fill="#FFFFFF" />
<rect x="29" y="14" width="1" height="1" fill="#FFFFFF" />
<rect x="32" y="14" width="1" height="1" fill="#FFFFFF" />
<rect x="33" y="14" width="1" height="1" fill="#FFFFFF" />
<rect x="34" y="14" width="1" height="1" fill="#FFFFFF" />
<rect x="35" y="14" width="1" height="1" fill="#FFFFFF" />
<rect x="36" y="14" width="1" height="1" fill="#FFFFFF" />
<rect x="37" y="14" width="1" height="1" fill="#FFFFFF" />
<rect x="24" y="15" width="1" height="1" fill="#FFFFFF" />
<rect x="25" y="15" width="1" height="1" fill="#FFFFFF" />
<rect x="26" y="15" width="1" height="1" fill="#FFFFFF" />
<rect x="27" y="15" width="1" height="1" fill="#FFFFFF" />
<rect x="28" y="15" width="1" height="1" fill="#FFFFFF" />
<rect x="29" y="15" width="1" height="1" fill="#FFFFFF" />
<rect x="32" y="15" width="1" height="1" fill="#FFFFFF" />
<rect x="33" y="15" width="1" height="1" fill="#FFFFFF" />
<rect x="34" y="15" width="1" height="1" fill="#FFFFFF" />
<rect x="35" y="15" width="1" height="1" fill="#FFFFFF" />
<rect x="36" y="15" width="1" height="1" fill="#FFFFFF" />
<rect x="37" y="15" width="1" height="1" fill="#FFFFFF" />
<rect x="22" y="16" width="1" height="1" fill="#FFFFFF" />
<rect x="23" y="16" width="1" height="1" fill="#FFFFFF" />
<rect x="26" y="16" width="1" height="1" fill="#FFFFFF" />
<rect x="27" y="16" width="1" height="1" fill="#FFFFFF" />
<rect x="28" y="16" width="1" height="1" fill="#FFFFFF" />
<rect x="29" y="16" width="1" height="1" fill="#FFFFFF" />
<rect x="30" y="16" width="1" height="1" fill="#FFFFFF" />
<rect x="31" y="16" width="1" height="1" fill="#FFFFFF" />
<rect x="34" y="16" width="1" height="1" fill="#FFFFFF" />
<rect x="35" y="16" width="1" height="1" fill="#FFFFFF" />
<rect x="22" y="17" width="1" height="1" fill="#FFFFFF" />
<rect x="23" y="17" width="1" height="1" fill="#FFFFFF" />
<rect x="26" y="17" width="1" height="1" fill="#FFFFFF" />
<rect x="27" y="17" width="1" height="1" fill="#FFFFFF" />
<rect x="28" y="17" width="1" height="1" fill="#FFFFFF" />
<rect x="29" y="17" width="1" height="1" fill="#FFFFFF" />
<rect x="30" y="17" width="1" height="1" fill="#FFFFFF" />
<rect x="31" y="17" width="1" height="1" fill="#FFFFFF" />
<rect x="34" y="17" width="1" height="1" fill="#FFFFFF" />
<rect x="35" y="17" width="1" height="1" fill="#FFFFFF" />
<rect x="20" y="18" width="1" height="1" fill="#FFFFFF" />
<rect x="21" y="18" width="1" height="1" fill="#FFFFFF" />
<rect x="24" y="18" width="1" height="1" fill="#FFFFFF" />
<rect x="25" y="18" width="1" height="1" fill="#FFFFFF" />
<rect x="26" y="18" width="1" height="1" fill="#FFFFFF" />
<rect x="27" y="18" width="1" height="1" fill="#FFFFFF" />
<rect x="28" y="18" width="1" height="1" fill="#FFFFFF" />
<rect x="29" y="18" width="1" height="1" fill="#FFFFFF" />
<rect x="30" y="18" width="1" height="1" fill="#FFFFFF" />
<rect x="31" y="18" width="1" height="1" fill="#FFFFFF" />
<rect x="32" y="18" width="1" height="1" fill="#FFFFFF" />
<rect x="33" y="18" width="1" height="1" fill="#FFFFFF" />
<rect x="20" y="19" width="1" height="1" fill="#FFFFFF" />
<rect x="21" y="19" width="1" height="1" fill="#FFFFFF" />
<rect x="24" y="19" width="1" height="1" fill="#FFFFFF" />
<rect x="25" y="19" width="1" height="1" fill="#FFFFFF" />
<rect x="26" y="19" width="1" height="1" fill="#FFFFFF" />
<rect x="27" y="19" width="1" height="1" fill="#FFFFFF" />
<rect x="28" y="19" width="1" height="1" fill="#FFFFFF" />
<rect x="29" y="19" width="1" height="1" fill="#FFFFFF" />
<rect x="30" y="19" width="1" height="1" fill="#FFFFFF" />
<rect x="31" y="19" width="1" height="1" fill="#FFFFFF" />
<rect x="32" y="19" width="1" height="1" fill="#FFFFFF" />
<rect x="33" y="19" width="1" height="1" fill="#FFFFFF" />
<rect x="18" y="20" width="1" height="1" fill="#FFFFFF" />
<rect x="19" y="20" width="1" height="1" fill="#FFFFFF" />
<rect x="22" y="20" width="1" height="1" fill="#FFFFFF" />
<rect x="23" y="20" width="1" height="1" fill="#FFFFFF" />
<rect x="24" y="20" width="1" height="1" fill="#FFFFFF" />
<rect x="25" y="20" width="1" height="1" fill="#FFFFFF" />
<rect x="26" y="20" width="1" height="1" fill="#FFFFFF" />
<rect x="27" y="20" width="1" height="1" fill="#FFFFFF" />
<rect x="28" y="20" width="1" height="1" fill="#FFFFFF" />
<rect x="29" y="20" width="1" height="1" fill="#FFFFFF" />
<rect x="30" y="20" width="1" height="1" fill="#FFFFFF" />
<rect x="31" y="20" width="1" height="1" fill="#FFFFFF" />
<rect x="18" y="21" width="1" height="1" fill="#FFFFFF" />
<rect x="19" y="21" width="1" height="1" fill="#FFFFFF" />
<rect x="22" y="21" width="1" height="1" fill="#FFFFFF" />
<rect x="23" y="21" width="1" height="1" fill="#FFFFFF" />
<rect x="24" y="21" width="1" height="1" fill="#FFFFFF" />
<rect x="25" y="21" width="1" height="1" fill="#FFFFFF" />
<rect x="26" y="21" width="1" height="1" fill="#FFFFFF" />
<rect x="27" y="21" width="1" height="1" fill="#FFFFFF" />
<rect x="28" y="21" width="1" height="1" fill="#FFFFFF" />
<rect x="29" y="21" width="1" height="1" fill="#FFFFFF" />
<rect x="30" y="21" width="1" height="1" fill="#FFFFFF" />
<rect x="31" y="21" width="1" height="1" fill="#FFFFFF" />
<rect x="16" y="22" width="1" height="1" fill="#FFFFFF" />
<rect x="17" y="22" width="1" height="1" fill="#FFFFFF" />
<rect x="20" y="22" width="1" height="1" fill="#FFFFFF" />
<rect x="21" y="22" width="1" height="1" fill="#FFFFFF" />
<rect x="22" y="22" width="1" height="1" fill="#FFFFFF" />
<rect x="23" y="22" width="1" height="1" fill="#FFFFFF" />
<rect x="24" y="22" width="1" height="1" fill="#FFFFFF" />
<rect x="25" y="22" width="1" height="1" fill="#FFFFFF" />
<rect x="26" y="22" width="1" height="1" fill="#FFFFFF" />
<rect x="27" y="22" width="1" height="1" fill="#FFFFFF" />
<rect x="28" y="22" width="1" height="1" fill="#FFFFFF" />
<rect x="29" y="22" width="1" height="1" fill="#FFFFFF" />
<rect x="16" y="23" width="1" height="1" fill="#FFFFFF" />
<rect x="17" y="23" width="1" height="1" fill="#FFFFFF" />
<rect x="20" y="23" width="1" height="1" fill="#FFFFFF" />
<rect x="21" y="23" width="1" height="1" fill="#FFFFFF" />
<rect x="22" y="23" width="1" height="1" fill="#FFFFFF" />
<rect x="23" y="23" width="1" height="1" fill="#FFFFFF" />
<rect x="24" y="23" width="1" height="1" fill="#FFFFFF" />
<rect x="25" y="23" width="1" height="1" fill="#FFFFFF" />
<rect x="26" y="23" width="1" height="1" fill="#FFFFFF" />
<rect x="27" y="23" width="1" height="1" fill="#FFFFFF" />
<rect x="28" y="23" width="1" height="1" fill="#FFFFFF" />
<rect x="29" y="23" width="1" height="1" fill="#FFFFFF" />
<rect x="14" y="24" width="1" height="1" fill="#FFFFFF" />
<rect x="15" y="24" width="1" height="1" fill="#FFFFFF" />
<rect x="18" y="24" width="1" height="1" fill="#FFFFFF" />
<rect x="19" y="24" width="1" height="1" fill="#FFFFFF" />
<rect x="20" y="24" width="1" height="1" fill="#FFFFFF" />
<rect x="21" y="24" width="1" height="1" fill="#FFFFFF" />
<rect x="22" y="24" width="1" height="1" fill="#FFFFFF" />
<rect x="23" y="24" width="1" height="1" fill="#FFFFFF" />
<rect x="24" y="24" width="1" height="1" fill="#FFFFFF" />
<rect x="25" y="24" width="1" height="1" fill="#FFFFFF" />
<rect x="26" y="24" width="1" height="1" fill="#FFFFFF" />
<rect x="27" y="24" width="1" height="1" fill="#FFFFFF" />
<rect x="14" y="25" width="1" height="1" fill="#FFFFFF" />
<rect x="15" y="25" width="1" height="1" fill="#FFFFFF" />
<rect x="18" y="25" width="1" height="1" fill="#FFFFFF" />
<rect x="19" y="25" width="1" height="1" fill="#FFFFFF" />
<rect x="20" y="25" width="1" height="1" fill="#FFFFFF" />
<rect x="21" y="25" width="1" height="1" fill="#FFFFFF" />
<rect x="22" y="25" width="1" height="1" fill="#FFFFFF" />
<rect x="23" y="25" width="1" height="1" fill="#FFFFFF" />
<rect x="24" y="25" width="1" height="1" fill="#FFFFFF" />
<rect x="25" y="25" width="1" height="1" fill="#FFFFFF" />
<rect x="26" y="25" width="1" height="1" fill="#FFFFFF" />
<rect x="27" y="25" width="1" height="1" fill="#FFFFFF" />
<rect x="12" y="26" width="1" height="1" fill="#FFFFFF" />
<rect x="13" y="26" width="1" height="1" fill="#FFFFFF" />
<rect x="16" y="26" width="1" height="1" fill="#FFFFFF" />
<rect x="17" y="26" width="1" height="1" fill="#FFFFFF" />
<rect x="18" y="26" width="1" height="1" fill="#FFFFFF" />
<rect x="19" y="26" width="1" height="1" fill="#FFFFFF" />
<rect x="20" y="26" width="1" height="1" fill="#FFFFFF" />
<rect x="21" y="26" width="1" height="1" fill="#FFFFFF" />
<rect x="22" y="26" width="1" height="1" fill="#FFFFFF" />
<rect x="23" y="26" width="1" height="1" fill="#FFFFFF" />
<rect x="24" y="26" width="1" height="1" fill="#FFFFFF" />
<rect x="25" y="26" width="1" height="1" fill="#FFFFFF" />
<rect x="12" y="27" width="1" height="1" fill="#FFFFFF" />
<rect x="13" y="27" width="1" height="1" fill="#FFFFFF" />
<rect x="16" y="27" width="1" height="1" fill="#FFFFFF" />
<rect x="17" y="27" width="1" height="1" fill="#FFFFFF" />
<rect x="18" y="27" width="1" height="1" fill="#FFFFFF" />
<rect x="19" y="27" width="1" height="1" fill="#FFFFFF" />
<rect x="20" y="27" width="1" height="1" fill="#FFFFFF" />
<rect x="21" y="27" width="1" height="1" fill="#FFFFFF" />
<rect x="22" y="27" width="1" height="1" fill="#FFFFFF" />
<rect x="23" y="27" width="1" height="1" fill="#FFFFFF" />
<rect x="24" y="27" width="1" height="1" fill="#FFFFFF" />
<rect x="25" y="27" width="1" height="1" fill="#FFFFFF" />
<rect x="10" y="28" width="1" height="1" fill="#FFFFFF" />
<rect x="11" y="28" width="1" height="1" fill="#FFFFFF" />
<rect x="14" y="28" width="1" height="1" fill="#FFFFFF" />
<rect x="15" y="28" width="1" height="1" fill="#FFFFFF" />
<rect x="16" y="28" width="1" height="1" fill="#FFFFFF" />
<rect x="17" y="28" width="1" height="1" fill="#FFFFFF" />
<rect x="18" y="28" width="1" height="1" fill="#FFFFFF" />
<rect x="19" y="28" width="1" height="1" fill="#FFFFFF" />
<rect x="20" y="28" width="1" height="1" fill="#FFFFFF" />
<rect x="21" y="28" width="1" height="1" fill="#FFFFFF" />
<rect x="22" y="28" width="1" height="1" fill="#FFFFFF" />
<rect x="23" y="28" width="1" height="1" fill="#FFFFFF" />
<rect x="10" y="29" width="1" height="1" fill="#FFFFFF" />
<rect x="11" y="29" width="1" height="1" fill="#FFFFFF" />
<rect x="14" y="29" width="1" height="1" fill="#FFFFFF" />
<rect x="15" y="29" width="1" height="1" fill="#FFFFFF" />
<rect x="16" y="29" width="1" height="1" fill="#FFFFFF" />
<rect x="17" y="29" width="1" height="1" fill="#FFFFFF" />
<rect x="18" y="29" width="1" height="1" fill="#FFFFFF" />
<rect x="19" y="29" width="1" height="1" fill="#FFFFFF" />
<rect x="20" y="29" width="1" height="1" fill="#FFFFFF" />
<rect x="21" y="29" width="1" height="1" fill="#FFFFFF" />
<rect x="22" y="29" width="1" height="1" fill="#FFFFFF" />
<rect x="23" y="29" width="1" height="1" fill="#FFFFFF" />
<rect x="8" y="30" width="1" height="1" fill="#FFFFFF" />
<rect x="9" y="30" width="1" height="1" fill="#FFFFFF" />
<rect x="12" y="30" width="1" height="1" fill="#FFFFFF" />
<rect x="13" y="30" width="1" height="1" fill="#FFFFFF" />
<rect x="14" y="30" width="1" height="1" fill="#FFFFFF" />
<rect x="15" y="30" width="1" height="1" fill="#FFFFFF" />
<rect x="16" y="30" width="1" height="1" fill="#FFFFFF" />
<rect x="17" y="30" width="1" height="1" fill="#FFFFFF" />
<rect x="18" y="30" width="1" height="1" fill="#FFFFFF" />
<rect x="19" y="30" width="1" height="1" fill="#FFFFFF" />
<rect x="20" y="30" width="1" height="1" fill="#FFFFFF" />
<rect x="21" y="30" width="1" height="1" fill="#FFFFFF" />
<rect x="8" y="31" width="1" height="1" fill="#FFFFFF" />
<rect x="9" y="31" width="1" height="1" fill="#FFFFFF" />
<rect x="12" y="31" width="1" height="1" fill="#FFFFFF" />
<rect x="13" y="31" width="1" height="1" fill="#FFFFFF" />
<rect x="14" y="31" width="1" height="1" fill="#FFFFFF" />
<rect x="15" y="31" width="1" height="1" fill="#FFFFFF" />
<rect x="16" y="31" width="1" height="1" fill="#FFFFFF" />
<rect x="17" y="31" width="1" height="1" fill="#FFFFFF" />
<rect x="18" y="31" width="1" height="1" fill="#FFFFFF" />
<rect x="19" y="31" width="1" height="1" fill="#FFFFFF" />
<rect x="20" y="31" width="1" height="1" fill="#FFFFFF" />
<rect x="21" y="31" width="1" height="1" fill="#FFFFFF" />
<rect x="6" y="32" width="1" height="1" fill="#FFFFFF" />
<rect x="7" y="32" width="1" height="1" fill="#FFFFFF" />
<rect x="10" y="32" width="1" height="1" fill="#FFFFFF" />
<rect x="11" y="32" width="1" height="1" fill="#FFFFFF" />
<rect x="12" y="32" width="1" height="1" fill="#FFFFFF" />
<rect x="13" y="32" width="1" height="1" fill="#FFFFFF" />
<rect x="14" y="32" width="1" height="1" fill="#FFFFFF" />
<rect x="15" y="32" width="1" height="1" fill="#FFFFFF" />
<rect x="16" y="32" width="1" height="1" fill="#FFFFFF" />
<rect x="17" y="32" width="1" height="1" fill="#FFFFFF" />
<rect x="18" y="32" width="1" height="1" fill="#FFFFFF" />
<rect x="19" y="32" width="1" height="1" fill="#FFFFFF" />
<rect x="6" y="33" width="1" height="1" fill="#FFFFFF" />
<rect x="7" y="33" width="1" height="1" fill="#FFFFFF" />
<rect x="10" y="33" width="1" height="1" fill="#FFFFFF" />
<rect x="11" y="33" width="1" height="1" fill="#FFFFFF" />
<rect x="12" y="33" width="1" height="1" fill="#FFFFFF" />
<rect x="13" y="33" width="1" height="1" fill="#FFFFFF" />
<rect x="14" y="33" width="1" height="1" fill="#FFFFFF" />
<rect x="15" y="33" width="1" height="1" fill="#FFFFFF" />
<rect x="16" y="33" width="1" height="1" fill="#FFFFFF" />
<rect x="17" y="33" width="1" height="1" fill="#FFFFFF" />
<rect x="18" y="33" width="1" height="1" fill="#FFFFFF" />
<rect x="19" y="33" width="1" height="1" fill="#FFFFFF" />
<rect x="6" y="34" width="1" height="1" fill="#FFFFFF" />
<rect x="7" y="34" width="1" height="1" fill="#FFFFFF" />
<rect x="8" y="34" width="1" height="1" fill="#FFFFFF" />
<rect x="9" y="34" width="1" height="1" fill="#FFFFFF" />
<rect x="10" y="34" width="1" height="1" fill="#FFFFFF" />
<rect x="11" y="34" width="1" height="1" fill="#FFFFFF" />
<rect x="12" y="34" width="1" height="1" fill="#FFFFFF" />
<rect x="13" y="34" width="1" height="1" fill="#FFFFFF" />
<rect x="14" y="34" width="1" height="1" fill="#FFFFFF" />
<rect x="15" y="34" width="1" height="1" fill="#FFFFFF" />
<rect x="16" y="34" width="1" height="1" fill="#FFFFFF" />
<rect x="17" y="34" width="1" height="1" fill="#FFFFFF" />
<rect x="6" y="35" width="1" height="1" fill="#FFFFFF" />
<rect x="7" y="35" width="1" height="1" fill="#FFFFFF" />
<rect x="8" y="35" width="1" height="1" fill="#FFFFFF" />
<rect x="9" y="35" width="1" height="1" fill="#FFFFFF" />
<rect x="10" y="35" width="1" height="1" fill="#FFFFFF" />
<rect x="11" y="35" width="1" height="1" fill="#FFFFFF" />
<rect x="12" y="35" width="1" height="1" fill="#FFFFFF" />
<rect x="13" y="35" width="1" height="1" fill="#FFFFFF" />
<rect x="14" y="35" width="1" height="1" fill="#FFFFFF" />
<rect x="15" y="35" width="1" height="1" fill="#FFFFFF" />
<rect x="16" y="35" width="1" height="1" fill="#FFFFFF" />
<rect x="17" y="35" width="1" height="1" fill="#FFFFFF" />
<rect x="6" y="36" width="1" height="1" fill="#FFFFFF" />
<rect x="7" y="36" width="1" height="1" fill="#FFFFFF" />
<rect x="8" y="36" width="1" height="1" fill="#FFFFFF" />
<rect x="9" y="36" width="1" height="1" fill="#FFFFFF" />
<rect x="10" y="36" width="1" height="1" fill="#FFFFFF" />
<rect x="11" y="36" width="1" height="1" fill="#FFFFFF" />
<rect x="12" y="36" width="1" height="1" fill="#FFFFFF" />
<rect x="13" y="36" width="1" height="1" fill="#FFFFFF" />
<rect x="14" y="36" width="1" height="1" fill="#FFFFFF" />
<rect x="15" y="36" width="1" height="1" fill="#FFFFFF" />
<rect x="6" y="37" width="1" height="1" fill="#FFFFFF" />
<rect x="7" y="37" width="1" height="1" fill="#FFFFFF" />
<rect x="8" y="37" width="1" height="1" fill="#FFFFFF" />
<rect x="9" y="37" width="1" height="1" fill="#FFFFFF" />
<rect x="10" y="37" width="1" height="1" fill="#FFFFFF" />
<rect x="11" y="37" width="1" height="1" fill="#FFFFFF" />
<rect x="12" y="37" width="1" height="1" fill="#FFFFFF" />
<rect x="13" y="37" width="1" height="1" fill="#FFFFFF" />
<rect x="14" y="37" width="1" height="1" fill="#FFFFFF" />
<rect x="15" y="37" width="1" height="1" fill="#FFFFFF" />
<rect x="6" y="38" width="1" height="1" fill="#FFFFFF" />
<rect x="7" y="38" width="1" height="1" fill="#FFFFFF" />
<rect x="8" y="38" width="1" height="1" fill="#FFFFFF" />
<rect x="9" y="38" width="1" height="1" fill="#FFFFFF" />
<rect x="10" y="38" width="1" height="1" fill="#FFFFFF" />
<rect x="11" y="38" width="1" height="1" fill="#FFFFFF" />
<rect x="12" y="38" width="1" height="1" fill="#FFFFFF" />
<rect x="13" y="38" width="1" height="1" fill="#FFFFFF" />
<rect x="6" y="39" width="1" height="1" fill="#FFFFFF" />
<rect x="7" y="39" width="1" height="1" fill="#FFFFFF" />
<rect x="8" y="39" width="1" height="1" fill="#FFFFFF" />
<rect x="9" y="39" width="1" height="1" fill="#FFFFFF" />
<rect x="10" y="39" width="1" height="1" fill="#FFFFFF" />
<rect x="11" y="39" width="1" height="1" fill="#FFFFFF" />
<rect x="12" y="39" width="1" height="1" fill="#FFFFFF" />
<rect x="13" y="39" width="1" height="1" fill="#FFFFFF" />
<rect x="16" y="40" width="1" height="1" fill="#FFFFFF" />
<rect x="17" y="40" width="1" height="1" fill="#FFFFFF" />
<rect x="18" y="40" width="1" height="1" fill="#FFFFFF" />
<rect x="19" y="40" width="1" height="1" fill="#FFFFFF" />
<rect x="20" y="40" width="1" height="1" fill="#FFFFFF" />
<rect x="21" y="40" width="1" height="1" fill="#FFFFFF" />
<rect x="22" y="40" width="1" height="1" fill="#FFFFFF" />
<rect x="23" y="40" width="1" height="1" fill="#FFFFFF" />
<rect x="24" y="40" width="1" height="1" fill="#FFFFFF" />
<rect x="25" y="40" width="1" height="1" fill="#FFFFFF" />
<rect x="26" y="40" width="1" height="1" fill="#FFFFFF" />
<rect x="27" y="40" width="1" height="1" fill="#FFFFFF" />
<rect x="28" y="40" width="1" height="1" fill="#FFFFFF" />
<rect x="29" y="40" width="1" height="1" fill="#FFFFFF" />
<rect x="30" y="40" width="1" height="1" fill="#FFFFFF" />
<rect x="31" y="40" width="1" height="1" fill="#FFFFFF" />
<rect x="32" y="40" width="1" height="1" fill="#FFFFFF" />
<rect x="33" y="40" width="1" height="1" fill="#FFFFFF" />
<rect x="34" y="40" width="1" height="1" fill="#FFFFFF" />
<rect x="35" y="40" width="1" height="1" fill="#FFFFFF" />
<rect x="36" y="40" width="1" height="1" fill="#FFFFFF" />
<rect x="37" y="40" width="1" height="1" fill="#FFFFFF" />
<rect x="38" y="40" width="1" height="1" fill="#FFFFFF" />
<rect x="39" y="40" width="1" height="1" fill="#FFFFFF" />
<rect x="40" y="40" width="1" height="1" fill="#FFFFFF" />
<rect x="41" y="40" width="1" height="1" fill="#FFFFFF" />
<rect x="42" y="40" width="1" height="1" fill="#FFFFFF" />
<rect x="43" y="40" width="1" height="1" fill="#FFFFFF" />
<rect x="16" y="41" width="1" height="1" fill="#FFFFFF" />
<rect x="17" y="41" width="1" height="1" fill="#FFFFFF" />
<rect x="18" y="41" width="1" height="1" fill="#FFFFFF" />
<rect x="19" y="41" width="1" height="1" fill="#FFFFFF" />
<rect x="20" y="41" width="1" height="1" fill="#FFFFFF" />
<rect x="21" y="41" width="1" height="1" fill="#FFFFFF" />
<rect x="22" y="41" width="1" height="1" fill="#FFFFFF" />
<rect x="23" y="41" width="1" height="1" fill="#FFFFFF" />
<rect x="24" y="41" width="1" height="1" fill="#FFFFFF" />
<rect x="25" y="41" width="1" height="1" fill="#FFFFFF" />
<rect x="26" y="41" width="1" height="1" fill="#FFFFFF" />
<rect x="27" y="41" width="1" height="1" fill="#FFFFFF" />
<rect x="28" y="41" width="1" height="1" fill="#FFFFFF" />
<rect x="29" y="41" width="1" height="1" fill="#FFFFFF" />
<rect x="30" y="41" width="1" height="1" fill="#FFFFFF" />
<rect x="31" y="41" width="1" height="1" fill="#FFFFFF" />
<rect x="32" y="41" width="1" height="1" fill="#FFFFFF" />
<rect x="33" y="41" width="1" height="1" fill="#FFFFFF" />
<rect x="34" y="41" width="1" height="1" fill="#FFFFFF" />
<rect x="35" y="41" width="1" height="1" fill="#FFFFFF" />
<rect x="36" y="41" width="1" height="1" fill="#FFFFFF" />
<rect x="37" y="41" width="1" height="1" fill="#FFFFFF" />
<rect x="38" y="41" width="1" height="1" fill="#FFFFFF" />
<rect x="39" y="41" width="1" height="1" fill="#FFFFFF" />
<rect x="40" y="41" width="1" height="1" fill="#FFFFFF" />
<rect x="41" y="41" width="1" height="1" fill="#FFFFFF" />
<rect x="42" y="41" width="1" height="1" fill="#FFFFFF" />
<rect x="43" y="41" width="1" height="1" fill="#FFFFFF" />
<rect x="14" y="42" width="1" height="1" fill="#FFFFFF" />
<rect x="15" y="42" width="1" height="1" fill="#FFFFFF" />
<rect x="16" y="42" width="1" height="1" fill="#FFFFFF" />
<rect x="17" y="42" width="1" height="1" fill="#FFFFFF" />
<rect x="18" y="42" width="1" height="1" fill="#FFFFFF" />
<rect x="19" y="42" width="1" height="1" fill="#FFFFFF" />
<rect x="20" y="42" width="1" height="1" fill="#FFFFFF" />
<rect x="21" y="42" width="1" height="1" fill="#FFFFFF" />
<rect x="22" y="42" width="1" height="1" fill="#FFFFFF" />
<rect x="23" y="42" width="1" height="1" fill="#FFFFFF" />
<rect x="24" y="42" width="1" height="1" fill="#FFFFFF" />
<rect x="25" y="42" width="1" height="1" fill="#FFFFFF" />
<rect x="26" y="42" width="1" height="1" fill="#FFFFFF" />
<rect x="27" y="42" width="1" height="1" fill="#FFFFFF" />
<rect x="28" y="42" width="1" height="1" fill="#FFFFFF" />
<rect x="29" y="42" width="1" height="1" fill="#FFFFFF" />
<rect x="30" y="42" width="1" height="1" fill="#FFFFFF" />
<rect x="31" y="42" width="1" height="1" fill="#FFFFFF" />
<rect x="32" y="42" width="1" height="1" fill="#FFFFFF" />
<rect x="33" y="42" width="1" height="1" fill="#FFFFFF" />
<rect x="34" y="42" width="1" height="1" fill="#FFFFFF" />
<rect x="35" y="42" width="1" height="1" fill="#FFFFFF" />
<rect x="36" y="42" width="1" height="1" fill="#FFFFFF" />
<rect x="37" y="42" width="1" height="1" fill="#FFFFFF" />
<rect x="38" y="42" width="1" height="1" fill="#FFFFFF" />
<rect x="39" y="42" width="1" height="1" fill="#FFFFFF" />
<rect x="40" y="42" width="1" height="1" fill="#FFFFFF" />
<rect x="41" y="42" width="1" height="1" fill="#FFFFFF" />
<rect x="42" y="42" width="1" height="1" fill="#FFFFFF" />
<rect x="43" y="42" width="1" height="1" fill="#FFFFFF" />
<rect x="14" y="43" width="1" height="1" fill="#FFFFFF" />
<rect x="15" y="43" width="1" height="1" fill="#FFFFFF" />
<rect x="16" y="43" width="1" height="1" fill="#FFFFFF" />
<rect x="17" y="43" width="1" height="1" fill="#FFFFFF" />
<rect x="18" y="43" width="1" height="1" fill="#FFFFFF" />
<rect x="19" y="43" width="1" height="1" fill="#FFFFFF" />
<rect x="20" y="43" width="1" height="1" fill="#FFFFFF" />
<rect x="21" y="43" width="1" height="1" fill="#FFFFFF" />
<rect x="22" y="43" width="1" height="1" fill="#FFFFFF" />
<rect x="23" y="43" width="1" height="1" fill="#FFFFFF" />
<rect x="24" y="43" width="1" height="1" fill="#FFFFFF" />
<rect x="25" y="43" width="1" height="1" fill="#FFFFFF" />
<rect x="26" y="43" width="1" height="1" fill="#FFFFFF" />
<rect x="27" y="43" width="1" height="1" fill="#FFFFFF" />
<rect x="28" y="43" width="1" height="1" fill="#FFFFFF" />
<rect x="29" y="43" width="1" height="1" fill="#FFFFFF" />
<rect x="30" y="43" width="1" height="1" fill="#FFFFFF" />
<rect x="31" y="43" width="1" height="1" fill="#FFFFFF" />
<rect x="32" y="43" width="1" height="1" fill="#FFFFFF" />
<rect x="33" y="43" width="1" height="1" fill="#FFFFFF" />
<rect x="34" y="43" width="1" height="1" fill="#FFFFFF" />
<rect x="35" y="43" width="1" height="1" fill="#FFFFFF" />
<rect x="36" y="43" width="1" height="1" fill="#FFFFFF" />
<rect x="37" y="43" width="1" height="1" fill="#FFFFFF" />
<rect x="38" y="43" width="1" height="1" fill="#FFFFFF" />
<rect x="39" y="43" width="1" height="1" fill="#FFFFFF" />
<rect x="40" y="43" width="1" height="1" fill="#FFFFFF" />
<rect x="41" y="43" width="1" height="1" fill="#FFFFFF" />
<rect x="42" y="43" width="1" height="1" fill="#FFFFFF" />
<rect x="43" y="43" width="1" height="1" fill="#FFFFFF" />
</svg>