<?xml version="1.0" encoding="UTF-8" ?>
<svg version="1.1" width="150" height="150" xmlns="http://www.w3.org/2000/svg" shape-rendering="crispEdges">
<rect x="96" y="18" width="3" height="3" fill="#FFFFFF" />
<rect x="99" y="18" width="3" height="3" fill="#FFFFFF" />
<rect x="102" y="18" width="3" height="3" fill="#FFFFFF" />
<rect x="105" y="18" width="3" height="3" fill="#FFFFFF" />
<rect x="96" y="21" width="3" height="3" fill="#FFFFFF" />
<rect x="99" y="21" width="3" height="3" fill="#FFFFFF" />
<rect x="102" y="21" width="3" height="3" fill="#FFFFFF" />
<rect x="105" y="21" width="3" height="3" fill="#FFFFFF" />
<rect x="90" y="24" width="3" height="3" fill="#FFFFFF" />
<rect x="93" y="24" width="3" height="3" fill="#FFFFFF" />
<rect x="96" y="24" width="3" height="3" fill="#FFFFFF" />
<rect x="99" y="24" width="3" height="3" fill="#FFFFFF" />
<rect x="102" y="24" width="3" height="3" fill="#FFFFFF" />
<rect x="105" y="24" width="3" height="3" fill="#FFFFFF" />
<rect x="108" y="24" width="3" height="3" fill="#FFFFFF" />
<rect x="111" y="24" width="3" height="3" fill="#FFFFFF" />
<rect x="90" y="27" width="3" height="3" fill="#FFFFFF" />
<rect x="93" y="27" width="3" height="3" fill="#FFFFFF" />
<rect x="96" y="27" width="3" height="3" fill="#FFFFFF" />
<rect x="99" y="27" width="3" height="3" fill="#FFFFFF" />
<rect x="102" y="27" width="3" height="3" fill="#FFFFFF" />
<rect x="105" y="27" width="3" height="3" fill="#FFFFFF" />
<rect x="108" y="27" width="3" height="3" fill="#FFFFFF" />
<rect x="111" y="27" width="3" height="3" fill="#FFFFFF" />
<rect x="84" y="30" width="3" height="3" fill="#FFFFFF" />
<rect x="87" y="30" width="3" height="3" fill="#FFFFFF" />
<rect x="90" y="30" width="3" height="3" fill="#FFFFFF" />
<rect x="93" y="30" width="3" height="3" fill="#FFFFFF" />
<rect x="96" y="30" width="3" height="3" fill="#FFFFFF" />
<rect x="99" y="30" width="3" height="3" fill="#FFFFFF" />
<rect x="102" y="30" width="3" height="3" fill="#FFFFFF" />
<rect x="105" y="30" width="3" height="3" fill="#FFFFFF" />
<rect x="108" y="30" width="3" height="3" fill="#FFFFFF" />
<rect x="111" y="30" width="3" height="3" fill="#FFFFFF" />
<rect x="114" y="30" width="3" height="3" fill="#FFFFFF" />
<rect x="117" y="30" width="3" height="3" fill="#FFFFFF" />
<rect x="84" y="33" width="3" height="3" fill="#FFFFFF" />
<rect x="87" y="33" width="3" height="3" fill="#FFFFFF" />
<rect x="90" y="33" width="3" height="3" fill="#FFFFFF" />
<rect x="93" y="33" width="3" height="3" fill="#FFFFFF" />
<rect x="96" y="33" width="3" height="3" fill="#FFFFFF" />
<rect x="99" y="33" width="3" height="3" fill="#FFFFFF" />
<rect x="102" y="33" width="3" height="3" fill="#FFFFFF" />
<rect x="105" y="33" width="3" height="3" fill="#FFFFFF" />
<rect x="108" y="33" width="3" height="3" fill="#FFFFFF" />
<rect x="111" y="33" width="3" height="3" fill="#FFFFFF" />
<rect x="114" y="33" width="3" height="3" fill="#FFFFFF" />
<rect x="117" y="33" width="3" height="3" fill="#FFFFFF" />
<rect x="78" y="36" width="3" height="3" fill="#FFFFFF" />
<rect x="81" y="36" width="3" height="3" fill="#FFFFFF" />
<rect x="90" y="36" width="3" height="3" fill="#FFFFFF" />
<rect x="93" y="36" width="3" height="3" fill="#FFFFFF" />
<rect x="96" y="36" width="3" height="3" fill="#FFFFFF" />
<rect x="99" y="36" width="3" height="3" fill="#FFFFFF" />
<rect x="102" y="36" width="3" height="3" fill="#FFFFFF" />
<rect x="105" y="36" width="3" height="3" fill="#FFFFFF" />
<rect x="108" y="36" width="3" height="3" fill="#FFFFFF" />
<rect x="111" y="36" width="3" height="3" fill="#FFFFFF" />
<rect x="114" y="36" width="3" height="3" fill="#FFFFFF" />
<rect x="117" y="36" width="3" height="3" fill="#FFFFFF" />
<rect x="78" y="39" width="3" height="3" fill="#FFFFFF" />
<rect x="81" y="39" width="3" height="3" fill="#FFFFFF" />
<rect x="90" y="39" width="3" height="3" fill="#FFFFFF" />
<rect x="93" y="39" width="3" height="3" fill="#FFFFFF" />
<rect x="96" y="39" width="3" height="3" fill="#FFFFFF" />
<rect x="99" y="39" width="3" height="3" fill="#FFFFFF" />
<rect x="102" y="39" width="3" height="3" fill="#FFFFFF" />
<rect x="105" y="39" width="3" height="3" fill="#FFFFFF" />
<rect x="108" y="39" width="3" height="3" fill="#FFFFFF" />
<rect x="111" y="39" width="3" height="3" fill="#FFFFFF" />
<rect x="114" y="39" width="3" height="3" fill="#FFFFFF" />
<rect x="117" y="39" width="3" height="3" fill="#FFFFFF" />
<rect x="72" y="42" width="3" height="3" fill="#FFFFFF" />
<rect x="75" y="42" width="3" height="3" fill="#FFFFFF" />
<rect x="78" y="42" width="3" height="3" fill="#FFFFFF" />
<rect x="81" y="42" width="3" height="3" fill="#FFFFFF" />
<rect x="84" y="42" width="3" height="3" fill="#FFFFFF" />
<rect x="87" y="42" width="3" height="3" fill="#FFFFFF" />
<rect x="96" y="42" width="3" height="3" fill="#FFFFFF" />
<rect x="99" y="42" width="3" height="3" fill="#FFFFFF" />
<rect x="102" y="42" width="3" height="3" fill="#FFFFFF" />
<rect x="105" y="42" width="3" height="3" fill="#FFFFFF" />
<rect x="108" y="42" width="3" height="3" fill="#FFFFFF" />
<rect x="111" y="42" width="3" height="3" fill="#FFFFFF" />
<rect x="72" y="45" width="3" height="3" fill="#FFFFFF" />
<rect x="75" y="45" width="3" height="3" fill="#FFFFFF" />
<rect x="78" y="45" width="3" height="3" fill="#FFFFFF" />
<rect x="81" y="45" width="3" height="3" fill="#FFFFFF" />
<rect x="84" y="45" width="3" height="3" fill="#FFFFFF" />
<rect x="87" y="45" width="3" height="3" fill="#FFFFFF" />
<rect x="96" y="45" width="3" height="3" fill="#FFFFFF" />
<rect x="99" y="45" width="3" height="3" fill="#FFFFFF" />
<rect x="102" y="45" width="3" height="3" fill="#FFFFFF" />
<rect x="105" y="45" width="3" height="3" fill="#FFFFFF" />
<rect x="108" y="45" width="3" height="3" fill="#FFFFFF" />
<rect x="111" y="45" width="3" height="3" fill="#FFFFFF" />
<rect x="66" y="48" width="3" height="3" fill="#FFFFFF" />
<rect x="69" y="48" width="3" height="3" fill="#FFFFFF" />
<rect x="78" y="48" width="3" height="3" fill="#FFFFFF" />
<rect x="81" y="48" width="3" height="3" fill="#FFFFFF" />
<rect x="84" y="48" width="3" height="3" fill="#FFFFFF" />
<rect x="87" y="48" width="3" height="3" fill="#FFFFFF" />
<rect x="90" y="48" width="3" height="3" fill="#FFFFFF" />
<rect x="93" y="48" width="3" height="3" fill="#FFFFFF" />
<rect x="102" y="48" width="3" height="3" fill="#FFFFFF" />
<rect x="105" y="48" width="3" height="3" fill="#FFFFFF" />
<rect x="66" y="51" width="3" height="3" fill="#FFFFFF" />
<rect x="69" y="51" width="3" height="3" fill="#FFFFFF" />
<rect x="78" y="51" width="3" height="3" fill="#FFFFFF" />
<rect x="81" y="51" width="3" height="3" fill="#FFFFFF" />
<rect x="84" y="51" width="3" height="3" fill="#FFFFFF" />
<rect x="87" y="51" width="3" height="3" fill="#FFFFFF" />
<rect x="90" y="51" width="3" height="3" fill="#FFFFFF" />
<rect x="93" y="51" width="3" height="3" fill="#FFFFFF" />
<rect x="102" y="51" width="3" height="3" fill="#FFFFFF" />
<rect x="105" y="51" width="3" height="3" fill="#FFFFFF" />
<rect x="60" y="54" width="3" height="3" fill="#FFFFFF" />
<rect x="63" y="54" width="3" height="3" fill="#FFFFFF" />
<rect x="72" y="54" width="3" height="3" fill="#FFFFFF" />
<rect x="75" y="54" width="3" height="3" fill="#FFFFFF" />
<rect x="78" y="54" width="3" height="3" fill="#FFFFFF" />
<rect x="81" y="54" width="3" height="3" fill="#FFFFFF" />
<rect x="84" y="54" width="3" height="3" fill="#FFFFFF" />
<rect x="87" y="54" width="3" height="3" fill="#FFFFFF" />
<rect x="90" y="54" width="3" height="3" fill="#FFFFFF" />
<rect x="93" y="54" width="3" height="3" fill="#FFFFFF" />
<rect x="96" y="54" width="3" height="3" fill="#FFFFFF" />
<rect x="99" y="54" width="3" height="3" fill="#FFFFFF" />
<rect x="60" y="57" width="3" height="3" fill="#FFFFFF" />
<rect x="63" y="57" width="3" height="3" fill="#FFFFFF" />
<rect x="72" y="57" width="3" height="3" fill="#FFFFFF" />
<rect x="75" y="57" width="3" height="3" fill="#FFFFFF" />
<rect x="78" y="57" width="3" height="3" fill="#FFFFFF" />
<rect x="81" y="57" width="3" height="3" fill="#FFFFFF" />
<rect x="84" y="57" width="3" height="3" fill="#FFFFFF" />
<rect x="87" y="57" width="3" height="3" fill="#FFFFFF" />
<rect x="90" y="57" width="3" height="3" fill="#FFFFFF" />
<rect x="93" y="57" width="3" height="3" fill="#FFFFFF" />
<rect x="96" y="57" width="3" height="3" fill="#FFFFFF" />
<rect x="99" y="57" width="3" height="3" fill="#FFFFFF" />
<rect x="54" y="60" width="3" height="3" fill="#FFFFFF" />
<rect x="57" y="60" width="3" height="3" fill="#FFFFFF" />
<rect x="66" y="60" width="3" height="3" fill="#FFFFFF" />
<rect x="69" y="60" width="3" height="3" fill="#FFFFFF" />
<rect x="72" y="60" width="3" height="3" fill="#FFFFFF" />
<rect x="75" y="60" width="3" height="3" fill="#FFFFFF" />
<rect x="78" y="60" width="3" height="3" fill="#FFFFFF" />
<rect x="81" y="60" width="3" height="3" fill="#FFFFFF" />
<rect x="84" y="60" width="3" height="3" fill="#FFFFFF" />
<rect x="87" y="60" width="3" height="3" fill="#FFFFFF" />
<rect x="90" y="60" width="3" height="3" fill="#FFFFFF" />
<rect x="93" y="60" width="3" height="3" fill="#FFFFFF" />
<rect x="54" y="63" width="3" height="3" fill="#FFFFFF" />
<rect x="57" y="63" width="3" height="3" fill="#FFFFFF" />
<rect x="66" y="63" width="3" height="3" fill="#FFFFFF" />
<rect x="69" y="63" width="3" height="3" fill="#FFFFFF" />
<rect x="72" y="63" width="3" height="3" fill="#FFFFFF" />
<rect x="75" y="63" width="3" height="3" fill="#FFFFFF" />
<rect x="78" y="63" width="3" height="3" fill="#FFFFFF" />
<rect x="81" y="63" width="3" height="3" fill="#FFFFFF" />
<rect x="84" y="63" width="3" height="3" fill="#FFFFFF" />
<rect x="87" y="63" width="3" height="3" fill="#FFFFFF" />
<rect x="90" y="63" width="3" height="3" fill="#FFFFFF" />
<rect x="93" y="63" width="3" height="3" fill="#FFFFFF" />
<rect x="48" y="66" width="3" height="3" fill="#FFFFFF" />
<rect x="51" y="66" width="3" height="3" fill="#FFFFFF" />
<rect x="60" y="66" width="3" height="3" fill="#FFFFFF" />
<rect x="63" y="66" width="3" height="3" fill="#FFFFFF" />
<rect x="66" y="66" width="3" height="3" fill="#FFFFFF" />
<rect x="69" y="66" width="3" height="3" fill="#FFFFFF" />
<rect x="72" y="66" width="3" height="3" fill="#FFFFFF" />
<rect x="75" y="66" width="3" height="3" fill="#FFFFFF" />
<rect x="78" y="66" width="3" height="3" fill="#FFFFFF" />
<rect x="81" y="66" width="3" height="3" fill="#FFFFFF" />
<rect x="84" y="66" width="3" height="3" fill="#FFFFFF" />
<rect x="87" y="66" width="3" height="3" fill="#FFFFFF" />
<rect x="48" y="69" width="3" height="3" fill="#FFFFFF" />
<rect x="51" y="69" width="3" height="3" fill="#FFFFFF" />
<rect x="60" y="69" width="3" height="3" fill="#FFFFFF" />
<rect x="63" y="69" width="3" height="3" fill="#FFFFFF" />
<rect x="66" y="69" width="3" height="3" fill="#FFFFFF" />
<rect x="69" y="69" width="3" height="3" fill="#FFFFFF" />
<rect x="72" y="69" width="3" height="3" fill="#FFFFFF" />
<rect x="75" y="69" width="3" height="3" fill="#FFFFFF" />
<rect x="78" y="69" width="3" height="3" fill="#FFFFFF" />
<rect x="81" y="69" width="3" height="3" fill="#FFFFFF" />
<rect x="84" y="69" width="3" height="3" fill="#FFFFFF" />
<rect x="87" y="69" width="3" height="3" fill="#FFFFFF" />
<rect x="42" y="72" width="3" height="3" fill="#FFFFFF" />
<rect x="45" y="72" width="3" height="3" fill="#FFFFFF" />
<rect x="54" y="72" width="3" height="3" fill="#FFFFFF" />
<rect x="57" y="72" width="3" height="3" fill="#FFFFFF" />
<rect x="60" y="72" width="3" height="3" fill="#FFFFFF" />
<rect x="63" y="72" width="3" height="3" fill="#FFFFFF" />
<rect x="66" y="72" width="3" height="3" fill="#FFFFFF" />
<rect x="69" y="72" width="3" height="3" fill="#FFFFFF" />
<rect x="72" y="72" width="3" height="3" fill="#FFFFFF" />
<rect x="75" y="72" width="3" height="3" fill="#FFFFFF" />
<rect x="78" y="72" width="3" height="3" fill="#FFFFFF" />
<rect x="81" y="72" width="3" height="3" fill="#FFFFFF" />
<rect x="42" y="75" width="3" height="3" fill="#FFFFFF" />
<rect x="45" y="75" width="3" height="3" fill="#FFFFFF" />
<rect x="54" y="75" width="3" height="3" fill="#FFFFFF" />
<rect x="57" y="75" width="3" height="3" fill="#FFFFFF" />
<rect x="60" y="75" width="3" height="3" fill="#FFFFFF" />
<rect x="63" y="75" width="3" height="3" fill="#FFFFFF" />
<rect x="66" y="75" width="3" height="3" fill="#FFFFFF" />
<rect x="69" y="75" width="3" height="3" fill="#FFFFFF" />
<rect x="72" y="75" width="3" height="3" fill="#FFFFFF" />
<rect x="75" y="75" width="3" height="3" fill="#FFFFFF" />
<rect x="78" y="75" width="3" height="3" fill="#FFFFFF" />
<rect x="81" y="75" width="3" height="3" fill="#FFFFFF" />
<rect x="36" y="78" width="3" height="3" fill="#FFFFFF" />
<rect x="39" y="78" width="3" height="3" fill="#FFFFFF" />
<rect x="48" y="78" width="3" height="3" fill="#FFFFFF" />
<rect x="51" y="78" width="3" height="3" fill="#FFFFFF" />
<rect x="54" y="78" width="3" height="3" fill="#FFFFFF" />
<rect x="57" y="78" width="3" height="3" fill="#FFFFFF" />
<rect x="60" y="78" width="3" height="3" fill="#FFFFFF" />
<rect x="63" y="78" width="3" height="3" fill="#FFFFFF" />
<rect x="66" y="78" width="3" height="3" fill="#FFFFFF" />
<rect x="69" y="78" width="3" height="3" fill="#FFFFFF" />
<rect x="72" y="78" width="3" height="3" fill="#FFFFFF" />
<rect x="75" y="78" width="3" height="3" fill="#FFFFFF" />
<rect x="36" y="81" width="3" height="3" fill="#FFFFFF" />
<rect x="39" y="81" width="3" height="3" fill="#FFFFFF" />
<rect x="48" y="81" width="3" height="3" fill="#FFFFFF" />
<rect x="51" y="81" width="3" height="3" fill="#FFFFFF" />
<rect x="54" y="81" width="3" height="3" fill="#FFFFFF" />
<rect x="57" y="81" width="3" height="3" fill="#FFFFFF" />
<rect x="60" y="81" width="3" height="3" fill="#FFFFFF" />
<rect x="63" y="81" width="3" height="3" fill="#FFFFFF" />
<rect x="66" y="81" width="3" height="3" fill="#FFFFFF" />
<rect x="69" y="81" width="3" height="3" fill="#FFFFFF" />
<rect x="72" y="81" width="3" height="3" fill="#FFFFFF" />
<rect x="75" y="81" width="3" height="3" fill="#FFFFFF" />
<rect x="30" y="84" width="3" height="3" fill="#FFFFFF" />
<rect x="33" y="84" width="3" height="3" fill="#FFFFFF" />
<rect x="42" y="84" width="3" height="3" fill="#FFFFFF" />
<rect x="45" y="84" width="3" height="3" fill="#FFFFFF" />
<rect x="48" y="84" width="3" height="3" fill="#FFFFFF" />
<rect x="51" y="84" width="3" height="3" fill="#FFFFFF" />
<rect x="54" y="84" width="3" height="3" fill="#FFFFFF" />
<rect x="57" y="84" width="3" height="3" fill="#FFFFFF" />
<rect x="60" y="84" width="3" height="3" fill="#FFFFFF" />
<rect x="63" y="84" width="3" height="3" fill="#FFFFFF" />
<rect x="66" y="84" width="3" height="3" fill="#FFFFFF" />
<rect x="69" y="84" width="3" height="3" fill="#FFFFFF" />
<rect x="30" y="87" width="3" height="3" fill="#FFFFFF" />
<rect x="33" y="87" width="3" height="3" fill="#FFFFFF" />
<rect x="42" y="87" width="3" height="3" fill="#FFFFFF" />
<rect x="45" y="87" width="3" height="3" fill="#FFFFFF" />
<rect x="48" y="87" width="3" height="3" fill="#FFFFFF" />
<rect x="51" y="87" width="3" height="3" fill="#FFFFFF" />
<rect x="54" y="87" width="3" height="3" fill="#FFFFFF" />
<rect x="57" y="87" width="3" height="3" fill="#FFFFFF" />
<rect x="60" y="87" width="3" height="3" fill="#FFFFFF" />
<rect x="63" y="87" width="3" height="3" fill="#FFFFFF" />
<rect x="66" y="87" width="3" height="3" fill="#FFFFFF" />
<rect x="69" y="87" width="3" height="3" fill="#FFFFFF" />
<rect x="24" y="90" width="3" height="3" fill="#FFFFFF" />
<rect x="27" y="90" width="3" height="3" fill="#FFFFFF" />
<rect x="36" y="90" width="3" height="3" fill="#FFFFFF" />
<rect x="39" y="90" width="3" height="3" fill="#FFFFFF" />
<rect x="42" y="90" width="3" height="3" fill="#FFFFFF" />
<rect x="45" y="90" width="3" height="3" fill="#FFFFFF" />
<rect x="48" y="90" width="3" height="3" fill="#FFFFFF" />
<rect x="51" y="90" width="3" height="3" fill="#FFFFFF" />
<rect x="54" y="90" width="3" height="3" fill="#FFFFFF" />
<rect x="57" y="90" width="3" height="3" fill="#FFFFFF" />
<rect x="60" y="90" width="3" height="3" fill="#FFFFFF" />
<rect x="63" y="90" width="3" height="3" fill="#FFFFFF" />
<rect x="24" y="93" width="3" height="3" fill="#FFFFFF" />
<rect x="27" y="93" width="3" height="3" fill="#FFFFFF" />
<rect x="36" y="93" width="3" height="3" fill="#FFFFFF" />
<rect x="39" y="93" width="3" height="3" fill="#FFFFFF" />
<rect x="42" y="93" width="3" height="3" fill="#FFFFFF" />
<rect x="45" y="93" width="3" height="3" fill="#FFFFFF" />
<rect x="48" y="93" width="3" height="3" fill="#FFFFFF" />
<rect x="51" y="93" width="3" height="3" fill="#FFFFFF" />
<rect x="54" y="93" width="3" height="3" fill="#FFFFFF" />
<rect x="57" y="93" width="3" height="3" fill="#FFFFFF" />
<rect x="60" y="93" width="3" height="3" fill="#FFFFFF" />
<rect x="63" y="93" width="3" height="3" fill="#FFFFFF" />
<rect x="18" y="96" width="3" height="3" fill="#FFFFFF" />
<rect x="21" y="96" width="3" height="3" fill="#FFFFFF" />
<rect x="30" y="96" width="3" height="3" fill="#FFFFFF" />
<rect x="33" y="96" width="3" height="3" fill="#FFFFFF" />
<rect x="36" y="96" width="3" height="3" fill="#FFFFFF" />
<rect x="39" y="96" width="3" height="3" fill="#FFFFFF" />
<rect x="42" y="96" width="3" height="3" fill="#FFFFFF" />
<rect x="45" y="96" width="3" height="3" fill="#FFFFFF" />
<rect x="48" y="96" width="3" height="3" fill="#FFFFFF" />
<rect x="51" y="96" width="3" height="3" fill="#FFFFFF" />
<rect x="54" y="96" width="3" height="3" fill="#FFFFFF" />
<rect x="57" y="96" width="3" height="3" fill="#FFFFFF" />
<rect x="18" y="99" width="3" height="3" fill="#FFFFFF" />
<rect x="21" y="99" width="3" height="3" fill="#FFFFFF" />
<rect x="30" y="99" width="3" height="3" fill="#FFFFFF" />
<rect x="33" y="99" width="3" height="3" fill="#FFFFFF" />
<rect x="36" y="99" width="3" height="3" fill="#FFFFFF" />
<rect x="39" y="99" width="3" height="3" fill="#FFFFFF" />
<rect x="42" y="99" width="3" height="3" fill="#FFFFFF" />
<rect x="45" y="99" width="3" height="3" fill="#FFFFFF" />
<rect x="48" y="99" width="3" height="3" fill="#FFFFFF" />
<rect x="51" y="99" width="3" height="3" fill="#FFFFFF" />
<rect x="54" y="99" width="3" height="3" fill="#FFFFFF" />
<rect x="57" y="99" width="3" height="3" fill="#FFFFFF" />
<rect x="18" y="102" width="3" height="3" fill="#FFFFFF" />
<rect x="21" y="102" width="3" height="3" fill="#FFFFFF" />
<rect x="24" y="102" width="3" height="3" fill="#FFFFFF" />
<rect x="27" y="102" width="3" height="3" fill="#FFFFFF" />
<rect x="30" y="102" width="3" height="3" fill="#FFFFFF" />
<rect x="33" y="102" width="3" height="3" fill="#FFFFFF" />
<rect x="36" y="102" width="3" height="3" fill="#FFFFFF" />
<rect x="39" y="102" width="3" height="3" fill="#FFFFFF" />
<rect x="42" y="102" width="3" height="3" fill="#FFFFFF" />
<rect x="45" y="102" width="3" height="3" fill="#FFFFFF" />
<rect x="48" y="102" width="3" height="3" fill="#FFFFFF" />
<rect x="51" y="102" width="3" height="3" fill="#FFFFFF" />
<rect x="18" y="105" width="3" height="3" fill="#FFFFFF" />
<rect x="21" y="105" width="3" height="3" fill="#FFFFFF" />
<rect x="24" y="105" width="3" height="3" fill="#FFFFFF" />
<rect x="27" y="105" width="3" height="3" fill="#FFFFFF" />
<rect x="30" y="105" width="3" height="3" fill="#FFFFFF" />
<rect x="33" y="105" width="3" height="3" fill="#FFFFFF" />
<rect x="36" y="105" width="3" height="3" fill="#FFFFFF" />
<rect x="39" y="105" width="3" height="3" fill="#FFFFFF" />
<rect x="42" y="105" width="3" height="3" fill="#FFFFFF" />
<rect x="45" y="105" width="3" height="3" fill="#FFFFFF" />
<rect x="48" y="105" width="3" height="3" fill="#FFFFFF" />
<rect x="51" y="105" width="3" height="3" fill="#FFFFFF" />
<rect x="18" y="108" width="3" height="3" fill="#FFFFFF" />
<rect x="21" y="108" width="3" height="3" fill="#FFFFFF" />
<rect x="24" y="108" width="3" height="3" fill="#FFFFFF" />
<rect x="27" y="108" width="3" height="3" fill="#FFFFFF" />
<rect x="30" y="108" width="3" height="3" fill="#FFFFFF" />
<rect x="33" y="108" width="3" height="3" fill="#FFFFFF" />
<rect x="36" y="108" width="3" height="3" fill="#FFFFFF" />
<rect x="39" y="108" width="3" height="3" fill="#FFFFFF" />
<rect x="42" y="108" width="3" height="3" fill="#FFFFFF" />
<rect x="45" y="108" width="3" height="3" fill="#FFFFFF" />
<rect x="18" y="111" width="3" height="3" fill="#FFFFFF" />
<rect x="21" y="111" width="3" height="3" fill="#FFFFFF" />
<rect x="24" y="111" width="3" height="3" fill="#FFFFFF" />
<rect x="27" y="111" width="3" height="3" fill="#FFFFFF" />
<rect x="30" y="111" width="3" height="3" fill="#FFFFFF" />
<rect x="33" y="111" width="3" height="3" fill="#FFFFFF" />
<rect x="36" y="111" width="3" height="3" fill="#FFFFFF" />
<rect x="39" y="111" width="3" height="3" fill="#FFFFFF" />
<rect x="42" y="111" width="3" height="3" fill="#FFFFFF" />
<rect x="45" y="111" width="3" height="3" fill="#FFFFFF" />
<rect x="18" y="114" width="3" height="3" fill="#FFFFFF" />
<rect x="21" y="114" width="3" height="3" fill="#FFFFFF" />
<rect x="24" y="114" width="3" height="3" fill="#FFFFFF" />
<rect x="27" y="114" width="3" height="3" fill="#FFFFFF" />
<rect x="30" y="114" width="3" height="3" fill="#FFFFFF" />
<rect x="33" y="114" width="3" height="3" fill="#FFFFFF" />
<rect x="36" y="114" width="3" height="3" fill="#FFFFFF" />
<rect x="39" y="114" width="3" height="3" fill="#FFFFFF" />
<rect x="18" y="117" width="3" height="3" fill="#FFFFFF" />
<rect x="21" y="117" width="3" height="3" fill="#FFFFFF" />
<rect x="24" y="117" width="3" height="3" fill="#FFFFFF" />
<rect x="27" y="117" width="3" height="3" fill="#FFFFFF" />
<rect x="30" y="117" width="3" height="3" fill="#FFFFFF" />
<rect x="33" y="117" width="3" height="3" fill="#FFFFFF" />
<rect x="36" y="117" width="3" height="3" fill="#FFFFFF" />
<rect x="39" y="117" width="3" height="3" fill="#FFFFFF" />
<rect x="48" y="120" width="3" height="3" fill="#FFFFFF" />
<rect x="51" y="120" width="3" height="3" fill="#FFFFFF" />
<rect x="54" y="120" width="3" height="3" fill="#FFFFFF" />
<rect x="57" y="120" width="3" height="3" fill="#FFFFFF" />
<rect x="60" y="120" width="3" height="3" fill="#FFFFFF" />
<rect x="63" y="120" width="3" height="3" fill="#FFFFFF" />
<rect x="66" y="120" width="3" height="3" fill="#FFFFFF" />
<rect x="69" y="120" width="3" height="3" fill="#FFFFFF" />
<rect x="72" y="120" width="3" height="3" fill="#FFFFFF" />
<rect x="75" y="120" width="3" height="3" fill="#FFFFFF" />
<rect x="78" y="120" width="3" height="3" fill="#FFFFFF" />
<rect x="81" y="120" width="3" height="3" fill="#FFFFFF" />
<rect x="84" y="120" width="3" height="3" fill="#FFFFFF" />
<rect x="87" y="120" width="3" height="3" fill="#FFFFFF" />
<rect x="90" y="120" width="3" height="3" fill="#FFFFFF" />
<rect x="93" y="120" width="3" height="3" fill="#FFFFFF" />
<rect x="96" y="120" width="3" height="3" fill="#FFFFFF" />
<rect x="99" y="120" width="3" height="3" fill="#FFFFFF" />
<rect x="102" y="120" width="3" height="3" fill="#FFFFFF" />
<rect x="105" y="120" width="3" height="3" fill="#FFFFFF" />
<rect x="108" y="120" width="3" height="3" fill="#FFFFFF" />
<rect x="111" y="120" width="3" height="3" fill="#FFFFFF" />
<rect x="114" y="120" width="3" height="3" fill="#FFFFFF" />
<rect x="117" y="120" width="3" height="3" fill="#FFFFFF" />
<rect x="120" y="120" width="3" height="3" fill="#FFFFFF" />
<rect x="123" y="120" width="3" height="3" fill="#FFFFFF" />
<rect x="126" y="120" width="3" height="3" fill="#FFFFFF" />
<rect x="129" y="120" width="3" height="3" fill="#FFFFFF" />
<rect x="48" y="123" width="3" height="3" fill="#FFFFFF" />
<rect x="51" y="123" width="3" height="3" fill="#FFFFFF" />
<rect x="54" y="123" width="3" height="3" fill="#FFFFFF" />
<rect x="57" y="123" width="3" height="3" fill="#FFFFFF" />
<rect x="60" y="123" width="3" height="3" fill="#FFFFFF" />
<rect x="63" y="123" width="3" height="3" fill="#FFFFFF" />
<rect x="66" y="123" width="3" height="3" fill="#FFFFFF" />
<rect x="69" y="123" width="3" height="3" fill="#FFFFFF" />
<rect x="72" y="123" width="3" height="3" fill="#FFFFFF" />
<rect x="75" y="123" width="3" height="3" fill="#FFFFFF" />
<rect x="78" y="123" width="3" height="3" fill="#FFFFFF" />
<rect x="81" y="123" width="3" height="3" fill="#FFFFFF" />
<rect x="84" y="123" width="3" height="3" fill="#FFFFFF" />
<rect x="87" y="123" width="3" height="3" fill="#FFFFFF" />
<rect x="90" y="123" width="3" height="3" fill="#FFFFFF" />
<rect x="93" y="123" width="3" height="3" fill="#FFFFFF" />
<rect x="96" y="123" width="3" height="3" fill="#FFFFFF" />
<rect x="99" y="123" width="3" height="3" fill="#FFFFFF" />
<rect x="102" y="123" width="3" height="3" fill="#FFFFFF" />
<rect x="105" y="123" width="3" height="3" fill="#FFFFFF" />
<rect x="108" y="123" width="3" height="3" fill="#FFFFFF" />
<rect x="111" y="123" width="3" height="3" fill="#FFFFFF" />
<rect x="114" y="123" width="3" height="3" fill="#FFFFFF" />
<rect x="117" y="123" width="3" height="3" fill="#FFFFFF" />
<rect x="120" y="123" width="3" height="3" fill="#FFFFFF" />
<rect x="123" y="123" width="3" height="3" fill="#FFFFFF" />
<rect x="126" y="123" width="3" height="3" fill="#FFFFFF" />
<rect x="129" y="123" width="3" height="3" fill="#FFFFFF" />
<rect x="42" y="126" width="3" height="3" fill="#FFFFFF" />
<rect x="45" y="126" width="3" height="3" fill="#FFFFFF" />
<rect x="48" y="126" width="3" height="3" fill="#FFFFFF" />
<rect x="51" y="126" width="3" height="3" fill="#FFFFFF" />
<rect x="54" y="126" width="3" height="3" fill="#FFFFFF" />
<rect x="57" y="126" width="3" height="3" fill="#FFFFFF" />
<rect x="60" y="126" width="3" height="3" fill="#FFFFFF" />
<rect x="63" y="126" width="3" height="3" fill="#FFFFFF" />
<rect x="66" y="126" width="3" height="3" fill="#FFFFFF" />
<rect x="69" y="126" width="3" height="3" fill="#FFFFFF" />
<rect x="72" y="126" width="3" height="3" fill="#FFFFFF" />
<rect x="75" y="126" width="3" height="3" fill="#FFFFFF" />
<rect x="78" y="126" width="3" height="3" fill="#FFFFFF" />
<rect x="81" y="126" width="3" height="3" fill="#FFFFFF" />
<rect x="84" y="126" width="3" height="3" fill="#FFFFFF" />
<rect x="87" y="126" width="3" height="3" fill="#FFFFFF" />
<rect x="90" y="126" width="3" height="3" fill="#FFFFFF" />
<rect x="93" y="126" width="3" height="3" fill="#FFFFFF" />
<rect x="96" y="126" width="3" height="3" fill="#FFFFFF" />
<rect x="99" y="126" width="3" height="3" fill="#FFFFFF" />
<rect x="102" y="126" width="3" height="3" fill="#FFFFFF" />
<rect x="105" y="126" width="3" height="3" fill="#FFFFFF" />
<rect x="108" y="126" width="3" height="3" fill="#FFFFFF" />
<rect x="111" y="126" width="3" height="3" fill="#FFFFFF" />
<rect x="114" y="126" width="3" height="3" fill="#FFFFFF" />
<rect x="117" y="126" width="3" height="3" fill="#FFFFFF" />
<rect x="120" y="126" width="3" height="3" fill="#FFFFFF" />
<rect x="123" y="126" width="3" height="3" fill="#FFFFFF" />
<rect x="126" y="126" width="3" height="3" fill="#FFFFFF" />
<rect x="129" y="126" width="3" height="3" fill="#FFFFFF" />
<rect x="42" y="129" width="3" height="3" fill="#FFFFFF" />
<rect x="45" y="129" width="3" height="3" fill="#FFFFFF" />
<rect x="48" y="129" width="3" height="3" fill="#FFFFFF" />
<rect x="51" y="129" width="3" height="3" fill="#FFFFFF" />
<rect x="54" y="129" width="3" height="3" fill="#FFFFFF" />
<rect x="57" y="129" width="3" height="3" fill="#FFFFFF" />
<rect x="60" y="129" width="3" height="3" fill="#FFFFFF" />
<rect x="63" y="129" width="3" height="3" fill="#FFFFFF" />
<rect x="66" y="129" width="3" height="3" fill="#FFFFFF" />
<rect x="69" y="129" width="3" height="3" fill="#FFFFFF" />
<rect x="72" y="129" width="3" height="3" fill="#FFFFFF" />
<rect x="75" y="129" width="3" height="3" fill="#FFFFFF" />
<rect x="78" y="129" width="3" height="3" fill="#FFFFFF" />
<rect x="81" y="129" width="3" height="3" fill="#FFFFFF" />
<rect x="84" y="129" width="3" height="3" fill="#FFFFFF" />
<rect x="87" y="129" width="3" height="3" fill="#FFFFFF" />
<rect x="90" y="129" width="3" height="3" fill="#FFFFFF" />
<rect x="93" y="129" width="3" height="3" fill="#FFFFFF" />
<rect x="96" y="129" width="3" height="3" fill="#FFFFFF" />
<rect x="99" y="129" width="3" height="3" fill="#FFFFFF" />
<rect x="102" y="129" width="3" height="3" fill="#FFFFFF" />
<rect x="105" y="129" width="3" height="3" fill="#FFFFFF" />
<rect x="108" y="129" width="3" height="3" fill="#FFFFFF" />
<rect x="111" y="129" width="3" height="3" fill="#FFFFFF" />
<rect x="114" y="129" width="3" height="3" fill="#FFFFFF" />
<rect x="117" y="129" width="3" height="3" fill="#FFFFFF" />
<rect x="120" y="129" width="3" height="3" fill="#FFFFFF" />
<rect x="123" y="129" width="3" height="3" fill="#FFFFFF" />
<rect x="126" y="129" width="3" height="3" fill="#FFFFFF" />
<rect x="129" y="129" width="3" height="3" fill="#FFFFFF" />
</svg>