<?xml version="1.0" encoding="UTF-8" ?>
<svg version="1.1" width="100" height="100" xmlns="http://www.w3.org/2000/svg" shape-rendering="crispEdges">
<rect x="64" y="12" width="2" height="2" fill="#FFFFFF" />
<rect x="66" y="12" width="2" height="2" fill="#FFFFFF" />
<rect x="68" y="12" width="2" height="2" fill="#FFFFFF" />
<rect x="70" y="12" width="2" height="2" fill="#FFFFFF" />
<rect x="64" y="14" width="2" height="2" fill="#FFFFFF" />
<rect x="66" y="14" width="2" height="2" fill="#FFFFFF" />
<rect x="68" y="14" width="2" height="2" fill="#FFFFFF" />
<rect x="70" y="14" width="2" height="2" fill="#FFFFFF" />
<rect x="60" y="16" width="2" height="2" fill="#FFFFFF" />
<rect x="62" y="16" width="2" height="2" fill="#FFFFFF" />
<rect x="64" y="16" width="2" height="2" fill="#FFFFFF" />
<rect x="66" y="16" width="2" height="2" fill="#FFFFFF" />
<rect x="68" y="16" width="2" height="2" fill="#FFFFFF" />
<rect x="70" y="16" width="2" height="2" fill="#FFFFFF" />
<rect x="72" y="16" width="2" height="2" fill="#FFFFFF" />
<rect x="74" y="16" width="2" height="2" fill="#FFFFFF" />
<rect x="60" y="18" width="2" height="2" fill="#FFFFFF" />
<rect x="62" y="18" width="2" height="2" fill="#FFFFFF" />
<rect x="64" y="18" width="2" height="2" fill="#FFFFFF" />
<rect x="66" y="18" width="2" height="2" fill="#FFFFFF" />
<rect x="68" y="18" width="2" height="2" fill="#FFFFFF" />
<rect x="70" y="18" width="2" height="2" fill="#FFFFFF" />
<rect x="72" y="18" width="2" height="2" fill="#FFFFFF" />
<rect x="74" y="18" width="2" height="2" fill="#FFFFFF" />
<rect x="56" y="20" width="2" height="2" fill="#FFFFFF" />
<rect x="58" y="20" width="2" height="2" fill="#FFFFFF" />
<rect x="60" y="20" width="2" height="2" fill="#FFFFFF" />
<rect x="62" y="20" width="2" height="2" fill="#FFFFFF" />
<rect x="64" y="20" width="2" height="2" fill="#FFFFFF" />
<rect x="66" y="20" width="2" height="2" fill="#FFFFFF" />
<rect x="68" y="20" width="2" height="2" fill="#FFFFFF" />
<rect x="70" y="20" width="2" height="2" fill="#FFFFFF" />
<rect x="72" y="20" width="2" height="2" fill="#FFFFFF" />
<rect x="74" y="20" width="2" height="2" fill="#FFFFFF" />
<rect x="76" y="20" width="2" height="2" fill="#FFFFFF" />
<rect x="78" y="20" width="2" height="2" fill="#FFFFFF" />
<rect x="56" y="22" width="2" height="2" fill="#FFFFFF" />
<rect x="58" y="22" width="2" height="2" fill="#FFFFFF" />
<rect x="60" y="22" width="2" height="2" fill="#FFFFFF" />
<rect x="62" y="22" width="2" height="2" fill="#FFFFFF" />
<rect x="64" y="22" width="2" height="2" fill="#FFFFFF" />
<rect x="66" y="22" width="2" height="2" fill="#FFFFFF" />
<rect x="68" y="22" width="2" height="2" fill="#FFFFFF" />
<rect x="70" y="22" width="2" height="2" fill="#FFFFFF" />
<rect x="72" y="22" width="2" height="2" fill="#FFFFFF" />
<rect x="74" y="22" width="2" height="2" fill="#FFFFFF" />
<rect x="76" y="22" width="2" height="2" fill="#FFFFFF" />
<rect x="78" y="22" width="2" height="2" fill="#FFFFFF" />
<rect x="52" y="24" width="2" height="2" fill="#FFFFFF" />
<rect x="54" y="24" width="2" height="2" fill="#FFFFFF" />
<rect x="60" y="24" width="2" height="2" fill="#FFFFFF" />
<rect x="62" y="24" width="2" height="2" fill="#FFFFFF" />
<rect x="64" y="24" width="2" height="2" fill="#FFFFFF" />
<rect x="66" y="24" width="2" height="2" fill="#FFFFFF" />
<rect x="68" y="24" width="2" height="2" fill="#FFFFFF" />
<rect x="70" y="24" width="2" height="2" fill="#FFFFFF" />
<rect x="72" y="24" width="2" height="2" fill="#FFFFFF" />
<rect x="74" y="24" width="2" height="2" fill="#FFFFFF" />
<rect x="76" y="24" width="2" height="2" fill="#FFFFFF" />
<rect x="78" y="24" width="2" height="2" fill="#FFFFFF" />
<rect x="52" y="26" width="2" height="2" fill="#FFFFFF" />
<rect x="54" y="26" width="2" height="2" fill="#FFFFFF" />
<rect x="60" y="26" width="2" height="2" fill="#FFFFFF" />
<rect x="62" y="26" width="2" height="2" fill="#FFFFFF" />
<rect x="64" y="26" width="2" height="2" fill="#FFFFFF" />
<rect x="66" y="26" width="2" height="2" fill="#FFFFFF" />
<rect x="68" y="26" width="2" height="2" fill="#FFFFFF" />
<rect x="70" y="26" width="2" height="2" fill="#FFFFFF" />
<rect x="72" y="26" width="2" height="2" fill="#FFFFFF" />
<rect x="74" y="26" width="2" height="2" fill="#FFFFFF" />
<rect x="76" y="26" width="2" height="2" fill="#FFFFFF" />
<rect x="78" y="26" width="2" height="2" fill="#FFFFFF" />
<rect x="48" y="28" width="2" height="2" fill="#FFFFFF" />
<rect x="50" y="28" width="2" height="2" fill="#FFFFFF" />
<rect x="52" y="28" width="2" height="2" fill="#FFFFFF" />
<rect x="54" y="28" width="2" height="2" fill="#FFFFFF" />
<rect x="56" y="28" width="2" height="2" fill="#FFFFFF" />
<rect x="58" y="28" width="2" height="2" fill="#FFFFFF" />
<rect x="64" y="28" width="2" height="2" fill="#FFFFFF" />
<rect x="66" y="28" width="2" height="2" fill="#FFFFFF" />
<rect x="68" y="28" width="2" height="2" fill="#FFFFFF" />
<rect x="70" y="28" width="2" height="2" fill="#FFFFFF" />
<rect x="72" y="28" width="2" height="2" fill="#FFFFFF" />
<rect x="74" y="28" width="2" height="2" fill="#FFFFFF" />
<rect x="48" y="30" width="2" height="2" fill="#FFFFFF" />
<rect x="50" y="30" width="2" height="2" fill="#FFFFFF" />
<rect x="52" y="30" width="2" height="2" fill="#FFFFFF" />
<rect x="54" y="30" width="2" height="2" fill="#FFFFFF" />
<rect x="56" y="30" width="2" height="2" fill="#FFFFFF" />
<rect x="58" y="30" width="2" height="2" fill="#FFFFFF" />
<rect x="64" y="30" width="2" height="2" fill="#FFFFFF" />
<rect x="66" y="30" width="2" height="2" fill="#FFFFFF" />
<rect x="68" y="30" width="2" height="2" fill="#FFFFFF" />
<rect x="70" y="30" width="2" height="2" fill="#FFFFFF" />
<rect x="72" y="30" width="2" height="2" fill="#FFFFFF" />
<rect x="74" y="30" width="2" height="2" fill="#FFFFFF" />
<rect x="44" y="32" width="2" height="2" fill="#FFFFFF" />
<rect x="46" y="32" width="2" height="2" fill="#FFFFFF" />
<rect x="52" y="32" width="2" height="2" fill="#FFFFFF" />
<rect x="54" y="32" width="2" height="2" fill="#FFFFFF" />
<rect x="56" y="32" width="2" height="2" fill="#FFFFFF" />
<rect x="58" y="32" width="2" height="2" fill="#FFFFFF" />
<rect x="60" y="32" width="2" height="2" fill="#FFFFFF" />
<rect x="62" y="32" width="2" height="2" fill="#FFFFFF" />
<rect x="68" y="32" width="2" height="2" fill="#FFFFFF" />
<rect x="70" y="32" width="2" height="2" fill="#FFFFFF" />
<rect x="44" y="34" width="2" height="2" fill="#FFFFFF" />
<rect x="46" y="34" width="2" height="2" fill="#FFFFFF" />
<rect x="52" y="34" width="2" height="2" fill="#FFFFFF" />
<rect x="54" y="34" width="2" height="2" fill="#FFFFFF" />
<rect x="56" y="34" width="2" height="2" fill="#FFFFFF" />
<rect x="58" y="34" width="2" height="2" fill="#FFFFFF" />
<rect x="60" y="34" width="2" height="2" fill="#FFFFFF" />
<rect x="62" y="34" width="2" height="2" fill="#FFFFFF" />
<rect x="68" y="34" width="2" height="2" fill="#FFFFFF" />
<rect x="70" y="34" width="2" height="2" fill="#FFFFFF" />
<rect x="40" y="36" width="2" height="2" fill="#FFFFFF" />
<rect x="42" y="36" width="2" height="2" fill="#FFFFFF" />
<rect x="48" y="36" width="2" height="2" fill="#FFFFFF" />
<rect x="50" y="36" width="2" height="2" fill="#FFFFFF" />
<rect x="52" y="36" width="2" height="2" fill="#FFFFFF" />
<rect x="54" y="36" width="2" height="2" fill="#FFFFFF" />
<rect x="56" y="36" width="2" height="2" fill="#FFFFFF" />
<rect x="58" y="36" width="2" height="2" fill="#FFFFFF" />
<rect x="60" y="36" width="2" height="2" fill="#FFFFFF" />
<rect x="62" y="36" width="2" height="2" fill="#FFFFFF" />
<rect x="64" y="36" width="2" height="2" fill="#FFFFFF" />
<rect x="66" y="36" width="2" height="2" fill="#FFFFFF" />
<rect x="40" y="38" width="2" height="2" fill="#FFFFFF" />
<rect x="42" y="38" width="2" height="2" fill="#FFFFFF" />
<rect x="48" y="38" width="2" height="2" fill="#FFFFFF" />
<rect x="50" y="38" width="2" height="2" fill="#FFFFFF" />
<rect x="52" y="38" width="2" height="2" fill="#FFFFFF" />
<rect x="54" y="38" width="2" height="2" fill="#FFFFFF" />
<rect x="56" y="38" width="2" height="2" fill="#FFFFFF" />
<rect x="58" y="38" width="2" height="2" fill="#FFFFFF" />
<rect x="60" y="38" width="2" height="2" fill="#FFFFFF" />
<rect x="62" y="38" width="2" height="2" fill="#FFFFFF" />
<rect x="64" y="38" width="2" height="2" fill="#FFFFFF" />
<rect x="66" y="38" width="2" height="2" fill="#FFFFFF" />
<rect x="36" y="40" width="2" height="2" fill="#FFFFFF" />
<rect x="38" y="40" width="2" height="2" fill="#FFFFFF" />
<rect x="44" y="40" width="2" height="2" fill="#FFFFFF" />
<rect x="46" y="40" width="2" height="2" fill="#FFFFFF" />
<rect x="48" y="40" width="2" height="2" fill="#FFFFFF" />
<rect x="50" y="40" width="2" height="2" fill="#FFFFFF" />
<rect x="52" y="40" width="2" height="2" fill="#FFFFFF" />
<rect x="54" y="40" width="2" height="2" fill="#FFFFFF" />
<rect x="56" y="40" width="2" height="2" fill="#FFFFFF" />
<rect x="58" y="40" width="2" height="2" fill="#FFFFFF" />
<rect x="60" y="40" width="2" height="2" fill="#FFFFFF" />
<rect x="62" y="40" width="2" height="2" fill="#FFFFFF" />
<rect x="36" y="42" width="2" height="2" fill="#FFFFFF" />
<rect x="38" y="42" width="2" height="2" fill="#FFFFFF" />
<rect x="44" y="42" width="2" height="2" fill="#FFFFFF" />
<rect x="46" y="42" width="2" height="2" fill="#FFFFFF" />
<rect x="48" y="42" width="2" height="2" fill="#FFFFFF" />
<rect x="50" y="42" width="2" height="2" fill="#FFFFFF" />
<rect x="52" y="42" width="2" height="2" fill="#FFFFFF" />
<rect x="54" y="42" width="2" height="2" fill="#FFFFFF" />
<rect x="56" y="42" width="2" height="2" fill="#FFFFFF" />
<rect x="58" y="42" width="2" height="2" fill="#FFFFFF" />
<rect x="60" y="42" width="2" height="2" fill="#FFFFFF" />
<rect x="62" y="42" width="2" height="2" fill="#FFFFFF" />
<rect x="32" y="44" width="2" height="2" fill="#FFFFFF" />
<rect x="34" y="44" width="2" height="2" fill="#FFFFFF" />
<rect x="40" y="44" width="2" height="2" fill="#FFFFFF" />
<rect x="42" y="44" width="2" height="2" fill="#FFFFFF" />
<rect x="44" y="44" width="2" height="2" fill="#FFFFFF" />
<rect x="46" y="44" width="2" height="2" fill="#FFFFFF" />
<rect x="48" y="44" width="2" height="2" fill="#FFFFFF" />
<rect x="50" y="44" width="2" height="2" fill="#FFFFFF" />
<rect x="52" y="44" width="2" height="2" fill="#FFFFFF" />
<rect x="54" y="44" width="2" height="2" fill="#FFFFFF" />
<rect x="56" y="44" width="2" height="2" fill="#FFFFFF" />
<rect x="58" y="44" width="2" height="2" fill="#FFFFFF" />
<rect x="32" y="46" width="2" height="2" fill="#FFFFFF" />
<rect x="34" y="46" width="2" height="2" fill="#FFFFFF" />
<rect x="40" y="46" width="2" height="2" fill="#FFFFFF" />
<rect x="42" y="46" width="2" height="2" fill="#FFFFFF" />
<rect x="44" y="46" width="2" height="2" fill="#FFFFFF" />
<rect x="46" y="46" width="2" height="2" fill="#FFFFFF" />
<rect x="48" y="46" width="2" height="2" fill="#FFFFFF" />
<rect x="50" y="46" width="2" height="2" fill="#FFFFFF" />
<rect x="52" y="46" width="2" height="2" fill="#FFFFFF" />
<rect x="54" y="46" width="2" height="2" fill="#FFFFFF" />
<rect x="56" y="46" width="2" height="2" fill="#FFFFFF" />
<rect x="58" y="46" width="2" height="2" fill="#FFFFFF" />
<rect x="28" y="48" width="2" height="2" fill="#FFFFFF" />
<rect x="30" y="48" width="2" height="2" fill="#FFFFFF" />
<rect x="36" y="48" width="2" height="2" fill="#FFFFFF" />
<rect x="38" y="48" width="2" height="2" fill="#FFFFFF" />
<rect x="40" y="48" width="2" height="2" fill="#FFFFFF" />
<rect x="42" y="48" width="2" height="2" fill="#FFFFFF" />
<rect x="44" y="48" width="2" height="2" fill="#FFFFFF" />
<rect x="46" y="48" width="2" height="2" fill="#FFFFFF" />
<rect x="48" y="48" width="2" height="2" fill="#FFFFFF" />
<rect x="50" y="48" width="2" height="2" fill="#FFFFFF" />
<rect x="52" y="48" width="2" height="2" fill="#FFFFFF" />
<rect x="54" y="48" width="2" height="2" fill="#FFFFFF" />
<rect x="28" y="50" width="2" height="2" fill="#FFFFFF" />
<rect x="30" y="50" width="2" height="2" fill="#FFFFFF" />
<rect x="36" y="50" width="2" height="2" fill="#FFFFFF" />
<rect x="38" y="50" width="2" height="2" fill="#FFFFFF" />
<rect x="40" y="50" width="2" height="2" fill="#FFFFFF" />
<rect x="42" y="50" width="2" height="2" fill="#FFFFFF" />
<rect x="44" y="50" width="2" height="2" fill="#FFFFFF" />
<rect x="46" y="50" width="2" height="2" fill="#FFFFFF" />
<rect x="48" y="50" width="2" height="2" fill="#FFFFFF" />
<rect x="50" y="50" width="2" height="2" fill="#FFFFFF" />
<rect x="52" y="50" width="2" height="2" fill="#FFFFFF" />
<rect x="54" y="50" width="2" height="2" fill="#FFFFFF" />
<rect x="24" y="52" width="2" height="2" fill="#FFFFFF" />
<rect x="26" y="52" width="2" height="2" fill="#FFFFFF" />
<rect x="32" y="52" width="2" height="2" fill="#FFFFFF" />
<rect x="34" y="52" width="2" height="2" fill="#FFFFFF" />
<rect x="36" y="52" width="2" height="2" fill="#FFFFFF" />
<rect x="38" y="52" width="2" height="2" fill="#FFFFFF" />
<rect x="40" y="52" width="2" height="2" fill="#FFFFFF" />
<rect x="42" y="52" width="2" height="2" fill="#FFFFFF" />
<rect x="44" y="52" width="2" height="2" fill="#FFFFFF" />
<rect x="46" y="52" width="2" height="2" fill="#FFFFFF" />
<rect x="48" y="52" width="2" height="2" fill="#FFFFFF" />
<rect x="50" y="52" width="2" height="2" fill="#FFFFFF" />
<rect x="24" y="54" width="2" height="2" fill="#FFFFFF" />
<rect x="26" y="54" width="2" height="2" fill="#FFFFFF" />
<rect x="32" y="54" width="2" height="2" fill="#FFFFFF" />
<rect x="34" y="54" width="2" height="2" fill="#FFFFFF" />
<rect x="36" y="54" width="2" height="2" fill="#FFFFFF" />
<rect x="38" y="54" width="2" height="2" fill="#FFFFFF" />
<rect x="40" y="54" width="2" height="2" fill="#FFFFFF" />
<rect x="42" y="54" width="2" height="2" fill="#FFFFFF" />
<rect x="44" y="54" width="2" height="2" fill="#FFFFFF" />
<rect x="46" y="54" width="2" height="2" fill="#FFFFFF" />
<rect x="48" y="54" width="2" height="2" fill="#FFFFFF" />
<rect x="50" y="54" width="2" height="2" fill="#FFFFFF" />
<rect x="20" y="56" width="2" height="2" fill="#FFFFFF" />
<rect x="22" y="56" width="2" height="2" fill="#FFFFFF" />
<rect x="28" y="56" width="2" height="2" fill="#FFFFFF" />
<rect x="30" y="56" width="2" height="2" fill="#FFFFFF" />
<rect x="32" y="56" width="2" height="2" fill="#FFFFFF" />
<rect x="34" y="56" width="2" height="2" fill="#FFFFFF" />
<rect x="36" y="56" width="2" height="2" fill="#FFFFFF" />
<rect x="38" y="56" width="2" height="2" fill="#FFFFFF" />
<rect x="40" y="56" width="2" height="2" fill="#FFFFFF" />
<rect x="42" y="56" width="2" height="2" fill="#FFFFFF" />
<rect x="44" y="56" width="2" height="2" fill="#FFFFFF" />
<rect x="46" y="56" width="2" height="2" fill="#FFFFFF" />
<rect x="20" y="58" width="2" height="2" fill="#FFFFFF" />
<rect x="22" y="58" width="2" height="2" fill="#FFFFFF" />
<rect x="28" y="58" width="2" height="2" fill="#FFFFFF" />
<rect x="30" y="58" width="2" height="2" fill="#FFFFFF" />
<rect x="32" y="58" width="2" height="2" fill="#FFFFFF" />
<rect x="34" y="58" width="2" height="2" fill="#FFFFFF" />
<rect x="36" y="58" width="2" height="2" fill="#FFFFFF" />
<rect x="38" y="58" width="2" height="2" fill="#FFFFFF" />
<rect x="40" y="58" width="2" height="2" fill="#FFFFFF" />
<rect x="42" y="58" width="2" height="2" fill="#FFFFFF" />
<rect x="44" y="58" width="2" height="2" fill="#FFFFFF" />
<rect x="46" y="58" width="2" height="2" fill="#FFFFFF" />
<rect x="16" y="60" width="2" height="2" fill="#FFFFFF" />
<rect x="18" y="60" width="2" height="2" fill="#FFFFFF" />
<rect x="24" y="60" width="2" height="2" fill="#FFFFFF" />
<rect x="26" y="60" width="2" height="2" fill="#FFFFFF" />
<rect x="28" y="60" width="2" height="2" fill="#FFFFFF" />
<rect x="30" y="60" width="2" height="2" fill="#FFFFFF" />
<rect x="32" y="60" width="2" height="2" fill="#FFFFFF" />
<rect x="34" y="60" width="2" height="2" fill="#FFFFFF" />
<rect x="36" y="60" width="2" height="2" fill="#FFFFFF" />
<rect x="38" y="60" width="2" height="2" fill="#FFFFFF" />
<rect x="40" y="60" width="2" height="2" fill="#FFFFFF" />
<rect x="42" y="60" width="2" height="2" fill="#FFFFFF" />
<rect x="16" y="62" width="2" height="2" fill="#FFFFFF" />
<rect x="18" y="62" width="2" height="2" fill="#FFFFFF" />
<rect x="24" y="62" width="2" height="2" fill="#FFFFFF" />
<rect x="26" y="62" width="2" height="2" fill="#FFFFFF" />
<rect x="28" y="62" width="2" height="2" fill="#FFFFFF" />
<rect x="30" y="62" width="2" height="2" fill="#FFFFFF" />
<rect x="32" y="62" width="2" height="2" fill="#FFFFFF" />
<rect x="34" y="62" width="2" height="2" fill="#FFFFFF" />
<rect x="36" y="62" width="2" height="2" fill="#FFFFFF" />
<rect x="38" y="62" width="2" height="2" fill="#FFFFFF" />
<rect x="40" y="62" width="2" height="2" fill="#FFFFFF" />
<rect x="42" y="62" width="2" height="2" fill="#FFFFFF" />
<rect x="12" y="64" width="2" height="2" fill="#FFFFFF" />
<rect x="14" y="64" width="2" height="2" fill="#FFFFFF" />
<rect x="20" y="64" width="2" height="2" fill="#FFFFFF" />
<rect x="22" y="64" width="2" height="2" fill="#FFFFFF" />
<rect x="24" y="64" width="2" height="2" fill="#FFFFFF" />
<rect x="26" y="64" width="2" height="2" fill="#FFFFFF" />
<rect x="28" y="64" width="2" height="2" fill="#FFFFFF" />
<rect x="30" y="64" width="2" height="2" fill="#FFFFFF" />
<rect x="32" y="64" width="2" height="2" fill="#FFFFFF" />
<rect x="34" y="64" width="2" height="2" fill="#FFFFFF" />
<rect x="36" y="64" width="2" height="2" fill="#FFFFFF" />
<rect x="38" y="64" width="2" height="2" fill="#FFFFFF" />
<rect x="12" y="66" width="2" height="2" fill="#FFFFFF" />
<rect x="14" y="66" width="2" height="2" fill="#FFFFFF" />
<rect x="20" y="66" width="2" height="2" fill="#FFFFFF" />
<rect x="22" y="66" width="2" height="2" fill="#FFFFFF" />
<rect x="24" y="66" width="2" height="2" fill="#FFFFFF" />
<rect x="26" y="66" width="2" height="2" fill="#FFFFFF" />
<rect x="28" y="66" width="2" height="2" fill="#FFFFFF" />
<rect x="30" y="66" width="2" height="2" fill="#FFFFFF" />
<rect x="32" y="66" width="2" height="2" fill="#FFFFFF" />
<rect x="34" y="66" width="2" height="2" fill="#FFFFFF" />
<rect x="36" y="66" width="2" height="2" fill="#FFFFFF" />
<rect x="38" y="66" width="2" height="2" fill="#FFFFFF" />
<rect x="12" y="68" width="2" height="2" fill="#FFFFFF" />
<rect x="14" y="68" width="2" height="2" fill="#FFFFFF" />
<rect x="16" y="68" width="2" height="2" fill="#FFFFFF" />
<rect x="18" y="68" width="2" height="2" fill="#FFFFFF" />
<rect x="20" y="68" width="2" height="2" fill="#FFFFFF" />
<rect x="22" y="68" width="2" height="2" fill="#FFFFFF" />
<rect x="24" y="68" width="2" height="2" fill="#FFFFFF" />
<rect x="26" y="68" width="2" height="2" fill="#FFFFFF" />
<rect x="28" y="68" width="2" height="2" fill="#FFFFFF" />
<rect x="30" y="68" width="2" height="2" fill="#FFFFFF" />
<rect x="32" y="68" width="2" height="2" fill="#FFFFFF" />
<rect x="34" y="68" width="2" height="2" fill="#FFFFFF" />
<rect x="12" y="70" width="2" height="2" fill="#FFFFFF" />
<rect x="14" y="70" width="2" height="2" fill="#FFFFFF" />
<rect x="16" y="70" width="2" height="2" fill="#FFFFFF" />
<rect x="18" y="70" width="2" height="2" fill="#FFFFFF" />
<rect x="20" y="70" width="2" height="2" fill="#FFFFFF" />
<rect x="22" y="70" width="2" height="2" fill="#FFFFFF" />
<rect x="24" y="70" width="2" height="2" fill="#FFFFFF" />
<rect x="26" y="70" width="2" height="2" fill="#FFFFFF" />
<rect x="28" y="70" width="2" height="2" fill="#FFFFFF" />
<rect x="30" y="70" width="2" height="2" fill="#FFFFFF" />
<rect x="32" y="70" width="2" height="2" fill="#FFFFFF" />
<rect x="34" y="70" width="2" height="2" fill="#FFFFFF" />
<rect x="12" y="72" width="2" height="2" fill="#FFFFFF" />
<rect x="14" y="72" width="2" height="2" fill="#FFFFFF" />
<rect x="16" y="72" width="2" height="2" fill="#FFFFFF" />
<rect x="18" y="72" width="2" height="2" fill="#FFFFFF" />
<rect x="20" y="72" width="2" height="2" fill="#FFFFFF" />
<rect x="22" y="72" width="2" height="2" fill="#FFFFFF" />
<rect x="24" y="72" width="2" height="2" fill="#FFFFFF" />
<rect x="26" y="72" width="2" height="2" fill="#FFFFFF" />
<rect x="28" y="72" width="2" height="2" fill="#FFFFFF" />
<rect x="30" y="72" width="2" height="2" fill="#FFFFFF" />
<rect x="12" y="74" width="2" height="2" fill="#FFFFFF" />
<rect x="14" y="74" width="2" height="2" fill="#FFFFFF" />
<rect x="16" y="74" width="2" height="2" fill="#FFFFFF" />
<rect x="18" y="74" width="2" height="2" fill="#FFFFFF" />
<rect x="20" y="74" width="2" height="2" fill="#FFFFFF" />
<rect x="22" y="74" width="2" height="2" fill="#FFFFFF" />
<rect x="24" y="74" width="2" height="2" fill="#FFFFFF" />
<rect x="26" y="74" width="2" height="2" fill="#FFFFFF" />
<rect x="28" y="74" width="2" height="2" fill="#FFFFFF" />
<rect x="30" y="74" width="2" height="2" fill="#FFFFFF" />
<rect x="12" y="76" width="2" height="2" fill="#FFFFFF" />
<rect x="14" y="76" width="2" height="2" fill="#FFFFFF" />
<rect x="16" y="76" width="2" height="2" fill="#FFFFFF" />
<rect x="18" y="76" width="2" height="2" fill="#FFFFFF" />
<rect x="20" y="76" width="2" height="2" fill="#FFFFFF" />
<rect x="22" y="76" width="2" height="2" fill="#FFFFFF" />
<rect x="24" y="76" width="2" height="2" fill="#FFFFFF" />
<rect x="26" y="76" width="2" height="2" fill="#FFFFFF" />
<rect x="12" y="78" width="2" height="2" fill="#FFFFFF" />
<rect x="14" y="78" width="2" height="2" fill="#FFFFFF" />
<rect x="16" y="78" width="2" height="2" fill="#FFFFFF" />
<rect x="18" y="78" width="2" height="2" fill="#FFFFFF" />
<rect x="20" y="78" width="2" height="2" fill="#FFFFFF" />
<rect x="22" y="78" width="2" height="2" fill="#FFFFFF" />
<rect x="24" y="78" width="2" height="2" fill="#FFFFFF" />
<rect x="26" y="78" width="2" height="2" fill="#FFFFFF" />
<rect x="32" y="80" width="2" height="2" fill="#FFFFFF" />
<rect x="34" y="80" width="2" height="2" fill="#FFFFFF" />
<rect x="36" y="80" width="2" height="2" fill="#FFFFFF" />
<rect x="38" y="80" width="2" height="2" fill="#FFFFFF" />
<rect x="40" y="80" width="2" height="2" fill="#FFFFFF" />
<rect x="42" y="80" width="2" height="2" fill="#FFFFFF" />
<rect x="44" y="80" width="2" height="2" fill="#FFFFFF" />
<rect x="46" y="80" width="2" height="2" fill="#FFFFFF" />
<rect x="48" y="80" width="2" height="2" fill="#FFFFFF" />
<rect x="50" y="80" width="2" height="2" fill="#FFFFFF" />
<rect x="52" y="80" width="2" height="2" fill="#FFFFFF" />
<rect x="54" y="80" width="2" height="2" fill="#FFFFFF" />
<rect x="56" y="80" width="2" height="2" fill="#FFFFFF" />
<rect x="58" y="80" width="2" height="2" fill="#FFFFFF" />
<rect x="60" y="80" width="2" height="2" fill="#FFFFFF" />
<rect x="62" y="80" width="2" height="2" fill="#FFFFFF" />
<rect x="64" y="80" width="2" height="2" fill="#FFFFFF" />
<rect x="66" y="80" width="2" height="2" fill="#FFFFFF" />
<rect x="68" y="80" width="2" height="2" fill="#FFFFFF" />
<rect x="70" y="80" width="2" height="2" fill="#FFFFFF" />
<rect x="72" y="80" width="2" height="2" fill="#FFFFFF" />
<rect x="74" y="80" width="2" height="2" fill="#FFFFFF" />
<rect x="76" y="80" width="2" height="2" fill="#FFFFFF" />
<rect x="78" y="80" width="2" height="2" fill="#FFFFFF" />
<rect x="80" y="80" width="2" height="2" fill="#FFFFFF" />
<rect x="82" y="80" width="2" height="2" fill="#FFFFFF" />
<rect x="84" y="80" width="2" height="2" fill="#FFFFFF" />
<rect x="86" y="80" width="2" height="2" fill="#FFFFFF" />
<rect x="32" y="82" width="2" height="2" fill="#FFFFFF" />
<rect x="34" y="82" width="2" height="2" fill="#FFFFFF" />
<rect x="36" y="82" width="2" height="2" fill="#FFFFFF" />
<rect x="38" y="82" width="2" height="2" fill="#FFFFFF" />
<rect x="40" y="82" width="2" height="2" fill="#FFFFFF" />
<rect x="42" y="82" width="2" height="2" fill="#FFFFFF" />
<rect x="44" y="82" width="2" height="2" fill="#FFFFFF" />
<rect x="46" y="82" width="2" height="2" fill="#FFFFFF" />
<rect x="48" y="82" width="2" height="2" fill="#FFFFFF" />
<rect x="50" y="82" width="2" height="2" fill="#FFFFFF" />
<rect x="52" y="82" width="2" height="2" fill="#FFFFFF" />
<rect x="54" y="82" width="2" height="2" fill="#FFFFFF" />
<rect x="56" y="82" width="2" height="2" fill="#FFFFFF" />
<rect x="58" y="82" width="2" height="2" fill="#FFFFFF" />
<rect x="60" y="82" width="2" height="2" fill="#FFFFFF" />
<rect x="62" y="82" width="2" height="2" fill="#FFFFFF" />
<rect x="64" y="82" width="2" height="2" fill="#FFFFFF" />
<rect x="66" y="82" width="2" height="2" fill="#FFFFFF" />
<rect x="68" y="82" width="2" height="2" fill="#FFFFFF" />
<rect x="70" y="82" width="2" height="2" fill="#FFFFFF" />
<rect x="72" y="82" width="2" height="2" fill="#FFFFFF" />
<rect x="74" y="82" width="2" height="2" fill="#FFFFFF" />
<rect x="76" y="82" width="2" height="2" fill="#FFFFFF" />
<rect x="78" y="82" width="2" height="2" fill="#FFFFFF" />
<rect x="80" y="82" width="2" height="2" fill="#FFFFFF" />
<rect x="82" y="82" width="2" height="2" fill="#FFFFFF" />
<rect x="84" y="82" width="2" height="2" fill="#FFFFFF" />
<rect x="86" y="82" width="2" height="2" fill="#FFFFFF" />
<rect x="28" y="84" width="2" height="2" fill="#FFFFFF" />
<rect x="30" y="84" width="2" height="2" fill="#FFFFFF" />
<rect x="32" y="84" width="2" height="2" fill="#FFFFFF" />
<rect x="34" y="84" width="2" height="2" fill="#FFFFFF" />
<rect x="36" y="84" width="2" height="2" fill="#FFFFFF" />
<rect x="38" y="84" width="2" height="2" fill="#FFFFFF" />
<rect x="40" y="84" width="2" height="2" fill="#FFFFFF" />
<rect x="42" y="84" width="2" height="2" fill="#FFFFFF" />
<rect x="44" y="84" width="2" height="2" fill="#FFFFFF" />
<rect x="46" y="84" width="2" height="2" fill="#FFFFFF" />
<rect x="48" y="84" width="2" height="2" fill="#FFFFFF" />
<rect x="50" y="84" width="2" height="2" fill="#FFFFFF" />
<rect x="52" y="84" width="2" height="2" fill="#FFFFFF" />
<rect x="54" y="84" width="2" height="2" fill="#FFFFFF" />
<rect x="56" y="84" width="2" height="2" fill="#FFFFFF" />
<rect x="58" y="84" width="2" height="2" fill="#FFFFFF" />
<rect x="60" y="84" width="2" height="2" fill="#FFFFFF" />
<rect x="62" y="84" width="2" height="2" fill="#FFFFFF" />
<rect x="64" y="84" width="2" height="2" fill="#FFFFFF" />
<rect x="66" y="84" width="2" height="2" fill="#FFFFFF" />
<rect x="68" y="84" width="2" height="2" fill="#FFFFFF" />
<rect x="70" y="84" width="2" height="2" fill="#FFFFFF" />
<rect x="72" y="84" width="2" height="2" fill="#FFFFFF" />
<rect x="74" y="84" width="2" height="2" fill="#FFFFFF" />
<rect x="76" y="84" width="2" height="2" fill="#FFFFFF" />
<rect x="78" y="84" width="2" height="2" fill="#FFFFFF" />
<rect x="80" y="84" width="2" height="2" fill="#FFFFFF" />
<rect x="82" y="84" width="2" height="2" fill="#FFFFFF" />
<rect x="84" y="84" width="2" height="2" fill="#FFFFFF" />
<rect x="86" y="84" width="2" height="2" fill="#FFFFFF" />
<rect x="28" y="86" width="2" height="2" fill="#FFFFFF" />
<rect x="30" y="86" width="2" height="2" fill="#FFFFFF" />
<rect x="32" y="86" width="2" height="2" fill="#FFFFFF" />
<rect x="34" y="86" width="2" height="2" fill="#FFFFFF" />
<rect x="36" y="86" width="2" height="2" fill="#FFFFFF" />
<rect x="38" y="86" width="2" height="2" fill="#FFFFFF" />
<rect x="40" y="86" width="2" height="2" fill="#FFFFFF" />
<rect x="42" y="86" width="2" height="2" fill="#FFFFFF" />
<rect x="44" y="86" width="2" height="2" fill="#FFFFFF" />
<rect x="46" y="86" width="2" height="2" fill="#FFFFFF" />
<rect x="48" y="86" width="2" height="2" fill="#FFFFFF" />
<rect x="50" y="86" width="2" height="2" fill="#FFFFFF" />
<rect x="52" y="86" width="2" height="2" fill="#FFFFFF" />
<rect x="54" y="86" width="2" height="2" fill="#FFFFFF" />
<rect x="56" y="86" width="2" height="2" fill="#FFFFFF" />
<rect x="58" y="86" width="2" height="2" fill="#FFFFFF" />
<rect x="60" y="86" width="2" height="2" fill="#FFFFFF" />
<rect x="62" y="86" width="2" height="2" fill="#FFFFFF" />
<rect x="64" y="86" width="2" height="2" fill="#FFFFFF" />
<rect x="66" y="86" width="2" height="2" fill="#FFFFFF" />
<rect x="68" y="86" width="2" height="2" fill="#FFFFFF" />
<rect x="70" y="86" width="2" height="2" fill="#FFFFFF" />
<rect x="72" y="86" width="2" height="2" fill="#FFFFFF" />
<rect x="74" y="86" width="2" height="2" fill="#FFFFFF" />
<rect x="76" y="86" width="2" height="2" fill="#FFFFFF" />
<rect x="78" y="86" width="2" height="2" fill="#FFFFFF" />
<rect x="80" y="86" width="2" height="2" fill="#FFFFFF" />
<rect x="82" y="86" width="2" height="2" fill="#FFFFFF" />
<rect x="84" y="86" width="2" height="2" fill="#FFFFFF" />
<rect x="86" y="86" width="2" height="2" fill="#FFFFFF" />
</svg>