<?xml version="1.0" encoding="UTF-8" ?>
<svg version="1.1" width="42" height="42" xmlns="http://www.w3.org/2000/svg" shape-rendering="crispEdges">
<rect x="18" y="2" width="1" height="1" fill="#FFFFFF" />
<rect x="19" y="2" width="1" height="1" fill="#FFFFFF" />
<rect x="20" y="2" width="1" height="1" fill="#FFFFFF" />
<rect x="21" y="2" width="1" height="1" fill="#FFFFFF" />
<rect x="22" y="2" width="1" height="1" fill="#FFFFFF" />
<rect x="23" y="2" width="1" height="1" fill="#FFFFFF" />
<rect x="18" y="3" width="1" height="1" fill="#FFFFFF" />
<rect x="19" y="3" width="1" height="1" fill="#FFFFFF" />
<rect x="20" y="3" width="1" height="1" fill="#FFFFFF" />
<rect x="21" y="3" width="1" height="1" fill="#FFFFFF" />
<rect x="22" y="3" width="1" height="1" fill="#FFFFFF" />
<rect x="23" y="3" width="1" height="1" fill="#FFFFFF" />
<rect x="16" y="4" width="1" height="1" fill="#FFFFFF" />
<rect x="17" y="4" width="1" height="1" fill="#FFFFFF" />
<rect x="18" y="4" width="1" height="1" fill="#FFFFFF" />
<rect x="19" y="4" width="1" height="1" fill="#FFFFFF" />
<rect x="20" y="4" width="1" height="1" fill="#B9D1EC" />
<rect x="21" y="4" width="1" height="1" fill="#B9D1EC" />
<rect x="22" y="4" width="1" height="1" fill="#FFFFFF" />
<rect x="23" y="4" width="1" height="1" fill="#FFFFFF" />
<rect x="24" y="4" width="1" height="1" fill="#FFFFFF" />
<rect x="25" y="4" width="1" height="1" fill="#FFFFFF" />
<rect x="16" y="5" width="1" height="1" fill="#FFFFFF" />
<rect x="17" y="5" width="1" height="1" fill="#FFFFFF" />
<rect x="18" y="5" width="1" height="1" fill="#FFFFFF" />
<rect x="19" y="5" width="1" height="1" fill="#FFFFFF" />
<rect x="20" y="5" width="1" height="1" fill="#B9D1EC" />
<rect x="21" y="5" width="1" height="1" fill="#B9D1EC" />
<rect x="22" y="5" width="1" height="1" fill="#FFFFFF" />
<rect x="23" y="5" width="1" height="1" fill="#FFFFFF" />
<rect x="24" y="5" width="1" height="1" fill="#FFFFFF" />
<rect x="25" y="5" width="1" height="1" fill="#FFFFFF" />
<rect x="16" y="6" width="1" height="1" fill="#FFFFFF" />
<rect x="17" y="6" width="1" height="1" fill="#FFFFFF" />
<rect x="18" y="6" width="1" height="1" fill="#B9D1EC" />
<rect x="19" y="6" width="1" height="1" fill="#B9D1EC" />
<rect x="20" y="6" width="1" height="1" fill="#81B3E9" />
<rect x="21" y="6" width="1" height="1" fill="#81B3E9" />
<rect x="22" y="6" width="1" height="1" fill="#5385D7" />
<rect x="23" y="6" width="1" height="1" fill="#5385D7" />
<rect x="24" y="6" width="1" height="1" fill="#FFFFFF" />
<rect x="25" y="6" width="1" height="1" fill="#FFFFFF" />
<rect x="16" y="7" width="1" height="1" fill="#FFFFFF" />
<rect x="17" y="7" width="1" height="1" fill="#FFFFFF" />
<rect x="18" y="7" width="1" height="1" fill="#B9D1EC" />
<rect x="19" y="7" width="1" height="1" fill="#B9D1EC" />
<rect x="20" y="7" width="1" height="1" fill="#81B3E9" />
<rect x="21" y="7" width="1" height="1" fill="#81B3E9" />
<rect x="22" y="7" width="1" height="1" fill="#5385D7" />
<rect x="23" y="7" width="1" height="1" fill="#5385D7" />
<rect x="24" y="7" width="1" height="1" fill="#FFFFFF" />
<rect x="25" y="7" width="1" height="1" fill="#FFFFFF" />
<rect x="14" y="8" width="1" height="1" fill="#FFFFFF" />
<rect x="15" y="8" width="1" height="1" fill="#FFFFFF" />
<rect x="16" y="8" width="1" height="1" fill="#FFFFFF" />
<rect x="17" y="8" width="1" height="1" fill="#FFFFFF" />
<rect x="18" y="8" width="1" height="1" fill="#B9D1EC" />
<rect x="19" y="8" width="1" height="1" fill="#B9D1EC" />
<rect x="20" y="8" width="1" height="1" fill="#81B3E9" />
<rect x="21" y="8" width="1" height="1" fill="#81B3E9" />
<rect x="22" y="8" width="1" height="1" fill="#5385D7" />
<rect x="23" y="8" width="1" height="1" fill="#5385D7" />
<rect x="24" y="8" width="1" height="1" fill="#FFFFFF" />
<rect x="25" y="8" width="1" height="1" fill="#FFFFFF" />
<rect x="26" y="8" width="1" height="1" fill="#FFFFFF" />
<rect x="27" y="8" width="1" height="1" fill="#FFFFFF" />
<rect x="14" y="9" width="1" height="1" fill="#FFFFFF" />
<rect x="15" y="9" width="1" height="1" fill="#FFFFFF" />
<rect x="16" y="9" width="1" height="1" fill="#FFFFFF" />
<rect x="17" y="9" width="1" height="1" fill="#FFFFFF" />
<rect x="18" y="9" width="1" height="1" fill="#B9D1EC" />
<rect x="19" y="9" width="1" height="1" fill="#B9D1EC" />
<rect x="20" y="9" width="1" height="1" fill="#81B3E9" />
<rect x="21" y="9" width="1" height="1" fill="#81B3E9" />
<rect x="22" y="9" width="1" height="1" fill="#5385D7" />
<rect x="23" y="9" width="1" height="1" fill="#5385D7" />
<rect x="24" y="9" width="1" height="1" fill="#FFFFFF" />
<rect x="25" y="9" width="1" height="1" fill="#FFFFFF" />
<rect x="26" y="9" width="1" height="1" fill="#FFFFFF" />
<rect x="27" y="9" width="1" height="1" fill="#FFFFFF" />
<rect x="14" y="10" width="1" height="1" fill="#FFFFFF" />
<rect x="15" y="10" width="1" height="1" fill="#FFFFFF" />
<rect x="16" y="10" width="1" height="1" fill="#B9D1EC" />
<rect x="17" y="10" width="1" height="1" fill="#B9D1EC" />
<rect x="18" y="10" width="1" height="1" fill="#81B3E9" />
<rect x="19" y="10" width="1" height="1" fill="#81B3E9" />
<rect x="20" y="10" width="1" height="1" fill="#81B3E9" />
<rect x="21" y="10" width="1" height="1" fill="#81B3E9" />
<rect x="22" y="10" width="1" height="1" fill="#81B3E9" />
<rect x="23" y="10" width="1" height="1" fill="#81B3E9" />
<rect x="24" y="10" width="1" height="1" fill="#5385D7" />
<rect x="25" y="10" width="1" height="1" fill="#5385D7" />
<rect x="26" y="10" width="1" height="1" fill="#FFFFFF" />
<rect x="27" y="10" width="1" height="1" fill="#FFFFFF" />
<rect x="14" y="11" width="1" height="1" fill="#FFFFFF" />
<rect x="15" y="11" width="1" height="1" fill="#FFFFFF" />
<rect x="16" y="11" width="1" height="1" fill="#B9D1EC" />
<rect x="17" y="11" width="1" height="1" fill="#B9D1EC" />
<rect x="18" y="11" width="1" height="1" fill="#81B3E9" />
<rect x="19" y="11" width="1" height="1" fill="#81B3E9" />
<rect x="20" y="11" width="1" height="1" fill="#81B3E9" />
<rect x="21" y="11" width="1" height="1" fill="#81B3E9" />
<rect x="22" y="11" width="1" height="1" fill="#81B3E9" />
<rect x="23" y="11" width="1" height="1" fill="#81B3E9" />
<rect x="24" y="11" width="1" height="1" fill="#5385D7" />
<rect x="25" y="11" width="1" height="1" fill="#5385D7" />
<rect x="26" y="11" width="1" height="1" fill="#FFFFFF" />
<rect x="27" y="11" width="1" height="1" fill="#FFFFFF" />
<rect x="12" y="12" width="1" height="1" fill="#FFFFFF" />
<rect x="13" y="12" width="1" height="1" fill="#FFFFFF" />
<rect x="14" y="12" width="1" height="1" fill="#FFFFFF" />
<rect x="15" y="12" width="1" height="1" fill="#FFFFFF" />
<rect x="16" y="12" width="1" height="1" fill="#B9D1EC" />
<rect x="17" y="12" width="1" height="1" fill="#B9D1EC" />
<rect x="18" y="12" width="1" height="1" fill="#81B3E9" />
<rect x="19" y="12" width="1" height="1" fill="#81B3E9" />
<rect x="20" y="12" width="1" height="1" fill="#81B3E9" />
<rect x="21" y="12" width="1" height="1" fill="#81B3E9" />
<rect x="22" y="12" width="1" height="1" fill="#81B3E9" />
<rect x="23" y="12" width="1" height="1" fill="#81B3E9" />
<rect x="24" y="12" width="1" height="1" fill="#5385D7" />
<rect x="25" y="12" width="1" height="1" fill="#5385D7" />
<rect x="26" y="12" width="1" height="1" fill="#FFFFFF" />
<rect x="27" y="12" width="1" height="1" fill="#FFFFFF" />
<rect x="28" y="12" width="1" height="1" fill="#FFFFFF" />
<rect x="29" y="12" width="1" height="1" fill="#FFFFFF" />
<rect x="12" y="13" width="1" height="1" fill="#FFFFFF" />
<rect x="13" y="13" width="1" height="1" fill="#FFFFFF" />
<rect x="14" y="13" width="1" height="1" fill="#FFFFFF" />
<rect x="15" y="13" width="1" height="1" fill="#FFFFFF" />
<rect x="16" y="13" width="1" height="1" fill="#B9D1EC" />
<rect x="17" y="13" width="1" height="1" fill="#B9D1EC" />
<rect x="18" y="13" width="1" height="1" fill="#81B3E9" />
<rect x="19" y="13" width="1" height="1" fill="#81B3E9" />
<rect x="20" y="13" width="1" height="1" fill="#81B3E9" />
<rect x="21" y="13" width="1" height="1" fill="#81B3E9" />
<rect x="22" y="13" width="1" height="1" fill="#81B3E9" />
<rect x="23" y="13" width="1" height="1" fill="#81B3E9" />
<rect x="24" y="13" width="1" height="1" fill="#5385D7" />
<rect x="25" y="13" width="1" height="1" fill="#5385D7" />
<rect x="26" y="13" width="1" height="1" fill="#FFFFFF" />
<rect x="27" y="13" width="1" height="1" fill="#FFFFFF" />
<rect x="28" y="13" width="1" height="1" fill="#FFFFFF" />
<rect x="29" y="13" width="1" height="1" fill="#FFFFFF" />
<rect x="12" y="14" width="1" height="1" fill="#FFFFFF" />
<rect x="13" y="14" width="1" height="1" fill="#FFFFFF" />
<rect x="14" y="14" width="1" height="1" fill="#B9D1EC" />
<rect x="15" y="14" width="1" height="1" fill="#B9D1EC" />
<rect x="16" y="14" width="1" height="1" fill="#81B3E9" />
<rect x="17" y="14" width="1" height="1" fill="#81B3E9" />
<rect x="18" y="14" width="1" height="1" fill="#81B3E9" />
<rect x="19" y="14" width="1" height="1" fill="#81B3E9" />
<rect x="20" y="14" width="1" height="1" fill="#81B3E9" />
<rect x="21" y="14" width="1" height="1" fill="#81B3E9" />
<rect x="22" y="14" width="1" height="1" fill="#81B3E9" />
<rect x="23" y="14" width="1" height="1" fill="#81B3E9" />
<rect x="24" y="14" width="1" height="1" fill="#81B3E9" />
<rect x="25" y="14" width="1" height="1" fill="#81B3E9" />
<rect x="26" y="14" width="1" height="1" fill="#5385D7" />
<rect x="27" y="14" width="1" height="1" fill="#5385D7" />
<rect x="28" y="14" width="1" height="1" fill="#FFFFFF" />
<rect x="29" y="14" width="1" height="1" fill="#FFFFFF" />
<rect x="12" y="15" width="1" height="1" fill="#FFFFFF" />
<rect x="13" y="15" width="1" height="1" fill="#FFFFFF" />
<rect x="14" y="15" width="1" height="1" fill="#B9D1EC" />
<rect x="15" y="15" width="1" height="1" fill="#B9D1EC" />
<rect x="16" y="15" width="1" height="1" fill="#81B3E9" />
<rect x="17" y="15" width="1" height="1" fill="#81B3E9" />
<rect x="18" y="15" width="1" height="1" fill="#81B3E9" />
<rect x="19" y="15" width="1" height="1" fill="#81B3E9" />
<rect x="20" y="15" width="1" height="1" fill="#81B3E9" />
<rect x="21" y="15" width="1" height="1" fill="#81B3E9" />
<rect x="22" y="15" width="1" height="1" fill="#81B3E9" />
<rect x="23" y="15" width="1" height="1" fill="#81B3E9" />
<rect x="24" y="15" width="1" height="1" fill="#81B3E9" />
<rect x="25" y="15" width="1" height="1" fill="#81B3E9" />
<rect x="26" y="15" width="1" height="1" fill="#5385D7" />
<rect x="27" y="15" width="1" height="1" fill="#5385D7" />
<rect x="28" y="15" width="1" height="1" fill="#FFFFFF" />
<rect x="29" y="15" width="1" height="1" fill="#FFFFFF" />
<rect x="10" y="16" width="1" height="1" fill="#FFFFFF" />
<rect x="11" y="16" width="1" height="1" fill="#FFFFFF" />
<rect x="12" y="16" width="1" height="1" fill="#FFFFFF" />
<rect x="13" y="16" width="1" height="1" fill="#FFFFFF" />
<rect x="14" y="16" width="1" height="1" fill="#B9D1EC" />
<rect x="15" y="16" width="1" height="1" fill="#B9D1EC" />
<rect x="16" y="16" width="1" height="1" fill="#81B3E9" />
<rect x="17" y="16" width="1" height="1" fill="#81B3E9" />
<rect x="18" y="16" width="1" height="1" fill="#81B3E9" />
<rect x="19" y="16" width="1" height="1" fill="#81B3E9" />
<rect x="20" y="16" width="1" height="1" fill="#81B3E9" />
<rect x="21" y="16" width="1" height="1" fill="#81B3E9" />
<rect x="22" y="16" width="1" height="1" fill="#81B3E9" />
<rect x="23" y="16" width="1" height="1" fill="#81B3E9" />
<rect x="24" y="16" width="1" height="1" fill="#81B3E9" />
<rect x="25" y="16" width="1" height="1" fill="#81B3E9" />
<rect x="26" y="16" width="1" height="1" fill="#5385D7" />
<rect x="27" y="16" width="1" height="1" fill="#5385D7" />
<rect x="28" y="16" width="1" height="1" fill="#FFFFFF" />
<rect x="29" y="16" width="1" height="1" fill="#FFFFFF" />
<rect x="30" y="16" width="1" height="1" fill="#FFFFFF" />
<rect x="31" y="16" width="1" height="1" fill="#FFFFFF" />
<rect x="10" y="17" width="1" height="1" fill="#FFFFFF" />
<rect x="11" y="17" width="1" height="1" fill="#FFFFFF" />
<rect x="12" y="17" width="1" height="1" fill="#FFFFFF" />
<rect x="13" y="17" width="1" height="1" fill="#FFFFFF" />
<rect x="14" y="17" width="1" height="1" fill="#B9D1EC" />
<rect x="15" y="17" width="1" height="1" fill="#B9D1EC" />
<rect x="16" y="17" width="1" height="1" fill="#81B3E9" />
<rect x="17" y="17" width="1" height="1" fill="#81B3E9" />
<rect x="18" y="17" width="1" height="1" fill="#81B3E9" />
<rect x="19" y="17" width="1" height="1" fill="#81B3E9" />
<rect x="20" y="17" width="1" height="1" fill="#81B3E9" />
<rect x="21" y="17" width="1" height="1" fill="#81B3E9" />
<rect x="22" y="17" width="1" height="1" fill="#81B3E9" />
<rect x="23" y="17" width="1" height="1" fill="#81B3E9" />
<rect x="24" y="17" width="1" height="1" fill="#81B3E9" />
<rect x="25" y="17" width="1" height="1" fill="#81B3E9" />
<rect x="26" y="17" width="1" height="1" fill="#5385D7" />
<rect x="27" y="17" width="1" height="1" fill="#5385D7" />
<rect x="28" y="17" width="1" height="1" fill="#FFFFFF" />
<rect x="29" y="17" width="1" height="1" fill="#FFFFFF" />
<rect x="30" y="17" width="1" height="1" fill="#FFFFFF" />
<rect x="31" y="17" width="1" height="1" fill="#FFFFFF" />
<rect x="10" y="18" width="1" height="1" fill="#FFFFFF" />
<rect x="11" y="18" width="1" height="1" fill="#FFFFFF" />
<rect x="12" y="18" width="1" height="1" fill="#B9D1EC" />
<rect x="13" y="18" width="1" height="1" fill="#B9D1EC" />
<rect x="14" y="18" width="1" height="1" fill="#81B3E9" />
<rect x="15" y="18" width="1" height="1" fill="#81B3E9" />
<rect x="16" y="18" width="1" height="1" fill="#81B3E9" />
<rect x="17" y="18" width="1" height="1" fill="#81B3E9" />
<rect x="18" y="18" width="1" height="1" fill="#81B3E9" />
<rect x="19" y="18" width="1" height="1" fill="#81B3E9" />
<rect x="20" y="18" width="1" height="1" fill="#81B3E9" />
<rect x="21" y="18" width="1" height="1" fill="#81B3E9" />
<rect x="22" y="18" width="1" height="1" fill="#81B3E9" />
<rect x="23" y="18" width="1" height="1" fill="#81B3E9" />
<rect x="24" y="18" width="1" height="1" fill="#81B3E9" />
<rect x="25" y="18" width="1" height="1" fill="#81B3E9" />
<rect x="26" y="18" width="1" height="1" fill="#81B3E9" />
<rect x="27" y="18" width="1" height="1" fill="#81B3E9" />
<rect x="28" y="18" width="1" height="1" fill="#5385D7" />
<rect x="29" y="18" width="1" height="1" fill="#5385D7" />
<rect x="30" y="18" width="1" height="1" fill="#FFFFFF" />
<rect x="31" y="18" width="1" height="1" fill="#FFFFFF" />
<rect x="10" y="19" width="1" height="1" fill="#FFFFFF" />
<rect x="11" y="19" width="1" height="1" fill="#FFFFFF" />
<rect x="12" y="19" width="1" height="1" fill="#B9D1EC" />
<rect x="13" y="19" width="1" height="1" fill="#B9D1EC" />
<rect x="14" y="19" width="1" height="1" fill="#81B3E9" />
<rect x="15" y="19" width="1" height="1" fill="#81B3E9" />
<rect x="16" y="19" width="1" height="1" fill="#81B3E9" />
<rect x="17" y="19" width="1" height="1" fill="#81B3E9" />
<rect x="18" y="19" width="1" height="1" fill="#81B3E9" />
<rect x="19" y="19" width="1" height="1" fill="#81B3E9" />
<rect x="20" y="19" width="1" height="1" fill="#81B3E9" />
<rect x="21" y="19" width="1" height="1" fill="#81B3E9" />
<rect x="22" y="19" width="1" height="1" fill="#81B3E9" />
<rect x="23" y="19" width="1" height="1" fill="#81B3E9" />
<rect x="24" y="19" width="1" height="1" fill="#81B3E9" />
<rect x="25" y="19" width="1" height="1" fill="#81B3E9" />
<rect x="26" y="19" width="1" height="1" fill="#81B3E9" />
<rect x="27" y="19" width="1" height="1" fill="#81B3E9" />
<rect x="28" y="19" width="1" height="1" fill="#5385D7" />
<rect x="29" y="19" width="1" height="1" fill="#5385D7" />
<rect x="30" y="19" width="1" height="1" fill="#FFFFFF" />
<rect x="31" y="19" width="1" height="1" fill="#FFFFFF" />
<rect x="8" y="20" width="1" height="1" fill="#FFFFFF" />
<rect x="9" y="20" width="1" height="1" fill="#FFFFFF" />
<rect x="10" y="20" width="1" height="1" fill="#FFFFFF" />
<rect x="11" y="20" width="1" height="1" fill="#FFFFFF" />
<rect x="12" y="20" width="1" height="1" fill="#B9D1EC" />
<rect x="13" y="20" width="1" height="1" fill="#B9D1EC" />
<rect x="14" y="20" width="1" height="1" fill="#81B3E9" />
<rect x="15" y="20" width="1" height="1" fill="#81B3E9" />
<rect x="16" y="20" width="1" height="1" fill="#81B3E9" />
<rect x="17" y="20" width="1" height="1" fill="#81B3E9" />
<rect x="18" y="20" width="1" height="1" fill="#81B3E9" />
<rect x="19" y="20" width="1" height="1" fill="#81B3E9" />
<rect x="20" y="20" width="1" height="1" fill="#81B3E9" />
<rect x="21" y="20" width="1" height="1" fill="#81B3E9" />
<rect x="22" y="20" width="1" height="1" fill="#81B3E9" />
<rect x="23" y="20" width="1" height="1" fill="#81B3E9" />
<rect x="24" y="20" width="1" height="1" fill="#81B3E9" />
<rect x="25" y="20" width="1" height="1" fill="#81B3E9" />
<rect x="26" y="20" width="1" height="1" fill="#81B3E9" />
<rect x="27" y="20" width="1" height="1" fill="#81B3E9" />
<rect x="28" y="20" width="1" height="1" fill="#5385D7" />
<rect x="29" y="20" width="1" height="1" fill="#5385D7" />
<rect x="30" y="20" width="1" height="1" fill="#FFFFFF" />
<rect x="31" y="20" width="1" height="1" fill="#FFFFFF" />
<rect x="32" y="20" width="1" height="1" fill="#FFFFFF" />
<rect x="33" y="20" width="1" height="1" fill="#FFFFFF" />
<rect x="8" y="21" width="1" height="1" fill="#FFFFFF" />
<rect x="9" y="21" width="1" height="1" fill="#FFFFFF" />
<rect x="10" y="21" width="1" height="1" fill="#FFFFFF" />
<rect x="11" y="21" width="1" height="1" fill="#FFFFFF" />
<rect x="12" y="21" width="1" height="1" fill="#B9D1EC" />
<rect x="13" y="21" width="1" height="1" fill="#B9D1EC" />
<rect x="14" y="21" width="1" height="1" fill="#81B3E9" />
<rect x="15" y="21" width="1" height="1" fill="#81B3E9" />
<rect x="16" y="21" width="1" height="1" fill="#81B3E9" />
<rect x="17" y="21" width="1" height="1" fill="#81B3E9" />
<rect x="18" y="21" width="1" height="1" fill="#81B3E9" />
<rect x="19" y="21" width="1" height="1" fill="#81B3E9" />
<rect x="20" y="21" width="1" height="1" fill="#81B3E9" />
<rect x="21" y="21" width="1" height="1" fill="#81B3E9" />
<rect x="22" y="21" width="1" height="1" fill="#81B3E9" />
<rect x="23" y="21" width="1" height="1" fill="#81B3E9" />
<rect x="24" y="21" width="1" height="1" fill="#81B3E9" />
<rect x="25" y="21" width="1" height="1" fill="#81B3E9" />
<rect x="26" y="21" width="1" height="1" fill="#81B3E9" />
<rect x="27" y="21" width="1" height="1" fill="#81B3E9" />
<rect x="28" y="21" width="1" height="1" fill="#5385D7" />
<rect x="29" y="21" width="1" height="1" fill="#5385D7" />
<rect x="30" y="21" width="1" height="1" fill="#FFFFFF" />
<rect x="31" y="21" width="1" height="1" fill="#FFFFFF" />
<rect x="32" y="21" width="1" height="1" fill="#FFFFFF" />
<rect x="33" y="21" width="1" height="1" fill="#FFFFFF" />
<rect x="8" y="22" width="1" height="1" fill="#FFFFFF" />
<rect x="9" y="22" width="1" height="1" fill="#FFFFFF" />
<rect x="10" y="22" width="1" height="1" fill="#B9D1EC" />
<rect x="11" y="22" width="1" height="1" fill="#B9D1EC" />
<rect x="12" y="22" width="1" height="1" fill="#81B3E9" />
<rect x="13" y="22" width="1" height="1" fill="#81B3E9" />
<rect x="14" y="22" width="1" height="1" fill="#81B3E9" />
<rect x="15" y="22" width="1" height="1" fill="#81B3E9" />
<rect x="16" y="22" width="1" height="1" fill="#81B3E9" />
<rect x="17" y="22" width="1" height="1" fill="#81B3E9" />
<rect x="18" y="22" width="1" height="1" fill="#81B3E9" />
<rect x="19" y="22" width="1" height="1" fill="#81B3E9" />
<rect x="20" y="22" width="1" height="1" fill="#81B3E9" />
<rect x="21" y="22" width="1" height="1" fill="#81B3E9" />
<rect x="22" y="22" width="1" height="1" fill="#81B3E9" />
<rect x="23" y="22" width="1" height="1" fill="#81B3E9" />
<rect x="24" y="22" width="1" height="1" fill="#81B3E9" />
<rect x="25" y="22" width="1" height="1" fill="#81B3E9" />
<rect x="26" y="22" width="1" height="1" fill="#81B3E9" />
<rect x="27" y="22" width="1" height="1" fill="#81B3E9" />
<rect x="28" y="22" width="1" height="1" fill="#81B3E9" />
<rect x="29" y="22" width="1" height="1" fill="#81B3E9" />
<rect x="30" y="22" width="1" height="1" fill="#5385D7" />
<rect x="31" y="22" width="1" height="1" fill="#5385D7" />
<rect x="32" y="22" width="1" height="1" fill="#FFFFFF" />
<rect x="33" y="22" width="1" height="1" fill="#FFFFFF" />
<rect x="8" y="23" width="1" height="1" fill="#FFFFFF" />
<rect x="9" y="23" width="1" height="1" fill="#FFFFFF" />
<rect x="10" y="23" width="1" height="1" fill="#B9D1EC" />
<rect x="11" y="23" width="1" height="1" fill="#B9D1EC" />
<rect x="12" y="23" width="1" height="1" fill="#81B3E9" />
<rect x="13" y="23" width="1" height="1" fill="#81B3E9" />
<rect x="14" y="23" width="1" height="1" fill="#81B3E9" />
<rect x="15" y="23" width="1" height="1" fill="#81B3E9" />
<rect x="16" y="23" width="1" height="1" fill="#81B3E9" />
<rect x="17" y="23" width="1" height="1" fill="#81B3E9" />
<rect x="18" y="23" width="1" height="1" fill="#81B3E9" />
<rect x="19" y="23" width="1" height="1" fill="#81B3E9" />
<rect x="20" y="23" width="1" height="1" fill="#81B3E9" />
<rect x="21" y="23" width="1" height="1" fill="#81B3E9" />
<rect x="22" y="23" width="1" height="1" fill="#81B3E9" />
<rect x="23" y="23" width="1" height="1" fill="#81B3E9" />
<rect x="24" y="23" width="1" height="1" fill="#81B3E9" />
<rect x="25" y="23" width="1" height="1" fill="#81B3E9" />
<rect x="26" y="23" width="1" height="1" fill="#81B3E9" />
<rect x="27" y="23" width="1" height="1" fill="#81B3E9" />
<rect x="28" y="23" width="1" height="1" fill="#81B3E9" />
<rect x="29" y="23" width="1" height="1" fill="#81B3E9" />
<rect x="30" y="23" width="1" height="1" fill="#5385D7" />
<rect x="31" y="23" width="1" height="1" fill="#5385D7" />
<rect x="32" y="23" width="1" height="1" fill="#FFFFFF" />
<rect x="33" y="23" width="1" height="1" fill="#FFFFFF" />
<rect x="6" y="24" width="1" height="1" fill="#FFFFFF" />
<rect x="7" y="24" width="1" height="1" fill="#FFFFFF" />
<rect x="8" y="24" width="1" height="1" fill="#FFFFFF" />
<rect x="9" y="24" width="1" height="1" fill="#FFFFFF" />
<rect x="10" y="24" width="1" height="1" fill="#B9D1EC" />
<rect x="11" y="24" width="1" height="1" fill="#B9D1EC" />
<rect x="12" y="24" width="1" height="1" fill="#81B3E9" />
<rect x="13" y="24" width="1" height="1" fill="#81B3E9" />
<rect x="14" y="24" width="1" height="1" fill="#81B3E9" />
<rect x="15" y="24" width="1" height="1" fill="#81B3E9" />
<rect x="16" y="24" width="1" height="1" fill="#81B3E9" />
<rect x="17" y="24" width="1" height="1" fill="#81B3E9" />
<rect x="18" y="24" width="1" height="1" fill="#81B3E9" />
<rect x="19" y="24" width="1" height="1" fill="#81B3E9" />
<rect x="20" y="24" width="1" height="1" fill="#81B3E9" />
<rect x="21" y="24" width="1" height="1" fill="#81B3E9" />
<rect x="22" y="24" width="1" height="1" fill="#81B3E9" />
<rect x="23" y="24" width="1" height="1" fill="#81B3E9" />
<rect x="24" y="24" width="1" height="1" fill="#81B3E9" />
<rect x="25" y="24" width="1" height="1" fill="#81B3E9" />
<rect x="26" y="24" width="1" height="1" fill="#81B3E9" />
<rect x="27" y="24" width="1" height="1" fill="#81B3E9" />
<rect x="28" y="24" width="1" height="1" fill="#81B3E9" />
<rect x="29" y="24" width="1" height="1" fill="#81B3E9" />
<rect x="30" y="24" width="1" height="1" fill="#5385D7" />
<rect x="31" y="24" width="1" height="1" fill="#5385D7" />
<rect x="32" y="24" width="1" height="1" fill="#FFFFFF" />
<rect x="33" y="24" width="1" height="1" fill="#FFFFFF" />
<rect x="34" y="24" width="1" height="1" fill="#FFFFFF" />
<rect x="35" y="24" width="1" height="1" fill="#FFFFFF" />
<rect x="6" y="25" width="1" height="1" fill="#FFFFFF" />
<rect x="7" y="25" width="1" height="1" fill="#FFFFFF" />
<rect x="8" y="25" width="1" height="1" fill="#FFFFFF" />
<rect x="9" y="25" width="1" height="1" fill="#FFFFFF" />
<rect x="10" y="25" width="1" height="1" fill="#B9D1EC" />
<rect x="11" y="25" width="1" height="1" fill="#B9D1EC" />
<rect x="12" y="25" width="1" height="1" fill="#81B3E9" />
<rect x="13" y="25" width="1" height="1" fill="#81B3E9" />
<rect x="14" y="25" width="1" height="1" fill="#81B3E9" />
<rect x="15" y="25" width="1" height="1" fill="#81B3E9" />
<rect x="16" y="25" width="1" height="1" fill="#81B3E9" />
<rect x="17" y="25" width="1" height="1" fill="#81B3E9" />
<rect x="18" y="25" width="1" height="1" fill="#81B3E9" />
<rect x="19" y="25" width="1" height="1" fill="#81B3E9" />
<rect x="20" y="25" width="1" height="1" fill="#81B3E9" />
<rect x="21" y="25" width="1" height="1" fill="#81B3E9" />
<rect x="22" y="25" width="1" height="1" fill="#81B3E9" />
<rect x="23" y="25" width="1" height="1" fill="#81B3E9" />
<rect x="24" y="25" width="1" height="1" fill="#81B3E9" />
<rect x="25" y="25" width="1" height="1" fill="#81B3E9" />
<rect x="26" y="25" width="1" height="1" fill="#81B3E9" />
<rect x="27" y="25" width="1" height="1" fill="#81B3E9" />
<rect x="28" y="25" width="1" height="1" fill="#81B3E9" />
<rect x="29" y="25" width="1" height="1" fill="#81B3E9" />
<rect x="30" y="25" width="1" height="1" fill="#5385D7" />
<rect x="31" y="25" width="1" height="1" fill="#5385D7" />
<rect x="32" y="25" width="1" height="1" fill="#FFFFFF" />
<rect x="33" y="25" width="1" height="1" fill="#FFFFFF" />
<rect x="34" y="25" width="1" height="1" fill="#FFFFFF" />
<rect x="35" y="25" width="1" height="1" fill="#FFFFFF" />
<rect x="6" y="26" width="1" height="1" fill="#FFFFFF" />
<rect x="7" y="26" width="1" height="1" fill="#FFFFFF" />
<rect x="8" y="26" width="1" height="1" fill="#B9D1EC" />
<rect x="9" y="26" width="1" height="1" fill="#B9D1EC" />
<rect x="10" y="26" width="1" height="1" fill="#81B3E9" />
<rect x="11" y="26" width="1" height="1" fill="#81B3E9" />
<rect x="12" y="26" width="1" height="1" fill="#81B3E9" />
<rect x="13" y="26" width="1" height="1" fill="#81B3E9" />
<rect x="14" y="26" width="1" height="1" fill="#81B3E9" />
<rect x="15" y="26" width="1" height="1" fill="#81B3E9" />
<rect x="16" y="26" width="1" height="1" fill="#81B3E9" />
<rect x="17" y="26" width="1" height="1" fill="#81B3E9" />
<rect x="18" y="26" width="1" height="1" fill="#81B3E9" />
<rect x="19" y="26" width="1" height="1" fill="#81B3E9" />
<rect x="20" y="26" width="1" height="1" fill="#81B3E9" />
<rect x="21" y="26" width="1" height="1" fill="#81B3E9" />
<rect x="22" y="26" width="1" height="1" fill="#81B3E9" />
<rect x="23" y="26" width="1" height="1" fill="#81B3E9" />
<rect x="24" y="26" width="1" height="1" fill="#81B3E9" />
<rect x="25" y="26" width="1" height="1" fill="#81B3E9" />
<rect x="26" y="26" width="1" height="1" fill="#81B3E9" />
<rect x="27" y="26" width="1" height="1" fill="#81B3E9" />
<rect x="28" y="26" width="1" height="1" fill="#81B3E9" />
<rect x="29" y="26" width="1" height="1" fill="#81B3E9" />
<rect x="30" y="26" width="1" height="1" fill="#81B3E9" />
<rect x="31" y="26" width="1" height="1" fill="#81B3E9" />
<rect x="32" y="26" width="1" height="1" fill="#5385D7" />
<rect x="33" y="26" width="1" height="1" fill="#5385D7" />
<rect x="34" y="26" width="1" height="1" fill="#FFFFFF" />
<rect x="35" y="26" width="1" height="1" fill="#FFFFFF" />
<rect x="6" y="27" width="1" height="1" fill="#FFFFFF" />
<rect x="7" y="27" width="1" height="1" fill="#FFFFFF" />
<rect x="8" y="27" width="1" height="1" fill="#B9D1EC" />
<rect x="9" y="27" width="1" height="1" fill="#B9D1EC" />
<rect x="10" y="27" width="1" height="1" fill="#81B3E9" />
<rect x="11" y="27" width="1" height="1" fill="#81B3E9" />
<rect x="12" y="27" width="1" height="1" fill="#81B3E9" />
<rect x="13" y="27" width="1" height="1" fill="#81B3E9" />
<rect x="14" y="27" width="1" height="1" fill="#81B3E9" />
<rect x="15" y="27" width="1" height="1" fill="#81B3E9" />
<rect x="16" y="27" width="1" height="1" fill="#81B3E9" />
<rect x="17" y="27" width="1" height="1" fill="#81B3E9" />
<rect x="18" y="27" width="1" height="1" fill="#81B3E9" />
<rect x="19" y="27" width="1" height="1" fill="#81B3E9" />
<rect x="20" y="27" width="1" height="1" fill="#81B3E9" />
<rect x="21" y="27" width="1" height="1" fill="#81B3E9" />
<rect x="22" y="27" width="1" height="1" fill="#81B3E9" />
<rect x="23" y="27" width="1" height="1" fill="#81B3E9" />
<rect x="24" y="27" width="1" height="1" fill="#81B3E9" />
<rect x="25" y="27" width="1" height="1" fill="#81B3E9" />
<rect x="26" y="27" width="1" height="1" fill="#81B3E9" />
<rect x="27" y="27" width="1" height="1" fill="#81B3E9" />
<rect x="28" y="27" width="1" height="1" fill="#81B3E9" />
<rect x="29" y="27" width="1" height="1" fill="#81B3E9" />
<rect x="30" y="27" width="1" height="1" fill="#81B3E9" />
<rect x="31" y="27" width="1" height="1" fill="#81B3E9" />
<rect x="32" y="27" width="1" height="1" fill="#5385D7" />
<rect x="33" y="27" width="1" height="1" fill="#5385D7" />
<rect x="34" y="27" width="1" height="1" fill="#FFFFFF" />
<rect x="35" y="27" width="1" height="1" fill="#FFFFFF" />
<rect x="6" y="28" width="1" height="1" fill="#FFFFFF" />
<rect x="7" y="28" width="1" height="1" fill="#FFFFFF" />
<rect x="8" y="28" width="1" height="1" fill="#B9D1EC" />
<rect x="9" y="28" width="1" height="1" fill="#B9D1EC" />
<rect x="10" y="28" width="1" height="1" fill="#81B3E9" />
<rect x="11" y="28" width="1" height="1" fill="#81B3E9" />
<rect x="12" y="28" width="1" height="1" fill="#81B3E9" />
<rect x="13" y="28" width="1" height="1" fill="#81B3E9" />
<rect x="14" y="28" width="1" height="1" fill="#81B3E9" />
<rect x="15" y="28" width="1" height="1" fill="#81B3E9" />
<rect x="16" y="28" width="1" height="1" fill="#81B3E9" />
<rect x="17" y="28" width="1" height="1" fill="#81B3E9" />
<rect x="18" y="28" width="1" height="1" fill="#81B3E9" />
<rect x="19" y="28" width="1" height="1" fill="#81B3E9" />
<rect x="20" y="28" width="1" height="1" fill="#81B3E9" />
<rect x="21" y="28" width="1" height="1" fill="#81B3E9" />
<rect x="22" y="28" width="1" height="1" fill="#81B3E9" />
<rect x="23" y="28" width="1" height="1" fill="#81B3E9" />
<rect x="24" y="28" width="1" height="1" fill="#81B3E9" />
<rect x="25" y="28" width="1" height="1" fill="#81B3E9" />
<rect x="26" y="28" width="1" height="1" fill="#81B3E9" />
<rect x="27" y="28" width="1" height="1" fill="#81B3E9" />
<rect x="28" y="28" width="1" height="1" fill="#81B3E9" />
<rect x="29" y="28" width="1" height="1" fill="#81B3E9" />
<rect x="30" y="28" width="1" height="1" fill="#81B3E9" />
<rect x="31" y="28" width="1" height="1" fill="#81B3E9" />
<rect x="32" y="28" width="1" height="1" fill="#5385D7" />
<rect x="33" y="28" width="1" height="1" fill="#5385D7" />
<rect x="34" y="28" width="1" height="1" fill="#FFFFFF" />
<rect x="35" y="28" width="1" height="1" fill="#FFFFFF" />
<rect x="6" y="29" width="1" height="1" fill="#FFFFFF" />
<rect x="7" y="29" width="1" height="1" fill="#FFFFFF" />
<rect x="8" y="29" width="1" height="1" fill="#B9D1EC" />
<rect x="9" y="29" width="1" height="1" fill="#B9D1EC" />
<rect x="10" y="29" width="1" height="1" fill="#81B3E9" />
<rect x="11" y="29" width="1" height="1" fill="#81B3E9" />
<rect x="12" y="29" width="1" height="1" fill="#81B3E9" />
<rect x="13" y="29" width="1" height="1" fill="#81B3E9" />
<rect x="14" y="29" width="1" height="1" fill="#81B3E9" />
<rect x="15" y="29" width="1" height="1" fill="#81B3E9" />
<rect x="16" y="29" width="1" height="1" fill="#81B3E9" />
<rect x="17" y="29" width="1" height="1" fill="#81B3E9" />
<rect x="18" y="29" width="1" height="1" fill="#81B3E9" />
<rect x="19" y="29" width="1" height="1" fill="#81B3E9" />
<rect x="20" y="29" width="1" height="1" fill="#81B3E9" />
<rect x="21" y="29" width="1" height="1" fill="#81B3E9" />
<rect x="22" y="29" width="1" height="1" fill="#81B3E9" />
<rect x="23" y="29" width="1" height="1" fill="#81B3E9" />
<rect x="24" y="29" width="1" height="1" fill="#81B3E9" />
<rect x="25" y="29" width="1" height="1" fill="#81B3E9" />
<rect x="26" y="29" width="1" height="1" fill="#81B3E9" />
<rect x="27" y="29" width="1" height="1" fill="#81B3E9" />
<rect x="28" y="29" width="1" height="1" fill="#81B3E9" />
<rect x="29" y="29" width="1" height="1" fill="#81B3E9" />
<rect x="30" y="29" width="1" height="1" fill="#81B3E9" />
<rect x="31" y="29" width="1" height="1" fill="#81B3E9" />
<rect x="32" y="29" width="1" height="1" fill="#5385D7" />
<rect x="33" y="29" width="1" height="1" fill="#5385D7" />
<rect x="34" y="29" width="1" height="1" fill="#FFFFFF" />
<rect x="35" y="29" width="1" height="1" fill="#FFFFFF" />
<rect x="6" y="30" width="1" height="1" fill="#FFFFFF" />
<rect x="7" y="30" width="1" height="1" fill="#FFFFFF" />
<rect x="8" y="30" width="1" height="1" fill="#B9D1EC" />
<rect x="9" y="30" width="1" height="1" fill="#B9D1EC" />
<rect x="10" y="30" width="1" height="1" fill="#81B3E9" />
<rect x="11" y="30" width="1" height="1" fill="#81B3E9" />
<rect x="12" y="30" width="1" height="1" fill="#81B3E9" />
<rect x="13" y="30" width="1" height="1" fill="#81B3E9" />
<rect x="14" y="30" width="1" height="1" fill="#81B3E9" />
<rect x="15" y="30" width="1" height="1" fill="#81B3E9" />
<rect x="16" y="30" width="1" height="1" fill="#81B3E9" />
<rect x="17" y="30" width="1" height="1" fill="#81B3E9" />
<rect x="18" y="30" width="1" height="1" fill="#81B3E9" />
<rect x="19" y="30" width="1" height="1" fill="#81B3E9" />
<rect x="20" y="30" width="1" height="1" fill="#81B3E9" />
<rect x="21" y="30" width="1" height="1" fill="#81B3E9" />
<rect x="22" y="30" width="1" height="1" fill="#81B3E9" />
<rect x="23" y="30" width="1" height="1" fill="#81B3E9" />
<rect x="24" y="30" width="1" height="1" fill="#81B3E9" />
<rect x="25" y="30" width="1" height="1" fill="#81B3E9" />
<rect x="26" y="30" width="1" height="1" fill="#81B3E9" />
<rect x="27" y="30" width="1" height="1" fill="#81B3E9" />
<rect x="28" y="30" width="1" height="1" fill="#81B3E9" />
<rect x="29" y="30" width="1" height="1" fill="#81B3E9" />
<rect x="30" y="30" width="1" height="1" fill="#81B3E9" />
<rect x="31" y="30" width="1" height="1" fill="#81B3E9" />
<rect x="32" y="30" width="1" height="1" fill="#5385D7" />
<rect x="33" y="30" width="1" height="1" fill="#5385D7" />
<rect x="34" y="30" width="1" height="1" fill="#FFFFFF" />
<rect x="35" y="30" width="1" height="1" fill="#FFFFFF" />
<rect x="6" y="31" width="1" height="1" fill="#FFFFFF" />
<rect x="7" y="31" width="1" height="1" fill="#FFFFFF" />
<rect x="8" y="31" width="1" height="1" fill="#B9D1EC" />
<rect x="9" y="31" width="1" height="1" fill="#B9D1EC" />
<rect x="10" y="31" width="1" height="1" fill="#81B3E9" />
<rect x="11" y="31" width="1" height="1" fill="#81B3E9" />
<rect x="12" y="31" width="1" height="1" fill="#81B3E9" />
<rect x="13" y="31" width="1" height="1" fill="#81B3E9" />
<rect x="14" y="31" width="1" height="1" fill="#81B3E9" />
<rect x="15" y="31" width="1" height="1" fill="#81B3E9" />
<rect x="16" y="31" width="1" height="1" fill="#81B3E9" />
<rect x="17" y="31" width="1" height="1" fill="#81B3E9" />
<rect x="18" y="31" width="1" height="1" fill="#81B3E9" />
<rect x="19" y="31" width="1" height="1" fill="#81B3E9" />
<rect x="20" y="31" width="1" height="1" fill="#81B3E9" />
<rect x="21" y="31" width="1" height="1" fill="#81B3E9" />
<rect x="22" y="31" width="1" height="1" fill="#81B3E9" />
<rect x="23" y="31" width="1" height="1" fill="#81B3E9" />
<rect x="24" y="31" width="1" height="1" fill="#81B3E9" />
<rect x="25" y="31" width="1" height="1" fill="#81B3E9" />
<rect x="26" y="31" width="1" height="1" fill="#81B3E9" />
<rect x="27" y="31" width="1" height="1" fill="#81B3E9" />
<rect x="28" y="31" width="1" height="1" fill="#81B3E9" />
<rect x="29" y="31" width="1" height="1" fill="#81B3E9" />
<rect x="30" y="31" width="1" height="1" fill="#81B3E9" />
<rect x="31" y="31" width="1" height="1" fill="#81B3E9" />
<rect x="32" y="31" width="1" height="1" fill="#5385D7" />
<rect x="33" y="31" width="1" height="1" fill="#5385D7" />
<rect x="34" y="31" width="1" height="1" fill="#FFFFFF" />
<rect x="35" y="31" width="1" height="1" fill="#FFFFFF" />
<rect x="6" y="32" width="1" height="1" fill="#FFFFFF" />
<rect x="7" y="32" width="1" height="1" fill="#FFFFFF" />
<rect x="8" y="32" width="1" height="1" fill="#FFFFFF" />
<rect x="9" y="32" width="1" height="1" fill="#FFFFFF" />
<rect x="10" y="32" width="1" height="1" fill="#B9D1EC" />
<rect x="11" y="32" width="1" height="1" fill="#B9D1EC" />
<rect x="12" y="32" width="1" height="1" fill="#81B3E9" />
<rect x="13" y="32" width="1" height="1" fill="#81B3E9" />
<rect x="14" y="32" width="1" height="1" fill="#81B3E9" />
<rect x="15" y="32" width="1" height="1" fill="#81B3E9" />
<rect x="16" y="32" width="1" height="1" fill="#81B3E9" />
<rect x="17" y="32" width="1" height="1" fill="#81B3E9" />
<rect x="18" y="32" width="1" height="1" fill="#81B3E9" />
<rect x="19" y="32" width="1" height="1" fill="#81B3E9" />
<rect x="20" y="32" width="1" height="1" fill="#81B3E9" />
<rect x="21" y="32" width="1" height="1" fill="#81B3E9" />
<rect x="22" y="32" width="1" height="1" fill="#81B3E9" />
<rect x="23" y="32" width="1" height="1" fill="#81B3E9" />
<rect x="24" y="32" width="1" height="1" fill="#81B3E9" />
<rect x="25" y="32" width="1" height="1" fill="#81B3E9" />
<rect x="26" y="32" width="1" height="1" fill="#81B3E9" />
<rect x="27" y="32" width="1" height="1" fill="#81B3E9" />
<rect x="28" y="32" width="1" height="1" fill="#81B3E9" />
<rect x="29" y="32" width="1" height="1" fill="#81B3E9" />
<rect x="30" y="32" width="1" height="1" fill="#5385D7" />
<rect x="31" y="32" width="1" height="1" fill="#5385D7" />
<rect x="32" y="32" width="1" height="1" fill="#FFFFFF" />
<rect x="33" y="32" width="1" height="1" fill="#FFFFFF" />
<rect x="34" y="32" width="1" height="1" fill="#FFFFFF" />
<rect x="35" y="32" width="1" height="1" fill="#FFFFFF" />
<rect x="6" y="33" width="1" height="1" fill="#FFFFFF" />
<rect x="7" y="33" width="1" height="1" fill="#FFFFFF" />
<rect x="8" y="33" width="1" height="1" fill="#FFFFFF" />
<rect x="9" y="33" width="1" height="1" fill="#FFFFFF" />
<rect x="10" y="33" width="1" height="1" fill="#B9D1EC" />
<rect x="11" y="33" width="1" height="1" fill="#B9D1EC" />
<rect x="12" y="33" width="1" height="1" fill="#81B3E9" />
<rect x="13" y="33" width="1" height="1" fill="#81B3E9" />
<rect x="14" y="33" width="1" height="1" fill="#81B3E9" />
<rect x="15" y="33" width="1" height="1" fill="#81B3E9" />
<rect x="16" y="33" width="1" height="1" fill="#81B3E9" />
<rect x="17" y="33" width="1" height="1" fill="#81B3E9" />
<rect x="18" y="33" width="1" height="1" fill="#81B3E9" />
<rect x="19" y="33" width="1" height="1" fill="#81B3E9" />
<rect x="20" y="33" width="1" height="1" fill="#81B3E9" />
<rect x="21" y="33" width="1" height="1" fill="#81B3E9" />
<rect x="22" y="33" width="1" height="1" fill="#81B3E9" />
<rect x="23" y="33" width="1" height="1" fill="#81B3E9" />
<rect x="24" y="33" width="1" height="1" fill="#81B3E9" />
<rect x="25" y="33" width="1" height="1" fill="#81B3E9" />
<rect x="26" y="33" width="1" height="1" fill="#81B3E9" />
<rect x="27" y="33" width="1" height="1" fill="#81B3E9" />
<rect x="28" y="33" width="1" height="1" fill="#81B3E9" />
<rect x="29" y="33" width="1" height="1" fill="#81B3E9" />
<rect x="30" y="33" width="1" height="1" fill="#5385D7" />
<rect x="31" y="33" width="1" height="1" fill="#5385D7" />
<rect x="32" y="33" width="1" height="1" fill="#FFFFFF" />
<rect x="33" y="33" width="1" height="1" fill="#FFFFFF" />
<rect x="34" y="33" width="1" height="1" fill="#FFFFFF" />
<rect x="35" y="33" width="1" height="1" fill="#FFFFFF" />
<rect x="8" y="34" width="1" height="1" fill="#FFFFFF" />
<rect x="9" y="34" width="1" height="1" fill="#FFFFFF" />
<rect x="10" y="34" width="1" height="1" fill="#FFFFFF" />
<rect x="11" y="34" width="1" height="1" fill="#FFFFFF" />
<rect x="12" y="34" width="1" height="1" fill="#B9D1EC" />
<rect x="13" y="34" width="1" height="1" fill="#B9D1EC" />
<rect x="14" y="34" width="1" height="1" fill="#81B3E9" />
<rect x="15" y="34" width="1" height="1" fill="#81B3E9" />
<rect x="16" y="34" width="1" height="1" fill="#81B3E9" />
<rect x="17" y="34" width="1" height="1" fill="#81B3E9" />
<rect x="18" y="34" width="1" height="1" fill="#81B3E9" />
<rect x="19" y="34" width="1" height="1" fill="#81B3E9" />
<rect x="20" y="34" width="1" height="1" fill="#81B3E9" />
<rect x="21" y="34" width="1" height="1" fill="#81B3E9" />
<rect x="22" y="34" width="1" height="1" fill="#81B3E9" />
<rect x="23" y="34" width="1" height="1" fill="#81B3E9" />
<rect x="24" y="34" width="1" height="1" fill="#81B3E9" />
<rect x="25" y="34" width="1" height="1" fill="#81B3E9" />
<rect x="26" y="34" width="1" height="1" fill="#81B3E9" />
<rect x="27" y="34" width="1" height="1" fill="#81B3E9" />
<rect x="28" y="34" width="1" height="1" fill="#5385D7" />
<rect x="29" y="34" width="1" height="1" fill="#5385D7" />
<rect x="30" y="34" width="1" height="1" fill="#FFFFFF" />
<rect x="31" y="34" width="1" height="1" fill="#FFFFFF" />
<rect x="32" y="34" width="1" height="1" fill="#FFFFFF" />
<rect x="33" y="34" width="1" height="1" fill="#FFFFFF" />
<rect x="8" y="35" width="1" height="1" fill="#FFFFFF" />
<rect x="9" y="35" width="1" height="1" fill="#FFFFFF" />
<rect x="10" y="35" width="1" height="1" fill="#FFFFFF" />
<rect x="11" y="35" width="1" height="1" fill="#FFFFFF" />
<rect x="12" y="35" width="1" height="1" fill="#B9D1EC" />
<rect x="13" y="35" width="1" height="1" fill="#B9D1EC" />
<rect x="14" y="35" width="1" height="1" fill="#81B3E9" />
<rect x="15" y="35" width="1" height="1" fill="#81B3E9" />
<rect x="16" y="35" width="1" height="1" fill="#81B3E9" />
<rect x="17" y="35" width="1" height="1" fill="#81B3E9" />
<rect x="18" y="35" width="1" height="1" fill="#81B3E9" />
<rect x="19" y="35" width="1" height="1" fill="#81B3E9" />
<rect x="20" y="35" width="1" height="1" fill="#81B3E9" />
<rect x="21" y="35" width="1" height="1" fill="#81B3E9" />
<rect x="22" y="35" width="1" height="1" fill="#81B3E9" />
<rect x="23" y="35" width="1" height="1" fill="#81B3E9" />
<rect x="24" y="35" width="1" height="1" fill="#81B3E9" />
<rect x="25" y="35" width="1" height="1" fill="#81B3E9" />
<rect x="26" y="35" width="1" height="1" fill="#81B3E9" />
<rect x="27" y="35" width="1" height="1" fill="#81B3E9" />
<rect x="28" y="35" width="1" height="1" fill="#5385D7" />
<rect x="29" y="35" width="1" height="1" fill="#5385D7" />
<rect x="30" y="35" width="1" height="1" fill="#FFFFFF" />
<rect x="31" y="35" width="1" height="1" fill="#FFFFFF" />
<rect x="32" y="35" width="1" height="1" fill="#FFFFFF" />
<rect x="33" y="35" width="1" height="1" fill="#FFFFFF" />
<rect x="10" y="36" width="1" height="1" fill="#FFFFFF" />
<rect x="11" y="36" width="1" height="1" fill="#FFFFFF" />
<rect x="12" y="36" width="1" height="1" fill="#FFFFFF" />
<rect x="13" y="36" width="1" height="1" fill="#FFFFFF" />
<rect x="14" y="36" width="1" height="1" fill="#5385D7" />
<rect x="15" y="36" width="1" height="1" fill="#5385D7" />
<rect x="16" y="36" width="1" height="1" fill="#5385D7" />
<rect x="17" y="36" width="1" height="1" fill="#5385D7" />
<rect x="18" y="36" width="1" height="1" fill="#5385D7" />
<rect x="19" y="36" width="1" height="1" fill="#5385D7" />
<rect x="20" y="36" width="1" height="1" fill="#5385D7" />
<rect x="21" y="36" width="1" height="1" fill="#5385D7" />
<rect x="22" y="36" width="1" height="1" fill="#5385D7" />
<rect x="23" y="36" width="1" height="1" fill="#5385D7" />
<rect x="24" y="36" width="1" height="1" fill="#5385D7" />
<rect x="25" y="36" width="1" height="1" fill="#5385D7" />
<rect x="26" y="36" width="1" height="1" fill="#5385D7" />
<rect x="27" y="36" width="1" height="1" fill="#5385D7" />
<rect x="28" y="36" width="1" height="1" fill="#FFFFFF" />
<rect x="29" y="36" width="1" height="1" fill="#FFFFFF" />
<rect x="30" y="36" width="1" height="1" fill="#FFFFFF" />
<rect x="31" y="36" width="1" height="1" fill="#FFFFFF" />
<rect x="10" y="37" width="1" height="1" fill="#FFFFFF" />
<rect x="11" y="37" width="1" height="1" fill="#FFFFFF" />
<rect x="12" y="37" width="1" height="1" fill="#FFFFFF" />
<rect x="13" y="37" width="1" height="1" fill="#FFFFFF" />
<rect x="14" y="37" width="1" height="1" fill="#5385D7" />
<rect x="15" y="37" width="1" height="1" fill="#5385D7" />
<rect x="16" y="37" width="1" height="1" fill="#5385D7" />
<rect x="17" y="37" width="1" height="1" fill="#5385D7" />
<rect x="18" y="37" width="1" height="1" fill="#5385D7" />
<rect x="19" y="37" width="1" height="1" fill="#5385D7" />
<rect x="20" y="37" width="1" height="1" fill="#5385D7" />
<rect x="21" y="37" width="1" height="1" fill="#5385D7" />
<rect x="22" y="37" width="1" height="1" fill="#5385D7" />
<rect x="23" y="37" width="1" height="1" fill="#5385D7" />
<rect x="24" y="37" width="1" height="1" fill="#5385D7" />
<rect x="25" y="37" width="1" height="1" fill="#5385D7" />
<rect x="26" y="37" width="1" height="1" fill="#5385D7" />
<rect x="27" y="37" width="1" height="1" fill="#5385D7" />
<rect x="28" y="37" width="1" height="1" fill="#FFFFFF" />
<rect x="29" y="37" width="1" height="1" fill="#FFFFFF" />
<rect x="30" y="37" width="1" height="1" fill="#FFFFFF" />
<rect x="31" y="37" width="1" height="1" fill="#FFFFFF" />
<rect x="12" y="38" width="1" height="1" fill="#FFFFFF" />
<rect x="13" y="38" width="1" height="1" fill="#FFFFFF" />
<rect x="14" y="38" width="1" height="1" fill="#FFFFFF" />
<rect x="15" y="38" width="1" height="1" fill="#FFFFFF" />
<rect x="16" y="38" width="1" height="1" fill="#FFFFFF" />
<rect x="17" y="38" width="1" height="1" fill="#FFFFFF" />
<rect x="18" y="38" width="1" height="1" fill="#FFFFFF" />
<rect x="19" y="38" width="1" height="1" fill="#FFFFFF" />
<rect x="20" y="38" width="1" height="1" fill="#FFFFFF" />
<rect x="21" y="38" width="1" height="1" fill="#FFFFFF" />
<rect x="22" y="38" width="1" height="1" fill="#FFFFFF" />
<rect x="23" y="38" width="1" height="1" fill="#FFFFFF" />
<rect x="24" y="38" width="1" height="1" fill="#FFFFFF" />
<rect x="25" y="38" width="1" height="1" fill="#FFFFFF" />
<rect x="26" y="38" width="1" height="1" fill="#FFFFFF" />
<rect x="27" y="38" width="1" height="1" fill="#FFFFFF" />
<rect x="28" y="38" width="1" height="1" fill="#FFFFFF" />
<rect x="29" y="38" width="1" height="1" fill="#FFFFFF" />
<rect x="12" y="39" width="1" height="1" fill="#FFFFFF" />
<rect x="13" y="39" width="1" height="1" fill="#FFFFFF" />
<rect x="14" y="39" width="1" height="1" fill="#FFFFFF" />
<rect x="15" y="39" width="1" height="1" fill="#FFFFFF" />
<rect x="16" y="39" width="1" height="1" fill="#FFFFFF" />
<rect x="17" y="39" width="1" height="1" fill="#FFFFFF" />
<rect x="18" y="39" width="1" height="1" fill="#FFFFFF" />
<rect x="19" y="39" width="1" height="1" fill="#FFFFFF" />
<rect x="20" y="39" width="1" height="1" fill="#FFFFFF" />
<rect x="21" y="39" width="1" height="1" fill="#FFFFFF" />
<rect x="22" y="39" width="1" height="1" fill="#FFFFFF" />
<rect x="23" y="39" width="1" height="1" fill="#FFFFFF" />
<rect x="24" y="39" width="1" height="1" fill="#FFFFFF" />
<rect x="25" y="39" width="1" height="1" fill="#FFFFFF" />
<rect x="26" y="39" width="1" height="1" fill="#FFFFFF" />
<rect x="27" y="39" width="1" height="1" fill="#FFFFFF" />
<rect x="28" y="39" width="1" height="1" fill="#FFFFFF" />
<rect x="29" y="39" width="1" height="1" fill="#FFFFFF" />
</svg>