<?xml version="1.0" encoding="UTF-8" ?>
<svg version="1.1" width="84" height="84" xmlns="http://www.w3.org/2000/svg" shape-rendering="crispEdges">
<rect x="36" y="4" width="2" height="2" fill="#FFFFFF" />
<rect x="38" y="4" width="2" height="2" fill="#FFFFFF" />
<rect x="40" y="4" width="2" height="2" fill="#FFFFFF" />
<rect x="42" y="4" width="2" height="2" fill="#FFFFFF" />
<rect x="44" y="4" width="2" height="2" fill="#FFFFFF" />
<rect x="46" y="4" width="2" height="2" fill="#FFFFFF" />
<rect x="36" y="6" width="2" height="2" fill="#FFFFFF" />
<rect x="38" y="6" width="2" height="2" fill="#FFFFFF" />
<rect x="40" y="6" width="2" height="2" fill="#FFFFFF" />
<rect x="42" y="6" width="2" height="2" fill="#FFFFFF" />
<rect x="44" y="6" width="2" height="2" fill="#FFFFFF" />
<rect x="46" y="6" width="2" height="2" fill="#FFFFFF" />
<rect x="32" y="8" width="2" height="2" fill="#FFFFFF" />
<rect x="34" y="8" width="2" height="2" fill="#FFFFFF" />
<rect x="36" y="8" width="2" height="2" fill="#FFFFFF" />
<rect x="38" y="8" width="2" height="2" fill="#FFFFFF" />
<rect x="40" y="8" width="2" height="2" fill="#B9D1EC" />
<rect x="42" y="8" width="2" height="2" fill="#B9D1EC" />
<rect x="44" y="8" width="2" height="2" fill="#FFFFFF" />
<rect x="46" y="8" width="2" height="2" fill="#FFFFFF" />
<rect x="48" y="8" width="2" height="2" fill="#FFFFFF" />
<rect x="50" y="8" width="2" height="2" fill="#FFFFFF" />
<rect x="32" y="10" width="2" height="2" fill="#FFFFFF" />
<rect x="34" y="10" width="2" height="2" fill="#FFFFFF" />
<rect x="36" y="10" width="2" height="2" fill="#FFFFFF" />
<rect x="38" y="10" width="2" height="2" fill="#FFFFFF" />
<rect x="40" y="10" width="2" height="2" fill="#B9D1EC" />
<rect x="42" y="10" width="2" height="2" fill="#B9D1EC" />
<rect x="44" y="10" width="2" height="2" fill="#FFFFFF" />
<rect x="46" y="10" width="2" height="2" fill="#FFFFFF" />
<rect x="48" y="10" width="2" height="2" fill="#FFFFFF" />
<rect x="50" y="10" width="2" height="2" fill="#FFFFFF" />
<rect x="32" y="12" width="2" height="2" fill="#FFFFFF" />
<rect x="34" y="12" width="2" height="2" fill="#FFFFFF" />
<rect x="36" y="12" width="2" height="2" fill="#B9D1EC" />
<rect x="38" y="12" width="2" height="2" fill="#B9D1EC" />
<rect x="40" y="12" width="2" height="2" fill="#81B3E9" />
<rect x="42" y="12" width="2" height="2" fill="#81B3E9" />
<rect x="44" y="12" width="2" height="2" fill="#5385D7" />
<rect x="46" y="12" width="2" height="2" fill="#5385D7" />
<rect x="48" y="12" width="2" height="2" fill="#FFFFFF" />
<rect x="50" y="12" width="2" height="2" fill="#FFFFFF" />
<rect x="32" y="14" width="2" height="2" fill="#FFFFFF" />
<rect x="34" y="14" width="2" height="2" fill="#FFFFFF" />
<rect x="36" y="14" width="2" height="2" fill="#B9D1EC" />
<rect x="38" y="14" width="2" height="2" fill="#B9D1EC" />
<rect x="40" y="14" width="2" height="2" fill="#81B3E9" />
<rect x="42" y="14" width="2" height="2" fill="#81B3E9" />
<rect x="44" y="14" width="2" height="2" fill="#5385D7" />
<rect x="46" y="14" width="2" height="2" fill="#5385D7" />
<rect x="48" y="14" width="2" height="2" fill="#FFFFFF" />
<rect x="50" y="14" width="2" height="2" fill="#FFFFFF" />
<rect x="28" y="16" width="2" height="2" fill="#FFFFFF" />
<rect x="30" y="16" width="2" height="2" fill="#FFFFFF" />
<rect x="32" y="16" width="2" height="2" fill="#FFFFFF" />
<rect x="34" y="16" width="2" height="2" fill="#FFFFFF" />
<rect x="36" y="16" width="2" height="2" fill="#B9D1EC" />
<rect x="38" y="16" width="2" height="2" fill="#B9D1EC" />
<rect x="40" y="16" width="2" height="2" fill="#81B3E9" />
<rect x="42" y="16" width="2" height="2" fill="#81B3E9" />
<rect x="44" y="16" width="2" height="2" fill="#5385D7" />
<rect x="46" y="16" width="2" height="2" fill="#5385D7" />
<rect x="48" y="16" width="2" height="2" fill="#FFFFFF" />
<rect x="50" y="16" width="2" height="2" fill="#FFFFFF" />
<rect x="52" y="16" width="2" height="2" fill="#FFFFFF" />
<rect x="54" y="16" width="2" height="2" fill="#FFFFFF" />
<rect x="28" y="18" width="2" height="2" fill="#FFFFFF" />
<rect x="30" y="18" width="2" height="2" fill="#FFFFFF" />
<rect x="32" y="18" width="2" height="2" fill="#FFFFFF" />
<rect x="34" y="18" width="2" height="2" fill="#FFFFFF" />
<rect x="36" y="18" width="2" height="2" fill="#B9D1EC" />
<rect x="38" y="18" width="2" height="2" fill="#B9D1EC" />
<rect x="40" y="18" width="2" height="2" fill="#81B3E9" />
<rect x="42" y="18" width="2" height="2" fill="#81B3E9" />
<rect x="44" y="18" width="2" height="2" fill="#5385D7" />
<rect x="46" y="18" width="2" height="2" fill="#5385D7" />
<rect x="48" y="18" width="2" height="2" fill="#FFFFFF" />
<rect x="50" y="18" width="2" height="2" fill="#FFFFFF" />
<rect x="52" y="18" width="2" height="2" fill="#FFFFFF" />
<rect x="54" y="18" width="2" height="2" fill="#FFFFFF" />
<rect x="28" y="20" width="2" height="2" fill="#FFFFFF" />
<rect x="30" y="20" width="2" height="2" fill="#FFFFFF" />
<rect x="32" y="20" width="2" height="2" fill="#B9D1EC" />
<rect x="34" y="20" width="2" height="2" fill="#B9D1EC" />
<rect x="36" y="20" width="2" height="2" fill="#81B3E9" />
<rect x="38" y="20" width="2" height="2" fill="#81B3E9" />
<rect x="40" y="20" width="2" height="2" fill="#81B3E9" />
<rect x="42" y="20" width="2" height="2" fill="#81B3E9" />
<rect x="44" y="20" width="2" height="2" fill="#81B3E9" />
<rect x="46" y="20" width="2" height="2" fill="#81B3E9" />
<rect x="48" y="20" width="2" height="2" fill="#5385D7" />
<rect x="50" y="20" width="2" height="2" fill="#5385D7" />
<rect x="52" y="20" width="2" height="2" fill="#FFFFFF" />
<rect x="54" y="20" width="2" height="2" fill="#FFFFFF" />
<rect x="28" y="22" width="2" height="2" fill="#FFFFFF" />
<rect x="30" y="22" width="2" height="2" fill="#FFFFFF" />
<rect x="32" y="22" width="2" height="2" fill="#B9D1EC" />
<rect x="34" y="22" width="2" height="2" fill="#B9D1EC" />
<rect x="36" y="22" width="2" height="2" fill="#81B3E9" />
<rect x="38" y="22" width="2" height="2" fill="#81B3E9" />
<rect x="40" y="22" width="2" height="2" fill="#81B3E9" />
<rect x="42" y="22" width="2" height="2" fill="#81B3E9" />
<rect x="44" y="22" width="2" height="2" fill="#81B3E9" />
<rect x="46" y="22" width="2" height="2" fill="#81B3E9" />
<rect x="48" y="22" width="2" height="2" fill="#5385D7" />
<rect x="50" y="22" width="2" height="2" fill="#5385D7" />
<rect x="52" y="22" width="2" height="2" fill="#FFFFFF" />
<rect x="54" y="22" width="2" height="2" fill="#FFFFFF" />
<rect x="24" y="24" width="2" height="2" fill="#FFFFFF" />
<rect x="26" y="24" width="2" height="2" fill="#FFFFFF" />
<rect x="28" y="24" width="2" height="2" fill="#FFFFFF" />
<rect x="30" y="24" width="2" height="2" fill="#FFFFFF" />
<rect x="32" y="24" width="2" height="2" fill="#B9D1EC" />
<rect x="34" y="24" width="2" height="2" fill="#B9D1EC" />
<rect x="36" y="24" width="2" height="2" fill="#81B3E9" />
<rect x="38" y="24" width="2" height="2" fill="#81B3E9" />
<rect x="40" y="24" width="2" height="2" fill="#81B3E9" />
<rect x="42" y="24" width="2" height="2" fill="#81B3E9" />
<rect x="44" y="24" width="2" height="2" fill="#81B3E9" />
<rect x="46" y="24" width="2" height="2" fill="#81B3E9" />
<rect x="48" y="24" width="2" height="2" fill="#5385D7" />
<rect x="50" y="24" width="2" height="2" fill="#5385D7" />
<rect x="52" y="24" width="2" height="2" fill="#FFFFFF" />
<rect x="54" y="24" width="2" height="2" fill="#FFFFFF" />
<rect x="56" y="24" width="2" height="2" fill="#FFFFFF" />
<rect x="58" y="24" width="2" height="2" fill="#FFFFFF" />
<rect x="24" y="26" width="2" height="2" fill="#FFFFFF" />
<rect x="26" y="26" width="2" height="2" fill="#FFFFFF" />
<rect x="28" y="26" width="2" height="2" fill="#FFFFFF" />
<rect x="30" y="26" width="2" height="2" fill="#FFFFFF" />
<rect x="32" y="26" width="2" height="2" fill="#B9D1EC" />
<rect x="34" y="26" width="2" height="2" fill="#B9D1EC" />
<rect x="36" y="26" width="2" height="2" fill="#81B3E9" />
<rect x="38" y="26" width="2" height="2" fill="#81B3E9" />
<rect x="40" y="26" width="2" height="2" fill="#81B3E9" />
<rect x="42" y="26" width="2" height="2" fill="#81B3E9" />
<rect x="44" y="26" width="2" height="2" fill="#81B3E9" />
<rect x="46" y="26" width="2" height="2" fill="#81B3E9" />
<rect x="48" y="26" width="2" height="2" fill="#5385D7" />
<rect x="50" y="26" width="2" height="2" fill="#5385D7" />
<rect x="52" y="26" width="2" height="2" fill="#FFFFFF" />
<rect x="54" y="26" width="2" height="2" fill="#FFFFFF" />
<rect x="56" y="26" width="2" height="2" fill="#FFFFFF" />
<rect x="58" y="26" width="2" height="2" fill="#FFFFFF" />
<rect x="24" y="28" width="2" height="2" fill="#FFFFFF" />
<rect x="26" y="28" width="2" height="2" fill="#FFFFFF" />
<rect x="28" y="28" width="2" height="2" fill="#B9D1EC" />
<rect x="30" y="28" width="2" height="2" fill="#B9D1EC" />
<rect x="32" y="28" width="2" height="2" fill="#81B3E9" />
<rect x="34" y="28" width="2" height="2" fill="#81B3E9" />
<rect x="36" y="28" width="2" height="2" fill="#81B3E9" />
<rect x="38" y="28" width="2" height="2" fill="#81B3E9" />
<rect x="40" y="28" width="2" height="2" fill="#81B3E9" />
<rect x="42" y="28" width="2" height="2" fill="#81B3E9" />
<rect x="44" y="28" width="2" height="2" fill="#81B3E9" />
<rect x="46" y="28" width="2" height="2" fill="#81B3E9" />
<rect x="48" y="28" width="2" height="2" fill="#81B3E9" />
<rect x="50" y="28" width="2" height="2" fill="#81B3E9" />
<rect x="52" y="28" width="2" height="2" fill="#5385D7" />
<rect x="54" y="28" width="2" height="2" fill="#5385D7" />
<rect x="56" y="28" width="2" height="2" fill="#FFFFFF" />
<rect x="58" y="28" width="2" height="2" fill="#FFFFFF" />
<rect x="24" y="30" width="2" height="2" fill="#FFFFFF" />
<rect x="26" y="30" width="2" height="2" fill="#FFFFFF" />
<rect x="28" y="30" width="2" height="2" fill="#B9D1EC" />
<rect x="30" y="30" width="2" height="2" fill="#B9D1EC" />
<rect x="32" y="30" width="2" height="2" fill="#81B3E9" />
<rect x="34" y="30" width="2" height="2" fill="#81B3E9" />
<rect x="36" y="30" width="2" height="2" fill="#81B3E9" />
<rect x="38" y="30" width="2" height="2" fill="#81B3E9" />
<rect x="40" y="30" width="2" height="2" fill="#81B3E9" />
<rect x="42" y="30" width="2" height="2" fill="#81B3E9" />
<rect x="44" y="30" width="2" height="2" fill="#81B3E9" />
<rect x="46" y="30" width="2" height="2" fill="#81B3E9" />
<rect x="48" y="30" width="2" height="2" fill="#81B3E9" />
<rect x="50" y="30" width="2" height="2" fill="#81B3E9" />
<rect x="52" y="30" width="2" height="2" fill="#5385D7" />
<rect x="54" y="30" width="2" height="2" fill="#5385D7" />
<rect x="56" y="30" width="2" height="2" fill="#FFFFFF" />
<rect x="58" y="30" width="2" height="2" fill="#FFFFFF" />
<rect x="20" y="32" width="2" height="2" fill="#FFFFFF" />
<rect x="22" y="32" width="2" height="2" fill="#FFFFFF" />
<rect x="24" y="32" width="2" height="2" fill="#FFFFFF" />
<rect x="26" y="32" width="2" height="2" fill="#FFFFFF" />
<rect x="28" y="32" width="2" height="2" fill="#B9D1EC" />
<rect x="30" y="32" width="2" height="2" fill="#B9D1EC" />
<rect x="32" y="32" width="2" height="2" fill="#81B3E9" />
<rect x="34" y="32" width="2" height="2" fill="#81B3E9" />
<rect x="36" y="32" width="2" height="2" fill="#81B3E9" />
<rect x="38" y="32" width="2" height="2" fill="#81B3E9" />
<rect x="40" y="32" width="2" height="2" fill="#81B3E9" />
<rect x="42" y="32" width="2" height="2" fill="#81B3E9" />
<rect x="44" y="32" width="2" height="2" fill="#81B3E9" />
<rect x="46" y="32" width="2" height="2" fill="#81B3E9" />
<rect x="48" y="32" width="2" height="2" fill="#81B3E9" />
<rect x="50" y="32" width="2" height="2" fill="#81B3E9" />
<rect x="52" y="32" width="2" height="2" fill="#5385D7" />
<rect x="54" y="32" width="2" height="2" fill="#5385D7" />
<rect x="56" y="32" width="2" height="2" fill="#FFFFFF" />
<rect x="58" y="32" width="2" height="2" fill="#FFFFFF" />
<rect x="60" y="32" width="2" height="2" fill="#FFFFFF" />
<rect x="62" y="32" width="2" height="2" fill="#FFFFFF" />
<rect x="20" y="34" width="2" height="2" fill="#FFFFFF" />
<rect x="22" y="34" width="2" height="2" fill="#FFFFFF" />
<rect x="24" y="34" width="2" height="2" fill="#FFFFFF" />
<rect x="26" y="34" width="2" height="2" fill="#FFFFFF" />
<rect x="28" y="34" width="2" height="2" fill="#B9D1EC" />
<rect x="30" y="34" width="2" height="2" fill="#B9D1EC" />
<rect x="32" y="34" width="2" height="2" fill="#81B3E9" />
<rect x="34" y="34" width="2" height="2" fill="#81B3E9" />
<rect x="36" y="34" width="2" height="2" fill="#81B3E9" />
<rect x="38" y="34" width="2" height="2" fill="#81B3E9" />
<rect x="40" y="34" width="2" height="2" fill="#81B3E9" />
<rect x="42" y="34" width="2" height="2" fill="#81B3E9" />
<rect x="44" y="34" width="2" height="2" fill="#81B3E9" />
<rect x="46" y="34" width="2" height="2" fill="#81B3E9" />
<rect x="48" y="34" width="2" height="2" fill="#81B3E9" />
<rect x="50" y="34" width="2" height="2" fill="#81B3E9" />
<rect x="52" y="34" width="2" height="2" fill="#5385D7" />
<rect x="54" y="34" width="2" height="2" fill="#5385D7" />
<rect x="56" y="34" width="2" height="2" fill="#FFFFFF" />
<rect x="58" y="34" width="2" height="2" fill="#FFFFFF" />
<rect x="60" y="34" width="2" height="2" fill="#FFFFFF" />
<rect x="62" y="34" width="2" height="2" fill="#FFFFFF" />
<rect x="20" y="36" width="2" height="2" fill="#FFFFFF" />
<rect x="22" y="36" width="2" height="2" fill="#FFFFFF" />
<rect x="24" y="36" width="2" height="2" fill="#B9D1EC" />
<rect x="26" y="36" width="2" height="2" fill="#B9D1EC" />
<rect x="28" y="36" width="2" height="2" fill="#81B3E9" />
<rect x="30" y="36" width="2" height="2" fill="#81B3E9" />
<rect x="32" y="36" width="2" height="2" fill="#81B3E9" />
<rect x="34" y="36" width="2" height="2" fill="#81B3E9" />
<rect x="36" y="36" width="2" height="2" fill="#81B3E9" />
<rect x="38" y="36" width="2" height="2" fill="#81B3E9" />
<rect x="40" y="36" width="2" height="2" fill="#81B3E9" />
<rect x="42" y="36" width="2" height="2" fill="#81B3E9" />
<rect x="44" y="36" width="2" height="2" fill="#81B3E9" />
<rect x="46" y="36" width="2" height="2" fill="#81B3E9" />
<rect x="48" y="36" width="2" height="2" fill="#81B3E9" />
<rect x="50" y="36" width="2" height="2" fill="#81B3E9" />
<rect x="52" y="36" width="2" height="2" fill="#81B3E9" />
<rect x="54" y="36" width="2" height="2" fill="#81B3E9" />
<rect x="56" y="36" width="2" height="2" fill="#5385D7" />
<rect x="58" y="36" width="2" height="2" fill="#5385D7" />
<rect x="60" y="36" width="2" height="2" fill="#FFFFFF" />
<rect x="62" y="36" width="2" height="2" fill="#FFFFFF" />
<rect x="20" y="38" width="2" height="2" fill="#FFFFFF" />
<rect x="22" y="38" width="2" height="2" fill="#FFFFFF" />
<rect x="24" y="38" width="2" height="2" fill="#B9D1EC" />
<rect x="26" y="38" width="2" height="2" fill="#B9D1EC" />
<rect x="28" y="38" width="2" height="2" fill="#81B3E9" />
<rect x="30" y="38" width="2" height="2" fill="#81B3E9" />
<rect x="32" y="38" width="2" height="2" fill="#81B3E9" />
<rect x="34" y="38" width="2" height="2" fill="#81B3E9" />
<rect x="36" y="38" width="2" height="2" fill="#81B3E9" />
<rect x="38" y="38" width="2" height="2" fill="#81B3E9" />
<rect x="40" y="38" width="2" height="2" fill="#81B3E9" />
<rect x="42" y="38" width="2" height="2" fill="#81B3E9" />
<rect x="44" y="38" width="2" height="2" fill="#81B3E9" />
<rect x="46" y="38" width="2" height="2" fill="#81B3E9" />
<rect x="48" y="38" width="2" height="2" fill="#81B3E9" />
<rect x="50" y="38" width="2" height="2" fill="#81B3E9" />
<rect x="52" y="38" width="2" height="2" fill="#81B3E9" />
<rect x="54" y="38" width="2" height="2" fill="#81B3E9" />
<rect x="56" y="38" width="2" height="2" fill="#5385D7" />
<rect x="58" y="38" width="2" height="2" fill="#5385D7" />
<rect x="60" y="38" width="2" height="2" fill="#FFFFFF" />
<rect x="62" y="38" width="2" height="2" fill="#FFFFFF" />
<rect x="16" y="40" width="2" height="2" fill="#FFFFFF" />
<rect x="18" y="40" width="2" height="2" fill="#FFFFFF" />
<rect x="20" y="40" width="2" height="2" fill="#FFFFFF" />
<rect x="22" y="40" width="2" height="2" fill="#FFFFFF" />
<rect x="24" y="40" width="2" height="2" fill="#B9D1EC" />
<rect x="26" y="40" width="2" height="2" fill="#B9D1EC" />
<rect x="28" y="40" width="2" height="2" fill="#81B3E9" />
<rect x="30" y="40" width="2" height="2" fill="#81B3E9" />
<rect x="32" y="40" width="2" height="2" fill="#81B3E9" />
<rect x="34" y="40" width="2" height="2" fill="#81B3E9" />
<rect x="36" y="40" width="2" height="2" fill="#81B3E9" />
<rect x="38" y="40" width="2" height="2" fill="#81B3E9" />
<rect x="40" y="40" width="2" height="2" fill="#81B3E9" />
<rect x="42" y="40" width="2" height="2" fill="#81B3E9" />
<rect x="44" y="40" width="2" height="2" fill="#81B3E9" />
<rect x="46" y="40" width="2" height="2" fill="#81B3E9" />
<rect x="48" y="40" width="2" height="2" fill="#81B3E9" />
<rect x="50" y="40" width="2" height="2" fill="#81B3E9" />
<rect x="52" y="40" width="2" height="2" fill="#81B3E9" />
<rect x="54" y="40" width="2" height="2" fill="#81B3E9" />
<rect x="56" y="40" width="2" height="2" fill="#5385D7" />
<rect x="58" y="40" width="2" height="2" fill="#5385D7" />
<rect x="60" y="40" width="2" height="2" fill="#FFFFFF" />
<rect x="62" y="40" width="2" height="2" fill="#FFFFFF" />
<rect x="64" y="40" width="2" height="2" fill="#FFFFFF" />
<rect x="66" y="40" width="2" height="2" fill="#FFFFFF" />
<rect x="16" y="42" width="2" height="2" fill="#FFFFFF" />
<rect x="18" y="42" width="2" height="2" fill="#FFFFFF" />
<rect x="20" y="42" width="2" height="2" fill="#FFFFFF" />
<rect x="22" y="42" width="2" height="2" fill="#FFFFFF" />
<rect x="24" y="42" width="2" height="2" fill="#B9D1EC" />
<rect x="26" y="42" width="2" height="2" fill="#B9D1EC" />
<rect x="28" y="42" width="2" height="2" fill="#81B3E9" />
<rect x="30" y="42" width="2" height="2" fill="#81B3E9" />
<rect x="32" y="42" width="2" height="2" fill="#81B3E9" />
<rect x="34" y="42" width="2" height="2" fill="#81B3E9" />
<rect x="36" y="42" width="2" height="2" fill="#81B3E9" />
<rect x="38" y="42" width="2" height="2" fill="#81B3E9" />
<rect x="40" y="42" width="2" height="2" fill="#81B3E9" />
<rect x="42" y="42" width="2" height="2" fill="#81B3E9" />
<rect x="44" y="42" width="2" height="2" fill="#81B3E9" />
<rect x="46" y="42" width="2" height="2" fill="#81B3E9" />
<rect x="48" y="42" width="2" height="2" fill="#81B3E9" />
<rect x="50" y="42" width="2" height="2" fill="#81B3E9" />
<rect x="52" y="42" width="2" height="2" fill="#81B3E9" />
<rect x="54" y="42" width="2" height="2" fill="#81B3E9" />
<rect x="56" y="42" width="2" height="2" fill="#5385D7" />
<rect x="58" y="42" width="2" height="2" fill="#5385D7" />
<rect x="60" y="42" width="2" height="2" fill="#FFFFFF" />
<rect x="62" y="42" width="2" height="2" fill="#FFFFFF" />
<rect x="64" y="42" width="2" height="2" fill="#FFFFFF" />
<rect x="66" y="42" width="2" height="2" fill="#FFFFFF" />
<rect x="16" y="44" width="2" height="2" fill="#FFFFFF" />
<rect x="18" y="44" width="2" height="2" fill="#FFFFFF" />
<rect x="20" y="44" width="2" height="2" fill="#B9D1EC" />
<rect x="22" y="44" width="2" height="2" fill="#B9D1EC" />
<rect x="24" y="44" width="2" height="2" fill="#81B3E9" />
<rect x="26" y="44" width="2" height="2" fill="#81B3E9" />
<rect x="28" y="44" width="2" height="2" fill="#81B3E9" />
<rect x="30" y="44" width="2" height="2" fill="#81B3E9" />
<rect x="32" y="44" width="2" height="2" fill="#81B3E9" />
<rect x="34" y="44" width="2" height="2" fill="#81B3E9" />
<rect x="36" y="44" width="2" height="2" fill="#81B3E9" />
<rect x="38" y="44" width="2" height="2" fill="#81B3E9" />
<rect x="40" y="44" width="2" height="2" fill="#81B3E9" />
<rect x="42" y="44" width="2" height="2" fill="#81B3E9" />
<rect x="44" y="44" width="2" height="2" fill="#81B3E9" />
<rect x="46" y="44" width="2" height="2" fill="#81B3E9" />
<rect x="48" y="44" width="2" height="2" fill="#81B3E9" />
<rect x="50" y="44" width="2" height="2" fill="#81B3E9" />
<rect x="52" y="44" width="2" height="2" fill="#81B3E9" />
<rect x="54" y="44" width="2" height="2" fill="#81B3E9" />
<rect x="56" y="44" width="2" height="2" fill="#81B3E9" />
<rect x="58" y="44" width="2" height="2" fill="#81B3E9" />
<rect x="60" y="44" width="2" height="2" fill="#5385D7" />
<rect x="62" y="44" width="2" height="2" fill="#5385D7" />
<rect x="64" y="44" width="2" height="2" fill="#FFFFFF" />
<rect x="66" y="44" width="2" height="2" fill="#FFFFFF" />
<rect x="16" y="46" width="2" height="2" fill="#FFFFFF" />
<rect x="18" y="46" width="2" height="2" fill="#FFFFFF" />
<rect x="20" y="46" width="2" height="2" fill="#B9D1EC" />
<rect x="22" y="46" width="2" height="2" fill="#B9D1EC" />
<rect x="24" y="46" width="2" height="2" fill="#81B3E9" />
<rect x="26" y="46" width="2" height="2" fill="#81B3E9" />
<rect x="28" y="46" width="2" height="2" fill="#81B3E9" />
<rect x="30" y="46" width="2" height="2" fill="#81B3E9" />
<rect x="32" y="46" width="2" height="2" fill="#81B3E9" />
<rect x="34" y="46" width="2" height="2" fill="#81B3E9" />
<rect x="36" y="46" width="2" height="2" fill="#81B3E9" />
<rect x="38" y="46" width="2" height="2" fill="#81B3E9" />
<rect x="40" y="46" width="2" height="2" fill="#81B3E9" />
<rect x="42" y="46" width="2" height="2" fill="#81B3E9" />
<rect x="44" y="46" width="2" height="2" fill="#81B3E9" />
<rect x="46" y="46" width="2" height="2" fill="#81B3E9" />
<rect x="48" y="46" width="2" height="2" fill="#81B3E9" />
<rect x="50" y="46" width="2" height="2" fill="#81B3E9" />
<rect x="52" y="46" width="2" height="2" fill="#81B3E9" />
<rect x="54" y="46" width="2" height="2" fill="#81B3E9" />
<rect x="56" y="46" width="2" height="2" fill="#81B3E9" />
<rect x="58" y="46" width="2" height="2" fill="#81B3E9" />
<rect x="60" y="46" width="2" height="2" fill="#5385D7" />
<rect x="62" y="46" width="2" height="2" fill="#5385D7" />
<rect x="64" y="46" width="2" height="2" fill="#FFFFFF" />
<rect x="66" y="46" width="2" height="2" fill="#FFFFFF" />
<rect x="12" y="48" width="2" height="2" fill="#FFFFFF" />
<rect x="14" y="48" width="2" height="2" fill="#FFFFFF" />
<rect x="16" y="48" width="2" height="2" fill="#FFFFFF" />
<rect x="18" y="48" width="2" height="2" fill="#FFFFFF" />
<rect x="20" y="48" width="2" height="2" fill="#B9D1EC" />
<rect x="22" y="48" width="2" height="2" fill="#B9D1EC" />
<rect x="24" y="48" width="2" height="2" fill="#81B3E9" />
<rect x="26" y="48" width="2" height="2" fill="#81B3E9" />
<rect x="28" y="48" width="2" height="2" fill="#81B3E9" />
<rect x="30" y="48" width="2" height="2" fill="#81B3E9" />
<rect x="32" y="48" width="2" height="2" fill="#81B3E9" />
<rect x="34" y="48" width="2" height="2" fill="#81B3E9" />
<rect x="36" y="48" width="2" height="2" fill="#81B3E9" />
<rect x="38" y="48" width="2" height="2" fill="#81B3E9" />
<rect x="40" y="48" width="2" height="2" fill="#81B3E9" />
<rect x="42" y="48" width="2" height="2" fill="#81B3E9" />
<rect x="44" y="48" width="2" height="2" fill="#81B3E9" />
<rect x="46" y="48" width="2" height="2" fill="#81B3E9" />
<rect x="48" y="48" width="2" height="2" fill="#81B3E9" />
<rect x="50" y="48" width="2" height="2" fill="#81B3E9" />
<rect x="52" y="48" width="2" height="2" fill="#81B3E9" />
<rect x="54" y="48" width="2" height="2" fill="#81B3E9" />
<rect x="56" y="48" width="2" height="2" fill="#81B3E9" />
<rect x="58" y="48" width="2" height="2" fill="#81B3E9" />
<rect x="60" y="48" width="2" height="2" fill="#5385D7" />
<rect x="62" y="48" width="2" height="2" fill="#5385D7" />
<rect x="64" y="48" width="2" height="2" fill="#FFFFFF" />
<rect x="66" y="48" width="2" height="2" fill="#FFFFFF" />
<rect x="68" y="48" width="2" height="2" fill="#FFFFFF" />
<rect x="70" y="48" width="2" height="2" fill="#FFFFFF" />
<rect x="12" y="50" width="2" height="2" fill="#FFFFFF" />
<rect x="14" y="50" width="2" height="2" fill="#FFFFFF" />
<rect x="16" y="50" width="2" height="2" fill="#FFFFFF" />
<rect x="18" y="50" width="2" height="2" fill="#FFFFFF" />
<rect x="20" y="50" width="2" height="2" fill="#B9D1EC" />
<rect x="22" y="50" width="2" height="2" fill="#B9D1EC" />
<rect x="24" y="50" width="2" height="2" fill="#81B3E9" />
<rect x="26" y="50" width="2" height="2" fill="#81B3E9" />
<rect x="28" y="50" width="2" height="2" fill="#81B3E9" />
<rect x="30" y="50" width="2" height="2" fill="#81B3E9" />
<rect x="32" y="50" width="2" height="2" fill="#81B3E9" />
<rect x="34" y="50" width="2" height="2" fill="#81B3E9" />
<rect x="36" y="50" width="2" height="2" fill="#81B3E9" />
<rect x="38" y="50" width="2" height="2" fill="#81B3E9" />
<rect x="40" y="50" width="2" height="2" fill="#81B3E9" />
<rect x="42" y="50" width="2" height="2" fill="#81B3E9" />
<rect x="44" y="50" width="2" height="2" fill="#81B3E9" />
<rect x="46" y="50" width="2" height="2" fill="#81B3E9" />
<rect x="48" y="50" width="2" height="2" fill="#81B3E9" />
<rect x="50" y="50" width="2" height="2" fill="#81B3E9" />
<rect x="52" y="50" width="2" height="2" fill="#81B3E9" />
<rect x="54" y="50" width="2" height="2" fill="#81B3E9" />
<rect x="56" y="50" width="2" height="2" fill="#81B3E9" />
<rect x="58" y="50" width="2" height="2" fill="#81B3E9" />
<rect x="60" y="50" width="2" height="2" fill="#5385D7" />
<rect x="62" y="50" width="2" height="2" fill="#5385D7" />
<rect x="64" y="50" width="2" height="2" fill="#FFFFFF" />
<rect x="66" y="50" width="2" height="2" fill="#FFFFFF" />
<rect x="68" y="50" width="2" height="2" fill="#FFFFFF" />
<rect x="70" y="50" width="2" height="2" fill="#FFFFFF" />
<rect x="12" y="52" width="2" height="2" fill="#FFFFFF" />
<rect x="14" y="52" width="2" height="2" fill="#FFFFFF" />
<rect x="16" y="52" width="2" height="2" fill="#B9D1EC" />
<rect x="18" y="52" width="2" height="2" fill="#B9D1EC" />
<rect x="20" y="52" width="2" height="2" fill="#81B3E9" />
<rect x="22" y="52" width="2" height="2" fill="#81B3E9" />
<rect x="24" y="52" width="2" height="2" fill="#81B3E9" />
<rect x="26" y="52" width="2" height="2" fill="#81B3E9" />
<rect x="28" y="52" width="2" height="2" fill="#81B3E9" />
<rect x="30" y="52" width="2" height="2" fill="#81B3E9" />
<rect x="32" y="52" width="2" height="2" fill="#81B3E9" />
<rect x="34" y="52" width="2" height="2" fill="#81B3E9" />
<rect x="36" y="52" width="2" height="2" fill="#81B3E9" />
<rect x="38" y="52" width="2" height="2" fill="#81B3E9" />
<rect x="40" y="52" width="2" height="2" fill="#81B3E9" />
<rect x="42" y="52" width="2" height="2" fill="#81B3E9" />
<rect x="44" y="52" width="2" height="2" fill="#81B3E9" />
<rect x="46" y="52" width="2" height="2" fill="#81B3E9" />
<rect x="48" y="52" width="2" height="2" fill="#81B3E9" />
<rect x="50" y="52" width="2" height="2" fill="#81B3E9" />
<rect x="52" y="52" width="2" height="2" fill="#81B3E9" />
<rect x="54" y="52" width="2" height="2" fill="#81B3E9" />
<rect x="56" y="52" width="2" height="2" fill="#81B3E9" />
<rect x="58" y="52" width="2" height="2" fill="#81B3E9" />
<rect x="60" y="52" width="2" height="2" fill="#81B3E9" />
<rect x="62" y="52" width="2" height="2" fill="#81B3E9" />
<rect x="64" y="52" width="2" height="2" fill="#5385D7" />
<rect x="66" y="52" width="2" height="2" fill="#5385D7" />
<rect x="68" y="52" width="2" height="2" fill="#FFFFFF" />
<rect x="70" y="52" width="2" height="2" fill="#FFFFFF" />
<rect x="12" y="54" width="2" height="2" fill="#FFFFFF" />
<rect x="14" y="54" width="2" height="2" fill="#FFFFFF" />
<rect x="16" y="54" width="2" height="2" fill="#B9D1EC" />
<rect x="18" y="54" width="2" height="2" fill="#B9D1EC" />
<rect x="20" y="54" width="2" height="2" fill="#81B3E9" />
<rect x="22" y="54" width="2" height="2" fill="#81B3E9" />
<rect x="24" y="54" width="2" height="2" fill="#81B3E9" />
<rect x="26" y="54" width="2" height="2" fill="#81B3E9" />
<rect x="28" y="54" width="2" height="2" fill="#81B3E9" />
<rect x="30" y="54" width="2" height="2" fill="#81B3E9" />
<rect x="32" y="54" width="2" height="2" fill="#81B3E9" />
<rect x="34" y="54" width="2" height="2" fill="#81B3E9" />
<rect x="36" y="54" width="2" height="2" fill="#81B3E9" />
<rect x="38" y="54" width="2" height="2" fill="#81B3E9" />
<rect x="40" y="54" width="2" height="2" fill="#81B3E9" />
<rect x="42" y="54" width="2" height="2" fill="#81B3E9" />
<rect x="44" y="54" width="2" height="2" fill="#81B3E9" />
<rect x="46" y="54" width="2" height="2" fill="#81B3E9" />
<rect x="48" y="54" width="2" height="2" fill="#81B3E9" />
<rect x="50" y="54" width="2" height="2" fill="#81B3E9" />
<rect x="52" y="54" width="2" height="2" fill="#81B3E9" />
<rect x="54" y="54" width="2" height="2" fill="#81B3E9" />
<rect x="56" y="54" width="2" height="2" fill="#81B3E9" />
<rect x="58" y="54" width="2" height="2" fill="#81B3E9" />
<rect x="60" y="54" width="2" height="2" fill="#81B3E9" />
<rect x="62" y="54" width="2" height="2" fill="#81B3E9" />
<rect x="64" y="54" width="2" height="2" fill="#5385D7" />
<rect x="66" y="54" width="2" height="2" fill="#5385D7" />
<rect x="68" y="54" width="2" height="2" fill="#FFFFFF" />
<rect x="70" y="54" width="2" height="2" fill="#FFFFFF" />
<rect x="12" y="56" width="2" height="2" fill="#FFFFFF" />
<rect x="14" y="56" width="2" height="2" fill="#FFFFFF" />
<rect x="16" y="56" width="2" height="2" fill="#B9D1EC" />
<rect x="18" y="56" width="2" height="2" fill="#B9D1EC" />
<rect x="20" y="56" width="2" height="2" fill="#81B3E9" />
<rect x="22" y="56" width="2" height="2" fill="#81B3E9" />
<rect x="24" y="56" width="2" height="2" fill="#81B3E9" />
<rect x="26" y="56" width="2" height="2" fill="#81B3E9" />
<rect x="28" y="56" width="2" height="2" fill="#81B3E9" />
<rect x="30" y="56" width="2" height="2" fill="#81B3E9" />
<rect x="32" y="56" width="2" height="2" fill="#81B3E9" />
<rect x="34" y="56" width="2" height="2" fill="#81B3E9" />
<rect x="36" y="56" width="2" height="2" fill="#81B3E9" />
<rect x="38" y="56" width="2" height="2" fill="#81B3E9" />
<rect x="40" y="56" width="2" height="2" fill="#81B3E9" />
<rect x="42" y="56" width="2" height="2" fill="#81B3E9" />
<rect x="44" y="56" width="2" height="2" fill="#81B3E9" />
<rect x="46" y="56" width="2" height="2" fill="#81B3E9" />
<rect x="48" y="56" width="2" height="2" fill="#81B3E9" />
<rect x="50" y="56" width="2" height="2" fill="#81B3E9" />
<rect x="52" y="56" width="2" height="2" fill="#81B3E9" />
<rect x="54" y="56" width="2" height="2" fill="#81B3E9" />
<rect x="56" y="56" width="2" height="2" fill="#81B3E9" />
<rect x="58" y="56" width="2" height="2" fill="#81B3E9" />
<rect x="60" y="56" width="2" height="2" fill="#81B3E9" />
<rect x="62" y="56" width="2" height="2" fill="#81B3E9" />
<rect x="64" y="56" width="2" height="2" fill="#5385D7" />
<rect x="66" y="56" width="2" height="2" fill="#5385D7" />
<rect x="68" y="56" width="2" height="2" fill="#FFFFFF" />
<rect x="70" y="56" width="2" height="2" fill="#FFFFFF" />
<rect x="12" y="58" width="2" height="2" fill="#FFFFFF" />
<rect x="14" y="58" width="2" height="2" fill="#FFFFFF" />
<rect x="16" y="58" width="2" height="2" fill="#B9D1EC" />
<rect x="18" y="58" width="2" height="2" fill="#B9D1EC" />
<rect x="20" y="58" width="2" height="2" fill="#81B3E9" />
<rect x="22" y="58" width="2" height="2" fill="#81B3E9" />
<rect x="24" y="58" width="2" height="2" fill="#81B3E9" />
<rect x="26" y="58" width="2" height="2" fill="#81B3E9" />
<rect x="28" y="58" width="2" height="2" fill="#81B3E9" />
<rect x="30" y="58" width="2" height="2" fill="#81B3E9" />
<rect x="32" y="58" width="2" height="2" fill="#81B3E9" />
<rect x="34" y="58" width="2" height="2" fill="#81B3E9" />
<rect x="36" y="58" width="2" height="2" fill="#81B3E9" />
<rect x="38" y="58" width="2" height="2" fill="#81B3E9" />
<rect x="40" y="58" width="2" height="2" fill="#81B3E9" />
<rect x="42" y="58" width="2" height="2" fill="#81B3E9" />
<rect x="44" y="58" width="2" height="2" fill="#81B3E9" />
<rect x="46" y="58" width="2" height="2" fill="#81B3E9" />
<rect x="48" y="58" width="2" height="2" fill="#81B3E9" />
<rect x="50" y="58" width="2" height="2" fill="#81B3E9" />
<rect x="52" y="58" width="2" height="2" fill="#81B3E9" />
<rect x="54" y="58" width="2" height="2" fill="#81B3E9" />
<rect x="56" y="58" width="2" height="2" fill="#81B3E9" />
<rect x="58" y="58" width="2" height="2" fill="#81B3E9" />
<rect x="60" y="58" width="2" height="2" fill="#81B3E9" />
<rect x="62" y="58" width="2" height="2" fill="#81B3E9" />
<rect x="64" y="58" width="2" height="2" fill="#5385D7" />
<rect x="66" y="58" width="2" height="2" fill="#5385D7" />
<rect x="68" y="58" width="2" height="2" fill="#FFFFFF" />
<rect x="70" y="58" width="2" height="2" fill="#FFFFFF" />
<rect x="12" y="60" width="2" height="2" fill="#FFFFFF" />
<rect x="14" y="60" width="2" height="2" fill="#FFFFFF" />
<rect x="16" y="60" width="2" height="2" fill="#B9D1EC" />
<rect x="18" y="60" width="2" height="2" fill="#B9D1EC" />
<rect x="20" y="60" width="2" height="2" fill="#81B3E9" />
<rect x="22" y="60" width="2" height="2" fill="#81B3E9" />
<rect x="24" y="60" width="2" height="2" fill="#81B3E9" />
<rect x="26" y="60" width="2" height="2" fill="#81B3E9" />
<rect x="28" y="60" width="2" height="2" fill="#81B3E9" />
<rect x="30" y="60" width="2" height="2" fill="#81B3E9" />
<rect x="32" y="60" width="2" height="2" fill="#81B3E9" />
<rect x="34" y="60" width="2" height="2" fill="#81B3E9" />
<rect x="36" y="60" width="2" height="2" fill="#81B3E9" />
<rect x="38" y="60" width="2" height="2" fill="#81B3E9" />
<rect x="40" y="60" width="2" height="2" fill="#81B3E9" />
<rect x="42" y="60" width="2" height="2" fill="#81B3E9" />
<rect x="44" y="60" width="2" height="2" fill="#81B3E9" />
<rect x="46" y="60" width="2" height="2" fill="#81B3E9" />
<rect x="48" y="60" width="2" height="2" fill="#81B3E9" />
<rect x="50" y="60" width="2" height="2" fill="#81B3E9" />
<rect x="52" y="60" width="2" height="2" fill="#81B3E9" />
<rect x="54" y="60" width="2" height="2" fill="#81B3E9" />
<rect x="56" y="60" width="2" height="2" fill="#81B3E9" />
<rect x="58" y="60" width="2" height="2" fill="#81B3E9" />
<rect x="60" y="60" width="2" height="2" fill="#81B3E9" />
<rect x="62" y="60" width="2" height="2" fill="#81B3E9" />
<rect x="64" y="60" width="2" height="2" fill="#5385D7" />
<rect x="66" y="60" width="2" height="2" fill="#5385D7" />
<rect x="68" y="60" width="2" height="2" fill="#FFFFFF" />
<rect x="70" y="60" width="2" height="2" fill="#FFFFFF" />
<rect x="12" y="62" width="2" height="2" fill="#FFFFFF" />
<rect x="14" y="62" width="2" height="2" fill="#FFFFFF" />
<rect x="16" y="62" width="2" height="2" fill="#B9D1EC" />
<rect x="18" y="62" width="2" height="2" fill="#B9D1EC" />
<rect x="20" y="62" width="2" height="2" fill="#81B3E9" />
<rect x="22" y="62" width="2" height="2" fill="#81B3E9" />
<rect x="24" y="62" width="2" height="2" fill="#81B3E9" />
<rect x="26" y="62" width="2" height="2" fill="#81B3E9" />
<rect x="28" y="62" width="2" height="2" fill="#81B3E9" />
<rect x="30" y="62" width="2" height="2" fill="#81B3E9" />
<rect x="32" y="62" width="2" height="2" fill="#81B3E9" />
<rect x="34" y="62" width="2" height="2" fill="#81B3E9" />
<rect x="36" y="62" width="2" height="2" fill="#81B3E9" />
<rect x="38" y="62" width="2" height="2" fill="#81B3E9" />
<rect x="40" y="62" width="2" height="2" fill="#81B3E9" />
<rect x="42" y="62" width="2" height="2" fill="#81B3E9" />
<rect x="44" y="62" width="2" height="2" fill="#81B3E9" />
<rect x="46" y="62" width="2" height="2" fill="#81B3E9" />
<rect x="48" y="62" width="2" height="2" fill="#81B3E9" />
<rect x="50" y="62" width="2" height="2" fill="#81B3E9" />
<rect x="52" y="62" width="2" height="2" fill="#81B3E9" />
<rect x="54" y="62" width="2" height="2" fill="#81B3E9" />
<rect x="56" y="62" width="2" height="2" fill="#81B3E9" />
<rect x="58" y="62" width="2" height="2" fill="#81B3E9" />
<rect x="60" y="62" width="2" height="2" fill="#81B3E9" />
<rect x="62" y="62" width="2" height="2" fill="#81B3E9" />
<rect x="64" y="62" width="2" height="2" fill="#5385D7" />
<rect x="66" y="62" width="2" height="2" fill="#5385D7" />
<rect x="68" y="62" width="2" height="2" fill="#FFFFFF" />
<rect x="70" y="62" width="2" height="2" fill="#FFFFFF" />
<rect x="12" y="64" width="2" height="2" fill="#FFFFFF" />
<rect x="14" y="64" width="2" height="2" fill="#FFFFFF" />
<rect x="16" y="64" width="2" height="2" fill="#FFFFFF" />
<rect x="18" y="64" width="2" height="2" fill="#FFFFFF" />
<rect x="20" y="64" width="2" height="2" fill="#B9D1EC" />
<rect x="22" y="64" width="2" height="2" fill="#B9D1EC" />
<rect x="24" y="64" width="2" height="2" fill="#81B3E9" />
<rect x="26" y="64" width="2" height="2" fill="#81B3E9" />
<rect x="28" y="64" width="2" height="2" fill="#81B3E9" />
<rect x="30" y="64" width="2" height="2" fill="#81B3E9" />
<rect x="32" y="64" width="2" height="2" fill="#81B3E9" />
<rect x="34" y="64" width="2" height="2" fill="#81B3E9" />
<rect x="36" y="64" width="2" height="2" fill="#81B3E9" />
<rect x="38" y="64" width="2" height="2" fill="#81B3E9" />
<rect x="40" y="64" width="2" height="2" fill="#81B3E9" />
<rect x="42" y="64" width="2" height="2" fill="#81B3E9" />
<rect x="44" y="64" width="2" height="2" fill="#81B3E9" />
<rect x="46" y="64" width="2" height="2" fill="#81B3E9" />
<rect x="48" y="64" width="2" height="2" fill="#81B3E9" />
<rect x="50" y="64" width="2" height="2" fill="#81B3E9" />
<rect x="52" y="64" width="2" height="2" fill="#81B3E9" />
<rect x="54" y="64" width="2" height="2" fill="#81B3E9" />
<rect x="56" y="64" width="2" height="2" fill="#81B3E9" />
<rect x="58" y="64" width="2" height="2" fill="#81B3E9" />
<rect x="60" y="64" width="2" height="2" fill="#5385D7" />
<rect x="62" y="64" width="2" height="2" fill="#5385D7" />
<rect x="64" y="64" width="2" height="2" fill="#FFFFFF" />
<rect x="66" y="64" width="2" height="2" fill="#FFFFFF" />
<rect x="68" y="64" width="2" height="2" fill="#FFFFFF" />
<rect x="70" y="64" width="2" height="2" fill="#FFFFFF" />
<rect x="12" y="66" width="2" height="2" fill="#FFFFFF" />
<rect x="14" y="66" width="2" height="2" fill="#FFFFFF" />
<rect x="16" y="66" width="2" height="2" fill="#FFFFFF" />
<rect x="18" y="66" width="2" height="2" fill="#FFFFFF" />
<rect x="20" y="66" width="2" height="2" fill="#B9D1EC" />
<rect x="22" y="66" width="2" height="2" fill="#B9D1EC" />
<rect x="24" y="66" width="2" height="2" fill="#81B3E9" />
<rect x="26" y="66" width="2" height="2" fill="#81B3E9" />
<rect x="28" y="66" width="2" height="2" fill="#81B3E9" />
<rect x="30" y="66" width="2" height="2" fill="#81B3E9" />
<rect x="32" y="66" width="2" height="2" fill="#81B3E9" />
<rect x="34" y="66" width="2" height="2" fill="#81B3E9" />
<rect x="36" y="66" width="2" height="2" fill="#81B3E9" />
<rect x="38" y="66" width="2" height="2" fill="#81B3E9" />
<rect x="40" y="66" width="2" height="2" fill="#81B3E9" />
<rect x="42" y="66" width="2" height="2" fill="#81B3E9" />
<rect x="44" y="66" width="2" height="2" fill="#81B3E9" />
<rect x="46" y="66" width="2" height="2" fill="#81B3E9" />
<rect x="48" y="66" width="2" height="2" fill="#81B3E9" />
<rect x="50" y="66" width="2" height="2" fill="#81B3E9" />
<rect x="52" y="66" width="2" height="2" fill="#81B3E9" />
<rect x="54" y="66" width="2" height="2" fill="#81B3E9" />
<rect x="56" y="66" width="2" height="2" fill="#81B3E9" />
<rect x="58" y="66" width="2" height="2" fill="#81B3E9" />
<rect x="60" y="66" width="2" height="2" fill="#5385D7" />
<rect x="62" y="66" width="2" height="2" fill="#5385D7" />
<rect x="64" y="66" width="2" height="2" fill="#FFFFFF" />
<rect x="66" y="66" width="2" height="2" fill="#FFFFFF" />
<rect x="68" y="66" width="2" height="2" fill="#FFFFFF" />
<rect x="70" y="66" width="2" height="2" fill="#FFFFFF" />
<rect x="16" y="68" width="2" height="2" fill="#FFFFFF" />
<rect x="18" y="68" width="2" height="2" fill="#FFFFFF" />
<rect x="20" y="68" width="2" height="2" fill="#FFFFFF" />
<rect x="22" y="68" width="2" height="2" fill="#FFFFFF" />
<rect x="24" y="68" width="2" height="2" fill="#B9D1EC" />
<rect x="26" y="68" width="2" height="2" fill="#B9D1EC" />
<rect x="28" y="68" width="2" height="2" fill="#81B3E9" />
<rect x="30" y="68" width="2" height="2" fill="#81B3E9" />
<rect x="32" y="68" width="2" height="2" fill="#81B3E9" />
<rect x="34" y="68" width="2" height="2" fill="#81B3E9" />
<rect x="36" y="68" width="2" height="2" fill="#81B3E9" />
<rect x="38" y="68" width="2" height="2" fill="#81B3E9" />
<rect x="40" y="68" width="2" height="2" fill="#81B3E9" />
<rect x="42" y="68" width="2" height="2" fill="#81B3E9" />
<rect x="44" y="68" width="2" height="2" fill="#81B3E9" />
<rect x="46" y="68" width="2" height="2" fill="#81B3E9" />
<rect x="48" y="68" width="2" height="2" fill="#81B3E9" />
<rect x="50" y="68" width="2" height="2" fill="#81B3E9" />
<rect x="52" y="68" width="2" height="2" fill="#81B3E9" />
<rect x="54" y="68" width="2" height="2" fill="#81B3E9" />
<rect x="56" y="68" width="2" height="2" fill="#5385D7" />
<rect x="58" y="68" width="2" height="2" fill="#5385D7" />
<rect x="60" y="68" width="2" height="2" fill="#FFFFFF" />
<rect x="62" y="68" width="2" height="2" fill="#FFFFFF" />
<rect x="64" y="68" width="2" height="2" fill="#FFFFFF" />
<rect x="66" y="68" width="2" height="2" fill="#FFFFFF" />
<rect x="16" y="70" width="2" height="2" fill="#FFFFFF" />
<rect x="18" y="70" width="2" height="2" fill="#FFFFFF" />
<rect x="20" y="70" width="2" height="2" fill="#FFFFFF" />
<rect x="22" y="70" width="2" height="2" fill="#FFFFFF" />
<rect x="24" y="70" width="2" height="2" fill="#B9D1EC" />
<rect x="26" y="70" width="2" height="2" fill="#B9D1EC" />
<rect x="28" y="70" width="2" height="2" fill="#81B3E9" />
<rect x="30" y="70" width="2" height="2" fill="#81B3E9" />
<rect x="32" y="70" width="2" height="2" fill="#81B3E9" />
<rect x="34" y="70" width="2" height="2" fill="#81B3E9" />
<rect x="36" y="70" width="2" height="2" fill="#81B3E9" />
<rect x="38" y="70" width="2" height="2" fill="#81B3E9" />
<rect x="40" y="70" width="2" height="2" fill="#81B3E9" />
<rect x="42" y="70" width="2" height="2" fill="#81B3E9" />
<rect x="44" y="70" width="2" height="2" fill="#81B3E9" />
<rect x="46" y="70" width="2" height="2" fill="#81B3E9" />
<rect x="48" y="70" width="2" height="2" fill="#81B3E9" />
<rect x="50" y="70" width="2" height="2" fill="#81B3E9" />
<rect x="52" y="70" width="2" height="2" fill="#81B3E9" />
<rect x="54" y="70" width="2" height="2" fill="#81B3E9" />
<rect x="56" y="70" width="2" height="2" fill="#5385D7" />
<rect x="58" y="70" width="2" height="2" fill="#5385D7" />
<rect x="60" y="70" width="2" height="2" fill="#FFFFFF" />
<rect x="62" y="70" width="2" height="2" fill="#FFFFFF" />
<rect x="64" y="70" width="2" height="2" fill="#FFFFFF" />
<rect x="66" y="70" width="2" height="2" fill="#FFFFFF" />
<rect x="20" y="72" width="2" height="2" fill="#FFFFFF" />
<rect x="22" y="72" width="2" height="2" fill="#FFFFFF" />
<rect x="24" y="72" width="2" height="2" fill="#FFFFFF" />
<rect x="26" y="72" width="2" height="2" fill="#FFFFFF" />
<rect x="28" y="72" width="2" height="2" fill="#5385D7" />
<rect x="30" y="72" width="2" height="2" fill="#5385D7" />
<rect x="32" y="72" width="2" height="2" fill="#5385D7" />
<rect x="34" y="72" width="2" height="2" fill="#5385D7" />
<rect x="36" y="72" width="2" height="2" fill="#5385D7" />
<rect x="38" y="72" width="2" height="2" fill="#5385D7" />
<rect x="40" y="72" width="2" height="2" fill="#5385D7" />
<rect x="42" y="72" width="2" height="2" fill="#5385D7" />
<rect x="44" y="72" width="2" height="2" fill="#5385D7" />
<rect x="46" y="72" width="2" height="2" fill="#5385D7" />
<rect x="48" y="72" width="2" height="2" fill="#5385D7" />
<rect x="50" y="72" width="2" height="2" fill="#5385D7" />
<rect x="52" y="72" width="2" height="2" fill="#5385D7" />
<rect x="54" y="72" width="2" height="2" fill="#5385D7" />
<rect x="56" y="72" width="2" height="2" fill="#FFFFFF" />
<rect x="58" y="72" width="2" height="2" fill="#FFFFFF" />
<rect x="60" y="72" width="2" height="2" fill="#FFFFFF" />
<rect x="62" y="72" width="2" height="2" fill="#FFFFFF" />
<rect x="20" y="74" width="2" height="2" fill="#FFFFFF" />
<rect x="22" y="74" width="2" height="2" fill="#FFFFFF" />
<rect x="24" y="74" width="2" height="2" fill="#FFFFFF" />
<rect x="26" y="74" width="2" height="2" fill="#FFFFFF" />
<rect x="28" y="74" width="2" height="2" fill="#5385D7" />
<rect x="30" y="74" width="2" height="2" fill="#5385D7" />
<rect x="32" y="74" width="2" height="2" fill="#5385D7" />
<rect x="34" y="74" width="2" height="2" fill="#5385D7" />
<rect x="36" y="74" width="2" height="2" fill="#5385D7" />
<rect x="38" y="74" width="2" height="2" fill="#5385D7" />
<rect x="40" y="74" width="2" height="2" fill="#5385D7" />
<rect x="42" y="74" width="2" height="2" fill="#5385D7" />
<rect x="44" y="74" width="2" height="2" fill="#5385D7" />
<rect x="46" y="74" width="2" height="2" fill="#5385D7" />
<rect x="48" y="74" width="2" height="2" fill="#5385D7" />
<rect x="50" y="74" width="2" height="2" fill="#5385D7" />
<rect x="52" y="74" width="2" height="2" fill="#5385D7" />
<rect x="54" y="74" width="2" height="2" fill="#5385D7" />
<rect x="56" y="74" width="2" height="2" fill="#FFFFFF" />
<rect x="58" y="74" width="2" height="2" fill="#FFFFFF" />
<rect x="60" y="74" width="2" height="2" fill="#FFFFFF" />
<rect x="62" y="74" width="2" height="2" fill="#FFFFFF" />
<rect x="24" y="76" width="2" height="2" fill="#FFFFFF" />
<rect x="26" y="76" width="2" height="2" fill="#FFFFFF" />
<rect x="28" y="76" width="2" height="2" fill="#FFFFFF" />
<rect x="30" y="76" width="2" height="2" fill="#FFFFFF" />
<rect x="32" y="76" width="2" height="2" fill="#FFFFFF" />
<rect x="34" y="76" width="2" height="2" fill="#FFFFFF" />
<rect x="36" y="76" width="2" height="2" fill="#FFFFFF" />
<rect x="38" y="76" width="2" height="2" fill="#FFFFFF" />
<rect x="40" y="76" width="2" height="2" fill="#FFFFFF" />
<rect x="42" y="76" width="2" height="2" fill="#FFFFFF" />
<rect x="44" y="76" width="2" height="2" fill="#FFFFFF" />
<rect x="46" y="76" width="2" height="2" fill="#FFFFFF" />
<rect x="48" y="76" width="2" height="2" fill="#FFFFFF" />
<rect x="50" y="76" width="2" height="2" fill="#FFFFFF" />
<rect x="52" y="76" width="2" height="2" fill="#FFFFFF" />
<rect x="54" y="76" width="2" height="2" fill="#FFFFFF" />
<rect x="56" y="76" width="2" height="2" fill="#FFFFFF" />
<rect x="58" y="76" width="2" height="2" fill="#FFFFFF" />
<rect x="24" y="78" width="2" height="2" fill="#FFFFFF" />
<rect x="26" y="78" width="2" height="2" fill="#FFFFFF" />
<rect x="28" y="78" width="2" height="2" fill="#FFFFFF" />
<rect x="30" y="78" width="2" height="2" fill="#FFFFFF" />
<rect x="32" y="78" width="2" height="2" fill="#FFFFFF" />
<rect x="34" y="78" width="2" height="2" fill="#FFFFFF" />
<rect x="36" y="78" width="2" height="2" fill="#FFFFFF" />
<rect x="38" y="78" width="2" height="2" fill="#FFFFFF" />
<rect x="40" y="78" width="2" height="2" fill="#FFFFFF" />
<rect x="42" y="78" width="2" height="2" fill="#FFFFFF" />
<rect x="44" y="78" width="2" height="2" fill="#FFFFFF" />
<rect x="46" y="78" width="2" height="2" fill="#FFFFFF" />
<rect x="48" y="78" width="2" height="2" fill="#FFFFFF" />
<rect x="50" y="78" width="2" height="2" fill="#FFFFFF" />
<rect x="52" y="78" width="2" height="2" fill="#FFFFFF" />
<rect x="54" y="78" width="2" height="2" fill="#FFFFFF" />
<rect x="56" y="78" width="2" height="2" fill="#FFFFFF" />
<rect x="58" y="78" width="2" height="2" fill="#FFFFFF" />
</svg>