<?xml version="1.0" encoding="UTF-8" ?>
<svg version="1.1" width="126" height="126" xmlns="http://www.w3.org/2000/svg" shape-rendering="crispEdges">
<rect x="54" y="6" width="3" height="3" fill="#FFFFFF" />
<rect x="57" y="6" width="3" height="3" fill="#FFFFFF" />
<rect x="60" y="6" width="3" height="3" fill="#FFFFFF" />
<rect x="63" y="6" width="3" height="3" fill="#FFFFFF" />
<rect x="66" y="6" width="3" height="3" fill="#FFFFFF" />
<rect x="69" y="6" width="3" height="3" fill="#FFFFFF" />
<rect x="54" y="9" width="3" height="3" fill="#FFFFFF" />
<rect x="57" y="9" width="3" height="3" fill="#FFFFFF" />
<rect x="60" y="9" width="3" height="3" fill="#FFFFFF" />
<rect x="63" y="9" width="3" height="3" fill="#FFFFFF" />
<rect x="66" y="9" width="3" height="3" fill="#FFFFFF" />
<rect x="69" y="9" width="3" height="3" fill="#FFFFFF" />
<rect x="48" y="12" width="3" height="3" fill="#FFFFFF" />
<rect x="51" y="12" width="3" height="3" fill="#FFFFFF" />
<rect x="54" y="12" width="3" height="3" fill="#FFFFFF" />
<rect x="57" y="12" width="3" height="3" fill="#FFFFFF" />
<rect x="60" y="12" width="3" height="3" fill="#B9D1EC" />
<rect x="63" y="12" width="3" height="3" fill="#B9D1EC" />
<rect x="66" y="12" width="3" height="3" fill="#FFFFFF" />
<rect x="69" y="12" width="3" height="3" fill="#FFFFFF" />
<rect x="72" y="12" width="3" height="3" fill="#FFFFFF" />
<rect x="75" y="12" width="3" height="3" fill="#FFFFFF" />
<rect x="48" y="15" width="3" height="3" fill="#FFFFFF" />
<rect x="51" y="15" width="3" height="3" fill="#FFFFFF" />
<rect x="54" y="15" width="3" height="3" fill="#FFFFFF" />
<rect x="57" y="15" width="3" height="3" fill="#FFFFFF" />
<rect x="60" y="15" width="3" height="3" fill="#B9D1EC" />
<rect x="63" y="15" width="3" height="3" fill="#B9D1EC" />
<rect x="66" y="15" width="3" height="3" fill="#FFFFFF" />
<rect x="69" y="15" width="3" height="3" fill="#FFFFFF" />
<rect x="72" y="15" width="3" height="3" fill="#FFFFFF" />
<rect x="75" y="15" width="3" height="3" fill="#FFFFFF" />
<rect x="48" y="18" width="3" height="3" fill="#FFFFFF" />
<rect x="51" y="18" width="3" height="3" fill="#FFFFFF" />
<rect x="54" y="18" width="3" height="3" fill="#B9D1EC" />
<rect x="57" y="18" width="3" height="3" fill="#B9D1EC" />
<rect x="60" y="18" width="3" height="3" fill="#81B3E9" />
<rect x="63" y="18" width="3" height="3" fill="#81B3E9" />
<rect x="66" y="18" width="3" height="3" fill="#5385D7" />
<rect x="69" y="18" width="3" height="3" fill="#5385D7" />
<rect x="72" y="18" width="3" height="3" fill="#FFFFFF" />
<rect x="75" y="18" width="3" height="3" fill="#FFFFFF" />
<rect x="48" y="21" width="3" height="3" fill="#FFFFFF" />
<rect x="51" y="21" width="3" height="3" fill="#FFFFFF" />
<rect x="54" y="21" width="3" height="3" fill="#B9D1EC" />
<rect x="57" y="21" width="3" height="3" fill="#B9D1EC" />
<rect x="60" y="21" width="3" height="3" fill="#81B3E9" />
<rect x="63" y="21" width="3" height="3" fill="#81B3E9" />
<rect x="66" y="21" width="3" height="3" fill="#5385D7" />
<rect x="69" y="21" width="3" height="3" fill="#5385D7" />
<rect x="72" y="21" width="3" height="3" fill="#FFFFFF" />
<rect x="75" y="21" width="3" height="3" fill="#FFFFFF" />
<rect x="42" y="24" width="3" height="3" fill="#FFFFFF" />
<rect x="45" y="24" width="3" height="3" fill="#FFFFFF" />
<rect x="48" y="24" width="3" height="3" fill="#FFFFFF" />
<rect x="51" y="24" width="3" height="3" fill="#FFFFFF" />
<rect x="54" y="24" width="3" height="3" fill="#B9D1EC" />
<rect x="57" y="24" width="3" height="3" fill="#B9D1EC" />
<rect x="60" y="24" width="3" height="3" fill="#81B3E9" />
<rect x="63" y="24" width="3" height="3" fill="#81B3E9" />
<rect x="66" y="24" width="3" height="3" fill="#5385D7" />
<rect x="69" y="24" width="3" height="3" fill="#5385D7" />
<rect x="72" y="24" width="3" height="3" fill="#FFFFFF" />
<rect x="75" y="24" width="3" height="3" fill="#FFFFFF" />
<rect x="78" y="24" width="3" height="3" fill="#FFFFFF" />
<rect x="81" y="24" width="3" height="3" fill="#FFFFFF" />
<rect x="42" y="27" width="3" height="3" fill="#FFFFFF" />
<rect x="45" y="27" width="3" height="3" fill="#FFFFFF" />
<rect x="48" y="27" width="3" height="3" fill="#FFFFFF" />
<rect x="51" y="27" width="3" height="3" fill="#FFFFFF" />
<rect x="54" y="27" width="3" height="3" fill="#B9D1EC" />
<rect x="57" y="27" width="3" height="3" fill="#B9D1EC" />
<rect x="60" y="27" width="3" height="3" fill="#81B3E9" />
<rect x="63" y="27" width="3" height="3" fill="#81B3E9" />
<rect x="66" y="27" width="3" height="3" fill="#5385D7" />
<rect x="69" y="27" width="3" height="3" fill="#5385D7" />
<rect x="72" y="27" width="3" height="3" fill="#FFFFFF" />
<rect x="75" y="27" width="3" height="3" fill="#FFFFFF" />
<rect x="78" y="27" width="3" height="3" fill="#FFFFFF" />
<rect x="81" y="27" width="3" height="3" fill="#FFFFFF" />
<rect x="42" y="30" width="3" height="3" fill="#FFFFFF" />
<rect x="45" y="30" width="3" height="3" fill="#FFFFFF" />
<rect x="48" y="30" width="3" height="3" fill="#B9D1EC" />
<rect x="51" y="30" width="3" height="3" fill="#B9D1EC" />
<rect x="54" y="30" width="3" height="3" fill="#81B3E9" />
<rect x="57" y="30" width="3" height="3" fill="#81B3E9" />
<rect x="60" y="30" width="3" height="3" fill="#81B3E9" />
<rect x="63" y="30" width="3" height="3" fill="#81B3E9" />
<rect x="66" y="30" width="3" height="3" fill="#81B3E9" />
<rect x="69" y="30" width="3" height="3" fill="#81B3E9" />
<rect x="72" y="30" width="3" height="3" fill="#5385D7" />
<rect x="75" y="30" width="3" height="3" fill="#5385D7" />
<rect x="78" y="30" width="3" height="3" fill="#FFFFFF" />
<rect x="81" y="30" width="3" height="3" fill="#FFFFFF" />
<rect x="42" y="33" width="3" height="3" fill="#FFFFFF" />
<rect x="45" y="33" width="3" height="3" fill="#FFFFFF" />
<rect x="48" y="33" width="3" height="3" fill="#B9D1EC" />
<rect x="51" y="33" width="3" height="3" fill="#B9D1EC" />
<rect x="54" y="33" width="3" height="3" fill="#81B3E9" />
<rect x="57" y="33" width="3" height="3" fill="#81B3E9" />
<rect x="60" y="33" width="3" height="3" fill="#81B3E9" />
<rect x="63" y="33" width="3" height="3" fill="#81B3E9" />
<rect x="66" y="33" width="3" height="3" fill="#81B3E9" />
<rect x="69" y="33" width="3" height="3" fill="#81B3E9" />
<rect x="72" y="33" width="3" height="3" fill="#5385D7" />
<rect x="75" y="33" width="3" height="3" fill="#5385D7" />
<rect x="78" y="33" width="3" height="3" fill="#FFFFFF" />
<rect x="81" y="33" width="3" height="3" fill="#FFFFFF" />
<rect x="36" y="36" width="3" height="3" fill="#FFFFFF" />
<rect x="39" y="36" width="3" height="3" fill="#FFFFFF" />
<rect x="42" y="36" width="3" height="3" fill="#FFFFFF" />
<rect x="45" y="36" width="3" height="3" fill="#FFFFFF" />
<rect x="48" y="36" width="3" height="3" fill="#B9D1EC" />
<rect x="51" y="36" width="3" height="3" fill="#B9D1EC" />
<rect x="54" y="36" width="3" height="3" fill="#81B3E9" />
<rect x="57" y="36" width="3" height="3" fill="#81B3E9" />
<rect x="60" y="36" width="3" height="3" fill="#81B3E9" />
<rect x="63" y="36" width="3" height="3" fill="#81B3E9" />
<rect x="66" y="36" width="3" height="3" fill="#81B3E9" />
<rect x="69" y="36" width="3" height="3" fill="#81B3E9" />
<rect x="72" y="36" width="3" height="3" fill="#5385D7" />
<rect x="75" y="36" width="3" height="3" fill="#5385D7" />
<rect x="78" y="36" width="3" height="3" fill="#FFFFFF" />
<rect x="81" y="36" width="3" height="3" fill="#FFFFFF" />
<rect x="84" y="36" width="3" height="3" fill="#FFFFFF" />
<rect x="87" y="36" width="3" height="3" fill="#FFFFFF" />
<rect x="36" y="39" width="3" height="3" fill="#FFFFFF" />
<rect x="39" y="39" width="3" height="3" fill="#FFFFFF" />
<rect x="42" y="39" width="3" height="3" fill="#FFFFFF" />
<rect x="45" y="39" width="3" height="3" fill="#FFFFFF" />
<rect x="48" y="39" width="3" height="3" fill="#B9D1EC" />
<rect x="51" y="39" width="3" height="3" fill="#B9D1EC" />
<rect x="54" y="39" width="3" height="3" fill="#81B3E9" />
<rect x="57" y="39" width="3" height="3" fill="#81B3E9" />
<rect x="60" y="39" width="3" height="3" fill="#81B3E9" />
<rect x="63" y="39" width="3" height="3" fill="#81B3E9" />
<rect x="66" y="39" width="3" height="3" fill="#81B3E9" />
<rect x="69" y="39" width="3" height="3" fill="#81B3E9" />
<rect x="72" y="39" width="3" height="3" fill="#5385D7" />
<rect x="75" y="39" width="3" height="3" fill="#5385D7" />
<rect x="78" y="39" width="3" height="3" fill="#FFFFFF" />
<rect x="81" y="39" width="3" height="3" fill="#FFFFFF" />
<rect x="84" y="39" width="3" height="3" fill="#FFFFFF" />
<rect x="87" y="39" width="3" height="3" fill="#FFFFFF" />
<rect x="36" y="42" width="3" height="3" fill="#FFFFFF" />
<rect x="39" y="42" width="3" height="3" fill="#FFFFFF" />
<rect x="42" y="42" width="3" height="3" fill="#B9D1EC" />
<rect x="45" y="42" width="3" height="3" fill="#B9D1EC" />
<rect x="48" y="42" width="3" height="3" fill="#81B3E9" />
<rect x="51" y="42" width="3" height="3" fill="#81B3E9" />
<rect x="54" y="42" width="3" height="3" fill="#81B3E9" />
<rect x="57" y="42" width="3" height="3" fill="#81B3E9" />
<rect x="60" y="42" width="3" height="3" fill="#81B3E9" />
<rect x="63" y="42" width="3" height="3" fill="#81B3E9" />
<rect x="66" y="42" width="3" height="3" fill="#81B3E9" />
<rect x="69" y="42" width="3" height="3" fill="#81B3E9" />
<rect x="72" y="42" width="3" height="3" fill="#81B3E9" />
<rect x="75" y="42" width="3" height="3" fill="#81B3E9" />
<rect x="78" y="42" width="3" height="3" fill="#5385D7" />
<rect x="81" y="42" width="3" height="3" fill="#5385D7" />
<rect x="84" y="42" width="3" height="3" fill="#FFFFFF" />
<rect x="87" y="42" width="3" height="3" fill="#FFFFFF" />
<rect x="36" y="45" width="3" height="3" fill="#FFFFFF" />
<rect x="39" y="45" width="3" height="3" fill="#FFFFFF" />
<rect x="42" y="45" width="3" height="3" fill="#B9D1EC" />
<rect x="45" y="45" width="3" height="3" fill="#B9D1EC" />
<rect x="48" y="45" width="3" height="3" fill="#81B3E9" />
<rect x="51" y="45" width="3" height="3" fill="#81B3E9" />
<rect x="54" y="45" width="3" height="3" fill="#81B3E9" />
<rect x="57" y="45" width="3" height="3" fill="#81B3E9" />
<rect x="60" y="45" width="3" height="3" fill="#81B3E9" />
<rect x="63" y="45" width="3" height="3" fill="#81B3E9" />
<rect x="66" y="45" width="3" height="3" fill="#81B3E9" />
<rect x="69" y="45" width="3" height="3" fill="#81B3E9" />
<rect x="72" y="45" width="3" height="3" fill="#81B3E9" />
<rect x="75" y="45" width="3" height="3" fill="#81B3E9" />
<rect x="78" y="45" width="3" height="3" fill="#5385D7" />
<rect x="81" y="45" width="3" height="3" fill="#5385D7" />
<rect x="84" y="45" width="3" height="3" fill="#FFFFFF" />
<rect x="87" y="45" width="3" height="3" fill="#FFFFFF" />
<rect x="30" y="48" width="3" height="3" fill="#FFFFFF" />
<rect x="33" y="48" width="3" height="3" fill="#FFFFFF" />
<rect x="36" y="48" width="3" height="3" fill="#FFFFFF" />
<rect x="39" y="48" width="3" height="3" fill="#FFFFFF" />
<rect x="42" y="48" width="3" height="3" fill="#B9D1EC" />
<rect x="45" y="48" width="3" height="3" fill="#B9D1EC" />
<rect x="48" y="48" width="3" height="3" fill="#81B3E9" />
<rect x="51" y="48" width="3" height="3" fill="#81B3E9" />
<rect x="54" y="48" width="3" height="3" fill="#81B3E9" />
<rect x="57" y="48" width="3" height="3" fill="#81B3E9" />
<rect x="60" y="48" width="3" height="3" fill="#81B3E9" />
<rect x="63" y="48" width="3" height="3" fill="#81B3E9" />
<rect x="66" y="48" width="3" height="3" fill="#81B3E9" />
<rect x="69" y="48" width="3" height="3" fill="#81B3E9" />
<rect x="72" y="48" width="3" height="3" fill="#81B3E9" />
<rect x="75" y="48" width="3" height="3" fill="#81B3E9" />
<rect x="78" y="48" width="3" height="3" fill="#5385D7" />
<rect x="81" y="48" width="3" height="3" fill="#5385D7" />
<rect x="84" y="48" width="3" height="3" fill="#FFFFFF" />
<rect x="87" y="48" width="3" height="3" fill="#FFFFFF" />
<rect x="90" y="48" width="3" height="3" fill="#FFFFFF" />
<rect x="93" y="48" width="3" height="3" fill="#FFFFFF" />
<rect x="30" y="51" width="3" height="3" fill="#FFFFFF" />
<rect x="33" y="51" width="3" height="3" fill="#FFFFFF" />
<rect x="36" y="51" width="3" height="3" fill="#FFFFFF" />
<rect x="39" y="51" width="3" height="3" fill="#FFFFFF" />
<rect x="42" y="51" width="3" height="3" fill="#B9D1EC" />
<rect x="45" y="51" width="3" height="3" fill="#B9D1EC" />
<rect x="48" y="51" width="3" height="3" fill="#81B3E9" />
<rect x="51" y="51" width="3" height="3" fill="#81B3E9" />
<rect x="54" y="51" width="3" height="3" fill="#81B3E9" />
<rect x="57" y="51" width="3" height="3" fill="#81B3E9" />
<rect x="60" y="51" width="3" height="3" fill="#81B3E9" />
<rect x="63" y="51" width="3" height="3" fill="#81B3E9" />
<rect x="66" y="51" width="3" height="3" fill="#81B3E9" />
<rect x="69" y="51" width="3" height="3" fill="#81B3E9" />
<rect x="72" y="51" width="3" height="3" fill="#81B3E9" />
<rect x="75" y="51" width="3" height="3" fill="#81B3E9" />
<rect x="78" y="51" width="3" height="3" fill="#5385D7" />
<rect x="81" y="51" width="3" height="3" fill="#5385D7" />
<rect x="84" y="51" width="3" height="3" fill="#FFFFFF" />
<rect x="87" y="51" width="3" height="3" fill="#FFFFFF" />
<rect x="90" y="51" width="3" height="3" fill="#FFFFFF" />
<rect x="93" y="51" width="3" height="3" fill="#FFFFFF" />
<rect x="30" y="54" width="3" height="3" fill="#FFFFFF" />
<rect x="33" y="54" width="3" height="3" fill="#FFFFFF" />
<rect x="36" y="54" width="3" height="3" fill="#B9D1EC" />
<rect x="39" y="54" width="3" height="3" fill="#B9D1EC" />
<rect x="42" y="54" width="3" height="3" fill="#81B3E9" />
<rect x="45" y="54" width="3" height="3" fill="#81B3E9" />
<rect x="48" y="54" width="3" height="3" fill="#81B3E9" />
<rect x="51" y="54" width="3" height="3" fill="#81B3E9" />
<rect x="54" y="54" width="3" height="3" fill="#81B3E9" />
<rect x="57" y="54" width="3" height="3" fill="#81B3E9" />
<rect x="60" y="54" width="3" height="3" fill="#81B3E9" />
<rect x="63" y="54" width="3" height="3" fill="#81B3E9" />
<rect x="66" y="54" width="3" height="3" fill="#81B3E9" />
<rect x="69" y="54" width="3" height="3" fill="#81B3E9" />
<rect x="72" y="54" width="3" height="3" fill="#81B3E9" />
<rect x="75" y="54" width="3" height="3" fill="#81B3E9" />
<rect x="78" y="54" width="3" height="3" fill="#81B3E9" />
<rect x="81" y="54" width="3" height="3" fill="#81B3E9" />
<rect x="84" y="54" width="3" height="3" fill="#5385D7" />
<rect x="87" y="54" width="3" height="3" fill="#5385D7" />
<rect x="90" y="54" width="3" height="3" fill="#FFFFFF" />
<rect x="93" y="54" width="3" height="3" fill="#FFFFFF" />
<rect x="30" y="57" width="3" height="3" fill="#FFFFFF" />
<rect x="33" y="57" width="3" height="3" fill="#FFFFFF" />
<rect x="36" y="57" width="3" height="3" fill="#B9D1EC" />
<rect x="39" y="57" width="3" height="3" fill="#B9D1EC" />
<rect x="42" y="57" width="3" height="3" fill="#81B3E9" />
<rect x="45" y="57" width="3" height="3" fill="#81B3E9" />
<rect x="48" y="57" width="3" height="3" fill="#81B3E9" />
<rect x="51" y="57" width="3" height="3" fill="#81B3E9" />
<rect x="54" y="57" width="3" height="3" fill="#81B3E9" />
<rect x="57" y="57" width="3" height="3" fill="#81B3E9" />
<rect x="60" y="57" width="3" height="3" fill="#81B3E9" />
<rect x="63" y="57" width="3" height="3" fill="#81B3E9" />
<rect x="66" y="57" width="3" height="3" fill="#81B3E9" />
<rect x="69" y="57" width="3" height="3" fill="#81B3E9" />
<rect x="72" y="57" width="3" height="3" fill="#81B3E9" />
<rect x="75" y="57" width="3" height="3" fill="#81B3E9" />
<rect x="78" y="57" width="3" height="3" fill="#81B3E9" />
<rect x="81" y="57" width="3" height="3" fill="#81B3E9" />
<rect x="84" y="57" width="3" height="3" fill="#5385D7" />
<rect x="87" y="57" width="3" height="3" fill="#5385D7" />
<rect x="90" y="57" width="3" height="3" fill="#FFFFFF" />
<rect x="93" y="57" width="3" height="3" fill="#FFFFFF" />
<rect x="24" y="60" width="3" height="3" fill="#FFFFFF" />
<rect x="27" y="60" width="3" height="3" fill="#FFFFFF" />
<rect x="30" y="60" width="3" height="3" fill="#FFFFFF" />
<rect x="33" y="60" width="3" height="3" fill="#FFFFFF" />
<rect x="36" y="60" width="3" height="3" fill="#B9D1EC" />
<rect x="39" y="60" width="3" height="3" fill="#B9D1EC" />
<rect x="42" y="60" width="3" height="3" fill="#81B3E9" />
<rect x="45" y="60" width="3" height="3" fill="#81B3E9" />
<rect x="48" y="60" width="3" height="3" fill="#81B3E9" />
<rect x="51" y="60" width="3" height="3" fill="#81B3E9" />
<rect x="54" y="60" width="3" height="3" fill="#81B3E9" />
<rect x="57" y="60" width="3" height="3" fill="#81B3E9" />
<rect x="60" y="60" width="3" height="3" fill="#81B3E9" />
<rect x="63" y="60" width="3" height="3" fill="#81B3E9" />
<rect x="66" y="60" width="3" height="3" fill="#81B3E9" />
<rect x="69" y="60" width="3" height="3" fill="#81B3E9" />
<rect x="72" y="60" width="3" height="3" fill="#81B3E9" />
<rect x="75" y="60" width="3" height="3" fill="#81B3E9" />
<rect x="78" y="60" width="3" height="3" fill="#81B3E9" />
<rect x="81" y="60" width="3" height="3" fill="#81B3E9" />
<rect x="84" y="60" width="3" height="3" fill="#5385D7" />
<rect x="87" y="60" width="3" height="3" fill="#5385D7" />
<rect x="90" y="60" width="3" height="3" fill="#FFFFFF" />
<rect x="93" y="60" width="3" height="3" fill="#FFFFFF" />
<rect x="96" y="60" width="3" height="3" fill="#FFFFFF" />
<rect x="99" y="60" width="3" height="3" fill="#FFFFFF" />
<rect x="24" y="63" width="3" height="3" fill="#FFFFFF" />
<rect x="27" y="63" width="3" height="3" fill="#FFFFFF" />
<rect x="30" y="63" width="3" height="3" fill="#FFFFFF" />
<rect x="33" y="63" width="3" height="3" fill="#FFFFFF" />
<rect x="36" y="63" width="3" height="3" fill="#B9D1EC" />
<rect x="39" y="63" width="3" height="3" fill="#B9D1EC" />
<rect x="42" y="63" width="3" height="3" fill="#81B3E9" />
<rect x="45" y="63" width="3" height="3" fill="#81B3E9" />
<rect x="48" y="63" width="3" height="3" fill="#81B3E9" />
<rect x="51" y="63" width="3" height="3" fill="#81B3E9" />
<rect x="54" y="63" width="3" height="3" fill="#81B3E9" />
<rect x="57" y="63" width="3" height="3" fill="#81B3E9" />
<rect x="60" y="63" width="3" height="3" fill="#81B3E9" />
<rect x="63" y="63" width="3" height="3" fill="#81B3E9" />
<rect x="66" y="63" width="3" height="3" fill="#81B3E9" />
<rect x="69" y="63" width="3" height="3" fill="#81B3E9" />
<rect x="72" y="63" width="3" height="3" fill="#81B3E9" />
<rect x="75" y="63" width="3" height="3" fill="#81B3E9" />
<rect x="78" y="63" width="3" height="3" fill="#81B3E9" />
<rect x="81" y="63" width="3" height="3" fill="#81B3E9" />
<rect x="84" y="63" width="3" height="3" fill="#5385D7" />
<rect x="87" y="63" width="3" height="3" fill="#5385D7" />
<rect x="90" y="63" width="3" height="3" fill="#FFFFFF" />
<rect x="93" y="63" width="3" height="3" fill="#FFFFFF" />
<rect x="96" y="63" width="3" height="3" fill="#FFFFFF" />
<rect x="99" y="63" width="3" height="3" fill="#FFFFFF" />
<rect x="24" y="66" width="3" height="3" fill="#FFFFFF" />
<rect x="27" y="66" width="3" height="3" fill="#FFFFFF" />
<rect x="30" y="66" width="3" height="3" fill="#B9D1EC" />
<rect x="33" y="66" width="3" height="3" fill="#B9D1EC" />
<rect x="36" y="66" width="3" height="3" fill="#81B3E9" />
<rect x="39" y="66" width="3" height="3" fill="#81B3E9" />
<rect x="42" y="66" width="3" height="3" fill="#81B3E9" />
<rect x="45" y="66" width="3" height="3" fill="#81B3E9" />
<rect x="48" y="66" width="3" height="3" fill="#81B3E9" />
<rect x="51" y="66" width="3" height="3" fill="#81B3E9" />
<rect x="54" y="66" width="3" height="3" fill="#81B3E9" />
<rect x="57" y="66" width="3" height="3" fill="#81B3E9" />
<rect x="60" y="66" width="3" height="3" fill="#81B3E9" />
<rect x="63" y="66" width="3" height="3" fill="#81B3E9" />
<rect x="66" y="66" width="3" height="3" fill="#81B3E9" />
<rect x="69" y="66" width="3" height="3" fill="#81B3E9" />
<rect x="72" y="66" width="3" height="3" fill="#81B3E9" />
<rect x="75" y="66" width="3" height="3" fill="#81B3E9" />
<rect x="78" y="66" width="3" height="3" fill="#81B3E9" />
<rect x="81" y="66" width="3" height="3" fill="#81B3E9" />
<rect x="84" y="66" width="3" height="3" fill="#81B3E9" />
<rect x="87" y="66" width="3" height="3" fill="#81B3E9" />
<rect x="90" y="66" width="3" height="3" fill="#5385D7" />
<rect x="93" y="66" width="3" height="3" fill="#5385D7" />
<rect x="96" y="66" width="3" height="3" fill="#FFFFFF" />
<rect x="99" y="66" width="3" height="3" fill="#FFFFFF" />
<rect x="24" y="69" width="3" height="3" fill="#FFFFFF" />
<rect x="27" y="69" width="3" height="3" fill="#FFFFFF" />
<rect x="30" y="69" width="3" height="3" fill="#B9D1EC" />
<rect x="33" y="69" width="3" height="3" fill="#B9D1EC" />
<rect x="36" y="69" width="3" height="3" fill="#81B3E9" />
<rect x="39" y="69" width="3" height="3" fill="#81B3E9" />
<rect x="42" y="69" width="3" height="3" fill="#81B3E9" />
<rect x="45" y="69" width="3" height="3" fill="#81B3E9" />
<rect x="48" y="69" width="3" height="3" fill="#81B3E9" />
<rect x="51" y="69" width="3" height="3" fill="#81B3E9" />
<rect x="54" y="69" width="3" height="3" fill="#81B3E9" />
<rect x="57" y="69" width="3" height="3" fill="#81B3E9" />
<rect x="60" y="69" width="3" height="3" fill="#81B3E9" />
<rect x="63" y="69" width="3" height="3" fill="#81B3E9" />
<rect x="66" y="69" width="3" height="3" fill="#81B3E9" />
<rect x="69" y="69" width="3" height="3" fill="#81B3E9" />
<rect x="72" y="69" width="3" height="3" fill="#81B3E9" />
<rect x="75" y="69" width="3" height="3" fill="#81B3E9" />
<rect x="78" y="69" width="3" height="3" fill="#81B3E9" />
<rect x="81" y="69" width="3" height="3" fill="#81B3E9" />
<rect x="84" y="69" width="3" height="3" fill="#81B3E9" />
<rect x="87" y="69" width="3" height="3" fill="#81B3E9" />
<rect x="90" y="69" width="3" height="3" fill="#5385D7" />
<rect x="93" y="69" width="3" height="3" fill="#5385D7" />
<rect x="96" y="69" width="3" height="3" fill="#FFFFFF" />
<rect x="99" y="69" width="3" height="3" fill="#FFFFFF" />
<rect x="18" y="72" width="3" height="3" fill="#FFFFFF" />
<rect x="21" y="72" width="3" height="3" fill="#FFFFFF" />
<rect x="24" y="72" width="3" height="3" fill="#FFFFFF" />
<rect x="27" y="72" width="3" height="3" fill="#FFFFFF" />
<rect x="30" y="72" width="3" height="3" fill="#B9D1EC" />
<rect x="33" y="72" width="3" height="3" fill="#B9D1EC" />
<rect x="36" y="72" width="3" height="3" fill="#81B3E9" />
<rect x="39" y="72" width="3" height="3" fill="#81B3E9" />
<rect x="42" y="72" width="3" height="3" fill="#81B3E9" />
<rect x="45" y="72" width="3" height="3" fill="#81B3E9" />
<rect x="48" y="72" width="3" height="3" fill="#81B3E9" />
<rect x="51" y="72" width="3" height="3" fill="#81B3E9" />
<rect x="54" y="72" width="3" height="3" fill="#81B3E9" />
<rect x="57" y="72" width="3" height="3" fill="#81B3E9" />
<rect x="60" y="72" width="3" height="3" fill="#81B3E9" />
<rect x="63" y="72" width="3" height="3" fill="#81B3E9" />
<rect x="66" y="72" width="3" height="3" fill="#81B3E9" />
<rect x="69" y="72" width="3" height="3" fill="#81B3E9" />
<rect x="72" y="72" width="3" height="3" fill="#81B3E9" />
<rect x="75" y="72" width="3" height="3" fill="#81B3E9" />
<rect x="78" y="72" width="3" height="3" fill="#81B3E9" />
<rect x="81" y="72" width="3" height="3" fill="#81B3E9" />
<rect x="84" y="72" width="3" height="3" fill="#81B3E9" />
<rect x="87" y="72" width="3" height="3" fill="#81B3E9" />
<rect x="90" y="72" width="3" height="3" fill="#5385D7" />
<rect x="93" y="72" width="3" height="3" fill="#5385D7" />
<rect x="96" y="72" width="3" height="3" fill="#FFFFFF" />
<rect x="99" y="72" width="3" height="3" fill="#FFFFFF" />
<rect x="102" y="72" width="3" height="3" fill="#FFFFFF" />
<rect x="105" y="72" width="3" height="3" fill="#FFFFFF" />
<rect x="18" y="75" width="3" height="3" fill="#FFFFFF" />
<rect x="21" y="75" width="3" height="3" fill="#FFFFFF" />
<rect x="24" y="75" width="3" height="3" fill="#FFFFFF" />
<rect x="27" y="75" width="3" height="3" fill="#FFFFFF" />
<rect x="30" y="75" width="3" height="3" fill="#B9D1EC" />
<rect x="33" y="75" width="3" height="3" fill="#B9D1EC" />
<rect x="36" y="75" width="3" height="3" fill="#81B3E9" />
<rect x="39" y="75" width="3" height="3" fill="#81B3E9" />
<rect x="42" y="75" width="3" height="3" fill="#81B3E9" />
<rect x="45" y="75" width="3" height="3" fill="#81B3E9" />
<rect x="48" y="75" width="3" height="3" fill="#81B3E9" />
<rect x="51" y="75" width="3" height="3" fill="#81B3E9" />
<rect x="54" y="75" width="3" height="3" fill="#81B3E9" />
<rect x="57" y="75" width="3" height="3" fill="#81B3E9" />
<rect x="60" y="75" width="3" height="3" fill="#81B3E9" />
<rect x="63" y="75" width="3" height="3" fill="#81B3E9" />
<rect x="66" y="75" width="3" height="3" fill="#81B3E9" />
<rect x="69" y="75" width="3" height="3" fill="#81B3E9" />
<rect x="72" y="75" width="3" height="3" fill="#81B3E9" />
<rect x="75" y="75" width="3" height="3" fill="#81B3E9" />
<rect x="78" y="75" width="3" height="3" fill="#81B3E9" />
<rect x="81" y="75" width="3" height="3" fill="#81B3E9" />
<rect x="84" y="75" width="3" height="3" fill="#81B3E9" />
<rect x="87" y="75" width="3" height="3" fill="#81B3E9" />
<rect x="90" y="75" width="3" height="3" fill="#5385D7" />
<rect x="93" y="75" width="3" height="3" fill="#5385D7" />
<rect x="96" y="75" width="3" height="3" fill="#FFFFFF" />
<rect x="99" y="75" width="3" height="3" fill="#FFFFFF" />
<rect x="102" y="75" width="3" height="3" fill="#FFFFFF" />
<rect x="105" y="75" width="3" height="3" fill="#FFFFFF" />
<rect x="18" y="78" width="3" height="3" fill="#FFFFFF" />
<rect x="21" y="78" width="3" height="3" fill="#FFFFFF" />
<rect x="24" y="78" width="3" height="3" fill="#B9D1EC" />
<rect x="27" y="78" width="3" height="3" fill="#B9D1EC" />
<rect x="30" y="78" width="3" height="3" fill="#81B3E9" />
<rect x="33" y="78" width="3" height="3" fill="#81B3E9" />
<rect x="36" y="78" width="3" height="3" fill="#81B3E9" />
<rect x="39" y="78" width="3" height="3" fill="#81B3E9" />
<rect x="42" y="78" width="3" height="3" fill="#81B3E9" />
<rect x="45" y="78" width="3" height="3" fill="#81B3E9" />
<rect x="48" y="78" width="3" height="3" fill="#81B3E9" />
<rect x="51" y="78" width="3" height="3" fill="#81B3E9" />
<rect x="54" y="78" width="3" height="3" fill="#81B3E9" />
<rect x="57" y="78" width="3" height="3" fill="#81B3E9" />
<rect x="60" y="78" width="3" height="3" fill="#81B3E9" />
<rect x="63" y="78" width="3" height="3" fill="#81B3E9" />
<rect x="66" y="78" width="3" height="3" fill="#81B3E9" />
<rect x="69" y="78" width="3" height="3" fill="#81B3E9" />
<rect x="72" y="78" width="3" height="3" fill="#81B3E9" />
<rect x="75" y="78" width="3" height="3" fill="#81B3E9" />
<rect x="78" y="78" width="3" height="3" fill="#81B3E9" />
<rect x="81" y="78" width="3" height="3" fill="#81B3E9" />
<rect x="84" y="78" width="3" height="3" fill="#81B3E9" />
<rect x="87" y="78" width="3" height="3" fill="#81B3E9" />
<rect x="90" y="78" width="3" height="3" fill="#81B3E9" />
<rect x="93" y="78" width="3" height="3" fill="#81B3E9" />
<rect x="96" y="78" width="3" height="3" fill="#5385D7" />
<rect x="99" y="78" width="3" height="3" fill="#5385D7" />
<rect x="102" y="78" width="3" height="3" fill="#FFFFFF" />
<rect x="105" y="78" width="3" height="3" fill="#FFFFFF" />
<rect x="18" y="81" width="3" height="3" fill="#FFFFFF" />
<rect x="21" y="81" width="3" height="3" fill="#FFFFFF" />
<rect x="24" y="81" width="3" height="3" fill="#B9D1EC" />
<rect x="27" y="81" width="3" height="3" fill="#B9D1EC" />
<rect x="30" y="81" width="3" height="3" fill="#81B3E9" />
<rect x="33" y="81" width="3" height="3" fill="#81B3E9" />
<rect x="36" y="81" width="3" height="3" fill="#81B3E9" />
<rect x="39" y="81" width="3" height="3" fill="#81B3E9" />
<rect x="42" y="81" width="3" height="3" fill="#81B3E9" />
<rect x="45" y="81" width="3" height="3" fill="#81B3E9" />
<rect x="48" y="81" width="3" height="3" fill="#81B3E9" />
<rect x="51" y="81" width="3" height="3" fill="#81B3E9" />
<rect x="54" y="81" width="3" height="3" fill="#81B3E9" />
<rect x="57" y="81" width="3" height="3" fill="#81B3E9" />
<rect x="60" y="81" width="3" height="3" fill="#81B3E9" />
<rect x="63" y="81" width="3" height="3" fill="#81B3E9" />
<rect x="66" y="81" width="3" height="3" fill="#81B3E9" />
<rect x="69" y="81" width="3" height="3" fill="#81B3E9" />
<rect x="72" y="81" width="3" height="3" fill="#81B3E9" />
<rect x="75" y="81" width="3" height="3" fill="#81B3E9" />
<rect x="78" y="81" width="3" height="3" fill="#81B3E9" />
<rect x="81" y="81" width="3" height="3" fill="#81B3E9" />
<rect x="84" y="81" width="3" height="3" fill="#81B3E9" />
<rect x="87" y="81" width="3" height="3" fill="#81B3E9" />
<rect x="90" y="81" width="3" height="3" fill="#81B3E9" />
<rect x="93" y="81" width="3" height="3" fill="#81B3E9" />
<rect x="96" y="81" width="3" height="3" fill="#5385D7" />
<rect x="99" y="81" width="3" height="3" fill="#5385D7" />
<rect x="102" y="81" width="3" height="3" fill="#FFFFFF" />
<rect x="105" y="81" width="3" height="3" fill="#FFFFFF" />
<rect x="18" y="84" width="3" height="3" fill="#FFFFFF" />
<rect x="21" y="84" width="3" height="3" fill="#FFFFFF" />
<rect x="24" y="84" width="3" height="3" fill="#B9D1EC" />
<rect x="27" y="84" width="3" height="3" fill="#B9D1EC" />
<rect x="30" y="84" width="3" height="3" fill="#81B3E9" />
<rect x="33" y="84" width="3" height="3" fill="#81B3E9" />
<rect x="36" y="84" width="3" height="3" fill="#81B3E9" />
<rect x="39" y="84" width="3" height="3" fill="#81B3E9" />
<rect x="42" y="84" width="3" height="3" fill="#81B3E9" />
<rect x="45" y="84" width="3" height="3" fill="#81B3E9" />
<rect x="48" y="84" width="3" height="3" fill="#81B3E9" />
<rect x="51" y="84" width="3" height="3" fill="#81B3E9" />
<rect x="54" y="84" width="3" height="3" fill="#81B3E9" />
<rect x="57" y="84" width="3" height="3" fill="#81B3E9" />
<rect x="60" y="84" width="3" height="3" fill="#81B3E9" />
<rect x="63" y="84" width="3" height="3" fill="#81B3E9" />
<rect x="66" y="84" width="3" height="3" fill="#81B3E9" />
<rect x="69" y="84" width="3" height="3" fill="#81B3E9" />
<rect x="72" y="84" width="3" height="3" fill="#81B3E9" />
<rect x="75" y="84" width="3" height="3" fill="#81B3E9" />
<rect x="78" y="84" width="3" height="3" fill="#81B3E9" />
<rect x="81" y="84" width="3" height="3" fill="#81B3E9" />
<rect x="84" y="84" width="3" height="3" fill="#81B3E9" />
<rect x="87" y="84" width="3" height="3" fill="#81B3E9" />
<rect x="90" y="84" width="3" height="3" fill="#81B3E9" />
<rect x="93" y="84" width="3" height="3" fill="#81B3E9" />
<rect x="96" y="84" width="3" height="3" fill="#5385D7" />
<rect x="99" y="84" width="3" height="3" fill="#5385D7" />
<rect x="102" y="84" width="3" height="3" fill="#FFFFFF" />
<rect x="105" y="84" width="3" height="3" fill="#FFFFFF" />
<rect x="18" y="87" width="3" height="3" fill="#FFFFFF" />
<rect x="21" y="87" width="3" height="3" fill="#FFFFFF" />
<rect x="24" y="87" width="3" height="3" fill="#B9D1EC" />
<rect x="27" y="87" width="3" height="3" fill="#B9D1EC" />
<rect x="30" y="87" width="3" height="3" fill="#81B3E9" />
<rect x="33" y="87" width="3" height="3" fill="#81B3E9" />
<rect x="36" y="87" width="3" height="3" fill="#81B3E9" />
<rect x="39" y="87" width="3" height="3" fill="#81B3E9" />
<rect x="42" y="87" width="3" height="3" fill="#81B3E9" />
<rect x="45" y="87" width="3" height="3" fill="#81B3E9" />
<rect x="48" y="87" width="3" height="3" fill="#81B3E9" />
<rect x="51" y="87" width="3" height="3" fill="#81B3E9" />
<rect x="54" y="87" width="3" height="3" fill="#81B3E9" />
<rect x="57" y="87" width="3" height="3" fill="#81B3E9" />
<rect x="60" y="87" width="3" height="3" fill="#81B3E9" />
<rect x="63" y="87" width="3" height="3" fill="#81B3E9" />
<rect x="66" y="87" width="3" height="3" fill="#81B3E9" />
<rect x="69" y="87" width="3" height="3" fill="#81B3E9" />
<rect x="72" y="87" width="3" height="3" fill="#81B3E9" />
<rect x="75" y="87" width="3" height="3" fill="#81B3E9" />
<rect x="78" y="87" width="3" height="3" fill="#81B3E9" />
<rect x="81" y="87" width="3" height="3" fill="#81B3E9" />
<rect x="84" y="87" width="3" height="3" fill="#81B3E9" />
<rect x="87" y="87" width="3" height="3" fill="#81B3E9" />
<rect x="90" y="87" width="3" height="3" fill="#81B3E9" />
<rect x="93" y="87" width="3" height="3" fill="#81B3E9" />
<rect x="96" y="87" width="3" height="3" fill="#5385D7" />
<rect x="99" y="87" width="3" height="3" fill="#5385D7" />
<rect x="102" y="87" width="3" height="3" fill="#FFFFFF" />
<rect x="105" y="87" width="3" height="3" fill="#FFFFFF" />
<rect x="18" y="90" width="3" height="3" fill="#FFFFFF" />
<rect x="21" y="90" width="3" height="3" fill="#FFFFFF" />
<rect x="24" y="90" width="3" height="3" fill="#B9D1EC" />
<rect x="27" y="90" width="3" height="3" fill="#B9D1EC" />
<rect x="30" y="90" width="3" height="3" fill="#81B3E9" />
<rect x="33" y="90" width="3" height="3" fill="#81B3E9" />
<rect x="36" y="90" width="3" height="3" fill="#81B3E9" />
<rect x="39" y="90" width="3" height="3" fill="#81B3E9" />
<rect x="42" y="90" width="3" height="3" fill="#81B3E9" />
<rect x="45" y="90" width="3" height="3" fill="#81B3E9" />
<rect x="48" y="90" width="3" height="3" fill="#81B3E9" />
<rect x="51" y="90" width="3" height="3" fill="#81B3E9" />
<rect x="54" y="90" width="3" height="3" fill="#81B3E9" />
<rect x="57" y="90" width="3" height="3" fill="#81B3E9" />
<rect x="60" y="90" width="3" height="3" fill="#81B3E9" />
<rect x="63" y="90" width="3" height="3" fill="#81B3E9" />
<rect x="66" y="90" width="3" height="3" fill="#81B3E9" />
<rect x="69" y="90" width="3" height="3" fill="#81B3E9" />
<rect x="72" y="90" width="3" height="3" fill="#81B3E9" />
<rect x="75" y="90" width="3" height="3" fill="#81B3E9" />
<rect x="78" y="90" width="3" height="3" fill="#81B3E9" />
<rect x="81" y="90" width="3" height="3" fill="#81B3E9" />
<rect x="84" y="90" width="3" height="3" fill="#81B3E9" />
<rect x="87" y="90" width="3" height="3" fill="#81B3E9" />
<rect x="90" y="90" width="3" height="3" fill="#81B3E9" />
<rect x="93" y="90" width="3" height="3" fill="#81B3E9" />
<rect x="96" y="90" width="3" height="3" fill="#5385D7" />
<rect x="99" y="90" width="3" height="3" fill="#5385D7" />
<rect x="102" y="90" width="3" height="3" fill="#FFFFFF" />
<rect x="105" y="90" width="3" height="3" fill="#FFFFFF" />
<rect x="18" y="93" width="3" height="3" fill="#FFFFFF" />
<rect x="21" y="93" width="3" height="3" fill="#FFFFFF" />
<rect x="24" y="93" width="3" height="3" fill="#B9D1EC" />
<rect x="27" y="93" width="3" height="3" fill="#B9D1EC" />
<rect x="30" y="93" width="3" height="3" fill="#81B3E9" />
<rect x="33" y="93" width="3" height="3" fill="#81B3E9" />
<rect x="36" y="93" width="3" height="3" fill="#81B3E9" />
<rect x="39" y="93" width="3" height="3" fill="#81B3E9" />
<rect x="42" y="93" width="3" height="3" fill="#81B3E9" />
<rect x="45" y="93" width="3" height="3" fill="#81B3E9" />
<rect x="48" y="93" width="3" height="3" fill="#81B3E9" />
<rect x="51" y="93" width="3" height="3" fill="#81B3E9" />
<rect x="54" y="93" width="3" height="3" fill="#81B3E9" />
<rect x="57" y="93" width="3" height="3" fill="#81B3E9" />
<rect x="60" y="93" width="3" height="3" fill="#81B3E9" />
<rect x="63" y="93" width="3" height="3" fill="#81B3E9" />
<rect x="66" y="93" width="3" height="3" fill="#81B3E9" />
<rect x="69" y="93" width="3" height="3" fill="#81B3E9" />
<rect x="72" y="93" width="3" height="3" fill="#81B3E9" />
<rect x="75" y="93" width="3" height="3" fill="#81B3E9" />
<rect x="78" y="93" width="3" height="3" fill="#81B3E9" />
<rect x="81" y="93" width="3" height="3" fill="#81B3E9" />
<rect x="84" y="93" width="3" height="3" fill="#81B3E9" />
<rect x="87" y="93" width="3" height="3" fill="#81B3E9" />
<rect x="90" y="93" width="3" height="3" fill="#81B3E9" />
<rect x="93" y="93" width="3" height="3" fill="#81B3E9" />
<rect x="96" y="93" width="3" height="3" fill="#5385D7" />
<rect x="99" y="93" width="3" height="3" fill="#5385D7" />
<rect x="102" y="93" width="3" height="3" fill="#FFFFFF" />
<rect x="105" y="93" width="3" height="3" fill="#FFFFFF" />
<rect x="18" y="96" width="3" height="3" fill="#FFFFFF" />
<rect x="21" y="96" width="3" height="3" fill="#FFFFFF" />
<rect x="24" y="96" width="3" height="3" fill="#FFFFFF" />
<rect x="27" y="96" width="3" height="3" fill="#FFFFFF" />
<rect x="30" y="96" width="3" height="3" fill="#B9D1EC" />
<rect x="33" y="96" width="3" height="3" fill="#B9D1EC" />
<rect x="36" y="96" width="3" height="3" fill="#81B3E9" />
<rect x="39" y="96" width="3" height="3" fill="#81B3E9" />
<rect x="42" y="96" width="3" height="3" fill="#81B3E9" />
<rect x="45" y="96" width="3" height="3" fill="#81B3E9" />
<rect x="48" y="96" width="3" height="3" fill="#81B3E9" />
<rect x="51" y="96" width="3" height="3" fill="#81B3E9" />
<rect x="54" y="96" width="3" height="3" fill="#81B3E9" />
<rect x="57" y="96" width="3" height="3" fill="#81B3E9" />
<rect x="60" y="96" width="3" height="3" fill="#81B3E9" />
<rect x="63" y="96" width="3" height="3" fill="#81B3E9" />
<rect x="66" y="96" width="3" height="3" fill="#81B3E9" />
<rect x="69" y="96" width="3" height="3" fill="#81B3E9" />
<rect x="72" y="96" width="3" height="3" fill="#81B3E9" />
<rect x="75" y="96" width="3" height="3" fill="#81B3E9" />
<rect x="78" y="96" width="3" height="3" fill="#81B3E9" />
<rect x="81" y="96" width="3" height="3" fill="#81B3E9" />
<rect x="84" y="96" width="3" height="3" fill="#81B3E9" />
<rect x="87" y="96" width="3" height="3" fill="#81B3E9" />
<rect x="90" y="96" width="3" height="3" fill="#5385D7" />
<rect x="93" y="96" width="3" height="3" fill="#5385D7" />
<rect x="96" y="96" width="3" height="3" fill="#FFFFFF" />
<rect x="99" y="96" width="3" height="3" fill="#FFFFFF" />
<rect x="102" y="96" width="3" height="3" fill="#FFFFFF" />
<rect x="105" y="96" width="3" height="3" fill="#FFFFFF" />
<rect x="18" y="99" width="3" height="3" fill="#FFFFFF" />
<rect x="21" y="99" width="3" height="3" fill="#FFFFFF" />
<rect x="24" y="99" width="3" height="3" fill="#FFFFFF" />
<rect x="27" y="99" width="3" height="3" fill="#FFFFFF" />
<rect x="30" y="99" width="3" height="3" fill="#B9D1EC" />
<rect x="33" y="99" width="3" height="3" fill="#B9D1EC" />
<rect x="36" y="99" width="3" height="3" fill="#81B3E9" />
<rect x="39" y="99" width="3" height="3" fill="#81B3E9" />
<rect x="42" y="99" width="3" height="3" fill="#81B3E9" />
<rect x="45" y="99" width="3" height="3" fill="#81B3E9" />
<rect x="48" y="99" width="3" height="3" fill="#81B3E9" />
<rect x="51" y="99" width="3" height="3" fill="#81B3E9" />
<rect x="54" y="99" width="3" height="3" fill="#81B3E9" />
<rect x="57" y="99" width="3" height="3" fill="#81B3E9" />
<rect x="60" y="99" width="3" height="3" fill="#81B3E9" />
<rect x="63" y="99" width="3" height="3" fill="#81B3E9" />
<rect x="66" y="99" width="3" height="3" fill="#81B3E9" />
<rect x="69" y="99" width="3" height="3" fill="#81B3E9" />
<rect x="72" y="99" width="3" height="3" fill="#81B3E9" />
<rect x="75" y="99" width="3" height="3" fill="#81B3E9" />
<rect x="78" y="99" width="3" height="3" fill="#81B3E9" />
<rect x="81" y="99" width="3" height="3" fill="#81B3E9" />
<rect x="84" y="99" width="3" height="3" fill="#81B3E9" />
<rect x="87" y="99" width="3" height="3" fill="#81B3E9" />
<rect x="90" y="99" width="3" height="3" fill="#5385D7" />
<rect x="93" y="99" width="3" height="3" fill="#5385D7" />
<rect x="96" y="99" width="3" height="3" fill="#FFFFFF" />
<rect x="99" y="99" width="3" height="3" fill="#FFFFFF" />
<rect x="102" y="99" width="3" height="3" fill="#FFFFFF" />
<rect x="105" y="99" width="3" height="3" fill="#FFFFFF" />
<rect x="24" y="102" width="3" height="3" fill="#FFFFFF" />
<rect x="27" y="102" width="3" height="3" fill="#FFFFFF" />
<rect x="30" y="102" width="3" height="3" fill="#FFFFFF" />
<rect x="33" y="102" width="3" height="3" fill="#FFFFFF" />
<rect x="36" y="102" width="3" height="3" fill="#B9D1EC" />
<rect x="39" y="102" width="3" height="3" fill="#B9D1EC" />
<rect x="42" y="102" width="3" height="3" fill="#81B3E9" />
<rect x="45" y="102" width="3" height="3" fill="#81B3E9" />
<rect x="48" y="102" width="3" height="3" fill="#81B3E9" />
<rect x="51" y="102" width="3" height="3" fill="#81B3E9" />
<rect x="54" y="102" width="3" height="3" fill="#81B3E9" />
<rect x="57" y="102" width="3" height="3" fill="#81B3E9" />
<rect x="60" y="102" width="3" height="3" fill="#81B3E9" />
<rect x="63" y="102" width="3" height="3" fill="#81B3E9" />
<rect x="66" y="102" width="3" height="3" fill="#81B3E9" />
<rect x="69" y="102" width="3" height="3" fill="#81B3E9" />
<rect x="72" y="102" width="3" height="3" fill="#81B3E9" />
<rect x="75" y="102" width="3" height="3" fill="#81B3E9" />
<rect x="78" y="102" width="3" height="3" fill="#81B3E9" />
<rect x="81" y="102" width="3" height="3" fill="#81B3E9" />
<rect x="84" y="102" width="3" height="3" fill="#5385D7" />
<rect x="87" y="102" width="3" height="3" fill="#5385D7" />
<rect x="90" y="102" width="3" height="3" fill="#FFFFFF" />
<rect x="93" y="102" width="3" height="3" fill="#FFFFFF" />
<rect x="96" y="102" width="3" height="3" fill="#FFFFFF" />
<rect x="99" y="102" width="3" height="3" fill="#FFFFFF" />
<rect x="24" y="105" width="3" height="3" fill="#FFFFFF" />
<rect x="27" y="105" width="3" height="3" fill="#FFFFFF" />
<rect x="30" y="105" width="3" height="3" fill="#FFFFFF" />
<rect x="33" y="105" width="3" height="3" fill="#FFFFFF" />
<rect x="36" y="105" width="3" height="3" fill="#B9D1EC" />
<rect x="39" y="105" width="3" height="3" fill="#B9D1EC" />
<rect x="42" y="105" width="3" height="3" fill="#81B3E9" />
<rect x="45" y="105" width="3" height="3" fill="#81B3E9" />
<rect x="48" y="105" width="3" height="3" fill="#81B3E9" />
<rect x="51" y="105" width="3" height="3" fill="#81B3E9" />
<rect x="54" y="105" width="3" height="3" fill="#81B3E9" />
<rect x="57" y="105" width="3" height="3" fill="#81B3E9" />
<rect x="60" y="105" width="3" height="3" fill="#81B3E9" />
<rect x="63" y="105" width="3" height="3" fill="#81B3E9" />
<rect x="66" y="105" width="3" height="3" fill="#81B3E9" />
<rect x="69" y="105" width="3" height="3" fill="#81B3E9" />
<rect x="72" y="105" width="3" height="3" fill="#81B3E9" />
<rect x="75" y="105" width="3" height="3" fill="#81B3E9" />
<rect x="78" y="105" width="3" height="3" fill="#81B3E9" />
<rect x="81" y="105" width="3" height="3" fill="#81B3E9" />
<rect x="84" y="105" width="3" height="3" fill="#5385D7" />
<rect x="87" y="105" width="3" height="3" fill="#5385D7" />
<rect x="90" y="105" width="3" height="3" fill="#FFFFFF" />
<rect x="93" y="105" width="3" height="3" fill="#FFFFFF" />
<rect x="96" y="105" width="3" height="3" fill="#FFFFFF" />
<rect x="99" y="105" width="3" height="3" fill="#FFFFFF" />
<rect x="30" y="108" width="3" height="3" fill="#FFFFFF" />
<rect x="33" y="108" width="3" height="3" fill="#FFFFFF" />
<rect x="36" y="108" width="3" height="3" fill="#FFFFFF" />
<rect x="39" y="108" width="3" height="3" fill="#FFFFFF" />
<rect x="42" y="108" width="3" height="3" fill="#5385D7" />
<rect x="45" y="108" width="3" height="3" fill="#5385D7" />
<rect x="48" y="108" width="3" height="3" fill="#5385D7" />
<rect x="51" y="108" width="3" height="3" fill="#5385D7" />
<rect x="54" y="108" width="3" height="3" fill="#5385D7" />
<rect x="57" y="108" width="3" height="3" fill="#5385D7" />
<rect x="60" y="108" width="3" height="3" fill="#5385D7" />
<rect x="63" y="108" width="3" height="3" fill="#5385D7" />
<rect x="66" y="108" width="3" height="3" fill="#5385D7" />
<rect x="69" y="108" width="3" height="3" fill="#5385D7" />
<rect x="72" y="108" width="3" height="3" fill="#5385D7" />
<rect x="75" y="108" width="3" height="3" fill="#5385D7" />
<rect x="78" y="108" width="3" height="3" fill="#5385D7" />
<rect x="81" y="108" width="3" height="3" fill="#5385D7" />
<rect x="84" y="108" width="3" height="3" fill="#FFFFFF" />
<rect x="87" y="108" width="3" height="3" fill="#FFFFFF" />
<rect x="90" y="108" width="3" height="3" fill="#FFFFFF" />
<rect x="93" y="108" width="3" height="3" fill="#FFFFFF" />
<rect x="30" y="111" width="3" height="3" fill="#FFFFFF" />
<rect x="33" y="111" width="3" height="3" fill="#FFFFFF" />
<rect x="36" y="111" width="3" height="3" fill="#FFFFFF" />
<rect x="39" y="111" width="3" height="3" fill="#FFFFFF" />
<rect x="42" y="111" width="3" height="3" fill="#5385D7" />
<rect x="45" y="111" width="3" height="3" fill="#5385D7" />
<rect x="48" y="111" width="3" height="3" fill="#5385D7" />
<rect x="51" y="111" width="3" height="3" fill="#5385D7" />
<rect x="54" y="111" width="3" height="3" fill="#5385D7" />
<rect x="57" y="111" width="3" height="3" fill="#5385D7" />
<rect x="60" y="111" width="3" height="3" fill="#5385D7" />
<rect x="63" y="111" width="3" height="3" fill="#5385D7" />
<rect x="66" y="111" width="3" height="3" fill="#5385D7" />
<rect x="69" y="111" width="3" height="3" fill="#5385D7" />
<rect x="72" y="111" width="3" height="3" fill="#5385D7" />
<rect x="75" y="111" width="3" height="3" fill="#5385D7" />
<rect x="78" y="111" width="3" height="3" fill="#5385D7" />
<rect x="81" y="111" width="3" height="3" fill="#5385D7" />
<rect x="84" y="111" width="3" height="3" fill="#FFFFFF" />
<rect x="87" y="111" width="3" height="3" fill="#FFFFFF" />
<rect x="90" y="111" width="3" height="3" fill="#FFFFFF" />
<rect x="93" y="111" width="3" height="3" fill="#FFFFFF" />
<rect x="36" y="114" width="3" height="3" fill="#FFFFFF" />
<rect x="39" y="114" width="3" height="3" fill="#FFFFFF" />
<rect x="42" y="114" width="3" height="3" fill="#FFFFFF" />
<rect x="45" y="114" width="3" height="3" fill="#FFFFFF" />
<rect x="48" y="114" width="3" height="3" fill="#FFFFFF" />
<rect x="51" y="114" width="3" height="3" fill="#FFFFFF" />
<rect x="54" y="114" width="3" height="3" fill="#FFFFFF" />
<rect x="57" y="114" width="3" height="3" fill="#FFFFFF" />
<rect x="60" y="114" width="3" height="3" fill="#FFFFFF" />
<rect x="63" y="114" width="3" height="3" fill="#FFFFFF" />
<rect x="66" y="114" width="3" height="3" fill="#FFFFFF" />
<rect x="69" y="114" width="3" height="3" fill="#FFFFFF" />
<rect x="72" y="114" width="3" height="3" fill="#FFFFFF" />
<rect x="75" y="114" width="3" height="3" fill="#FFFFFF" />
<rect x="78" y="114" width="3" height="3" fill="#FFFFFF" />
<rect x="81" y="114" width="3" height="3" fill="#FFFFFF" />
<rect x="84" y="114" width="3" height="3" fill="#FFFFFF" />
<rect x="87" y="114" width="3" height="3" fill="#FFFFFF" />
<rect x="36" y="117" width="3" height="3" fill="#FFFFFF" />
<rect x="39" y="117" width="3" height="3" fill="#FFFFFF" />
<rect x="42" y="117" width="3" height="3" fill="#FFFFFF" />
<rect x="45" y="117" width="3" height="3" fill="#FFFFFF" />
<rect x="48" y="117" width="3" height="3" fill="#FFFFFF" />
<rect x="51" y="117" width="3" height="3" fill="#FFFFFF" />
<rect x="54" y="117" width="3" height="3" fill="#FFFFFF" />
<rect x="57" y="117" width="3" height="3" fill="#FFFFFF" />
<rect x="60" y="117" width="3" height="3" fill="#FFFFFF" />
<rect x="63" y="117" width="3" height="3" fill="#FFFFFF" />
<rect x="66" y="117" width="3" height="3" fill="#FFFFFF" />
<rect x="69" y="117" width="3" height="3" fill="#FFFFFF" />
<rect x="72" y="117" width="3" height="3" fill="#FFFFFF" />
<rect x="75" y="117" width="3" height="3" fill="#FFFFFF" />
<rect x="78" y="117" width="3" height="3" fill="#FFFFFF" />
<rect x="81" y="117" width="3" height="3" fill="#FFFFFF" />
<rect x="84" y="117" width="3" height="3" fill="#FFFFFF" />
<rect x="87" y="117" width="3" height="3" fill="#FFFFFF" />
</svg>