<?xml version="1.0" encoding="UTF-8" ?>
<svg version="1.1" width="126" height="126" xmlns="http://www.w3.org/2000/svg" shape-rendering="crispEdges">
<rect x="0" y="30" width="3" height="3" fill="#FFFFFF" />
<rect x="3" y="30" width="3" height="3" fill="#FFFFFF" />
<rect x="6" y="30" width="3" height="3" fill="#FFFFFF" />
<rect x="9" y="30" width="3" height="3" fill="#FFFFFF" />
<rect x="12" y="30" width="3" height="3" fill="#FFFFFF" />
<rect x="15" y="30" width="3" height="3" fill="#FFFFFF" />
<rect x="18" y="30" width="3" height="3" fill="#FFFFFF" />
<rect x="21" y="30" width="3" height="3" fill="#FFFFFF" />
<rect x="24" y="30" width="3" height="3" fill="#FFFFFF" />
<rect x="27" y="30" width="3" height="3" fill="#FFFFFF" />
<rect x="30" y="30" width="3" height="3" fill="#FFFFFF" />
<rect x="33" y="30" width="3" height="3" fill="#FFFFFF" />
<rect x="36" y="30" width="3" height="3" fill="#FFFFFF" />
<rect x="39" y="30" width="3" height="3" fill="#FFFFFF" />
<rect x="42" y="30" width="3" height="3" fill="#FFFFFF" />
<rect x="45" y="30" width="3" height="3" fill="#FFFFFF" />
<rect x="48" y="30" width="3" height="3" fill="#FFFFFF" />
<rect x="51" y="30" width="3" height="3" fill="#FFFFFF" />
<rect x="54" y="30" width="3" height="3" fill="#FFFFFF" />
<rect x="57" y="30" width="3" height="3" fill="#FFFFFF" />
<rect x="60" y="30" width="3" height="3" fill="#FFFFFF" />
<rect x="63" y="30" width="3" height="3" fill="#FFFFFF" />
<rect x="66" y="30" width="3" height="3" fill="#FFFFFF" />
<rect x="69" y="30" width="3" height="3" fill="#FFFFFF" />
<rect x="72" y="30" width="3" height="3" fill="#FFFFFF" />
<rect x="75" y="30" width="3" height="3" fill="#FFFFFF" />
<rect x="78" y="30" width="3" height="3" fill="#FFFFFF" />
<rect x="81" y="30" width="3" height="3" fill="#FFFFFF" />
<rect x="84" y="30" width="3" height="3" fill="#FFFFFF" />
<rect x="87" y="30" width="3" height="3" fill="#FFFFFF" />
<rect x="90" y="30" width="3" height="3" fill="#FFFFFF" />
<rect x="93" y="30" width="3" height="3" fill="#FFFFFF" />
<rect x="96" y="30" width="3" height="3" fill="#FFFFFF" />
<rect x="99" y="30" width="3" height="3" fill="#FFFFFF" />
<rect x="102" y="30" width="3" height="3" fill="#FFFFFF" />
<rect x="105" y="30" width="3" height="3" fill="#FFFFFF" />
<rect x="108" y="30" width="3" height="3" fill="#FFFFFF" />
<rect x="111" y="30" width="3" height="3" fill="#FFFFFF" />
<rect x="114" y="30" width="3" height="3" fill="#FFFFFF" />
<rect x="117" y="30" width="3" height="3" fill="#FFFFFF" />
<rect x="120" y="30" width="3" height="3" fill="#FFFFFF" />
<rect x="123" y="30" width="3" height="3" fill="#FFFFFF" />
<rect x="0" y="33" width="3" height="3" fill="#FFFFFF" />
<rect x="3" y="33" width="3" height="3" fill="#FFFFFF" />
<rect x="6" y="33" width="3" height="3" fill="#FFFFFF" />
<rect x="9" y="33" width="3" height="3" fill="#FFFFFF" />
<rect x="12" y="33" width="3" height="3" fill="#FFFFFF" />
<rect x="15" y="33" width="3" height="3" fill="#FFFFFF" />
<rect x="18" y="33" width="3" height="3" fill="#FFFFFF" />
<rect x="21" y="33" width="3" height="3" fill="#FFFFFF" />
<rect x="24" y="33" width="3" height="3" fill="#FFFFFF" />
<rect x="27" y="33" width="3" height="3" fill="#FFFFFF" />
<rect x="30" y="33" width="3" height="3" fill="#FFFFFF" />
<rect x="33" y="33" width="3" height="3" fill="#FFFFFF" />
<rect x="36" y="33" width="3" height="3" fill="#FFFFFF" />
<rect x="39" y="33" width="3" height="3" fill="#FFFFFF" />
<rect x="42" y="33" width="3" height="3" fill="#FFFFFF" />
<rect x="45" y="33" width="3" height="3" fill="#FFFFFF" />
<rect x="48" y="33" width="3" height="3" fill="#FFFFFF" />
<rect x="51" y="33" width="3" height="3" fill="#FFFFFF" />
<rect x="54" y="33" width="3" height="3" fill="#FFFFFF" />
<rect x="57" y="33" width="3" height="3" fill="#FFFFFF" />
<rect x="60" y="33" width="3" height="3" fill="#FFFFFF" />
<rect x="63" y="33" width="3" height="3" fill="#FFFFFF" />
<rect x="66" y="33" width="3" height="3" fill="#FFFFFF" />
<rect x="69" y="33" width="3" height="3" fill="#FFFFFF" />
<rect x="72" y="33" width="3" height="3" fill="#FFFFFF" />
<rect x="75" y="33" width="3" height="3" fill="#FFFFFF" />
<rect x="78" y="33" width="3" height="3" fill="#FFFFFF" />
<rect x="81" y="33" width="3" height="3" fill="#FFFFFF" />
<rect x="84" y="33" width="3" height="3" fill="#FFFFFF" />
<rect x="87" y="33" width="3" height="3" fill="#FFFFFF" />
<rect x="90" y="33" width="3" height="3" fill="#FFFFFF" />
<rect x="93" y="33" width="3" height="3" fill="#FFFFFF" />
<rect x="96" y="33" width="3" height="3" fill="#FFFFFF" />
<rect x="99" y="33" width="3" height="3" fill="#FFFFFF" />
<rect x="102" y="33" width="3" height="3" fill="#FFFFFF" />
<rect x="105" y="33" width="3" height="3" fill="#FFFFFF" />
<rect x="108" y="33" width="3" height="3" fill="#FFFFFF" />
<rect x="111" y="33" width="3" height="3" fill="#FFFFFF" />
<rect x="114" y="33" width="3" height="3" fill="#FFFFFF" />
<rect x="117" y="33" width="3" height="3" fill="#FFFFFF" />
<rect x="120" y="33" width="3" height="3" fill="#FFFFFF" />
<rect x="123" y="33" width="3" height="3" fill="#FFFFFF" />
<rect x="0" y="36" width="3" height="3" fill="#FFFFFF" />
<rect x="3" y="36" width="3" height="3" fill="#FFFFFF" />
<rect x="6" y="36" width="3" height="3" fill="#FF62A1" />
<rect x="9" y="36" width="3" height="3" fill="#FF62A1" />
<rect x="12" y="36" width="3" height="3" fill="#FF62A1" />
<rect x="15" y="36" width="3" height="3" fill="#FF62A1" />
<rect x="18" y="36" width="3" height="3" fill="#FF62A1" />
<rect x="21" y="36" width="3" height="3" fill="#FF62A1" />
<rect x="24" y="36" width="3" height="3" fill="#FF62A1" />
<rect x="27" y="36" width="3" height="3" fill="#FF62A1" />
<rect x="30" y="36" width="3" height="3" fill="#FF62A1" />
<rect x="33" y="36" width="3" height="3" fill="#FF62A1" />
<rect x="36" y="36" width="3" height="3" fill="#FF62A1" />
<rect x="39" y="36" width="3" height="3" fill="#FF62A1" />
<rect x="42" y="36" width="3" height="3" fill="#FF62A1" />
<rect x="45" y="36" width="3" height="3" fill="#FF62A1" />
<rect x="48" y="36" width="3" height="3" fill="#FF62A1" />
<rect x="51" y="36" width="3" height="3" fill="#FF62A1" />
<rect x="54" y="36" width="3" height="3" fill="#FF62A1" />
<rect x="57" y="36" width="3" height="3" fill="#FF62A1" />
<rect x="60" y="36" width="3" height="3" fill="#FF62A1" />
<rect x="63" y="36" width="3" height="3" fill="#FF62A1" />
<rect x="66" y="36" width="3" height="3" fill="#FF62A1" />
<rect x="69" y="36" width="3" height="3" fill="#FF62A1" />
<rect x="72" y="36" width="3" height="3" fill="#FF62A1" />
<rect x="75" y="36" width="3" height="3" fill="#FF62A1" />
<rect x="78" y="36" width="3" height="3" fill="#FF62A1" />
<rect x="81" y="36" width="3" height="3" fill="#FF62A1" />
<rect x="84" y="36" width="3" height="3" fill="#FF62A1" />
<rect x="87" y="36" width="3" height="3" fill="#FF62A1" />
<rect x="90" y="36" width="3" height="3" fill="#FF62A1" />
<rect x="93" y="36" width="3" height="3" fill="#FF62A1" />
<rect x="96" y="36" width="3" height="3" fill="#FF62A1" />
<rect x="99" y="36" width="3" height="3" fill="#FF62A1" />
<rect x="102" y="36" width="3" height="3" fill="#FF62A1" />
<rect x="105" y="36" width="3" height="3" fill="#FF62A1" />
<rect x="108" y="36" width="3" height="3" fill="#FF62A1" />
<rect x="111" y="36" width="3" height="3" fill="#FF62A1" />
<rect x="114" y="36" width="3" height="3" fill="#FF62A1" />
<rect x="117" y="36" width="3" height="3" fill="#FF62A1" />
<rect x="120" y="36" width="3" height="3" fill="#FFFFFF" />
<rect x="123" y="36" width="3" height="3" fill="#FFFFFF" />
<rect x="0" y="39" width="3" height="3" fill="#FFFFFF" />
<rect x="3" y="39" width="3" height="3" fill="#FFFFFF" />
<rect x="6" y="39" width="3" height="3" fill="#FF62A1" />
<rect x="9" y="39" width="3" height="3" fill="#FF62A1" />
<rect x="12" y="39" width="3" height="3" fill="#FF62A1" />
<rect x="15" y="39" width="3" height="3" fill="#FF62A1" />
<rect x="18" y="39" width="3" height="3" fill="#FF62A1" />
<rect x="21" y="39" width="3" height="3" fill="#FF62A1" />
<rect x="24" y="39" width="3" height="3" fill="#FF62A1" />
<rect x="27" y="39" width="3" height="3" fill="#FF62A1" />
<rect x="30" y="39" width="3" height="3" fill="#FF62A1" />
<rect x="33" y="39" width="3" height="3" fill="#FF62A1" />
<rect x="36" y="39" width="3" height="3" fill="#FF62A1" />
<rect x="39" y="39" width="3" height="3" fill="#FF62A1" />
<rect x="42" y="39" width="3" height="3" fill="#FF62A1" />
<rect x="45" y="39" width="3" height="3" fill="#FF62A1" />
<rect x="48" y="39" width="3" height="3" fill="#FF62A1" />
<rect x="51" y="39" width="3" height="3" fill="#FF62A1" />
<rect x="54" y="39" width="3" height="3" fill="#FF62A1" />
<rect x="57" y="39" width="3" height="3" fill="#FF62A1" />
<rect x="60" y="39" width="3" height="3" fill="#FF62A1" />
<rect x="63" y="39" width="3" height="3" fill="#FF62A1" />
<rect x="66" y="39" width="3" height="3" fill="#FF62A1" />
<rect x="69" y="39" width="3" height="3" fill="#FF62A1" />
<rect x="72" y="39" width="3" height="3" fill="#FF62A1" />
<rect x="75" y="39" width="3" height="3" fill="#FF62A1" />
<rect x="78" y="39" width="3" height="3" fill="#FF62A1" />
<rect x="81" y="39" width="3" height="3" fill="#FF62A1" />
<rect x="84" y="39" width="3" height="3" fill="#FF62A1" />
<rect x="87" y="39" width="3" height="3" fill="#FF62A1" />
<rect x="90" y="39" width="3" height="3" fill="#FF62A1" />
<rect x="93" y="39" width="3" height="3" fill="#FF62A1" />
<rect x="96" y="39" width="3" height="3" fill="#FF62A1" />
<rect x="99" y="39" width="3" height="3" fill="#FF62A1" />
<rect x="102" y="39" width="3" height="3" fill="#FF62A1" />
<rect x="105" y="39" width="3" height="3" fill="#FF62A1" />
<rect x="108" y="39" width="3" height="3" fill="#FF62A1" />
<rect x="111" y="39" width="3" height="3" fill="#FF62A1" />
<rect x="114" y="39" width="3" height="3" fill="#FF62A1" />
<rect x="117" y="39" width="3" height="3" fill="#FF62A1" />
<rect x="120" y="39" width="3" height="3" fill="#FFFFFF" />
<rect x="123" y="39" width="3" height="3" fill="#FFFFFF" />
<rect x="0" y="42" width="3" height="3" fill="#FFFFFF" />
<rect x="3" y="42" width="3" height="3" fill="#FFFFFF" />
<rect x="6" y="42" width="3" height="3" fill="#FF62A1" />
<rect x="9" y="42" width="3" height="3" fill="#FF62A1" />
<rect x="12" y="42" width="3" height="3" fill="#FFADCD" />
<rect x="15" y="42" width="3" height="3" fill="#FFADCD" />
<rect x="18" y="42" width="3" height="3" fill="#FFADCD" />
<rect x="21" y="42" width="3" height="3" fill="#FFADCD" />
<rect x="24" y="42" width="3" height="3" fill="#FFADCD" />
<rect x="27" y="42" width="3" height="3" fill="#FFADCD" />
<rect x="30" y="42" width="3" height="3" fill="#FFADCD" />
<rect x="33" y="42" width="3" height="3" fill="#FFADCD" />
<rect x="36" y="42" width="3" height="3" fill="#FFADCD" />
<rect x="39" y="42" width="3" height="3" fill="#FFADCD" />
<rect x="42" y="42" width="3" height="3" fill="#FFADCD" />
<rect x="45" y="42" width="3" height="3" fill="#FFADCD" />
<rect x="48" y="42" width="3" height="3" fill="#FFADCD" />
<rect x="51" y="42" width="3" height="3" fill="#FFADCD" />
<rect x="54" y="42" width="3" height="3" fill="#FFADCD" />
<rect x="57" y="42" width="3" height="3" fill="#FFADCD" />
<rect x="60" y="42" width="3" height="3" fill="#FF62A1" />
<rect x="63" y="42" width="3" height="3" fill="#FF62A1" />
<rect x="66" y="42" width="3" height="3" fill="#FFADCD" />
<rect x="69" y="42" width="3" height="3" fill="#FFADCD" />
<rect x="72" y="42" width="3" height="3" fill="#FFADCD" />
<rect x="75" y="42" width="3" height="3" fill="#FFADCD" />
<rect x="78" y="42" width="3" height="3" fill="#FFADCD" />
<rect x="81" y="42" width="3" height="3" fill="#FFADCD" />
<rect x="84" y="42" width="3" height="3" fill="#FFADCD" />
<rect x="87" y="42" width="3" height="3" fill="#FFADCD" />
<rect x="90" y="42" width="3" height="3" fill="#FFADCD" />
<rect x="93" y="42" width="3" height="3" fill="#FFADCD" />
<rect x="96" y="42" width="3" height="3" fill="#FFADCD" />
<rect x="99" y="42" width="3" height="3" fill="#FFADCD" />
<rect x="102" y="42" width="3" height="3" fill="#FFADCD" />
<rect x="105" y="42" width="3" height="3" fill="#FFADCD" />
<rect x="108" y="42" width="3" height="3" fill="#FFADCD" />
<rect x="111" y="42" width="3" height="3" fill="#FFADCD" />
<rect x="114" y="42" width="3" height="3" fill="#FF62A1" />
<rect x="117" y="42" width="3" height="3" fill="#FF62A1" />
<rect x="120" y="42" width="3" height="3" fill="#FFFFFF" />
<rect x="123" y="42" width="3" height="3" fill="#FFFFFF" />
<rect x="0" y="45" width="3" height="3" fill="#FFFFFF" />
<rect x="3" y="45" width="3" height="3" fill="#FFFFFF" />
<rect x="6" y="45" width="3" height="3" fill="#FF62A1" />
<rect x="9" y="45" width="3" height="3" fill="#FF62A1" />
<rect x="12" y="45" width="3" height="3" fill="#FFADCD" />
<rect x="15" y="45" width="3" height="3" fill="#FFADCD" />
<rect x="18" y="45" width="3" height="3" fill="#FFADCD" />
<rect x="21" y="45" width="3" height="3" fill="#FFADCD" />
<rect x="24" y="45" width="3" height="3" fill="#FFADCD" />
<rect x="27" y="45" width="3" height="3" fill="#FFADCD" />
<rect x="30" y="45" width="3" height="3" fill="#FFADCD" />
<rect x="33" y="45" width="3" height="3" fill="#FFADCD" />
<rect x="36" y="45" width="3" height="3" fill="#FFADCD" />
<rect x="39" y="45" width="3" height="3" fill="#FFADCD" />
<rect x="42" y="45" width="3" height="3" fill="#FFADCD" />
<rect x="45" y="45" width="3" height="3" fill="#FFADCD" />
<rect x="48" y="45" width="3" height="3" fill="#FFADCD" />
<rect x="51" y="45" width="3" height="3" fill="#FFADCD" />
<rect x="54" y="45" width="3" height="3" fill="#FFADCD" />
<rect x="57" y="45" width="3" height="3" fill="#FFADCD" />
<rect x="60" y="45" width="3" height="3" fill="#FF62A1" />
<rect x="63" y="45" width="3" height="3" fill="#FF62A1" />
<rect x="66" y="45" width="3" height="3" fill="#FFADCD" />
<rect x="69" y="45" width="3" height="3" fill="#FFADCD" />
<rect x="72" y="45" width="3" height="3" fill="#FFADCD" />
<rect x="75" y="45" width="3" height="3" fill="#FFADCD" />
<rect x="78" y="45" width="3" height="3" fill="#FFADCD" />
<rect x="81" y="45" width="3" height="3" fill="#FFADCD" />
<rect x="84" y="45" width="3" height="3" fill="#FFADCD" />
<rect x="87" y="45" width="3" height="3" fill="#FFADCD" />
<rect x="90" y="45" width="3" height="3" fill="#FFADCD" />
<rect x="93" y="45" width="3" height="3" fill="#FFADCD" />
<rect x="96" y="45" width="3" height="3" fill="#FFADCD" />
<rect x="99" y="45" width="3" height="3" fill="#FFADCD" />
<rect x="102" y="45" width="3" height="3" fill="#FFADCD" />
<rect x="105" y="45" width="3" height="3" fill="#FFADCD" />
<rect x="108" y="45" width="3" height="3" fill="#FFADCD" />
<rect x="111" y="45" width="3" height="3" fill="#FFADCD" />
<rect x="114" y="45" width="3" height="3" fill="#FF62A1" />
<rect x="117" y="45" width="3" height="3" fill="#FF62A1" />
<rect x="120" y="45" width="3" height="3" fill="#FFFFFF" />
<rect x="123" y="45" width="3" height="3" fill="#FFFFFF" />
<rect x="0" y="48" width="3" height="3" fill="#FFFFFF" />
<rect x="3" y="48" width="3" height="3" fill="#FFFFFF" />
<rect x="6" y="48" width="3" height="3" fill="#FF62A1" />
<rect x="9" y="48" width="3" height="3" fill="#FF62A1" />
<rect x="12" y="48" width="3" height="3" fill="#FF62A1" />
<rect x="15" y="48" width="3" height="3" fill="#FF62A1" />
<rect x="18" y="48" width="3" height="3" fill="#FF62A1" />
<rect x="21" y="48" width="3" height="3" fill="#FF62A1" />
<rect x="24" y="48" width="3" height="3" fill="#FF62A1" />
<rect x="27" y="48" width="3" height="3" fill="#FF62A1" />
<rect x="30" y="48" width="3" height="3" fill="#FF62A1" />
<rect x="33" y="48" width="3" height="3" fill="#FF62A1" />
<rect x="36" y="48" width="3" height="3" fill="#FF62A1" />
<rect x="39" y="48" width="3" height="3" fill="#FF62A1" />
<rect x="42" y="48" width="3" height="3" fill="#FF62A1" />
<rect x="45" y="48" width="3" height="3" fill="#FF62A1" />
<rect x="48" y="48" width="3" height="3" fill="#FFADCD" />
<rect x="51" y="48" width="3" height="3" fill="#FFADCD" />
<rect x="54" y="48" width="3" height="3" fill="#FFADCD" />
<rect x="57" y="48" width="3" height="3" fill="#FFADCD" />
<rect x="60" y="48" width="3" height="3" fill="#FF62A1" />
<rect x="63" y="48" width="3" height="3" fill="#FF62A1" />
<rect x="66" y="48" width="3" height="3" fill="#FF62A1" />
<rect x="69" y="48" width="3" height="3" fill="#FF62A1" />
<rect x="72" y="48" width="3" height="3" fill="#FF62A1" />
<rect x="75" y="48" width="3" height="3" fill="#FF62A1" />
<rect x="78" y="48" width="3" height="3" fill="#FF62A1" />
<rect x="81" y="48" width="3" height="3" fill="#FF62A1" />
<rect x="84" y="48" width="3" height="3" fill="#FF62A1" />
<rect x="87" y="48" width="3" height="3" fill="#FF62A1" />
<rect x="90" y="48" width="3" height="3" fill="#FF62A1" />
<rect x="93" y="48" width="3" height="3" fill="#FF62A1" />
<rect x="96" y="48" width="3" height="3" fill="#FF62A1" />
<rect x="99" y="48" width="3" height="3" fill="#FF62A1" />
<rect x="102" y="48" width="3" height="3" fill="#FFADCD" />
<rect x="105" y="48" width="3" height="3" fill="#FFADCD" />
<rect x="108" y="48" width="3" height="3" fill="#FFADCD" />
<rect x="111" y="48" width="3" height="3" fill="#FFADCD" />
<rect x="114" y="48" width="3" height="3" fill="#FF62A1" />
<rect x="117" y="48" width="3" height="3" fill="#FF62A1" />
<rect x="120" y="48" width="3" height="3" fill="#FFFFFF" />
<rect x="123" y="48" width="3" height="3" fill="#FFFFFF" />
<rect x="0" y="51" width="3" height="3" fill="#FFFFFF" />
<rect x="3" y="51" width="3" height="3" fill="#FFFFFF" />
<rect x="6" y="51" width="3" height="3" fill="#FF62A1" />
<rect x="9" y="51" width="3" height="3" fill="#FF62A1" />
<rect x="12" y="51" width="3" height="3" fill="#FF62A1" />
<rect x="15" y="51" width="3" height="3" fill="#FF62A1" />
<rect x="18" y="51" width="3" height="3" fill="#FF62A1" />
<rect x="21" y="51" width="3" height="3" fill="#FF62A1" />
<rect x="24" y="51" width="3" height="3" fill="#FF62A1" />
<rect x="27" y="51" width="3" height="3" fill="#FF62A1" />
<rect x="30" y="51" width="3" height="3" fill="#FF62A1" />
<rect x="33" y="51" width="3" height="3" fill="#FF62A1" />
<rect x="36" y="51" width="3" height="3" fill="#FF62A1" />
<rect x="39" y="51" width="3" height="3" fill="#FF62A1" />
<rect x="42" y="51" width="3" height="3" fill="#FF62A1" />
<rect x="45" y="51" width="3" height="3" fill="#FF62A1" />
<rect x="48" y="51" width="3" height="3" fill="#FFADCD" />
<rect x="51" y="51" width="3" height="3" fill="#FFADCD" />
<rect x="54" y="51" width="3" height="3" fill="#FFADCD" />
<rect x="57" y="51" width="3" height="3" fill="#FFADCD" />
<rect x="60" y="51" width="3" height="3" fill="#FF62A1" />
<rect x="63" y="51" width="3" height="3" fill="#FF62A1" />
<rect x="66" y="51" width="3" height="3" fill="#FF62A1" />
<rect x="69" y="51" width="3" height="3" fill="#FF62A1" />
<rect x="72" y="51" width="3" height="3" fill="#FF62A1" />
<rect x="75" y="51" width="3" height="3" fill="#FF62A1" />
<rect x="78" y="51" width="3" height="3" fill="#FF62A1" />
<rect x="81" y="51" width="3" height="3" fill="#FF62A1" />
<rect x="84" y="51" width="3" height="3" fill="#FF62A1" />
<rect x="87" y="51" width="3" height="3" fill="#FF62A1" />
<rect x="90" y="51" width="3" height="3" fill="#FF62A1" />
<rect x="93" y="51" width="3" height="3" fill="#FF62A1" />
<rect x="96" y="51" width="3" height="3" fill="#FF62A1" />
<rect x="99" y="51" width="3" height="3" fill="#FF62A1" />
<rect x="102" y="51" width="3" height="3" fill="#FFADCD" />
<rect x="105" y="51" width="3" height="3" fill="#FFADCD" />
<rect x="108" y="51" width="3" height="3" fill="#FFADCD" />
<rect x="111" y="51" width="3" height="3" fill="#FFADCD" />
<rect x="114" y="51" width="3" height="3" fill="#FF62A1" />
<rect x="117" y="51" width="3" height="3" fill="#FF62A1" />
<rect x="120" y="51" width="3" height="3" fill="#FFFFFF" />
<rect x="123" y="51" width="3" height="3" fill="#FFFFFF" />
<rect x="0" y="54" width="3" height="3" fill="#FFFFFF" />
<rect x="3" y="54" width="3" height="3" fill="#FFFFFF" />
<rect x="6" y="54" width="3" height="3" fill="#FF62A1" />
<rect x="9" y="54" width="3" height="3" fill="#FF62A1" />
<rect x="12" y="54" width="3" height="3" fill="#FF62A1" />
<rect x="15" y="54" width="3" height="3" fill="#FF62A1" />
<rect x="18" y="54" width="3" height="3" fill="#FF62A1" />
<rect x="21" y="54" width="3" height="3" fill="#FF62A1" />
<rect x="24" y="54" width="3" height="3" fill="#FF62A1" />
<rect x="27" y="54" width="3" height="3" fill="#FF62A1" />
<rect x="30" y="54" width="3" height="3" fill="#FF62A1" />
<rect x="33" y="54" width="3" height="3" fill="#FF62A1" />
<rect x="36" y="54" width="3" height="3" fill="#FF62A1" />
<rect x="39" y="54" width="3" height="3" fill="#FF62A1" />
<rect x="42" y="54" width="3" height="3" fill="#FF62A1" />
<rect x="45" y="54" width="3" height="3" fill="#FF62A1" />
<rect x="48" y="54" width="3" height="3" fill="#FFADCD" />
<rect x="51" y="54" width="3" height="3" fill="#FFADCD" />
<rect x="54" y="54" width="3" height="3" fill="#FFADCD" />
<rect x="57" y="54" width="3" height="3" fill="#FFADCD" />
<rect x="60" y="54" width="3" height="3" fill="#FF62A1" />
<rect x="63" y="54" width="3" height="3" fill="#FF62A1" />
<rect x="66" y="54" width="3" height="3" fill="#FF62A1" />
<rect x="69" y="54" width="3" height="3" fill="#FF62A1" />
<rect x="72" y="54" width="3" height="3" fill="#FF62A1" />
<rect x="75" y="54" width="3" height="3" fill="#FF62A1" />
<rect x="78" y="54" width="3" height="3" fill="#FF62A1" />
<rect x="81" y="54" width="3" height="3" fill="#FF62A1" />
<rect x="84" y="54" width="3" height="3" fill="#FF62A1" />
<rect x="87" y="54" width="3" height="3" fill="#FF62A1" />
<rect x="90" y="54" width="3" height="3" fill="#FF62A1" />
<rect x="93" y="54" width="3" height="3" fill="#FF62A1" />
<rect x="96" y="54" width="3" height="3" fill="#FF62A1" />
<rect x="99" y="54" width="3" height="3" fill="#FF62A1" />
<rect x="102" y="54" width="3" height="3" fill="#FFADCD" />
<rect x="105" y="54" width="3" height="3" fill="#FFADCD" />
<rect x="108" y="54" width="3" height="3" fill="#FFADCD" />
<rect x="111" y="54" width="3" height="3" fill="#FFADCD" />
<rect x="114" y="54" width="3" height="3" fill="#FF62A1" />
<rect x="117" y="54" width="3" height="3" fill="#FF62A1" />
<rect x="120" y="54" width="3" height="3" fill="#FFFFFF" />
<rect x="123" y="54" width="3" height="3" fill="#FFFFFF" />
<rect x="0" y="57" width="3" height="3" fill="#FFFFFF" />
<rect x="3" y="57" width="3" height="3" fill="#FFFFFF" />
<rect x="6" y="57" width="3" height="3" fill="#FF62A1" />
<rect x="9" y="57" width="3" height="3" fill="#FF62A1" />
<rect x="12" y="57" width="3" height="3" fill="#FF62A1" />
<rect x="15" y="57" width="3" height="3" fill="#FF62A1" />
<rect x="18" y="57" width="3" height="3" fill="#FF62A1" />
<rect x="21" y="57" width="3" height="3" fill="#FF62A1" />
<rect x="24" y="57" width="3" height="3" fill="#FF62A1" />
<rect x="27" y="57" width="3" height="3" fill="#FF62A1" />
<rect x="30" y="57" width="3" height="3" fill="#FF62A1" />
<rect x="33" y="57" width="3" height="3" fill="#FF62A1" />
<rect x="36" y="57" width="3" height="3" fill="#FF62A1" />
<rect x="39" y="57" width="3" height="3" fill="#FF62A1" />
<rect x="42" y="57" width="3" height="3" fill="#FF62A1" />
<rect x="45" y="57" width="3" height="3" fill="#FF62A1" />
<rect x="48" y="57" width="3" height="3" fill="#FFADCD" />
<rect x="51" y="57" width="3" height="3" fill="#FFADCD" />
<rect x="54" y="57" width="3" height="3" fill="#FFADCD" />
<rect x="57" y="57" width="3" height="3" fill="#FFADCD" />
<rect x="60" y="57" width="3" height="3" fill="#FF62A1" />
<rect x="63" y="57" width="3" height="3" fill="#FF62A1" />
<rect x="66" y="57" width="3" height="3" fill="#FF62A1" />
<rect x="69" y="57" width="3" height="3" fill="#FF62A1" />
<rect x="72" y="57" width="3" height="3" fill="#FF62A1" />
<rect x="75" y="57" width="3" height="3" fill="#FF62A1" />
<rect x="78" y="57" width="3" height="3" fill="#FF62A1" />
<rect x="81" y="57" width="3" height="3" fill="#FF62A1" />
<rect x="84" y="57" width="3" height="3" fill="#FF62A1" />
<rect x="87" y="57" width="3" height="3" fill="#FF62A1" />
<rect x="90" y="57" width="3" height="3" fill="#FF62A1" />
<rect x="93" y="57" width="3" height="3" fill="#FF62A1" />
<rect x="96" y="57" width="3" height="3" fill="#FF62A1" />
<rect x="99" y="57" width="3" height="3" fill="#FF62A1" />
<rect x="102" y="57" width="3" height="3" fill="#FFADCD" />
<rect x="105" y="57" width="3" height="3" fill="#FFADCD" />
<rect x="108" y="57" width="3" height="3" fill="#FFADCD" />
<rect x="111" y="57" width="3" height="3" fill="#FFADCD" />
<rect x="114" y="57" width="3" height="3" fill="#FF62A1" />
<rect x="117" y="57" width="3" height="3" fill="#FF62A1" />
<rect x="120" y="57" width="3" height="3" fill="#FFFFFF" />
<rect x="123" y="57" width="3" height="3" fill="#FFFFFF" />
<rect x="0" y="60" width="3" height="3" fill="#FFFFFF" />
<rect x="3" y="60" width="3" height="3" fill="#FFFFFF" />
<rect x="6" y="60" width="3" height="3" fill="#FF62A1" />
<rect x="9" y="60" width="3" height="3" fill="#FF62A1" />
<rect x="12" y="60" width="3" height="3" fill="#FFADCD" />
<rect x="15" y="60" width="3" height="3" fill="#FFADCD" />
<rect x="18" y="60" width="3" height="3" fill="#FFADCD" />
<rect x="21" y="60" width="3" height="3" fill="#FFADCD" />
<rect x="24" y="60" width="3" height="3" fill="#FFADCD" />
<rect x="27" y="60" width="3" height="3" fill="#FFADCD" />
<rect x="30" y="60" width="3" height="3" fill="#FFADCD" />
<rect x="33" y="60" width="3" height="3" fill="#FFADCD" />
<rect x="36" y="60" width="3" height="3" fill="#FFADCD" />
<rect x="39" y="60" width="3" height="3" fill="#FFADCD" />
<rect x="42" y="60" width="3" height="3" fill="#FFADCD" />
<rect x="45" y="60" width="3" height="3" fill="#FFADCD" />
<rect x="48" y="60" width="3" height="3" fill="#FFADCD" />
<rect x="51" y="60" width="3" height="3" fill="#FFADCD" />
<rect x="54" y="60" width="3" height="3" fill="#FFADCD" />
<rect x="57" y="60" width="3" height="3" fill="#FFADCD" />
<rect x="60" y="60" width="3" height="3" fill="#FF62A1" />
<rect x="63" y="60" width="3" height="3" fill="#FF62A1" />
<rect x="66" y="60" width="3" height="3" fill="#FFADCD" />
<rect x="69" y="60" width="3" height="3" fill="#FFADCD" />
<rect x="72" y="60" width="3" height="3" fill="#FFADCD" />
<rect x="75" y="60" width="3" height="3" fill="#FFADCD" />
<rect x="78" y="60" width="3" height="3" fill="#FFADCD" />
<rect x="81" y="60" width="3" height="3" fill="#FFADCD" />
<rect x="84" y="60" width="3" height="3" fill="#FFADCD" />
<rect x="87" y="60" width="3" height="3" fill="#FFADCD" />
<rect x="90" y="60" width="3" height="3" fill="#FFADCD" />
<rect x="93" y="60" width="3" height="3" fill="#FFADCD" />
<rect x="96" y="60" width="3" height="3" fill="#FFADCD" />
<rect x="99" y="60" width="3" height="3" fill="#FFADCD" />
<rect x="102" y="60" width="3" height="3" fill="#FFADCD" />
<rect x="105" y="60" width="3" height="3" fill="#FFADCD" />
<rect x="108" y="60" width="3" height="3" fill="#FFADCD" />
<rect x="111" y="60" width="3" height="3" fill="#FFADCD" />
<rect x="114" y="60" width="3" height="3" fill="#FF62A1" />
<rect x="117" y="60" width="3" height="3" fill="#FF62A1" />
<rect x="120" y="60" width="3" height="3" fill="#FFFFFF" />
<rect x="123" y="60" width="3" height="3" fill="#FFFFFF" />
<rect x="0" y="63" width="3" height="3" fill="#FFFFFF" />
<rect x="3" y="63" width="3" height="3" fill="#FFFFFF" />
<rect x="6" y="63" width="3" height="3" fill="#FF62A1" />
<rect x="9" y="63" width="3" height="3" fill="#FF62A1" />
<rect x="12" y="63" width="3" height="3" fill="#FFADCD" />
<rect x="15" y="63" width="3" height="3" fill="#FFADCD" />
<rect x="18" y="63" width="3" height="3" fill="#FFADCD" />
<rect x="21" y="63" width="3" height="3" fill="#FFADCD" />
<rect x="24" y="63" width="3" height="3" fill="#FFADCD" />
<rect x="27" y="63" width="3" height="3" fill="#FFADCD" />
<rect x="30" y="63" width="3" height="3" fill="#FFADCD" />
<rect x="33" y="63" width="3" height="3" fill="#FFADCD" />
<rect x="36" y="63" width="3" height="3" fill="#FFADCD" />
<rect x="39" y="63" width="3" height="3" fill="#FFADCD" />
<rect x="42" y="63" width="3" height="3" fill="#FFADCD" />
<rect x="45" y="63" width="3" height="3" fill="#FFADCD" />
<rect x="48" y="63" width="3" height="3" fill="#FFADCD" />
<rect x="51" y="63" width="3" height="3" fill="#FFADCD" />
<rect x="54" y="63" width="3" height="3" fill="#FFADCD" />
<rect x="57" y="63" width="3" height="3" fill="#FFADCD" />
<rect x="60" y="63" width="3" height="3" fill="#FF62A1" />
<rect x="63" y="63" width="3" height="3" fill="#FF62A1" />
<rect x="66" y="63" width="3" height="3" fill="#FFADCD" />
<rect x="69" y="63" width="3" height="3" fill="#FFADCD" />
<rect x="72" y="63" width="3" height="3" fill="#FFADCD" />
<rect x="75" y="63" width="3" height="3" fill="#FFADCD" />
<rect x="78" y="63" width="3" height="3" fill="#FFADCD" />
<rect x="81" y="63" width="3" height="3" fill="#FFADCD" />
<rect x="84" y="63" width="3" height="3" fill="#FFADCD" />
<rect x="87" y="63" width="3" height="3" fill="#FFADCD" />
<rect x="90" y="63" width="3" height="3" fill="#FFADCD" />
<rect x="93" y="63" width="3" height="3" fill="#FFADCD" />
<rect x="96" y="63" width="3" height="3" fill="#FFADCD" />
<rect x="99" y="63" width="3" height="3" fill="#FFADCD" />
<rect x="102" y="63" width="3" height="3" fill="#FFADCD" />
<rect x="105" y="63" width="3" height="3" fill="#FFADCD" />
<rect x="108" y="63" width="3" height="3" fill="#FFADCD" />
<rect x="111" y="63" width="3" height="3" fill="#FFADCD" />
<rect x="114" y="63" width="3" height="3" fill="#FF62A1" />
<rect x="117" y="63" width="3" height="3" fill="#FF62A1" />
<rect x="120" y="63" width="3" height="3" fill="#FFFFFF" />
<rect x="123" y="63" width="3" height="3" fill="#FFFFFF" />
<rect x="0" y="66" width="3" height="3" fill="#FFFFFF" />
<rect x="3" y="66" width="3" height="3" fill="#FFFFFF" />
<rect x="6" y="66" width="3" height="3" fill="#FF62A1" />
<rect x="9" y="66" width="3" height="3" fill="#FF62A1" />
<rect x="12" y="66" width="3" height="3" fill="#FF62A1" />
<rect x="15" y="66" width="3" height="3" fill="#FF62A1" />
<rect x="18" y="66" width="3" height="3" fill="#FF62A1" />
<rect x="21" y="66" width="3" height="3" fill="#FF62A1" />
<rect x="24" y="66" width="3" height="3" fill="#FF62A1" />
<rect x="27" y="66" width="3" height="3" fill="#FF62A1" />
<rect x="30" y="66" width="3" height="3" fill="#FF62A1" />
<rect x="33" y="66" width="3" height="3" fill="#FF62A1" />
<rect x="36" y="66" width="3" height="3" fill="#FF62A1" />
<rect x="39" y="66" width="3" height="3" fill="#FF62A1" />
<rect x="42" y="66" width="3" height="3" fill="#FF62A1" />
<rect x="45" y="66" width="3" height="3" fill="#FF62A1" />
<rect x="48" y="66" width="3" height="3" fill="#FFADCD" />
<rect x="51" y="66" width="3" height="3" fill="#FFADCD" />
<rect x="54" y="66" width="3" height="3" fill="#FFADCD" />
<rect x="57" y="66" width="3" height="3" fill="#FFADCD" />
<rect x="60" y="66" width="3" height="3" fill="#FF62A1" />
<rect x="63" y="66" width="3" height="3" fill="#FF62A1" />
<rect x="66" y="66" width="3" height="3" fill="#FF62A1" />
<rect x="69" y="66" width="3" height="3" fill="#FF62A1" />
<rect x="72" y="66" width="3" height="3" fill="#FF62A1" />
<rect x="75" y="66" width="3" height="3" fill="#FF62A1" />
<rect x="78" y="66" width="3" height="3" fill="#FF62A1" />
<rect x="81" y="66" width="3" height="3" fill="#FF62A1" />
<rect x="84" y="66" width="3" height="3" fill="#FF62A1" />
<rect x="87" y="66" width="3" height="3" fill="#FF62A1" />
<rect x="90" y="66" width="3" height="3" fill="#FF62A1" />
<rect x="93" y="66" width="3" height="3" fill="#FF62A1" />
<rect x="96" y="66" width="3" height="3" fill="#FF62A1" />
<rect x="99" y="66" width="3" height="3" fill="#FF62A1" />
<rect x="102" y="66" width="3" height="3" fill="#FFADCD" />
<rect x="105" y="66" width="3" height="3" fill="#FFADCD" />
<rect x="108" y="66" width="3" height="3" fill="#FFADCD" />
<rect x="111" y="66" width="3" height="3" fill="#FFADCD" />
<rect x="114" y="66" width="3" height="3" fill="#FF62A1" />
<rect x="117" y="66" width="3" height="3" fill="#FF62A1" />
<rect x="120" y="66" width="3" height="3" fill="#FFFFFF" />
<rect x="123" y="66" width="3" height="3" fill="#FFFFFF" />
<rect x="0" y="69" width="3" height="3" fill="#FFFFFF" />
<rect x="3" y="69" width="3" height="3" fill="#FFFFFF" />
<rect x="6" y="69" width="3" height="3" fill="#FF62A1" />
<rect x="9" y="69" width="3" height="3" fill="#FF62A1" />
<rect x="12" y="69" width="3" height="3" fill="#FF62A1" />
<rect x="15" y="69" width="3" height="3" fill="#FF62A1" />
<rect x="18" y="69" width="3" height="3" fill="#FF62A1" />
<rect x="21" y="69" width="3" height="3" fill="#FF62A1" />
<rect x="24" y="69" width="3" height="3" fill="#FF62A1" />
<rect x="27" y="69" width="3" height="3" fill="#FF62A1" />
<rect x="30" y="69" width="3" height="3" fill="#FF62A1" />
<rect x="33" y="69" width="3" height="3" fill="#FF62A1" />
<rect x="36" y="69" width="3" height="3" fill="#FF62A1" />
<rect x="39" y="69" width="3" height="3" fill="#FF62A1" />
<rect x="42" y="69" width="3" height="3" fill="#FF62A1" />
<rect x="45" y="69" width="3" height="3" fill="#FF62A1" />
<rect x="48" y="69" width="3" height="3" fill="#FFADCD" />
<rect x="51" y="69" width="3" height="3" fill="#FFADCD" />
<rect x="54" y="69" width="3" height="3" fill="#FFADCD" />
<rect x="57" y="69" width="3" height="3" fill="#FFADCD" />
<rect x="60" y="69" width="3" height="3" fill="#FF62A1" />
<rect x="63" y="69" width="3" height="3" fill="#FF62A1" />
<rect x="66" y="69" width="3" height="3" fill="#FF62A1" />
<rect x="69" y="69" width="3" height="3" fill="#FF62A1" />
<rect x="72" y="69" width="3" height="3" fill="#FF62A1" />
<rect x="75" y="69" width="3" height="3" fill="#FF62A1" />
<rect x="78" y="69" width="3" height="3" fill="#FF62A1" />
<rect x="81" y="69" width="3" height="3" fill="#FF62A1" />
<rect x="84" y="69" width="3" height="3" fill="#FF62A1" />
<rect x="87" y="69" width="3" height="3" fill="#FF62A1" />
<rect x="90" y="69" width="3" height="3" fill="#FF62A1" />
<rect x="93" y="69" width="3" height="3" fill="#FF62A1" />
<rect x="96" y="69" width="3" height="3" fill="#FF62A1" />
<rect x="99" y="69" width="3" height="3" fill="#FF62A1" />
<rect x="102" y="69" width="3" height="3" fill="#FFADCD" />
<rect x="105" y="69" width="3" height="3" fill="#FFADCD" />
<rect x="108" y="69" width="3" height="3" fill="#FFADCD" />
<rect x="111" y="69" width="3" height="3" fill="#FFADCD" />
<rect x="114" y="69" width="3" height="3" fill="#FF62A1" />
<rect x="117" y="69" width="3" height="3" fill="#FF62A1" />
<rect x="120" y="69" width="3" height="3" fill="#FFFFFF" />
<rect x="123" y="69" width="3" height="3" fill="#FFFFFF" />
<rect x="0" y="72" width="3" height="3" fill="#FFFFFF" />
<rect x="3" y="72" width="3" height="3" fill="#FFFFFF" />
<rect x="6" y="72" width="3" height="3" fill="#FFFFFF" />
<rect x="9" y="72" width="3" height="3" fill="#FFFFFF" />
<rect x="12" y="72" width="3" height="3" fill="#FFFFFF" />
<rect x="15" y="72" width="3" height="3" fill="#FFFFFF" />
<rect x="18" y="72" width="3" height="3" fill="#FFFFFF" />
<rect x="21" y="72" width="3" height="3" fill="#FFFFFF" />
<rect x="24" y="72" width="3" height="3" fill="#FFFFFF" />
<rect x="27" y="72" width="3" height="3" fill="#FFFFFF" />
<rect x="30" y="72" width="3" height="3" fill="#FFFFFF" />
<rect x="33" y="72" width="3" height="3" fill="#FFFFFF" />
<rect x="36" y="72" width="3" height="3" fill="#FF62A1" />
<rect x="39" y="72" width="3" height="3" fill="#FF62A1" />
<rect x="42" y="72" width="3" height="3" fill="#FF62A1" />
<rect x="45" y="72" width="3" height="3" fill="#FF62A1" />
<rect x="48" y="72" width="3" height="3" fill="#FFADCD" />
<rect x="51" y="72" width="3" height="3" fill="#FFADCD" />
<rect x="54" y="72" width="3" height="3" fill="#FFADCD" />
<rect x="57" y="72" width="3" height="3" fill="#FFADCD" />
<rect x="60" y="72" width="3" height="3" fill="#FF62A1" />
<rect x="63" y="72" width="3" height="3" fill="#FF62A1" />
<rect x="66" y="72" width="3" height="3" fill="#FFFFFF" />
<rect x="69" y="72" width="3" height="3" fill="#FFFFFF" />
<rect x="72" y="72" width="3" height="3" fill="#FFFFFF" />
<rect x="75" y="72" width="3" height="3" fill="#FFFFFF" />
<rect x="78" y="72" width="3" height="3" fill="#FFFFFF" />
<rect x="81" y="72" width="3" height="3" fill="#FFFFFF" />
<rect x="84" y="72" width="3" height="3" fill="#FFFFFF" />
<rect x="87" y="72" width="3" height="3" fill="#FFFFFF" />
<rect x="90" y="72" width="3" height="3" fill="#FF62A1" />
<rect x="93" y="72" width="3" height="3" fill="#FF62A1" />
<rect x="96" y="72" width="3" height="3" fill="#FF62A1" />
<rect x="99" y="72" width="3" height="3" fill="#FF62A1" />
<rect x="102" y="72" width="3" height="3" fill="#FFADCD" />
<rect x="105" y="72" width="3" height="3" fill="#FFADCD" />
<rect x="108" y="72" width="3" height="3" fill="#FFADCD" />
<rect x="111" y="72" width="3" height="3" fill="#FFADCD" />
<rect x="114" y="72" width="3" height="3" fill="#FF62A1" />
<rect x="117" y="72" width="3" height="3" fill="#FF62A1" />
<rect x="120" y="72" width="3" height="3" fill="#FFFFFF" />
<rect x="123" y="72" width="3" height="3" fill="#FFFFFF" />
<rect x="0" y="75" width="3" height="3" fill="#FFFFFF" />
<rect x="3" y="75" width="3" height="3" fill="#FFFFFF" />
<rect x="6" y="75" width="3" height="3" fill="#FFFFFF" />
<rect x="9" y="75" width="3" height="3" fill="#FFFFFF" />
<rect x="12" y="75" width="3" height="3" fill="#FFFFFF" />
<rect x="15" y="75" width="3" height="3" fill="#FFFFFF" />
<rect x="18" y="75" width="3" height="3" fill="#FFFFFF" />
<rect x="21" y="75" width="3" height="3" fill="#FFFFFF" />
<rect x="24" y="75" width="3" height="3" fill="#FFFFFF" />
<rect x="27" y="75" width="3" height="3" fill="#FFFFFF" />
<rect x="30" y="75" width="3" height="3" fill="#FFFFFF" />
<rect x="33" y="75" width="3" height="3" fill="#FFFFFF" />
<rect x="36" y="75" width="3" height="3" fill="#FF62A1" />
<rect x="39" y="75" width="3" height="3" fill="#FF62A1" />
<rect x="42" y="75" width="3" height="3" fill="#FF62A1" />
<rect x="45" y="75" width="3" height="3" fill="#FF62A1" />
<rect x="48" y="75" width="3" height="3" fill="#FFADCD" />
<rect x="51" y="75" width="3" height="3" fill="#FFADCD" />
<rect x="54" y="75" width="3" height="3" fill="#FFADCD" />
<rect x="57" y="75" width="3" height="3" fill="#FFADCD" />
<rect x="60" y="75" width="3" height="3" fill="#FF62A1" />
<rect x="63" y="75" width="3" height="3" fill="#FF62A1" />
<rect x="66" y="75" width="3" height="3" fill="#FFFFFF" />
<rect x="69" y="75" width="3" height="3" fill="#FFFFFF" />
<rect x="72" y="75" width="3" height="3" fill="#FFFFFF" />
<rect x="75" y="75" width="3" height="3" fill="#FFFFFF" />
<rect x="78" y="75" width="3" height="3" fill="#FFFFFF" />
<rect x="81" y="75" width="3" height="3" fill="#FFFFFF" />
<rect x="84" y="75" width="3" height="3" fill="#FFFFFF" />
<rect x="87" y="75" width="3" height="3" fill="#FFFFFF" />
<rect x="90" y="75" width="3" height="3" fill="#FF62A1" />
<rect x="93" y="75" width="3" height="3" fill="#FF62A1" />
<rect x="96" y="75" width="3" height="3" fill="#FF62A1" />
<rect x="99" y="75" width="3" height="3" fill="#FF62A1" />
<rect x="102" y="75" width="3" height="3" fill="#FFADCD" />
<rect x="105" y="75" width="3" height="3" fill="#FFADCD" />
<rect x="108" y="75" width="3" height="3" fill="#FFADCD" />
<rect x="111" y="75" width="3" height="3" fill="#FFADCD" />
<rect x="114" y="75" width="3" height="3" fill="#FF62A1" />
<rect x="117" y="75" width="3" height="3" fill="#FF62A1" />
<rect x="120" y="75" width="3" height="3" fill="#FFFFFF" />
<rect x="123" y="75" width="3" height="3" fill="#FFFFFF" />
<rect x="30" y="78" width="3" height="3" fill="#FFFFFF" />
<rect x="33" y="78" width="3" height="3" fill="#FFFFFF" />
<rect x="36" y="78" width="3" height="3" fill="#FF62A1" />
<rect x="39" y="78" width="3" height="3" fill="#FF62A1" />
<rect x="42" y="78" width="3" height="3" fill="#FFADCD" />
<rect x="45" y="78" width="3" height="3" fill="#FFADCD" />
<rect x="48" y="78" width="3" height="3" fill="#FFADCD" />
<rect x="51" y="78" width="3" height="3" fill="#FFADCD" />
<rect x="54" y="78" width="3" height="3" fill="#FF62A1" />
<rect x="57" y="78" width="3" height="3" fill="#FF62A1" />
<rect x="60" y="78" width="3" height="3" fill="#FF62A1" />
<rect x="63" y="78" width="3" height="3" fill="#FF62A1" />
<rect x="66" y="78" width="3" height="3" fill="#FFFFFF" />
<rect x="69" y="78" width="3" height="3" fill="#FFFFFF" />
<rect x="84" y="78" width="3" height="3" fill="#FFFFFF" />
<rect x="87" y="78" width="3" height="3" fill="#FFFFFF" />
<rect x="90" y="78" width="3" height="3" fill="#FF62A1" />
<rect x="93" y="78" width="3" height="3" fill="#FF62A1" />
<rect x="96" y="78" width="3" height="3" fill="#FFADCD" />
<rect x="99" y="78" width="3" height="3" fill="#FFADCD" />
<rect x="102" y="78" width="3" height="3" fill="#FFADCD" />
<rect x="105" y="78" width="3" height="3" fill="#FFADCD" />
<rect x="108" y="78" width="3" height="3" fill="#FF62A1" />
<rect x="111" y="78" width="3" height="3" fill="#FF62A1" />
<rect x="114" y="78" width="3" height="3" fill="#FF62A1" />
<rect x="117" y="78" width="3" height="3" fill="#FF62A1" />
<rect x="120" y="78" width="3" height="3" fill="#FFFFFF" />
<rect x="123" y="78" width="3" height="3" fill="#FFFFFF" />
<rect x="30" y="81" width="3" height="3" fill="#FFFFFF" />
<rect x="33" y="81" width="3" height="3" fill="#FFFFFF" />
<rect x="36" y="81" width="3" height="3" fill="#FF62A1" />
<rect x="39" y="81" width="3" height="3" fill="#FF62A1" />
<rect x="42" y="81" width="3" height="3" fill="#FFADCD" />
<rect x="45" y="81" width="3" height="3" fill="#FFADCD" />
<rect x="48" y="81" width="3" height="3" fill="#FFADCD" />
<rect x="51" y="81" width="3" height="3" fill="#FFADCD" />
<rect x="54" y="81" width="3" height="3" fill="#FF62A1" />
<rect x="57" y="81" width="3" height="3" fill="#FF62A1" />
<rect x="60" y="81" width="3" height="3" fill="#FF62A1" />
<rect x="63" y="81" width="3" height="3" fill="#FF62A1" />
<rect x="66" y="81" width="3" height="3" fill="#FFFFFF" />
<rect x="69" y="81" width="3" height="3" fill="#FFFFFF" />
<rect x="84" y="81" width="3" height="3" fill="#FFFFFF" />
<rect x="87" y="81" width="3" height="3" fill="#FFFFFF" />
<rect x="90" y="81" width="3" height="3" fill="#FF62A1" />
<rect x="93" y="81" width="3" height="3" fill="#FF62A1" />
<rect x="96" y="81" width="3" height="3" fill="#FFADCD" />
<rect x="99" y="81" width="3" height="3" fill="#FFADCD" />
<rect x="102" y="81" width="3" height="3" fill="#FFADCD" />
<rect x="105" y="81" width="3" height="3" fill="#FFADCD" />
<rect x="108" y="81" width="3" height="3" fill="#FF62A1" />
<rect x="111" y="81" width="3" height="3" fill="#FF62A1" />
<rect x="114" y="81" width="3" height="3" fill="#FF62A1" />
<rect x="117" y="81" width="3" height="3" fill="#FF62A1" />
<rect x="120" y="81" width="3" height="3" fill="#FFFFFF" />
<rect x="123" y="81" width="3" height="3" fill="#FFFFFF" />
<rect x="30" y="84" width="3" height="3" fill="#FFFFFF" />
<rect x="33" y="84" width="3" height="3" fill="#FFFFFF" />
<rect x="36" y="84" width="3" height="3" fill="#FF62A1" />
<rect x="39" y="84" width="3" height="3" fill="#FF62A1" />
<rect x="42" y="84" width="3" height="3" fill="#FF62A1" />
<rect x="45" y="84" width="3" height="3" fill="#FF62A1" />
<rect x="48" y="84" width="3" height="3" fill="#FF62A1" />
<rect x="51" y="84" width="3" height="3" fill="#FF62A1" />
<rect x="54" y="84" width="3" height="3" fill="#FF62A1" />
<rect x="57" y="84" width="3" height="3" fill="#FF62A1" />
<rect x="60" y="84" width="3" height="3" fill="#FFFFFF" />
<rect x="63" y="84" width="3" height="3" fill="#FFFFFF" />
<rect x="66" y="84" width="3" height="3" fill="#FFFFFF" />
<rect x="69" y="84" width="3" height="3" fill="#FFFFFF" />
<rect x="84" y="84" width="3" height="3" fill="#FFFFFF" />
<rect x="87" y="84" width="3" height="3" fill="#FFFFFF" />
<rect x="90" y="84" width="3" height="3" fill="#FF62A1" />
<rect x="93" y="84" width="3" height="3" fill="#FF62A1" />
<rect x="96" y="84" width="3" height="3" fill="#FF62A1" />
<rect x="99" y="84" width="3" height="3" fill="#FF62A1" />
<rect x="102" y="84" width="3" height="3" fill="#FF62A1" />
<rect x="105" y="84" width="3" height="3" fill="#FF62A1" />
<rect x="108" y="84" width="3" height="3" fill="#FF62A1" />
<rect x="111" y="84" width="3" height="3" fill="#FF62A1" />
<rect x="114" y="84" width="3" height="3" fill="#FFFFFF" />
<rect x="117" y="84" width="3" height="3" fill="#FFFFFF" />
<rect x="120" y="84" width="3" height="3" fill="#FFFFFF" />
<rect x="123" y="84" width="3" height="3" fill="#FFFFFF" />
<rect x="30" y="87" width="3" height="3" fill="#FFFFFF" />
<rect x="33" y="87" width="3" height="3" fill="#FFFFFF" />
<rect x="36" y="87" width="3" height="3" fill="#FF62A1" />
<rect x="39" y="87" width="3" height="3" fill="#FF62A1" />
<rect x="42" y="87" width="3" height="3" fill="#FF62A1" />
<rect x="45" y="87" width="3" height="3" fill="#FF62A1" />
<rect x="48" y="87" width="3" height="3" fill="#FF62A1" />
<rect x="51" y="87" width="3" height="3" fill="#FF62A1" />
<rect x="54" y="87" width="3" height="3" fill="#FF62A1" />
<rect x="57" y="87" width="3" height="3" fill="#FF62A1" />
<rect x="60" y="87" width="3" height="3" fill="#FFFFFF" />
<rect x="63" y="87" width="3" height="3" fill="#FFFFFF" />
<rect x="66" y="87" width="3" height="3" fill="#FFFFFF" />
<rect x="69" y="87" width="3" height="3" fill="#FFFFFF" />
<rect x="84" y="87" width="3" height="3" fill="#FFFFFF" />
<rect x="87" y="87" width="3" height="3" fill="#FFFFFF" />
<rect x="90" y="87" width="3" height="3" fill="#FF62A1" />
<rect x="93" y="87" width="3" height="3" fill="#FF62A1" />
<rect x="96" y="87" width="3" height="3" fill="#FF62A1" />
<rect x="99" y="87" width="3" height="3" fill="#FF62A1" />
<rect x="102" y="87" width="3" height="3" fill="#FF62A1" />
<rect x="105" y="87" width="3" height="3" fill="#FF62A1" />
<rect x="108" y="87" width="3" height="3" fill="#FF62A1" />
<rect x="111" y="87" width="3" height="3" fill="#FF62A1" />
<rect x="114" y="87" width="3" height="3" fill="#FFFFFF" />
<rect x="117" y="87" width="3" height="3" fill="#FFFFFF" />
<rect x="120" y="87" width="3" height="3" fill="#FFFFFF" />
<rect x="123" y="87" width="3" height="3" fill="#FFFFFF" />
<rect x="30" y="90" width="3" height="3" fill="#FFFFFF" />
<rect x="33" y="90" width="3" height="3" fill="#FFFFFF" />
<rect x="36" y="90" width="3" height="3" fill="#FFFFFF" />
<rect x="39" y="90" width="3" height="3" fill="#FFFFFF" />
<rect x="42" y="90" width="3" height="3" fill="#FFFFFF" />
<rect x="45" y="90" width="3" height="3" fill="#FFFFFF" />
<rect x="48" y="90" width="3" height="3" fill="#FFFFFF" />
<rect x="51" y="90" width="3" height="3" fill="#FFFFFF" />
<rect x="54" y="90" width="3" height="3" fill="#FFFFFF" />
<rect x="57" y="90" width="3" height="3" fill="#FFFFFF" />
<rect x="60" y="90" width="3" height="3" fill="#FFFFFF" />
<rect x="63" y="90" width="3" height="3" fill="#FFFFFF" />
<rect x="84" y="90" width="3" height="3" fill="#FFFFFF" />
<rect x="87" y="90" width="3" height="3" fill="#FFFFFF" />
<rect x="90" y="90" width="3" height="3" fill="#FFFFFF" />
<rect x="93" y="90" width="3" height="3" fill="#FFFFFF" />
<rect x="96" y="90" width="3" height="3" fill="#FFFFFF" />
<rect x="99" y="90" width="3" height="3" fill="#FFFFFF" />
<rect x="102" y="90" width="3" height="3" fill="#FFFFFF" />
<rect x="105" y="90" width="3" height="3" fill="#FFFFFF" />
<rect x="108" y="90" width="3" height="3" fill="#FFFFFF" />
<rect x="111" y="90" width="3" height="3" fill="#FFFFFF" />
<rect x="114" y="90" width="3" height="3" fill="#FFFFFF" />
<rect x="117" y="90" width="3" height="3" fill="#FFFFFF" />
<rect x="30" y="93" width="3" height="3" fill="#FFFFFF" />
<rect x="33" y="93" width="3" height="3" fill="#FFFFFF" />
<rect x="36" y="93" width="3" height="3" fill="#FFFFFF" />
<rect x="39" y="93" width="3" height="3" fill="#FFFFFF" />
<rect x="42" y="93" width="3" height="3" fill="#FFFFFF" />
<rect x="45" y="93" width="3" height="3" fill="#FFFFFF" />
<rect x="48" y="93" width="3" height="3" fill="#FFFFFF" />
<rect x="51" y="93" width="3" height="3" fill="#FFFFFF" />
<rect x="54" y="93" width="3" height="3" fill="#FFFFFF" />
<rect x="57" y="93" width="3" height="3" fill="#FFFFFF" />
<rect x="60" y="93" width="3" height="3" fill="#FFFFFF" />
<rect x="63" y="93" width="3" height="3" fill="#FFFFFF" />
<rect x="84" y="93" width="3" height="3" fill="#FFFFFF" />
<rect x="87" y="93" width="3" height="3" fill="#FFFFFF" />
<rect x="90" y="93" width="3" height="3" fill="#FFFFFF" />
<rect x="93" y="93" width="3" height="3" fill="#FFFFFF" />
<rect x="96" y="93" width="3" height="3" fill="#FFFFFF" />
<rect x="99" y="93" width="3" height="3" fill="#FFFFFF" />
<rect x="102" y="93" width="3" height="3" fill="#FFFFFF" />
<rect x="105" y="93" width="3" height="3" fill="#FFFFFF" />
<rect x="108" y="93" width="3" height="3" fill="#FFFFFF" />
<rect x="111" y="93" width="3" height="3" fill="#FFFFFF" />
<rect x="114" y="93" width="3" height="3" fill="#FFFFFF" />
<rect x="117" y="93" width="3" height="3" fill="#FFFFFF" />
</svg>